<svg width="254" height="36" viewBox="0 0 254 36" fill="none" xmlns="http://www.w3.org/2000/svg">
<path d="M51.6459 22.0244L51.7406 21.9296H52.2139L52.3086 22.0244C52.3559 22.8773 52.4032 23.3985 52.4506 23.588C52.4979 23.7775 52.6872 23.9671 52.9712 24.204C53.2552 24.3935 53.6812 24.583 54.1545 24.7252C54.6278 24.8673 55.1485 24.9147 55.6692 24.9147C56.3791 24.9147 56.9945 24.7726 57.5625 24.5357C58.1304 24.2988 58.5564 23.9197 58.8404 23.3985C59.1244 22.8773 59.3137 22.3561 59.3137 21.7401C59.3137 21.3137 59.2191 20.9346 59.0771 20.6029C58.9351 20.2712 58.6984 20.0343 58.4618 19.8448C58.2251 19.6553 57.8938 19.5131 57.5625 19.4184C57.2311 19.3236 56.7105 19.2288 56.0478 19.0867C55.3852 18.9919 54.8645 18.8971 54.4858 18.8024C54.1072 18.7076 53.7285 18.5655 53.3972 18.4233C53.0185 18.2338 52.7346 18.0443 52.4979 17.76C52.2612 17.4757 52.0719 17.144 51.8826 16.7649C51.6932 16.3859 51.6459 15.9594 51.6459 15.4856C51.6459 14.2537 52.0719 13.2586 52.9239 12.4531C53.7759 11.6476 54.9118 11.2686 56.3791 11.2686C56.9471 11.2686 57.5624 11.3633 58.2251 11.4581C58.8878 11.6002 59.5031 11.7898 60.0711 12.0741L60.1184 12.2162C59.9764 12.8322 59.8817 13.6851 59.8344 14.8222L59.7397 14.917H59.2191L59.1244 14.8696C59.1244 14.0641 59.0771 13.5903 59.0771 13.4008C59.0298 13.2112 58.7458 12.9269 58.1778 12.6426C57.6098 12.3584 56.9945 12.1688 56.3318 12.1688C55.7638 12.1688 55.2432 12.2636 54.7698 12.5005C54.2965 12.7374 53.9179 13.0691 53.6812 13.5429C53.4445 14.0167 53.3025 14.4906 53.3025 15.0118C53.3025 15.3908 53.3972 15.7225 53.5392 16.0542C53.6812 16.3859 53.8705 16.5754 54.1072 16.7649C54.3438 16.9545 54.6278 17.0492 54.9592 17.144C55.2905 17.2388 55.8585 17.3335 56.7105 17.4757C57.8938 17.6178 58.6984 17.8547 59.2664 18.0916C59.7871 18.3286 60.2131 18.7076 60.5444 19.1814C60.8757 19.7026 61.0177 20.3186 61.0177 21.0294C61.0177 22.4508 60.4497 23.588 59.3137 24.5357C58.1778 25.4833 56.8051 25.9571 55.1485 25.9571C53.7759 25.9571 52.5926 25.7202 51.5512 25.2464L51.5039 25.1043C51.5512 24.4883 51.5986 23.5406 51.6459 22.0244Z" fill="white"/>
<path d="M79.9994 11.5049L80.0941 11.5997V12.0735L79.9994 12.1209C79.2894 12.1209 78.8161 12.1683 78.6741 12.2156C78.4848 12.263 78.3901 12.3578 78.2954 12.4999C78.2008 12.6421 78.2008 12.879 78.1534 13.2107C78.1534 13.5897 78.1061 14.5848 78.1061 16.2432V20.7919C78.1061 21.4552 78.1061 22.2134 78.1534 23.0189C78.2008 23.8244 78.2008 24.3456 78.2954 24.4877C78.3901 24.6299 78.4848 24.7246 78.6268 24.772C78.7688 24.8194 79.2421 24.8668 80.0467 24.9142L80.1414 24.9615V25.4354L80.0467 25.5301C78.9581 25.4827 78.0588 25.4354 77.2541 25.4354C76.7335 25.4354 75.7868 25.4827 74.5088 25.5301L74.4142 25.4354V24.9615L74.5088 24.8668C75.2188 24.8668 75.6921 24.8194 75.8341 24.772C76.0235 24.7246 76.1181 24.6299 76.2128 24.4877C76.3075 24.3456 76.3075 24.1087 76.3548 23.777C76.4021 23.4453 76.4021 22.4029 76.4021 20.7919V13.5423L72.9942 20.6497C72.1422 22.4503 71.3849 24.1087 70.7696 25.6723H70.3436C69.9649 24.8194 69.6809 24.156 69.4443 23.6348L64.711 13.8266V20.7445C64.711 21.4079 64.711 22.1186 64.7584 22.9715C64.7584 23.8244 64.8057 24.2982 64.9004 24.4403C64.9477 24.5825 65.0897 24.6772 65.2317 24.7246C65.3737 24.772 65.847 24.8194 66.6517 24.8668L66.7463 24.9615V25.4354L66.6517 25.5301L66.0363 25.4827C65.3737 25.4354 64.8057 25.4354 64.3797 25.4354C64.1904 25.4354 63.3857 25.4827 62.0131 25.5301L61.9184 25.4354V24.9615L62.0131 24.8668C62.7231 24.8668 63.1964 24.8194 63.3384 24.772C63.4804 24.7246 63.6224 24.6299 63.7171 24.4877C63.8117 24.3456 63.8591 24.1087 63.8591 23.777C63.8591 23.4453 63.9064 22.4029 63.9064 20.7445V16.2432C63.9064 15.6272 63.9064 14.9164 63.8591 14.0636C63.8117 13.2107 63.8117 12.6895 63.7171 12.5947C63.6697 12.4526 63.5277 12.3578 63.3857 12.3104C63.2437 12.263 62.7704 12.2156 61.9658 12.1683L61.8711 12.0735V11.5997L61.9658 11.5049C62.4391 11.5523 63.0071 11.5523 63.8117 11.5523C64.5217 11.5523 65.1844 11.5523 65.705 11.5049C66.273 12.7842 66.7937 13.9214 67.3143 14.9638L71.0536 22.6398L74.4142 15.5798C75.3135 13.6845 75.9288 12.3104 76.2601 11.4575C76.8755 11.5049 77.4908 11.5049 78.1061 11.5049C78.6268 11.5523 79.2894 11.5049 79.9994 11.5049Z" fill="white"/>
<path d="M80.9931 25.4833L80.8984 25.3885V24.8673L80.9931 24.7726C81.4664 24.7726 81.7978 24.7252 81.9397 24.6778C82.0817 24.6304 82.2237 24.5356 82.3184 24.4409C82.4131 24.2987 82.6497 23.8723 82.9811 23.1616L84.0224 20.9346L86.7203 14.8696C87.241 13.685 87.7143 12.5005 88.235 11.3159H88.8976L93.1102 21.2189L93.6782 22.5456C93.8202 22.9246 94.0095 23.3511 94.2462 23.7775C94.4828 24.204 94.6248 24.4883 94.6722 24.5356C94.7668 24.6304 94.8615 24.6778 94.9562 24.7252C95.0982 24.7726 95.3348 24.7726 95.7608 24.8199L95.8555 24.9147V25.4359L95.7608 25.5307C95.0508 25.4833 94.4355 25.4359 93.8675 25.4359C92.7789 25.4833 91.6902 25.4833 90.6016 25.5307L90.5069 25.4359V24.9147L90.6016 24.8199C91.3589 24.8199 91.7849 24.7726 91.9742 24.7252C92.1635 24.6778 92.2582 24.583 92.2582 24.3935C92.2582 24.2513 92.2109 24.0618 92.1162 23.8249L90.8856 20.7924H85.1584L84.0697 23.3037C83.8804 23.7775 83.7857 24.1092 83.7857 24.2987C83.7857 24.4409 83.8804 24.583 84.0697 24.6778C84.259 24.7726 84.685 24.8199 85.395 24.8199L85.4897 24.9147V25.4359L85.395 25.5307C84.543 25.4833 83.7857 25.4359 83.1704 25.4359C82.4604 25.3885 81.7504 25.4359 80.9931 25.4833ZM85.4897 19.9395H90.4596L87.9983 13.9693L85.4897 19.9395Z" fill="white"/>
<path d="M96.707 11.5532L96.8017 11.5059C97.985 11.5532 98.9317 11.6006 99.5943 11.6006C100.352 11.6006 101.346 11.6006 102.624 11.5532C103.097 11.5532 103.428 11.5532 103.618 11.5532C105.274 11.5532 106.41 11.8375 106.978 12.4535C107.546 13.0695 107.877 13.7802 107.877 14.5857C107.877 15.1543 107.735 15.6755 107.451 16.1967C107.167 16.7179 106.741 17.1918 106.174 17.5708C105.606 17.9499 104.848 18.2342 103.854 18.4237C104.044 18.6606 104.375 19.1344 104.848 19.7504L106.268 21.5983C106.741 22.2143 107.215 22.8777 107.735 23.541C108.256 24.2044 108.587 24.6308 108.729 24.6782C108.871 24.773 109.013 24.8204 109.108 24.8204C109.203 24.8204 109.392 24.8677 109.629 24.8677L109.723 24.9625V25.4363L109.629 25.5311C109.297 25.4837 108.919 25.4837 108.493 25.4837C108.019 25.4837 107.499 25.4837 106.978 25.5311C106.505 24.9625 105.795 24.0148 104.848 22.6408C103.712 21.0771 102.576 19.6083 101.393 18.2342L101.488 17.9499C101.819 17.9499 102.103 17.9973 102.292 17.9973C103.428 17.9973 104.328 17.713 104.943 17.1918C105.606 16.6232 105.89 15.8651 105.89 14.9174C105.89 14.0645 105.606 13.4012 105.038 12.9273C104.47 12.5009 103.665 12.264 102.671 12.264C101.961 12.264 101.346 12.3587 100.73 12.5483C100.636 12.6904 100.588 13.9224 100.588 16.2441V20.7928V22.7355C100.588 23.4936 100.636 23.9675 100.636 24.157C100.683 24.3939 100.73 24.5361 100.778 24.5834C100.825 24.6782 100.967 24.7256 101.156 24.773C101.346 24.8204 101.772 24.8677 102.482 24.8677L102.576 24.9151V25.3889L102.482 25.4837C102.434 25.4837 101.866 25.4837 100.73 25.4363C100.257 25.4363 99.8783 25.4363 99.6416 25.4363C99.4523 25.4363 98.5057 25.4837 96.8017 25.5311L96.707 25.4363V24.9625L96.8017 24.9151C97.417 24.8677 97.843 24.8677 98.0323 24.8204C98.2217 24.773 98.3637 24.7256 98.4583 24.6782C98.5057 24.6308 98.6003 24.4887 98.6477 24.2991C98.695 24.1096 98.695 23.6358 98.7423 22.9251V20.8402V16.2915V14.3488C98.7423 13.5907 98.695 13.1169 98.695 12.88C98.695 12.643 98.6003 12.5009 98.553 12.4535C98.5057 12.3587 98.3637 12.3114 98.1743 12.264C97.985 12.2166 97.559 12.1692 96.849 12.1692L96.7544 12.1218V11.5532H96.707Z" fill="white"/>
<path d="M121.652 11.4575L121.746 11.5523C121.699 12.1683 121.652 13.1633 121.652 14.6321L121.557 14.7269H121.084L120.989 14.6321L120.894 13.7319C120.847 13.2581 120.8 12.9264 120.752 12.8316C120.705 12.7368 120.658 12.6421 120.61 12.5947C120.563 12.5473 120.326 12.4999 119.948 12.4526C119.569 12.4052 119.19 12.4052 118.717 12.4052H116.871C116.824 13.874 116.776 14.7743 116.776 14.9638V20.6971V22.6398C116.776 23.3979 116.824 23.8717 116.824 24.1087C116.871 24.3456 116.918 24.4877 116.966 24.5351C117.013 24.5825 117.155 24.6772 117.344 24.7246C117.534 24.772 117.96 24.8194 118.67 24.8194L118.717 24.8668V25.3406L118.67 25.4354C116.966 25.388 116.066 25.3406 115.83 25.3406C115.64 25.3406 114.694 25.388 113.037 25.4354L112.942 25.3406V24.8668L113.037 24.8194C113.652 24.772 114.078 24.772 114.268 24.7246C114.457 24.6772 114.599 24.6299 114.694 24.5825C114.741 24.5351 114.836 24.393 114.883 24.2034C114.93 24.0139 114.93 23.5401 114.93 22.8293V20.7445V15.0112C114.93 14.9164 114.883 14.0636 114.836 12.4526H113.368C112.753 12.4526 112.232 12.4526 111.806 12.4999C111.38 12.5473 111.096 12.5947 111.049 12.6895C111.002 12.7842 110.907 13.1633 110.86 13.7319L110.765 14.6321L110.67 14.7269H110.197L110.102 14.6321C110.102 13.0685 110.055 12.0261 110.008 11.5523L110.102 11.4575C111.238 11.5049 113.132 11.5523 115.83 11.5523C118.67 11.5523 120.563 11.5049 121.652 11.4575Z" fill="white"/>
<path d="M134.842 18.5189C136.498 17.0026 137.682 15.9128 138.439 15.1547C139.196 14.3966 139.764 13.828 140.238 13.3542C140.711 12.8804 140.995 12.5487 141.09 12.4539V11.7906L141.184 11.6958C141.705 11.7432 142.226 11.7432 142.841 11.7432C142.983 11.7432 143.504 11.7432 144.403 11.6958L144.498 11.7906V12.2644L144.403 12.3592C143.788 12.3592 143.362 12.4065 143.172 12.4539C142.983 12.5013 142.604 12.7382 142.178 13.0699C141.752 13.4016 141.232 13.8754 140.711 14.3492L136.735 17.9977L142.652 23.4941C143.598 24.3943 144.119 24.8681 144.261 24.9629C144.403 25.0577 144.592 25.1051 144.971 25.1051L145.018 25.1998V25.6263L144.971 25.721C144.592 25.6736 144.214 25.6736 143.788 25.6736C143.551 25.6736 143.03 25.6736 142.178 25.721C141.563 25.1524 141.042 24.6312 140.616 24.2048C140.143 23.7783 138.25 22.0252 134.889 18.8979V20.9828V22.9255C134.889 23.6836 134.936 24.1574 134.936 24.3469C134.984 24.5838 135.031 24.726 135.078 24.7734C135.126 24.8681 135.268 24.9155 135.457 24.9629C135.646 25.0103 136.072 25.0577 136.782 25.0577L136.877 25.1051V25.5789L136.782 25.6736C136.735 25.6736 136.167 25.6736 135.031 25.6263C134.558 25.6263 134.179 25.6263 133.942 25.6263C133.753 25.6263 132.806 25.6736 131.102 25.721L131.008 25.6263V25.1524L131.102 25.1051C131.718 25.0577 132.144 25.0577 132.333 25.0103C132.522 24.9629 132.664 24.9155 132.759 24.8681C132.806 24.8208 132.901 24.6786 132.948 24.4891C132.996 24.2996 132.996 23.8257 133.043 23.115V21.0302V16.4814V14.5388C133.043 13.7806 132.996 13.3068 132.996 13.0699C132.996 12.833 132.901 12.6908 132.854 12.6435C132.806 12.5487 132.664 12.5013 132.475 12.4539C132.286 12.4065 131.86 12.3592 131.15 12.3592L131.055 12.3118V11.8379L131.15 11.7906L132.38 11.8379C133.185 11.8853 133.706 11.8853 133.99 11.8853C134.226 11.8853 135.173 11.8379 136.83 11.7906L136.924 11.8379V12.3118L136.83 12.3592C136.356 12.3592 136.025 12.4065 135.788 12.4065C135.552 12.4539 135.362 12.5013 135.268 12.5487C135.173 12.5961 135.078 12.7856 135.031 13.0699C134.984 13.3542 134.984 13.6859 134.984 14.1597V16.4341V18.5189H134.842Z" fill="white"/>
<path d="M145.587 25.7681L145.492 25.6733V25.1521L145.587 25.0574C146.06 25.0574 146.392 25.01 146.534 24.9626C146.676 24.9152 146.817 24.8204 146.912 24.7257C147.007 24.5835 147.243 24.1571 147.575 23.4464L148.616 21.2194L151.314 15.1544C151.835 13.9698 152.308 12.7853 152.829 11.6007H153.491L157.704 21.5037L158.272 22.8304C158.414 23.2094 158.603 23.6359 158.84 24.0623C159.077 24.4888 159.219 24.7731 159.266 24.8204C159.361 24.9152 159.455 24.9626 159.55 25.01C159.692 25.0574 159.929 25.0574 160.355 25.1047L160.449 25.1995V25.7207L160.355 25.8155C159.645 25.7681 159.029 25.7207 158.461 25.7207C157.373 25.7681 156.284 25.7681 155.195 25.8155L155.101 25.7207V25.1995L155.195 25.1047C155.953 25.1047 156.379 25.0574 156.568 25.01C156.757 24.9626 156.852 24.8678 156.852 24.6783C156.852 24.5361 156.805 24.3466 156.71 24.1097L155.479 21.0772H149.752L148.663 23.5885C148.474 24.0623 148.379 24.394 148.379 24.5835C148.379 24.7257 148.474 24.8678 148.663 24.9626C148.853 25.0574 149.279 25.1047 149.989 25.1047L150.083 25.1995V25.7207L149.989 25.8155C149.137 25.7681 148.379 25.7207 147.764 25.7207C147.054 25.6733 146.344 25.7207 145.587 25.7681ZM152.807 9.94233C152.475 9.94233 152.239 9.84756 152.002 9.61065C151.765 9.37374 151.671 9.13683 151.671 8.80515C151.671 8.47347 151.765 8.23656 152.002 7.99965C152.239 7.76273 152.475 7.66797 152.807 7.66797C153.138 7.66797 153.375 7.76273 153.611 7.99965C153.848 8.23656 153.943 8.47347 153.943 8.80515C153.943 9.13683 153.848 9.37374 153.611 9.61065C153.375 9.84756 153.091 9.94233 152.807 9.94233ZM150.083 20.2243H155.053L152.639 14.2541L150.083 20.2243Z" fill="white"/>
<path d="M161.678 22.3091L161.772 22.2144H162.246L162.34 22.3091C162.388 23.162 162.435 23.6832 162.482 23.8727C162.53 24.0623 162.719 24.2518 163.003 24.4887C163.287 24.6782 163.713 24.8678 164.186 25.0099C164.66 25.1521 165.18 25.1994 165.701 25.1994C166.411 25.1994 167.026 25.0573 167.594 24.8204C168.162 24.5835 168.588 24.2044 168.872 23.6832C169.156 23.162 169.345 22.6408 169.345 22.0248C169.345 21.5984 169.251 21.2193 169.109 20.8876C168.967 20.556 168.73 20.319 168.493 20.1295C168.257 19.94 167.925 19.7978 167.594 19.7031C167.263 19.6083 166.742 19.5135 166.08 19.3714C165.417 19.2766 164.896 19.1819 164.518 19.0871C164.139 18.9923 163.76 18.8502 163.429 18.708C163.05 18.5185 162.766 18.329 162.53 18.0447C162.293 17.7604 162.104 17.4287 161.914 17.0497C161.725 16.6706 161.63 16.102 161.63 15.6282C161.63 14.3962 162.056 13.4012 162.908 12.5957C163.76 11.7902 164.896 11.4111 166.364 11.4111C166.931 11.4111 167.547 11.5059 168.209 11.6007C168.872 11.7428 169.487 11.9323 170.055 12.2166L170.103 12.3588C169.961 12.9748 169.866 13.8276 169.819 14.9648L169.724 15.0596H169.203L169.109 15.0122C169.109 14.2067 169.061 13.7329 169.061 13.5433C169.014 13.3538 168.73 13.0695 168.162 12.7852C167.594 12.5009 166.979 12.3114 166.316 12.3114C165.748 12.3114 165.228 12.4062 164.754 12.6431C164.281 12.88 163.902 13.2117 163.666 13.6855C163.429 14.1593 163.287 14.6331 163.287 15.1544C163.287 15.5334 163.382 15.8651 163.524 16.1968C163.666 16.5284 163.855 16.718 164.092 16.9075C164.328 17.097 164.612 17.1918 164.944 17.2866C165.275 17.3813 165.843 17.4761 166.695 17.6182C167.878 17.7604 168.683 17.9973 169.251 18.2342C169.771 18.4711 170.197 18.8502 170.529 19.324C170.86 19.8452 171.002 20.4612 171.002 21.1719C171.002 22.5934 170.434 23.7306 169.298 24.6782C168.162 25.6259 166.789 26.0997 165.133 26.0997C163.76 26.0997 162.577 25.8628 161.536 25.389L161.488 25.2468C161.583 24.773 161.63 23.8254 161.678 22.3091Z" fill="white"/>
<path d="M172.044 11.7427L173.275 11.7901C174.079 11.8374 174.6 11.8374 174.884 11.8374C175.12 11.8374 176.067 11.7901 177.724 11.7427L177.818 11.7901V12.2639L177.724 12.3113C177.25 12.3113 176.919 12.3586 176.682 12.3586C176.446 12.406 176.256 12.4534 176.162 12.5008C176.067 12.5482 175.972 12.7377 175.925 13.022C175.878 13.3063 175.83 13.7327 175.83 14.2066V16.4809V21.0297V22.9723C175.83 23.7305 175.878 24.2043 175.878 24.3938C175.925 24.6307 175.972 24.7729 176.02 24.8203C176.067 24.915 176.209 24.9624 176.398 25.0098C176.588 25.0572 177.014 25.1046 177.724 25.1046L177.818 25.1519V25.6258L177.724 25.7205C177.676 25.7205 177.108 25.7205 175.972 25.6731C175.499 25.6731 175.12 25.6731 174.884 25.6731C174.695 25.6731 173.748 25.7205 172.044 25.7679L171.949 25.6731V25.1993L172.044 25.1519C172.659 25.1045 173.085 25.1046 173.275 25.0572C173.464 25.0098 173.606 24.9624 173.701 24.915C173.748 24.8676 173.843 24.7255 173.89 24.536C173.937 24.3464 173.937 23.8726 173.985 23.1619V21.077V16.5283V14.5856C173.985 13.8275 173.937 13.3537 173.937 13.1168C173.937 12.8799 173.843 12.7377 173.795 12.6903C173.748 12.5956 173.606 12.5482 173.417 12.5008C173.227 12.4534 172.801 12.406 172.091 12.406L171.997 12.3586V11.8848L172.044 11.7427Z" fill="white"/>
<path d="M178.864 11.7427C180.521 11.7901 181.562 11.8374 182.035 11.8374C182.651 11.8374 183.361 11.8374 184.118 11.7901C184.923 11.7427 185.443 11.7427 185.633 11.7427C186.532 11.7427 187.337 11.8374 187.905 12.027C188.52 12.2165 188.993 12.5482 189.419 13.0694C189.798 13.5906 190.035 14.2066 190.035 14.9173C190.035 15.5333 189.893 16.1019 189.609 16.6231C189.325 17.1917 188.946 17.6655 188.473 18.0446C187.999 18.4236 187.479 18.7079 186.958 18.8974C186.437 19.087 185.917 19.1344 185.396 19.1344C184.97 19.1344 184.544 19.087 184.023 18.9922L183.834 18.3762L183.929 18.2815C184.402 18.3762 184.828 18.471 185.112 18.471C185.964 18.471 186.674 18.1867 187.195 17.6181C187.715 17.0495 187.999 16.3388 187.999 15.4385C187.999 14.5382 187.715 13.8275 187.195 13.3063C186.674 12.7851 185.822 12.5008 184.733 12.5008C184.118 12.5008 183.455 12.5956 182.745 12.8325C182.698 13.3537 182.651 14.5856 182.651 16.4809V21.0297V22.9723C182.651 23.7305 182.698 24.2043 182.698 24.3938C182.745 24.6307 182.793 24.7729 182.84 24.8203C182.887 24.915 183.029 24.9624 183.219 25.0098C183.408 25.0572 183.834 25.1045 184.544 25.1045L184.639 25.1519V25.6258L184.544 25.7205C182.887 25.6731 181.941 25.6258 181.704 25.6258C181.467 25.6258 180.521 25.6731 178.864 25.7205L178.77 25.6258V25.1519L178.864 25.1045C179.48 25.0572 179.906 25.0572 180.095 25.0098C180.284 24.9624 180.426 24.915 180.521 24.8676C180.568 24.8203 180.663 24.6781 180.71 24.4886C180.757 24.299 180.757 23.8252 180.805 23.1145V21.0297V16.4809V14.5382C180.805 13.7801 180.757 13.3063 180.757 13.0694C180.757 12.8325 180.663 12.6903 180.615 12.6429C180.568 12.5482 180.426 12.5008 180.237 12.4534C180.047 12.406 179.622 12.3586 178.912 12.3586L178.817 12.3113V11.8374L178.864 11.7427Z" fill="white"/>
<path d="M190.934 18.8976C190.934 17.9025 191.076 17.0023 191.36 16.1494C191.644 15.2965 192.117 14.491 192.827 13.7802C193.49 13.0695 194.342 12.5009 195.288 12.0745C196.235 11.6954 197.323 11.4585 198.554 11.4585C200.779 11.4585 202.577 12.0745 203.903 13.3064C205.228 14.5384 205.891 16.1967 205.891 18.329C205.891 19.7978 205.559 21.1719 204.897 22.3565C204.234 23.541 203.335 24.4413 202.104 25.1047C200.873 25.768 199.548 26.0997 198.033 26.0997C196.945 26.0997 195.998 25.9102 195.099 25.5785C194.2 25.1994 193.442 24.6782 192.78 23.9675C192.164 23.2567 191.691 22.4512 191.407 21.5036C191.076 20.5086 190.934 19.6557 190.934 18.8976ZM193.016 18.2342C193.016 19.0397 193.158 19.8926 193.395 20.8402C193.632 21.7879 194.058 22.546 194.578 23.2094C195.099 23.8727 195.667 24.3465 196.377 24.6782C197.039 25.0099 197.797 25.152 198.696 25.152C199.737 25.152 200.637 24.9151 201.394 24.4413C202.199 23.9675 202.814 23.2567 203.193 22.2617C203.619 21.2667 203.808 20.1769 203.808 18.9449C203.808 17.6182 203.571 16.4337 203.098 15.3439C202.625 14.2541 201.962 13.4959 201.063 13.0221C200.211 12.5483 199.217 12.3114 198.175 12.3114C196.566 12.3114 195.336 12.8326 194.389 13.8276C193.442 14.7753 193.016 16.2915 193.016 18.2342Z" fill="white"/>
<path d="M206.648 11.7901L206.743 11.7427C207.879 11.7901 208.636 11.8374 209.062 11.8374L213.654 11.7427C214.979 11.7427 216.068 11.8848 216.872 12.1217C217.724 12.3586 218.482 12.7851 219.097 13.4011C219.76 14.017 220.233 14.7278 220.564 15.5333C220.895 16.3388 221.085 17.1917 221.085 18.0919C221.085 18.9922 220.943 19.8451 220.611 20.7454C220.28 21.6456 219.854 22.4037 219.286 23.0671C218.718 23.7778 218.056 24.299 217.346 24.7255C216.636 25.1519 215.878 25.4362 215.168 25.5784C214.458 25.7205 213.701 25.7679 212.944 25.7679C212.423 25.7679 211.476 25.7679 210.056 25.7205C209.583 25.7205 209.299 25.7205 209.11 25.7205C208.636 25.7205 208.116 25.7679 207.453 25.8153L207.358 25.7205V25.3888L207.453 25.2941C207.832 25.1045 208.068 24.9624 208.116 24.915C208.163 24.8676 208.21 24.299 208.258 23.2092C208.305 22.1194 208.305 21.2666 208.305 20.698V17.0969V14.8699C208.305 14.3961 208.305 13.9697 208.305 13.6854C208.305 13.4011 208.258 13.1642 208.258 13.022C208.21 12.8799 208.21 12.7851 208.163 12.7377C208.116 12.6903 208.068 12.6429 207.974 12.5956C207.879 12.5482 207.737 12.5482 207.5 12.5008L206.743 12.4534L206.648 12.406V11.7901ZM210.293 24.6781C210.956 24.8203 211.713 24.8676 212.612 24.8676C214.127 24.8676 215.358 24.6307 216.304 24.1095C217.204 23.5883 217.914 22.8302 218.34 21.8352C218.813 20.8401 219.002 19.7029 219.002 18.4236C219.002 16.5757 218.529 15.1068 217.535 14.1118C216.541 13.0694 214.979 12.5956 212.849 12.5956C211.95 12.5956 211.098 12.6429 210.293 12.7851C210.246 13.8749 210.198 15.0595 210.198 16.4335V19.5134V22.4037C210.246 22.9723 210.246 23.7305 210.293 24.6781Z" fill="white"/>
<path d="M222.403 25.7685L222.309 25.6737V25.1525L222.403 25.0577C222.877 25.0577 223.208 25.0103 223.35 24.9629C223.492 24.9156 223.634 24.8208 223.729 24.726C223.823 24.5839 224.06 24.1574 224.391 23.4467L225.433 21.2197L228.13 15.1548C228.651 13.9702 229.124 12.7856 229.645 11.6011H230.308L234.52 21.504L235.088 22.8307C235.23 23.2098 235.42 23.6362 235.656 24.0627C235.893 24.4891 236.035 24.7734 236.082 24.8208C236.177 24.9156 236.272 24.9629 236.366 25.0103C236.508 25.0577 236.745 25.0577 237.171 25.1051L237.266 25.1999V25.7211L237.171 25.8158C236.461 25.7685 235.846 25.7211 235.278 25.7211C234.189 25.7685 233.1 25.7685 232.012 25.8158L231.917 25.7211V25.1999L232.012 25.1051C232.769 25.1051 233.195 25.0577 233.384 25.0103C233.574 24.9629 233.668 24.8682 233.668 24.6787C233.668 24.5365 233.621 24.347 233.526 24.1101L232.296 21.0776H226.569L225.48 23.5889C225.291 24.0627 225.196 24.3944 225.196 24.5839C225.196 24.726 225.291 24.8682 225.48 24.9629C225.669 25.0577 226.095 25.1051 226.805 25.1051L226.9 25.1999V25.7211L226.805 25.8158C225.953 25.7685 225.196 25.7211 224.581 25.7211C223.871 25.6737 223.161 25.7211 222.403 25.7685ZM226.9 20.2247H231.87L229.408 14.2545L226.9 20.2247Z" fill="white"/>
<path d="M242.996 28.1845V27.7107L243.044 27.5686C244.085 26.7631 244.937 26.2419 245.552 26.005C243.801 26.005 242.428 25.7207 241.434 25.1521C240.393 24.5835 239.588 23.6832 239.02 22.546C238.452 21.4088 238.121 20.1295 238.121 18.708C238.121 16.5758 238.831 14.8227 240.251 13.4486C241.671 12.0745 243.47 11.4111 245.742 11.4111C247.209 11.4111 248.487 11.6954 249.576 12.2166C250.664 12.7378 251.563 13.5433 252.179 14.5858C252.794 15.6282 253.078 16.8601 253.078 18.2342C253.078 18.8502 253.031 19.4662 252.889 20.1295C252.747 20.7929 252.51 21.5036 252.131 22.2144C251.753 22.9251 251.232 23.5411 250.664 24.0623C250.049 24.5835 249.339 25.0573 248.487 25.389C247.635 25.7207 246.783 25.9576 245.836 26.005C246.404 26.0997 247.114 26.2892 248.014 26.6683C249.15 27.1421 250.002 27.4264 250.57 27.5686C251.138 27.7107 251.611 27.8055 252.037 27.8055C252.321 27.8055 252.652 27.7581 253.031 27.616L253.125 27.6633V27.995L253.078 28.0898C252.983 28.1846 252.841 28.2319 252.652 28.3741C252.084 28.7058 251.706 28.9427 251.516 29.1322C251.422 29.1322 251.185 29.0848 250.806 29.0374C250.428 28.9901 250.096 28.8953 249.718 28.8005C249.339 28.7058 248.771 28.5162 248.014 28.2319C246.357 27.6633 245.316 27.379 244.937 27.379C244.748 27.379 244.606 27.4264 244.416 27.4738C244.227 27.5212 243.99 27.6633 243.706 27.8529L243.233 28.1372L242.996 28.1845ZM240.204 18.2342C240.204 19.0397 240.346 19.8926 240.582 20.8403C240.819 21.7879 241.245 22.546 241.766 23.2094C242.286 23.8727 242.854 24.3466 243.564 24.6782C244.227 25.0099 244.984 25.1521 245.884 25.1521C246.925 25.1521 247.824 24.9152 248.582 24.4413C249.386 23.9675 250.002 23.2568 250.38 22.2617C250.806 21.2667 250.996 20.1769 250.996 18.945C250.996 17.6182 250.759 16.4337 250.286 15.3439C249.812 14.2541 249.15 13.496 248.25 13.0221C247.398 12.5483 246.404 12.3114 245.363 12.3114C243.754 12.3114 242.523 12.8326 241.576 13.8276C240.677 14.7753 240.204 16.2915 240.204 18.2342Z" fill="white"/>
<path fill-rule="evenodd" clip-rule="evenodd" d="M26.9196 6.05749C32.0605 7.2509 36.137 10.2692 37.8139 14.1046C38.3257 15.2796 39.3375 15.0561 39.3375 15.0561H40.2309V20.9751H39.5909C39.5909 20.9751 38.362 20.6683 37.82 21.9129C36.0778 25.916 31.7239 29.0299 26.2724 30.1144C24.735 30.4196 24.9608 31.6294 24.9608 31.6294V32.4255H19.048V31.5451C19.048 31.5451 19.2273 30.4125 17.7139 30.1098C12.2144 29.0094 7.83447 25.8423 6.1331 21.783C5.70047 20.7501 4.74887 20.9756 4.74887 20.9756H3.82031V15.0566H4.83367C4.83367 15.0566 5.71374 15.1702 6.24648 13.9895C7.98567 10.1383 12.151 7.12869 17.3727 5.99407C19.2385 5.58859 19.048 4.23362 19.048 4.23362V3.35107H24.9608V4.23362C24.9608 4.47291 24.8918 5.58708 26.9196 6.05749ZM23.1618 17.6153H23.9116V18.1782H23.1618V17.6153ZM20.0997 17.6153H20.8495V18.1782H20.0997V17.6153ZM21.6009 18.7356H22.3507V19.2985H21.6009V18.7356ZM21.6009 16.6111H22.3507V17.174H21.6009V16.6111ZM32.7843 10.8275L24.5838 17.107L24.8806 17.4946L33.0805 11.2151L32.7843 10.8275ZM31.5952 9.65868L23.3947 15.9381L23.6915 16.3257L31.8915 10.0462L31.5952 9.65868ZM19.9455 19.7142L11.745 25.9937L12.0417 26.3813L20.2417 20.1018L19.9455 19.7142ZM18.954 18.5019L10.7536 24.7814L11.0503 25.1689L19.2503 18.8895L18.954 18.5019ZM23.9152 19.6038L32.1157 25.8832L31.8189 26.2708L23.6189 19.9914L23.9152 19.6038ZM24.9168 18.417L33.1173 24.6965L32.8206 25.0841L24.6206 18.8046L24.9168 18.417ZM11.2005 10.895L19.401 17.1745L19.1042 17.5621L10.9042 11.2826L11.2005 10.895ZM12.3385 9.72616L20.539 16.0057L20.2422 16.3932L12.0422 10.1138L12.3385 9.72616ZM22.1234 15.7285L15.4716 10.1909C15.0609 9.84786 14.6595 7.50501 17.884 7.50501C20.23 7.50501 21.2198 8.21166 20.3326 9.76298C20.0379 10.2779 20.2846 12.206 22.2194 12.1718C23.9489 12.1411 24.0179 10.2825 23.7661 9.66327C23.1056 8.04344 24.4219 7.35981 26.4829 7.61289C29.5583 7.98975 28.9908 10.0902 27.7966 11.0244C26.6029 11.9581 22.1234 15.7285 22.1234 15.7285ZM22.1234 20.225L15.4716 25.7626C15.0609 26.1057 14.6595 28.4485 17.884 28.4485C20.23 28.4485 21.2198 27.7419 20.3326 26.1906C20.0379 25.6757 20.2846 23.7475 22.2194 23.7817C23.9489 23.8124 24.0179 25.671 23.7661 26.2902C23.1056 27.9101 24.4219 28.5937 26.4829 28.3406C29.5583 27.9638 28.9908 25.8633 27.7966 24.9291C26.6029 23.9955 22.1234 20.225 22.1234 20.225ZM26.3919 17.9435L32.9048 22.6528C33.3078 22.9437 36.0635 23.228 36.0635 20.945C36.0635 19.2842 34.8815 18.3091 33.4079 19.2116C32.6975 19.6442 31.1416 19.6667 31.2213 17.8157C31.2969 16.0558 33.0024 16.3636 33.5254 16.7808C34.7625 17.7697 36.2341 16.3165 35.9368 14.8572C35.4934 12.68 33.0228 13.0819 31.9247 13.9271C30.8265 14.7724 26.3919 17.9435 26.3919 17.9435ZM17.461 17.9318L10.9482 22.641C10.5452 22.9319 7.78953 23.2162 7.78953 20.9332C7.78953 19.2724 8.97147 18.2974 10.445 19.1998C11.1555 19.6324 12.7114 19.6549 12.6317 17.804C12.5561 16.044 10.8506 16.3518 10.3276 16.769C9.09047 17.7579 7.61894 16.3048 7.91619 14.8455C8.35955 12.6683 10.8302 13.0702 11.9283 13.9154C13.0265 14.7606 17.461 17.9318 17.461 17.9318Z" fill="white"/>
<path fill-rule="evenodd" clip-rule="evenodd" d="M42.7732 20.6998C42.7732 20.6998 42.1209 20.6692 42.1413 20.0468C42.1617 19.4245 42.9363 19.5775 42.9363 19.5775C42.871 19.1965 42.8123 18.3022 43.6294 18.0675C43.3384 18.5382 43.4561 18.9654 43.6395 19.3735C43.823 19.7816 43.8943 19.9856 43.8536 20.5366C43.8128 21.0875 42.9974 21.6181 42.2228 21.3528C41.4482 21.0875 41.224 20.1489 41.326 19.5367C41.4279 18.9245 42.1821 18.1695 42.4471 17.7818C42.7121 17.3941 42.549 17.1901 42.3655 17.0881C42.6152 16.9708 42.8496 17.1442 42.8496 17.3686C43.1044 17.389 43.6661 16.7156 43.5235 15.981C43.3808 15.2464 42.8191 15.1597 42.4063 15.2924C41.9935 15.425 41.7744 15.8637 41.9579 16.2106C42.1413 16.5575 42.9545 16.2709 42.4318 15.6443C42.5409 15.5382 42.9719 15.6137 43.0382 16.1086C43.1045 16.6034 42.4058 16.9907 41.942 16.6233C41.9989 16.7629 42.2025 17.1697 41.9986 17.5778C41.7948 17.9859 41.3871 18.1899 41.3871 18.1899C41.3871 18.1899 41.6623 17.1543 41.3667 16.5779C41.0712 16.0015 41.4686 15.2231 41.9782 15.0271C42.4879 14.831 42.9872 14.7924 43.4866 15.2108C43.986 15.629 43.9299 16.4861 43.7465 16.7718C43.2473 17.5491 41.888 18.5042 42.4923 19.3184C42.0546 19.3385 41.982 18.9361 42.0228 18.8302C41.8687 18.8532 41.2189 19.9346 41.7948 20.6182C42.3706 21.3018 42.8242 21.0977 43.0382 21.0365C43.2522 20.9753 43.721 20.4039 43.3236 19.9856C42.9261 19.5673 42.1413 20.0468 42.7732 20.6998Z" fill="white"/>
<path fill-rule="evenodd" clip-rule="evenodd" d="M1.50759 20.6495C1.50759 20.6495 0.85532 20.6189 0.875687 19.9965C0.896053 19.3742 1.67065 19.5272 1.67065 19.5272C1.60538 19.1462 1.54673 18.2519 2.36373 18.0172C2.07281 18.488 2.19043 18.915 2.37389 19.3232C2.55735 19.7313 2.62871 19.9353 2.58795 20.4863C2.54718 21.0372 1.73185 21.5678 0.957217 21.3025C0.182616 21.0372 -0.0415768 20.0986 0.0603518 19.4864C0.162249 18.8742 0.916451 18.1192 1.18144 17.7315C1.44643 17.3438 1.28337 17.1398 1.09991 17.0378C1.34962 16.9205 1.58401 17.0939 1.58401 17.3183C1.8388 17.3387 2.40054 16.6653 2.25784 15.9307C2.11515 15.1961 1.55347 15.1094 1.14068 15.2421C0.727909 15.3747 0.5088 15.8134 0.692228 16.1603C0.875687 16.5072 1.68895 16.2206 1.16616 15.5941C1.27527 15.4879 1.7063 15.5634 1.77258 16.0583C1.83883 16.5531 1.14014 16.9404 0.676411 16.573C0.733275 16.7126 0.93685 17.1194 0.733024 17.5275C0.529167 17.9356 0.121484 18.1396 0.121484 18.1396C0.121484 18.1396 0.396704 17.1041 0.101117 16.5276C-0.19447 15.9512 0.202952 15.1728 0.712595 14.9768C1.22224 14.7807 1.72162 14.7421 2.221 15.1605C2.72041 15.5788 2.6643 16.4358 2.4809 16.7215C1.98168 17.4988 0.622372 18.4539 1.22669 19.2681C0.788979 19.2882 0.716423 18.8858 0.757188 18.7799C0.603071 18.8029 -0.0466916 19.8843 0.529167 20.5679C1.10499 21.2515 1.55856 21.0474 1.77258 20.9862C1.98661 20.925 2.45542 20.3536 2.05797 19.9353C1.66049 19.517 0.875687 19.9965 1.50759 20.6495Z" fill="white"/>
<path d="M1.76953 25.3515L3.49544 24.2184L3.72478 24.5687L2.96016 25.0703L4.18704 25.2738L4.49402 25.7421L3.39483 25.532L2.79007 26.9095L2.49433 26.458L2.99336 25.4507L2.52088 25.3587L1.99887 25.7017L1.76953 25.3515ZM4.07058 28.5436L3.78761 28.1934L4.04046 27.7588L3.51995 27.1145L3.04649 27.2766L2.76861 26.933L4.8771 26.257L5.15495 26.6006L4.07058 28.5436ZM4.22689 27.4341L4.6401 26.7295L3.87087 26.9939L4.22689 27.4341ZM4.61813 28.1612L4.93227 28.422C4.85309 28.535 4.81681 28.6398 4.82347 28.7379C4.83062 28.8361 4.87864 28.9297 4.96801 29.0197C5.0615 29.1143 5.15291 29.1664 5.24129 29.1746C5.32862 29.1828 5.40014 29.1603 5.45377 29.1071C5.48848 29.0729 5.50791 29.0335 5.51249 28.9885C5.5166 28.945 5.50279 28.8878 5.47113 28.8197C5.44916 28.7732 5.39195 28.6735 5.30154 28.5201C5.18458 28.3222 5.12279 28.1632 5.11767 28.0426C5.10951 27.8723 5.16415 27.7296 5.28061 27.6141C5.3557 27.5399 5.44662 27.4913 5.55335 27.4689C5.66114 27.4469 5.77045 27.4586 5.88333 27.5046C5.99571 27.5502 6.10755 27.6294 6.2194 27.7419C6.40072 27.9255 6.49728 28.1039 6.50698 28.2778C6.51718 28.4516 6.45693 28.6076 6.32515 28.7477L6.02072 28.4603C6.08458 28.3724 6.11163 28.2916 6.10448 28.2174C6.09632 28.1433 6.05138 28.0645 5.96963 27.9817C5.88537 27.8963 5.80108 27.8467 5.71782 27.8339C5.66419 27.8253 5.61875 27.8395 5.58043 27.8779C5.54519 27.9121 5.53038 27.9561 5.53499 28.0098C5.53957 28.0788 5.59678 28.2021 5.70454 28.3795C5.81335 28.5569 5.88283 28.6986 5.91449 28.8034C5.94666 28.9082 5.94973 29.0115 5.92519 29.1127C5.90068 29.2145 5.84193 29.3111 5.74951 29.4026C5.66522 29.486 5.56358 29.5407 5.44404 29.5668C5.32454 29.5929 5.2045 29.5811 5.08447 29.531C4.96443 29.4804 4.84082 29.3914 4.71466 29.2636C4.5313 29.0785 4.43273 28.8934 4.42046 28.7093C4.40718 28.5252 4.47359 28.3422 4.61813 28.1612ZM5.58043 30.0495L6.98559 28.536L7.29153 28.8203L5.88691 30.3343L5.58043 30.0495ZM6.18265 30.6007L7.432 28.9563L7.9637 29.3612C8.16545 29.5146 8.29061 29.6225 8.33912 29.6854C8.41472 29.782 8.45251 29.8955 8.45354 30.0265C8.45404 30.1574 8.40449 30.2888 8.30542 30.4191C8.22828 30.5209 8.14556 30.5915 8.05665 30.6324C7.96778 30.6733 7.88044 30.6922 7.79414 30.6891C7.70882 30.685 7.63171 30.6676 7.56377 30.6359C7.47286 30.591 7.35232 30.5122 7.20215 30.3982L6.98659 30.2335L6.51514 30.8543L6.18265 30.6007ZM7.55357 29.4875L7.19754 29.9559L7.37836 30.0934C7.50913 30.1926 7.60259 30.2504 7.6598 30.2662C7.71651 30.2826 7.77164 30.2821 7.82427 30.2642C7.87687 30.2463 7.92234 30.2131 7.95912 30.1645C8.00509 30.1042 8.02499 30.0418 8.01991 29.9758C8.01429 29.9104 7.98874 29.8521 7.94277 29.801C7.90906 29.7636 7.83243 29.6997 7.71343 29.6087L7.55357 29.4875ZM8.17311 30.8568C8.28345 30.6773 8.40349 30.5434 8.53222 30.4544C8.62721 30.389 8.7314 30.3425 8.84428 30.3138C8.95716 30.2857 9.06546 30.279 9.16914 30.2949C9.30704 30.3164 9.44804 30.3716 9.59104 30.4601C9.85051 30.6201 10.0078 30.8287 10.064 31.0859C10.1207 31.3431 10.0599 31.6146 9.88321 31.9014C9.7075 32.1863 9.49297 32.3611 9.24013 32.4261C8.98678 32.492 8.73089 32.4445 8.47293 32.2855C8.21193 32.1239 8.05257 31.9158 7.99741 31.6601C7.94123 31.405 7.99998 31.1375 8.17311 30.8568ZM8.54599 31.0711C8.42288 31.27 8.3759 31.4494 8.40449 31.6095C8.43311 31.769 8.51791 31.8928 8.65991 31.9807C8.80138 32.0681 8.949 32.0886 9.10324 32.0431C9.25698 31.9966 9.39694 31.8718 9.5226 31.6673C9.64722 31.4653 9.69627 31.2874 9.66815 31.134C9.6411 30.9796 9.55426 30.8574 9.40768 30.7669C9.26106 30.6763 9.11194 30.6539 8.96023 30.6988C8.80904 30.7444 8.67061 30.8681 8.54599 31.0711ZM10.5635 31.0961L11.2408 31.4413C11.3936 31.5195 11.5044 31.5901 11.5728 31.6545C11.6638 31.7409 11.7276 31.8447 11.7623 31.9654C11.7991 32.0855 11.8063 32.2149 11.7869 32.3529C11.7669 32.491 11.7133 32.6465 11.6254 32.8188C11.5483 32.9706 11.463 33.0908 11.3701 33.1818C11.2556 33.2922 11.1351 33.3674 11.0079 33.4068C10.9119 33.4369 10.8 33.4415 10.6729 33.4211C10.5773 33.4058 10.4619 33.3628 10.325 33.2933L9.62729 32.9379L10.5635 31.0961ZM10.7776 31.5972L10.158 32.8162L10.4343 32.9568C10.5375 33.0095 10.6146 33.0417 10.6667 33.0534C10.7347 33.0693 10.7975 33.0688 10.8552 33.0524C10.9134 33.0371 10.9752 32.9941 11.0421 32.9246C11.1096 32.8551 11.179 32.7487 11.2516 32.6061C11.3241 32.4639 11.367 32.3489 11.3803 32.2599C11.3941 32.1704 11.389 32.0932 11.3665 32.0278C11.3425 31.9623 11.3006 31.9045 11.2388 31.8539C11.1928 31.8161 11.0942 31.7588 10.9436 31.6821L10.7776 31.5972ZM13.2211 34.5491L12.8028 34.3834L12.81 33.8803L12.0397 33.5755L11.7072 33.9498L11.2965 33.7872L12.8008 32.1607L13.2114 32.3233L13.2211 34.5491ZM12.812 33.5054L12.8263 32.6889L12.2864 33.2973L12.812 33.5054ZM15.0962 34.8579C15.1718 34.9586 15.2606 35.0471 15.3623 35.1243L15.1284 35.3625C15.0742 35.3262 15.0231 35.2833 14.9756 35.2342C14.9649 35.223 14.8954 35.1381 14.7657 34.9755C14.6191 34.9924 14.4669 34.9765 14.3101 34.9279C14.0072 34.8339 13.7968 34.6707 13.6803 34.4391C13.5643 34.2065 13.5562 33.9288 13.6563 33.6046C13.7564 33.282 13.9204 33.0576 14.1471 32.9312C14.3749 32.8049 14.6365 32.7881 14.9312 32.8791C15.2233 32.9696 15.4276 33.1307 15.5436 33.3638C15.659 33.596 15.6677 33.8731 15.5676 34.1962C15.5155 34.3665 15.445 34.5097 15.3572 34.6242C15.2908 34.7122 15.2034 34.7904 15.0962 34.8579ZM14.8459 34.5347C14.9159 34.4902 14.9761 34.4294 15.0288 34.3517C15.0798 34.2745 15.1232 34.1804 15.1574 34.0694C15.2279 33.8414 15.2305 33.6553 15.1646 33.5111C15.0992 33.3674 14.9853 33.2702 14.8234 33.2196C14.661 33.1695 14.5113 33.1854 14.376 33.2677C14.2396 33.35 14.1369 33.5049 14.0665 33.7325C13.9949 33.9636 13.9919 34.1528 14.0578 34.2985C14.1231 34.4447 14.233 34.5414 14.3872 34.5895C14.4449 34.6073 14.5021 34.614 14.5588 34.6114C14.495 34.5337 14.4255 34.4672 14.3509 34.412L14.5343 34.2152C14.6508 34.3011 14.755 34.4074 14.8459 34.5347ZM16.0391 35.3488L16.4288 33.6767L15.8337 33.5377L15.9129 33.1976L17.5075 33.5699L17.4284 33.9099L16.8359 33.7718L16.4461 35.4439L16.0391 35.3488ZM18.9372 35.8437L18.4913 35.7824L18.3789 35.292L17.5586 35.1785L17.3247 35.6213L16.8869 35.5609L17.9627 33.6236L18.4004 33.6839L18.9372 35.8437ZM18.2926 34.9274L18.1123 34.1303L17.7323 34.8502L18.2926 34.9274ZM19.1563 35.8979L19.2692 33.8347L20.1457 33.8828C20.3653 33.8951 20.5252 33.9227 20.6227 33.9646C20.7213 34.007 20.7969 34.0771 20.8521 34.1753C20.9067 34.2734 20.9308 34.3834 20.9241 34.5051C20.9154 34.6605 20.8638 34.7858 20.7673 34.8814C20.6713 34.9775 20.5329 35.0338 20.3505 35.0496C20.4373 35.1074 20.5083 35.1693 20.563 35.2352C20.6182 35.3012 20.6907 35.4178 20.7811 35.5834L21.0104 35.9997L20.5124 35.972L20.2387 35.5057C20.1406 35.3396 20.0726 35.2347 20.0349 35.1907C19.9981 35.1473 19.9577 35.1166 19.9148 35.0987C19.8709 35.0803 19.8014 35.0691 19.7054 35.064L19.6206 35.0593L19.5736 35.9209L19.1563 35.8979ZM19.6385 34.7306L19.9465 34.7474C20.1467 34.7587 20.2708 34.7566 20.3219 34.7423C20.3725 34.7285 20.4133 34.7014 20.4435 34.6616C20.4736 34.6217 20.4905 34.5705 20.4935 34.5087C20.4976 34.4391 20.4823 34.3824 20.4476 34.3374C20.4128 34.2924 20.3617 34.2627 20.2959 34.2479C20.2616 34.2417 20.1605 34.2336 19.9919 34.2243L19.6671 34.2065L19.6385 34.7306ZM23.6379 35.9772L23.4509 33.9191L24.8637 33.7908L24.8954 34.1385L23.8989 34.229L23.9433 34.7173L24.805 34.639L24.8366 34.9867L23.975 35.0655L24.0541 35.9393L23.6379 35.9772ZM25.3914 35.813L25.0905 33.7688L26.6019 33.5458L26.6524 33.8915L25.5543 34.0536L25.6212 34.5071L26.6427 34.3563L26.6933 34.7019L25.6723 34.8528L25.7535 35.4065L26.8915 35.2388L26.9426 35.5845L25.3914 35.813ZM26.822 33.5029L27.5621 33.3301C27.7297 33.2912 27.8599 33.2738 27.9534 33.2794C28.079 33.2866 28.194 33.325 28.2987 33.3945C28.4034 33.463 28.4928 33.5571 28.5663 33.6752C28.6399 33.7933 28.6991 33.9472 28.743 34.1354C28.7814 34.3016 28.7936 34.4488 28.7809 34.5782C28.765 34.7362 28.7206 34.8717 28.649 34.9837C28.5949 35.0691 28.5122 35.1442 28.4019 35.2107C28.3191 35.2603 28.2026 35.3022 28.053 35.337L27.2909 35.5149L26.822 33.5029ZM27.3083 33.7478L27.6188 35.0798L27.9207 35.0098C28.0336 34.9832 28.1133 34.9576 28.1602 34.9335C28.2226 34.9018 28.2706 34.8604 28.3038 34.8113C28.3385 34.7618 28.3584 34.6891 28.3646 34.593C28.3717 34.4964 28.3564 34.3701 28.3201 34.2141C28.2839 34.0587 28.243 33.9431 28.1955 33.8664C28.1485 33.7892 28.0954 33.7335 28.0356 33.6977C27.9753 33.6629 27.9059 33.6456 27.8262 33.6471C27.767 33.6476 27.6546 33.667 27.4901 33.7054L27.3083 33.7478ZM29.3126 35.0154L28.7027 33.0417L30.1625 32.5897L30.2652 32.9236L29.2048 33.2518L29.3401 33.69L30.3264 33.3848L30.4296 33.7182L29.4433 34.0234L29.6083 34.5583L30.7075 34.2182L30.8107 34.5521L29.3126 35.0154ZM31.1457 34.432L30.3525 32.5243L31.1631 32.1862C31.3664 32.1019 31.5222 32.0574 31.6279 32.0528C31.7352 32.0482 31.8338 32.0784 31.9262 32.1428C32.0176 32.2077 32.0871 32.2962 32.1341 32.4087C32.1938 32.5518 32.2015 32.6879 32.156 32.8157C32.1111 32.9445 32.0105 33.055 31.8536 33.1486C31.9568 33.1624 32.0472 33.1874 32.1254 33.2232C32.2036 33.2585 32.3195 33.3321 32.4727 33.442L32.8599 33.7171L32.3997 33.9089L31.9507 33.6077C31.7898 33.5009 31.6836 33.4359 31.6305 33.4129C31.5784 33.3899 31.5288 33.3792 31.4823 33.3822C31.4348 33.3848 31.3669 33.4047 31.2785 33.4415L31.2004 33.4743L31.5314 34.2709L31.1457 34.432ZM31.0737 33.1706L31.3587 33.0519C31.5436 32.9747 31.655 32.919 31.6943 32.8842C31.7336 32.8494 31.7587 32.8075 31.7689 32.7584C31.7791 32.7093 31.7714 32.6562 31.7479 32.5989C31.7214 32.535 31.6826 32.4905 31.6315 32.4644C31.5814 32.4388 31.5227 32.4347 31.4563 32.4501C31.4231 32.4593 31.3281 32.4956 31.1728 32.5605L30.8725 32.6858L31.0737 33.1706ZM34.7176 32.7712L34.3171 32.9773L33.9437 32.6403L33.2077 33.0197L33.27 33.5167L32.8773 33.7192L32.6454 31.5149L33.0382 31.3124L34.7176 32.7712ZM33.6639 32.3918L33.0591 31.8437L33.1612 32.651L33.6639 32.3918ZM35.118 32.5176L34.1996 31.0675L33.6832 31.3947L33.4963 31.0997L34.8795 30.2223L35.0664 30.5173L34.5526 30.8435L35.471 32.2936L35.118 32.5176ZM35.7315 31.3605L36.0318 31.0844C36.1329 31.1785 36.232 31.2286 36.3301 31.2347C36.4282 31.2413 36.5272 31.2066 36.6284 31.1304C36.7351 31.0501 36.7985 30.9668 36.8189 30.8804C36.8388 30.7945 36.8266 30.7208 36.7811 30.66C36.7515 30.6211 36.7152 30.5966 36.6718 30.5858C36.6289 30.5756 36.5707 30.5817 36.4991 30.6042C36.4496 30.6196 36.3434 30.6625 36.1789 30.7316C35.9674 30.8205 35.8019 30.8599 35.6814 30.8487C35.5118 30.8338 35.378 30.7602 35.2799 30.6288C35.2166 30.5449 35.1809 30.4478 35.1732 30.3389C35.166 30.2295 35.1926 30.1226 35.2534 30.0167C35.3136 29.9109 35.4071 29.8107 35.5338 29.7156C35.7402 29.5606 35.9296 29.4891 36.1028 29.5029C36.2765 29.5161 36.423 29.5975 36.5436 29.7473L36.2177 30.0101C36.1396 29.9349 36.0629 29.8966 35.9889 29.894C35.9143 29.892 35.8301 29.9257 35.7376 29.9958C35.6416 30.0679 35.5808 30.1446 35.5568 30.2253C35.5409 30.2775 35.5491 30.3246 35.5813 30.3675C35.6109 30.4069 35.6523 30.4278 35.7059 30.4309C35.7749 30.435 35.9046 30.3956 36.0951 30.3123C36.2852 30.2289 36.4353 30.1794 36.5431 30.162C36.6514 30.1446 36.7535 30.1553 36.8506 30.1936C36.9481 30.2315 37.0355 30.3026 37.1136 30.4069C37.1846 30.502 37.225 30.6104 37.2347 30.7321C37.2439 30.8543 37.2158 30.9719 37.1499 31.0844C37.084 31.1964 36.9788 31.3068 36.8358 31.4147C36.6274 31.5711 36.4307 31.6437 36.2468 31.631C36.0629 31.6192 35.8908 31.5282 35.7315 31.3605ZM37.7358 30.6697L36.4205 29.0775L36.7423 28.8111L38.0575 30.4033L37.7358 30.6697ZM38.3451 30.1502L36.941 28.6357L37.2475 28.3514L38.6516 29.8654L38.3451 30.1502ZM40.2488 28.2706L39.9321 28.5907L39.4729 28.3867L38.8906 28.9757L39.1036 29.4287L38.793 29.7432L37.8895 27.7194L38.2001 27.4055L40.2488 28.2706ZM39.1297 28.2374L38.3844 27.9035L38.7318 28.6398L39.1297 28.2374ZM39.7763 27.7818L39.9816 27.429C40.1058 27.4888 40.2156 27.5072 40.3106 27.4842C40.4061 27.4612 40.4903 27.3988 40.5649 27.296C40.6431 27.1882 40.6794 27.0889 40.6732 27.001C40.6666 26.9131 40.6328 26.8461 40.5716 26.8016C40.5317 26.7729 40.4898 26.7602 40.4449 26.7632C40.4015 26.7663 40.3473 26.7888 40.2855 26.8317C40.2431 26.8609 40.1543 26.9335 40.0179 27.048C39.8422 27.1958 39.6956 27.2828 39.5771 27.3078C39.4106 27.3436 39.2614 27.3129 39.1286 27.2168C39.0433 27.1549 38.9805 27.0731 38.9412 26.9713C38.9018 26.8686 38.8952 26.7586 38.9218 26.64C38.9488 26.5209 39.0081 26.3977 39.1011 26.2693C39.2522 26.0602 39.4126 25.9354 39.5817 25.8971C39.7518 25.8587 39.9152 25.893 40.0751 25.9998L39.8412 26.3476C39.7446 26.299 39.6599 26.2852 39.5883 26.3046C39.5168 26.3245 39.4463 26.3823 39.3784 26.4764C39.3079 26.5736 39.2727 26.6651 39.2737 26.7489C39.2742 26.8036 39.2957 26.8461 39.3396 26.8778C39.3794 26.9069 39.4249 26.9146 39.477 26.9013C39.5444 26.8849 39.6563 26.8088 39.8136 26.6727C39.9709 26.5367 40.0991 26.4447 40.1972 26.3966C40.2952 26.3475 40.3964 26.3276 40.5001 26.3353C40.6048 26.3429 40.709 26.3849 40.8147 26.4616C40.9107 26.5311 40.9812 26.6226 41.0262 26.7362C41.0716 26.8502 41.0793 26.9708 41.0497 27.0977C41.0195 27.2239 40.9521 27.3605 40.8469 27.5062C40.6942 27.7173 40.5282 27.8452 40.3489 27.8871C40.1696 27.9306 39.9781 27.8948 39.7763 27.7818ZM41.7709 26.1047L41.065 25.6977L39.74 25.7534L39.9689 25.3556L40.8612 25.3418L40.4193 24.5722L40.6441 24.1821L41.2637 25.3592L41.967 25.7646L41.7709 26.1047Z" fill="white"/>
<path d="M4.79278 9.56722C4.91027 9.52069 5.01907 9.45934 5.12019 9.38162L5.28723 9.67155C5.23768 9.71346 5.18251 9.75181 5.12223 9.78404C5.10895 9.79117 5.00834 9.83566 4.81732 9.9175C4.79432 10.0627 4.73814 10.2054 4.64927 10.3439C4.47764 10.6108 4.26415 10.7699 4.00977 10.82C3.75542 10.8696 3.48572 10.8031 3.20071 10.619C2.9167 10.4365 2.74457 10.2181 2.68432 9.96503C2.62353 9.71141 2.67767 9.45475 2.84418 9.19498C3.00969 8.93781 3.2196 8.78391 3.47499 8.73481C3.72937 8.6852 3.99853 8.75168 4.28304 8.93473C4.43217 9.03086 4.5512 9.13721 4.63803 9.25278C4.70494 9.34021 4.75653 9.44501 4.79278 9.56722ZM4.41481 9.72165C4.3903 9.64239 4.34791 9.56775 4.28762 9.49666C4.22684 9.42663 4.14819 9.35912 4.05063 9.29623C3.84991 9.1674 3.67163 9.11471 3.51534 9.13978C3.35903 9.16432 3.23491 9.24816 3.1435 9.39082C3.05105 9.53401 3.02654 9.68229 3.06944 9.83465C3.11234 9.98856 3.23338 10.1292 3.43363 10.258C3.63692 10.3889 3.81771 10.4426 3.97556 10.4186C4.13438 10.3945 4.25699 10.3143 4.34433 10.1788C4.37703 10.1276 4.39897 10.0744 4.41174 10.0187C4.31982 10.0602 4.23707 10.1092 4.16401 10.166L4.02358 9.93641C4.13746 9.84744 4.26719 9.77534 4.41481 9.72165ZM6.63719 7.87733L6.33686 8.21275L5.86795 8.03227L5.31582 8.64992L5.55128 9.09172L5.25657 9.42101L4.25342 7.44528L4.54812 7.11548L6.63719 7.87733ZM5.51758 7.90032L4.75703 7.6043L5.14061 8.32167L5.51758 7.90032ZM6.68878 7.87017L6.43543 7.59406L6.32971 5.86889L5.61972 6.52183L5.38376 6.26463L6.49622 5.2415L6.71483 5.47925L6.82466 7.27143L7.68836 6.47634L7.92435 6.73354L6.68878 7.87017ZM9.66916 5.51506L9.29835 5.77019L8.88511 5.48387L8.20324 5.95378L8.32836 6.43902L7.96418 6.68955L7.45444 4.53281L7.81809 4.28177L9.66916 5.51506ZM8.57609 5.2732L7.90646 4.80587L8.11026 5.59379L8.57609 5.2732ZM11.1729 4.34824C11.298 4.36203 11.4232 4.35845 11.5488 4.33699L11.561 4.67138C11.4977 4.6852 11.4313 4.69337 11.3629 4.69387C11.3481 4.6944 11.2378 4.68671 11.0314 4.66934C10.943 4.78746 10.8266 4.88717 10.6835 4.96794C10.4072 5.12442 10.1447 5.16532 9.89646 5.09068C9.64769 5.0155 9.44085 4.83091 9.27381 4.53538C9.10783 4.24086 9.05774 3.9673 9.12211 3.71573C9.18647 3.46315 9.35402 3.26118 9.62268 3.10932C9.8888 2.959 10.1462 2.92064 10.3945 2.99632C10.6427 3.07147 10.8501 3.25606 11.0161 3.55058C11.1034 3.70552 11.1591 3.8548 11.1821 3.99746C11.2005 4.10638 11.1974 4.22346 11.1729 4.34824ZM10.7663 4.30834C10.7816 4.22704 10.7791 4.14115 10.7586 4.04961C10.7377 3.95963 10.6989 3.863 10.6422 3.76225C10.5247 3.55416 10.3914 3.42479 10.2417 3.37365C10.0921 3.32253 9.94343 3.33837 9.79581 3.42171C9.64769 3.50559 9.55678 3.62522 9.52307 3.78016C9.48987 3.9361 9.53123 4.11712 9.64873 4.32471C9.76723 4.53538 9.90207 4.66729 10.0533 4.71944C10.2044 4.77263 10.35 4.75881 10.491 4.67958C10.5431 4.64992 10.5875 4.6131 10.6248 4.56962C10.5242 4.56299 10.4287 4.56809 10.3372 4.58395L10.3204 4.31551C10.4624 4.28993 10.611 4.28689 10.7663 4.30834ZM11.4523 3.76483L11.8047 3.55928C11.8834 3.67278 11.9692 3.74284 12.0637 3.76992C12.1582 3.79703 12.2624 3.78424 12.3773 3.73159C12.4988 3.67586 12.579 3.60785 12.6168 3.52758C12.6546 3.44832 12.6582 3.37314 12.6265 3.30463C12.6061 3.26014 12.576 3.22845 12.5356 3.2085C12.4963 3.18959 12.438 3.18296 12.363 3.18958C12.3119 3.1942 12.1985 3.21312 12.0233 3.24582C11.7981 3.28776 11.6275 3.29084 11.5125 3.25452C11.3496 3.20341 11.2347 3.10316 11.1667 2.95388C11.1228 2.85825 11.1085 2.75549 11.1243 2.64758C11.1407 2.5392 11.1892 2.43999 11.271 2.35001C11.3527 2.25951 11.4656 2.18179 11.6096 2.11581C11.844 2.00844 12.0448 1.97878 12.2108 2.02942C12.3773 2.07953 12.5034 2.18995 12.5892 2.36176L12.2149 2.5494C12.1546 2.45943 12.0877 2.40524 12.0161 2.38733C11.9436 2.36893 11.8542 2.38426 11.7485 2.43286C11.6392 2.48243 11.5641 2.54482 11.5233 2.61846C11.4967 2.66599 11.4947 2.71355 11.5171 2.76315C11.5376 2.80764 11.5733 2.83679 11.6254 2.85109C11.6918 2.87003 11.8267 2.85928 12.0305 2.81838C12.2343 2.77748 12.3911 2.76058 12.5004 2.76724C12.6097 2.77337 12.7077 2.8056 12.7941 2.86337C12.8814 2.92164 12.9514 3.00961 13.0055 3.12823C13.0551 3.23611 13.0714 3.35065 13.0546 3.47182C13.0377 3.59302 12.9851 3.70194 12.8973 3.79753C12.8089 3.89316 12.6827 3.97855 12.5193 4.05319C12.2828 4.1616 12.0754 4.19076 11.8982 4.13911C11.7209 4.08797 11.5723 3.96271 11.4523 3.76483ZM14.0358 3.41816L13.4565 1.80188L12.8814 2.00844L12.7634 1.68018L14.305 1.12642L14.4224 1.45521L13.8499 1.66077L14.4291 3.27701L14.0358 3.41816ZM16.8583 2.59185L16.4236 2.70896L16.1294 2.30091L15.3301 2.5167L15.2861 3.01523L14.8596 3.13027L15.0972 0.926497L15.5241 0.811454L16.8583 2.59185ZM15.9083 1.99923L15.4322 1.33505L15.3622 2.146L15.9083 1.99923ZM17.0825 2.57193L16.7107 0.53943L17.1086 0.466329L18.1935 1.67506L17.9442 0.313428L18.3242 0.243373L18.6961 2.27587L18.2854 2.35155L17.2179 1.16632L17.4626 2.50238L17.0825 2.57193ZM21.5345 2.06571L21.5769 0L22.4549 0.0184104C22.675 0.022997 22.8354 0.0449879 22.934 0.0838485C23.0341 0.122709 23.1122 0.190218 23.1705 0.286851C23.2282 0.382981 23.2563 0.491898 23.2537 0.613569C23.2507 0.769011 23.2032 0.89634 23.1102 0.995549C23.0172 1.09473 22.8803 1.15507 22.699 1.17757C22.7879 1.23226 22.8609 1.29157 22.9176 1.3555C22.9754 1.4194 23.0515 1.53344 23.147 1.69604L23.3906 2.10406L22.8921 2.09382L22.603 1.63673C22.4988 1.47413 22.4273 1.37187 22.3885 1.32943C22.3502 1.28699 22.3088 1.25733 22.2649 1.24146C22.2204 1.22459 22.1504 1.21539 22.0544 1.21335L21.9701 1.21181L21.9523 2.07441L21.5345 2.06571ZM21.9768 0.883049L22.2853 0.889176C22.4855 0.89326 22.6096 0.887133 22.6602 0.871269C22.7097 0.855435 22.7496 0.82732 22.7787 0.786417C22.8078 0.745514 22.8226 0.693867 22.8237 0.631979C22.8252 0.562458 22.8078 0.506192 22.7716 0.462242C22.7358 0.418261 22.6837 0.390649 22.6168 0.377863C22.5831 0.372742 22.4814 0.368154 22.3129 0.364573L21.9875 0.357912L21.9768 0.883049ZM23.6169 2.11377L23.8268 0.0582746L25.3464 0.213718L25.3111 0.560918L24.2068 0.447918L24.1603 0.904506L25.187 1.00934L25.1518 1.35704L24.1246 1.25171L24.0679 1.80904L25.212 1.92613L25.1768 2.2733L23.6169 2.11377ZM25.544 1.63111L25.9506 1.66485C25.9501 1.80289 25.9802 1.90976 26.042 1.98594C26.1044 2.06213 26.1968 2.11173 26.3214 2.13422C26.4527 2.15826 26.5574 2.14855 26.6345 2.1051C26.7107 2.06112 26.7566 2.00231 26.7699 1.92767C26.7791 1.8796 26.7724 1.83613 26.7505 1.79676C26.729 1.7584 26.6851 1.71954 26.6197 1.68222C26.5753 1.65665 26.4716 1.60708 26.3097 1.53344C26.1003 1.43835 25.9588 1.34322 25.8857 1.24709C25.7815 1.1121 25.7448 0.964353 25.7744 0.802754C25.7933 0.698958 25.8403 0.606941 25.9148 0.52768C25.9904 0.447917 26.087 0.394731 26.2055 0.367619C26.324 0.340539 26.4609 0.341042 26.6167 0.369693C26.8705 0.416219 27.0518 0.50723 27.1591 0.64376C27.2669 0.780793 27.3067 0.943367 27.2786 1.13359L26.8649 1.07223C26.8669 0.963817 26.8429 0.881511 26.7944 0.825278C26.7459 0.769013 26.6636 0.730152 26.5498 0.709198C26.4313 0.68771 26.3342 0.695376 26.2586 0.732195C26.2096 0.756228 26.1805 0.794083 26.1708 0.847238C26.1616 0.895303 26.1743 0.939786 26.2091 0.981725C26.2525 1.03541 26.3694 1.10343 26.5595 1.18727C26.75 1.27062 26.8884 1.3468 26.9742 1.41482C27.0605 1.4823 27.1218 1.56514 27.1596 1.66227C27.1979 1.75994 27.2051 1.87244 27.1816 2.00027C27.1601 2.11735 27.108 2.22065 27.0253 2.31012C26.9415 2.40012 26.8363 2.45893 26.7091 2.48654C26.5824 2.51466 26.4302 2.51208 26.2535 2.47988C25.9976 2.43285 25.8107 2.33773 25.6952 2.19407C25.5793 2.05038 25.5292 1.8622 25.544 1.63111ZM27.4237 2.65527L27.96 0.660097L28.6051 0.833948C28.8498 0.899417 29.0061 0.952571 29.075 0.991966C29.1813 1.05279 29.2594 1.14383 29.3095 1.265C29.3595 1.38566 29.3631 1.52628 29.3207 1.6848C29.2875 1.8075 29.2374 1.90414 29.171 1.97573C29.1041 2.0473 29.0301 2.09794 28.9494 2.12759C28.8682 2.15621 28.7905 2.1695 28.7159 2.16542C28.6143 2.15826 28.4733 2.13118 28.291 2.08207L28.0294 2.01151L27.8272 2.76416L27.4237 2.65527ZM28.2726 1.10597L28.1199 1.67405L28.3395 1.73336C28.4979 1.77581 28.6061 1.79422 28.6649 1.78705C28.7241 1.78093 28.7747 1.75944 28.8166 1.72262C28.859 1.6863 28.8881 1.63877 28.9039 1.57946C28.9238 1.50633 28.9182 1.44089 28.8886 1.38208C28.859 1.32327 28.8135 1.27879 28.7517 1.24913C28.7062 1.22717 28.6112 1.19698 28.4667 1.15812L28.2726 1.10597ZM29.7911 3.3389L30.0853 2.52079L29.7789 1.13871L30.2386 1.30436L30.4209 2.23956L31.1447 1.63111L31.5962 1.79368L30.4776 2.66548L30.1839 3.48103L29.7911 3.3389ZM31.9486 1.93226L32.699 2.27587C32.8481 2.34439 32.9559 2.40063 33.0233 2.44615C33.0907 2.49317 33.1444 2.5484 33.1837 2.61384C33.2235 2.67981 33.248 2.75395 33.2567 2.83679C33.2649 2.9191 33.2511 3.00144 33.2138 3.08221C33.174 3.16964 33.1137 3.23969 33.0325 3.29134C32.9523 3.34299 32.8629 3.36856 32.7654 3.36856C32.8639 3.45394 32.9253 3.55058 32.9503 3.66C32.9748 3.76841 32.9615 3.87679 32.9119 3.98571C32.8731 4.07109 32.8154 4.14523 32.7383 4.20813C32.6622 4.27052 32.5779 4.31039 32.487 4.32779C32.3966 4.34413 32.298 4.33492 32.1918 4.30068C32.1259 4.27819 31.9711 4.21275 31.729 4.10383L31.09 3.81085L31.9486 1.93226ZM32.1856 2.41853L31.988 2.85162L32.2362 2.96512C32.3838 3.0326 32.4763 3.0725 32.5141 3.08425C32.5825 3.10674 32.6438 3.10778 32.698 3.08783C32.7521 3.06738 32.7924 3.02698 32.8195 2.96717C32.8466 2.90836 32.8517 2.85467 32.8363 2.80356C32.821 2.75291 32.7833 2.70896 32.724 2.67315C32.6882 2.65116 32.5815 2.60005 32.4037 2.51824L32.1856 2.41853ZM31.8455 3.16351L31.6151 3.66766L31.9665 3.82873C32.1024 3.89062 32.1913 3.9269 32.2311 3.9361C32.2929 3.95143 32.3501 3.94735 32.4037 3.92436C32.4574 3.89982 32.4992 3.8548 32.5299 3.78833C32.556 3.73106 32.5641 3.6779 32.5549 3.62575C32.5457 3.57357 32.5192 3.52654 32.4758 3.48514C32.4323 3.4437 32.3241 3.38285 32.1519 3.30362L31.8455 3.16351ZM32.9819 4.7087L33.9887 2.92523L34.3523 3.13078L33.5172 4.61053L34.4182 5.12033L34.2466 5.42406L32.9819 4.7087ZM34.4795 5.58459L35.6507 3.88292L35.995 4.1207L34.8238 5.82184L34.4795 5.58459ZM35.1614 6.04325L36.4082 4.39631L36.7417 4.64939L36.1896 5.37853L37.4129 5.15866L37.8588 5.49716L36.753 5.66793L36.6447 7.16864L36.2151 6.84242L36.3474 5.7257L35.8719 5.7978L35.4949 6.29583L35.1614 6.04325ZM38.1127 8.63918L37.7965 8.31912L38.0049 7.8615L37.4226 7.27193L36.9675 7.48106L36.6569 7.16659L38.6878 6.28357L38.9984 6.59751L38.1127 8.63918ZM38.1576 7.51942L38.4988 6.77698L37.7597 7.11702L38.1576 7.51942ZM38.7118 8.30276L38.9984 8.59369C38.9079 8.69799 38.861 8.79924 38.8584 8.89741C38.8553 8.99559 38.8936 9.09326 38.9733 9.19193C39.0571 9.29573 39.1429 9.35658 39.2297 9.37395C39.3161 9.39082 39.3891 9.37549 39.4478 9.32793C39.4862 9.29727 39.5096 9.26045 39.5183 9.21596C39.527 9.17302 39.5188 9.11522 39.4938 9.04415C39.477 8.99508 39.4305 8.89025 39.3559 8.72868C39.2594 8.52005 39.2139 8.35541 39.221 8.23474C39.2302 8.06447 39.2987 7.92847 39.4264 7.82518C39.5081 7.75921 39.6036 7.71985 39.7124 7.7086C39.8212 7.69735 39.929 7.71985 40.0368 7.77712C40.144 7.83388 40.2477 7.92386 40.3468 8.0471C40.5092 8.24803 40.5874 8.43517 40.5797 8.60902C40.572 8.78338 40.4965 8.93269 40.3509 9.05848L40.0771 8.74147C40.1491 8.66117 40.1849 8.58295 40.1849 8.50881C40.1844 8.43417 40.1476 8.35082 40.0746 8.26081C39.9995 8.16726 39.9203 8.10946 39.8391 8.088C39.7865 8.07418 39.74 8.08392 39.6976 8.11766C39.6593 8.14885 39.6399 8.19076 39.6389 8.24445C39.6373 8.314 39.6813 8.44183 39.7712 8.62947C39.861 8.81712 39.9162 8.96489 39.9371 9.07227C39.9581 9.18015 39.9515 9.28294 39.9162 9.38162C39.882 9.48032 39.8141 9.57029 39.7124 9.6521C39.6205 9.72677 39.5137 9.77072 39.3922 9.78455C39.2706 9.79834 39.1521 9.7743 39.0377 9.71245C38.9233 9.65006 38.8094 9.54884 38.697 9.40923C38.5336 9.20626 38.4539 9.01245 38.46 8.82786C38.4656 8.6438 38.5499 8.46841 38.7118 8.30276ZM39.7272 10.7883L40.4576 10.3179L41.0537 9.03341L41.3183 9.44451L40.8949 10.2984L41.8393 10.256L42.0988 10.6594L40.6814 10.6712L39.953 11.1401L39.7272 10.7883Z" fill="white"/>
<path fill-rule="evenodd" clip-rule="evenodd" d="M30.7448 1.14355C30.8326 1.14355 30.9036 1.21457 30.9036 1.30241C30.9036 1.39028 30.8326 1.46127 30.7448 1.46127C30.6569 1.46127 30.5859 1.39028 30.5859 1.30241C30.5859 1.21457 30.6569 1.14355 30.7448 1.14355Z" fill="white"/>
<path fill-rule="evenodd" clip-rule="evenodd" d="M5.2487 26.0752C5.33654 26.0752 5.40756 26.1462 5.40756 26.234C5.40756 26.3219 5.33654 26.3929 5.2487 26.3929C5.16083 26.3929 5.08984 26.3219 5.08984 26.234C5.08984 26.1462 5.16083 26.0752 5.2487 26.0752Z" fill="white"/>
</svg>
