<svg width="16" height="17" viewBox="0 0 16 17" fill="none" xmlns="http://www.w3.org/2000/svg">
<path d="M5.48732 8.48909C5.47916 8.49929 5.46896 8.51154 5.46692 8.52582L4.79566 10.9864C4.75689 11.1292 4.7977 11.2843 4.90175 11.3924C4.98133 11.47 5.08538 11.5128 5.1976 11.5128C5.23432 11.5128 5.27105 11.5087 5.30777 11.4985L7.75001 10.8334C7.75409 10.8334 7.75613 10.8375 7.75817 10.8375C7.78673 10.8375 7.81326 10.8273 7.83366 10.8069L14.3646 4.27792C14.5585 4.0841 14.6646 3.81886 14.6646 3.53118C14.6646 3.20473 14.5258 2.87828 14.283 2.63753L13.6669 2.01932C13.4261 1.77448 13.0997 1.63574 12.7732 1.63574C12.4855 1.63574 12.2203 1.74184 12.0265 1.93567L5.49752 8.46665C5.48936 8.47277 5.4914 8.48297 5.48732 8.48909ZM13.726 3.63523L13.0772 4.28404L12.0265 3.21493L12.6651 2.57632C12.7671 2.4743 12.963 2.48859 13.0772 2.60692L13.6954 3.22513C13.7607 3.29042 13.7974 3.37407 13.7974 3.45977C13.7954 3.5271 13.7709 3.59034 13.726 3.63523ZM6.64825 8.59111L11.3613 3.87803L12.4141 4.94714L7.7092 9.65206L6.64825 8.59111ZM5.78928 10.5029L6.13001 9.25216L7.03794 10.1601L5.78928 10.5029Z" fill="#BFC5D2"/>
<path d="M14.141 6.22258C13.8941 6.22258 13.6901 6.42457 13.6901 6.67349V12.7617C13.6901 13.08 13.431 13.3412 13.1107 13.3412H2.81124C2.49296 13.3412 2.2318 13.0821 2.2318 12.7617V2.82549C2.2318 2.50517 2.49296 2.24605 2.81124 2.24605H9.44424C9.69316 2.24605 9.89515 2.04406 9.89515 1.79514C9.89515 1.54623 9.69316 1.34424 9.44424 1.34424H2.74392C1.96656 1.34424 1.33203 1.97673 1.33203 2.75612V12.8291C1.33203 13.6085 1.96452 14.2409 2.74392 14.2409H13.18C13.9594 14.2409 14.5919 13.6085 14.5919 12.8291V6.67145C14.5899 6.42457 14.3879 6.22258 14.141 6.22258Z" fill="#BFC5D2"/>
</svg>
