<svg width="19" height="21" viewBox="0 0 19 21" fill="none" xmlns="http://www.w3.org/2000/svg">
    <path d="M9.43359 0.990234C10.6271 0.990234 11.7717 1.45849 12.6156 2.29198C13.4595 3.12548 13.9336 4.25594 13.9336 5.43468C13.9336 6.61342 13.4595 7.74388 12.6156 8.57738C11.7717 9.41087 10.6271 9.87912 9.43359 9.87912C8.24012 9.87912 7.09553 9.41087 6.25161 8.57738C5.4077 7.74388 4.93359 6.61342 4.93359 5.43468C4.93359 4.25594 5.4077 3.12548 6.25161 2.29198C7.09553 1.45849 8.24012 0.990234 9.43359 0.990234ZM13.9336 12.7013C13.9336 13.8791 13.6186 16.6236 11.4698 19.6902L10.5586 14.3236L11.6161 12.2347C10.9186 12.1569 10.1873 12.1013 9.43359 12.1013C8.67984 12.1013 7.94859 12.1569 7.25109 12.2347L8.30859 14.3236L7.39734 19.6902C5.24859 16.6236 4.93359 13.8791 4.93359 12.7013C2.24484 13.4791 0.433594 14.8791 0.433594 16.5458V20.9902H7.18359H8.40984H10.4573H11.6836H18.4336V16.5458C18.4336 14.8791 16.6336 13.4791 13.9336 12.7013Z" fill="#80abcd"/>
</svg>