<svg width="24" height="25" viewBox="0 0 24 25" fill="none" xmlns="http://www.w3.org/2000/svg">
    <path d="M9.27066 5.85285C10.2348 5.85285 11.1595 6.25209 11.8412 6.96276C12.523 7.67342 12.906 8.63729 12.906 9.64232C12.906 10.6474 12.523 11.6112 11.8412 12.3219C11.1595 13.0325 10.2348 13.4318 9.27066 13.4318C8.30651 13.4318 7.38185 13.0325 6.70009 12.3219C6.01834 11.6112 5.63533 10.6474 5.63533 9.64232C5.63533 8.63729 6.01834 7.67342 6.70009 6.96276C7.38185 6.25209 8.30651 5.85285 9.27066 5.85285ZM9.27066 15.3265C11.6972 15.3265 16.5413 16.596 16.5413 19.116V21.0107H2V19.116C2 16.596 6.84408 15.3265 9.27066 15.3265ZM16.3232 6.1939C18.159 8.27811 18.159 11.1676 16.3232 13.0813L14.7964 11.4802C15.5598 10.3623 15.5598 8.91285 14.7964 7.79495L16.3232 6.1939ZM19.3314 3.01074C22.9031 6.84758 22.8759 12.5886 19.3314 16.2739L17.85 14.7297C20.3675 11.7171 20.3675 7.41601 17.85 4.55495L19.3314 3.01074Z" fill="white"/>
</svg>