<svg width="24" height="25" viewBox="0 0 24 25" fill="none" xmlns="http://www.w3.org/2000/svg">
    <path d="M3.26214 19.4706L11.8656 10.8747L10.6109 9.60321L9.96565 10.2389C9.61613 10.5882 9.05153 10.5882 8.70202 10.2389L8.06572 9.60321C7.71621 9.254 7.71621 8.68989 8.06572 8.34068L13.1382 3.27265C13.4877 2.92344 14.0523 2.92344 14.4018 3.27265L15.0381 3.90839C15.3876 4.2576 15.3876 4.82171 15.0381 5.17092L14.4018 5.78875L15.6744 7.06919C16.0239 6.71998 16.5885 6.71998 16.938 7.06919C17.2875 7.4184 17.2875 7.99147 16.938 8.34068L18.2016 9.60321L18.8379 8.96746C19.1875 8.61825 19.761 8.61825 20.1105 8.96746L20.7379 9.60321C21.0874 9.95242 21.0874 10.5255 20.7379 10.8747L15.6744 15.9338C15.3249 16.283 14.7513 16.283 14.4018 15.9338L13.7745 15.307C13.416 14.9578 13.416 14.3847 13.7745 14.0355L14.4018 13.3997L13.1382 12.1372L4.52577 20.7421C4.17625 21.0913 3.61165 21.0913 3.26214 20.7421C2.91262 20.3929 2.91262 19.8198 3.26214 19.4706ZM19.1247 18.3245C19.6001 18.3245 20.056 18.5132 20.3921 18.849C20.7283 19.1849 20.9171 19.6404 20.9171 20.1153V21.0107H11.9552V20.1153C11.9552 19.6404 12.144 19.1849 12.4802 18.849C12.8163 18.5132 13.2722 18.3245 13.7476 18.3245H19.1247Z" fill="white"/>
</svg>