<svg width="24" height="24" viewBox="0 0 24 24" fill="none" xmlns="http://www.w3.org/2000/svg">
    <path d="M10.6909 5.3439C11.7107 5.3439 12.6888 5.75656 13.41 6.49108C14.1312 7.22561 14.5363 8.22184 14.5363 9.26061C14.5363 10.2994 14.1312 11.2956 13.41 12.0302C12.6888 12.7647 11.7107 13.1773 10.6909 13.1773C9.671 13.1773 8.6929 12.7647 7.97174 12.0302C7.25058 11.2956 6.84543 10.2994 6.84543 9.26061C6.84543 8.22184 7.25058 7.22561 7.97174 6.49108C8.6929 5.75656 9.671 5.3439 10.6909 5.3439ZM10.6909 15.1357C13.2577 15.1357 18.3817 16.4478 18.3817 19.0524V21.0107H3V19.0524C3 16.4478 8.12404 15.1357 10.6909 15.1357Z" fill="white"/>
    <path d="M17.8441 13.3465C16.3645 13.3465 16.457 11.2793 17.8441 11.2793C19.2312 11.2793 19.2312 13.3465 17.8441 13.3465Z" fill="white"/>
    <path d="M14.6532 5.7743C14.9829 3.01013 18.9393 1.87194 20.5878 4.47351C22.0715 6.6686 19.1042 8.05068 18.692 8.86368C18.3623 9.43277 18.5272 10.2458 17.7029 10.2458C16.549 10.2458 16.7963 8.61978 17.5381 7.80679C18.1975 7.07509 20.0933 6.0182 18.8569 4.88001C18.3623 4.39222 16.8787 4.14832 16.3841 5.8556C15.972 7.07509 14.6532 6.5873 14.6532 5.7743Z" fill="white"/>
</svg>