<svg width="24" height="25" viewBox="0 0 24 25" fill="none" xmlns="http://www.w3.org/2000/svg">
    <path d="M13 13.0107C11 13.0107 7 14.0107 7 16.0107V18.0107H19V16.0107C19 14.0107 15 13.0107 13 13.0107ZM19.62 13.1707C20.45 13.8907 21 14.8307 21 16.0107V18.0107H24V16.0107C24 14.4707 21.63 13.5107 19.62 13.1707ZM13 11.0107C13.7956 11.0107 14.5587 10.6947 15.1213 10.1321C15.6839 9.56945 16 8.80639 16 8.01074C16 7.21509 15.6839 6.45203 15.1213 5.88942C14.5587 5.32681 13.7956 5.01074 13 5.01074C12.2044 5.01074 11.4413 5.32681 10.8787 5.88942C10.3161 6.45203 10 7.21509 10 8.01074C10 8.80639 10.3161 9.56945 10.8787 10.1321C11.4413 10.6947 12.2044 11.0107 13 11.0107ZM18 11.0107C18.7956 11.0107 19.5587 10.6947 20.1213 10.1321C20.6839 9.56945 21 8.80639 21 8.01074C21 7.21509 20.6839 6.45203 20.1213 5.88942C19.5587 5.32681 18.7956 5.01074 18 5.01074C17.68 5.01074 17.37 5.06074 17.08 5.15074C17.65 5.96074 18 6.95074 18 8.01074C18 9.07074 17.65 10.0507 17.08 10.8607C17.37 10.9607 17.68 11.0107 18 11.0107ZM8 10.0107H5V7.01074H3V10.0107H0V12.0107H3V15.0107H5V12.0107H8V10.0107Z" fill="white"/>
</svg>