<svg width="24" height="25" viewBox="0 0 24 25" fill="none" xmlns="http://www.w3.org/2000/svg">
    <path d="M17.7439 2.01074H6.46641C5.22058 2.01074 4.21094 3.02058 4.21094 4.2664V10.7199C5.06945 10.2791 6.03445 10.0185 7.05666 9.98799C7.13106 9.97156 7.2076 9.96151 7.28684 9.96151H16.9233C17.5145 9.96151 17.9944 10.4406 17.9944 11.0324C17.9944 11.6242 17.5147 12.1035 16.9233 12.1035H12.1455C12.7239 12.7199 13.1868 13.445 13.5005 14.2452H16.9233C17.5145 14.2452 17.9944 14.7243 17.9944 15.3159C17.9944 15.9079 17.5147 16.3872 16.9233 16.3872H13.9547C13.9587 16.4858 13.962 16.5845 13.962 16.684C13.962 17.9123 13.6284 19.0636 13.0492 20.0545H17.7436C18.989 20.0545 19.9992 19.0443 19.9992 17.7988V4.26602C19.9992 3.02077 18.9896 2.01074 17.7439 2.01074ZM16.9233 7.82007H7.28684C6.69524 7.82007 6.21593 7.34095 6.21593 6.74916C6.21593 6.15736 6.69524 5.67825 7.28684 5.67825H16.9233C17.5145 5.67825 17.9944 6.15736 17.9944 6.74916C17.9944 7.34095 17.5147 7.82007 16.9233 7.82007Z" fill="white"/>
    <path fill-rule="evenodd" clip-rule="evenodd" d="M3 16.6989C3 14.1373 5.07671 12.0605 7.6385 12.0605C10.2005 12.0605 12.277 14.1373 12.277 16.6989C12.277 19.2612 10.2005 21.3375 7.6385 21.3375C5.07671 21.3375 3 19.2612 3 16.6989ZM8.41158 15.926H10.7308V17.4721H8.41158V19.7914H6.86541V17.4721H4.54617V15.926H6.86541V13.6067H8.41158V15.926Z" fill="white"/>
</svg>