<svg width="25" height="25" viewBox="0 0 25 25" fill="none" xmlns="http://www.w3.org/2000/svg">
    <path d="M22.5536 4.3534C22.6095 4.49326 22.6655 4.63312 22.6934 4.77298C22.7214 4.91284 22.7494 5.08067 22.7773 5.22053V14.1996C22.7773 14.3674 22.7494 14.5072 22.7214 14.6471C22.6934 14.787 22.6375 14.9268 22.5815 15.0667C22.5536 15.1226 22.5256 15.2065 22.4976 15.2625C22.3857 15.4303 22.2459 15.6261 22.106 15.766C21.9941 15.8779 21.8822 15.9618 21.7704 16.0457C21.6585 16.1296 21.5466 16.1856 21.4067 16.2415C21.127 16.3534 20.8473 16.4093 20.5396 16.4093H18.106V20.717L15.6724 18.3674L14.8333 17.5842L13.6864 16.4653H5.01511C4.70741 16.4653 4.39972 16.4093 4.14797 16.2975C4.03609 16.2415 3.89623 16.1856 3.78434 16.1017L3.78432 16.1016C3.67244 16.0177 3.56056 15.9338 3.44867 15.8219C3.28084 15.6821 3.16895 15.5142 3.05706 15.3184C3.02909 15.2625 3.00112 15.1786 2.97315 15.1226C2.9172 14.9828 2.86126 14.8429 2.83329 14.703C2.80532 14.5632 2.77734 14.3954 2.77734 14.2555V5.80795L2.80532 4.94081C2.80532 4.88487 2.83329 4.82892 2.83329 4.77298C2.86126 4.63312 2.9172 4.49326 2.97315 4.3534C3.00112 4.29746 3.02909 4.21354 3.05706 4.1576C3.16895 3.98976 3.30881 3.79396 3.44867 3.6541C3.56056 3.54221 3.67245 3.4583 3.78434 3.37438L3.78434 3.37438C3.89623 3.29046 4.00811 3.23452 4.14797 3.17857C4.42769 3.06669 4.70741 3.01074 5.01511 3.01074H20.5116C20.8193 3.01074 21.127 3.06669 21.3787 3.17857C21.4906 3.23452 21.6305 3.29046 21.7424 3.37438C21.8543 3.45829 21.9662 3.54221 22.078 3.6541C22.2459 3.79396 22.3578 3.96179 22.4697 4.1576C22.4976 4.21354 22.5256 4.29746 22.5536 4.3534Z" fill="white"/>
    <path d="M12.7773 11.0107C13.3296 11.0107 13.7773 10.563 13.7773 10.0107C13.7773 9.45846 13.3296 9.01074 12.7773 9.01074C12.2251 9.01074 11.7773 9.45846 11.7773 10.0107C11.7773 10.563 12.2251 11.0107 12.7773 11.0107Z" fill="#01579B"/>
    <path d="M8.77734 11.0107C9.32963 11.0107 9.77734 10.563 9.77734 10.0107C9.77734 9.45846 9.32963 9.01074 8.77734 9.01074C8.22506 9.01074 7.77734 9.45846 7.77734 10.0107C7.77734 10.563 8.22506 11.0107 8.77734 11.0107Z" fill="#01579B"/>
    <path d="M16.7773 11.0107C17.3296 11.0107 17.7773 10.563 17.7773 10.0107C17.7773 9.45846 17.3296 9.01074 16.7773 9.01074C16.2251 9.01074 15.7773 9.45846 15.7773 10.0107C15.7773 10.563 16.2251 11.0107 16.7773 11.0107Z" fill="#01579B"/>
</svg>