<svg width="18" height="18" viewBox="0 0 18 18" fill="none" xmlns="http://www.w3.org/2000/svg">
<path fill-rule="evenodd" clip-rule="evenodd" d="M16.8598 16.1406C16.9533 16.2344 17 16.3516 17 16.4922C17 16.6328 16.9533 16.75 16.8598 16.8438C16.7559 16.9479 16.6365 17 16.5015 17C16.3664 17 16.247 16.9479 16.1431 16.8438L11.3135 11.9688C10.7631 12.4479 10.1399 12.8229 9.44401 13.0938C8.74813 13.3646 8.01072 13.5 7.23174 13.5C6.36968 13.5 5.55956 13.3359 4.80136 13.0078C4.04316 12.6797 3.38105 12.2344 2.815 11.6719C2.24894 11.1094 1.80494 10.4479 1.48296 9.6875C1.16099 8.92708 1 8.11459 1 7.25C1 6.38541 1.16099 5.57292 1.48296 4.8125C1.80494 4.05208 2.24894 3.39063 2.815 2.82813C3.38105 2.26562 4.04316 1.82031 4.80136 1.49219C5.55956 1.16406 6.36968 1 7.23174 1C8.08342 1 8.88834 1.16406 9.64654 1.49219C10.4047 1.82031 11.0669 2.26562 11.6329 2.82813C12.199 3.39063 12.6456 4.05208 12.9727 4.8125C13.2999 5.57292 13.4635 6.38541 13.4635 7.25C13.4635 8.01042 13.3337 8.73177 13.074 9.41406C12.8143 10.0964 12.4612 10.7083 12.0146 11.25L16.8598 16.1406ZM7.23071 12.5156C7.94737 12.5156 8.62506 12.3776 9.26382 12.1016C9.90258 11.8255 10.4582 11.4479 10.9308 10.9688C11.4034 10.4896 11.7773 9.93229 12.0525 9.29688C12.3278 8.66146 12.4654 7.97917 12.4654 7.25C12.4654 6.52083 12.3278 5.83854 12.0525 5.20312C11.7773 4.56771 11.4034 4.01042 10.9308 3.53125C10.4582 3.05208 9.90258 2.67448 9.26382 2.39844C8.62506 2.12239 7.94737 1.98438 7.23071 1.98438C6.50367 1.98438 5.82078 2.12239 5.18203 2.39844C4.54327 2.67448 3.98761 3.05208 3.51504 3.53125C3.04246 4.01042 2.66856 4.56771 2.39332 5.20312C2.11809 5.83854 1.98047 6.52083 1.98047 7.25C1.98047 7.97917 2.11809 8.66146 2.39332 9.29688C2.66856 9.93229 3.04246 10.4896 3.51504 10.9688C3.98761 11.4479 4.54327 11.8255 5.18203 12.1016C5.82078 12.3776 6.50367 12.5156 7.23071 12.5156Z" fill="#BFC5D2"/>
<path d="M16.8598 16.1406L16.5046 16.4925L16.5057 16.4937L16.8598 16.1406ZM16.8598 16.8438L16.5057 16.4907L16.8598 16.8438ZM16.1431 16.8438L15.7879 17.1956L15.7891 17.1968L16.1431 16.8438ZM11.3135 11.9688L11.6687 11.6169L11.3388 11.2838L10.9853 11.5916L11.3135 11.9688ZM12.0146 11.25L11.6288 10.9319L11.3412 11.2807L11.6594 11.6019L12.0146 11.25ZM16.5057 16.4937C16.5069 16.4948 16.5062 16.4944 16.5047 16.4921C16.5032 16.4898 16.5017 16.487 16.5005 16.4841C16.4994 16.4812 16.4991 16.4797 16.4993 16.4803C16.4994 16.481 16.5 16.4848 16.5 16.4922H17.5C17.5 16.2283 17.407 15.9813 17.2139 15.7876L16.5057 16.4937ZM16.5 16.4922C16.5 16.4996 16.4994 16.5033 16.4993 16.5041C16.4991 16.5047 16.4994 16.5032 16.5005 16.5003C16.5017 16.4974 16.5032 16.4946 16.5047 16.4923C16.5062 16.49 16.5069 16.4895 16.5057 16.4907L17.2139 17.1968C17.407 17.003 17.5 16.756 17.5 16.4922H16.5ZM16.5057 16.4907C16.4989 16.4976 16.4943 16.501 16.4923 16.5024C16.4904 16.5038 16.4905 16.5035 16.4925 16.5026C16.4945 16.5017 16.497 16.5009 16.4995 16.5004C16.502 16.4999 16.5029 16.5 16.5015 16.5V17.5C16.7819 17.5 17.0254 17.3858 17.2139 17.1968L16.5057 16.4907ZM16.5015 16.5C16.5 16.5 16.5009 16.4999 16.5034 16.5004C16.5059 16.5009 16.5084 16.5017 16.5105 16.5026C16.5124 16.5035 16.5125 16.5038 16.5106 16.5024C16.5086 16.501 16.504 16.4976 16.4972 16.4907L15.7891 17.1968C15.9775 17.3858 16.221 17.5 16.5015 17.5V16.5ZM16.4983 16.4919L11.6687 11.6169L10.9583 12.3206L15.7879 17.1956L16.4983 16.4919ZM10.9853 11.5916C10.4793 12.032 9.90608 12.3774 9.26266 12.6278L9.62536 13.5597C10.3737 13.2684 11.0468 12.8638 11.6418 12.3459L10.9853 11.5916ZM9.26266 12.6278C8.62708 12.8752 7.9514 13 7.23174 13V14C8.07003 14 8.86918 13.854 9.62536 13.5597L9.26266 12.6278ZM7.23174 13C6.43496 13 5.69274 12.8488 4.99995 12.5489L4.60278 13.4667C5.42639 13.8231 6.3044 14 7.23174 14V13ZM4.99995 12.5489C4.29704 12.2447 3.6876 11.8341 3.16743 11.3172L2.46256 12.0265C3.07449 12.6346 3.78929 13.1146 4.60278 13.4667L4.99995 12.5489ZM3.16743 11.3172C2.649 10.802 2.24097 10.1953 1.94339 9.49255L1.02253 9.88245C1.3689 10.7005 1.84888 11.4167 2.46256 12.0265L3.16743 11.3172ZM1.94339 9.49255C1.64875 8.79669 1.5 8.05082 1.5 7.25H0.5C0.5 8.17836 0.67322 9.05747 1.02253 9.88245L1.94339 9.49255ZM1.5 7.25C1.5 6.44918 1.64875 5.70331 1.94339 5.00745L1.02253 4.61755C0.67322 5.44253 0.5 6.32164 0.5 7.25H1.5ZM1.94339 5.00745C2.24097 4.30465 2.649 3.69797 3.16743 3.18279L2.46256 2.47346C1.84888 3.08329 1.3689 3.79951 1.02253 4.61755L1.94339 5.00745ZM3.16743 3.18279C3.6876 2.66588 4.29704 2.25526 4.99995 1.95106L4.60278 1.03332C3.78929 1.38537 3.07449 1.86536 2.46256 2.47346L3.16743 3.18279ZM4.99995 1.95106C5.69274 1.65124 6.43496 1.5 7.23174 1.5V0.5C6.3044 0.5 5.42639 0.67688 4.60278 1.03332L4.99995 1.95106ZM7.23174 1.5C8.01727 1.5 8.7544 1.65091 9.44796 1.95106L9.84513 1.03332C9.02229 0.677213 8.14957 0.5 7.23174 0.5V1.5ZM9.44796 1.95106C10.1509 2.25526 10.7603 2.66588 11.2805 3.18279L11.9854 2.47346C11.3734 1.86536 10.6586 1.38537 9.84513 1.03332L9.44796 1.95106ZM11.2805 3.18279C11.7995 3.69857 12.2106 4.30615 12.5134 5.01011L13.432 4.61489C13.0806 3.798 12.5984 3.08269 11.9854 2.47346L11.2805 3.18279ZM12.5134 5.01011C12.8126 5.70534 12.9635 6.45028 12.9635 7.25H13.9635C13.9635 6.32054 13.7872 5.4405 13.432 4.61489L12.5134 5.01011ZM12.9635 7.25C12.9635 7.95221 12.8438 8.61308 12.6067 9.23622L13.5413 9.5919C13.8235 8.85046 13.9635 8.06863 13.9635 7.25H12.9635ZM12.6067 9.23622C12.3656 9.86969 12.0394 10.4339 11.6288 10.9319L12.4004 11.5681C12.883 10.9828 13.2631 10.323 13.5413 9.5919L12.6067 9.23622ZM11.6594 11.6019L16.5046 16.4925L17.215 15.7887L12.3698 10.8981L11.6594 11.6019ZM7.23071 13.0156C8.0135 13.0156 8.7589 12.8645 9.46217 12.5605L9.06547 11.6426C8.49123 11.8908 7.88123 12.0156 7.23071 12.0156V13.0156ZM9.46217 12.5605C10.1579 12.2599 10.7676 11.8463 11.2868 11.3198L10.5748 10.6177C10.1489 11.0495 9.64728 11.3912 9.06547 11.6426L9.46217 12.5605ZM11.2868 11.3198C11.804 10.7954 12.2123 10.1861 12.5113 9.49561L11.5937 9.09814C11.3423 9.67853 11.0027 10.1838 10.5748 10.6177L11.2868 11.3198ZM12.5113 9.49561C12.8152 8.79416 12.9654 8.04385 12.9654 7.25H11.9654C11.9654 7.9145 11.8404 8.52875 11.5937 9.09814L12.5113 9.49561ZM12.9654 7.25C12.9654 6.45615 12.8152 5.70584 12.5113 5.00439L11.5937 5.40186C11.8404 5.97125 11.9654 6.58551 11.9654 7.25H12.9654ZM12.5113 5.00439C12.2123 4.31394 11.804 3.7046 11.2868 3.18015L10.5748 3.88235C11.0027 4.31624 11.3423 4.82147 11.5937 5.40186L12.5113 5.00439ZM11.2868 3.18015C10.7676 2.65367 10.1579 2.24012 9.46217 1.93946L9.06547 2.85741C9.64728 3.10884 10.1489 3.45049 10.5748 3.88235L11.2868 3.18015ZM9.46217 1.93946C8.7589 1.63554 8.0135 1.48438 7.23071 1.48438V2.48438C7.88123 2.48438 8.49123 2.60925 9.06547 2.85741L9.46217 1.93946ZM7.23071 1.48438C6.43857 1.48438 5.68786 1.63515 4.98368 1.93946L5.38038 2.85741C5.95371 2.60964 6.56877 2.48438 7.23071 2.48438V1.48438ZM4.98368 1.93946C4.28797 2.24012 3.67828 2.65367 3.15904 3.18015L3.87103 3.88235C4.29694 3.45049 4.79857 3.10884 5.38038 2.85741L4.98368 1.93946ZM3.15904 3.18015C2.64181 3.7046 2.23359 4.31394 1.93451 5.00439L2.85213 5.40186C3.10353 4.82147 3.44311 4.31624 3.87103 3.88235L3.15904 3.18015ZM1.93451 5.00439C1.63068 5.70584 1.48047 6.45616 1.48047 7.25H2.48047C2.48047 6.5855 2.60549 5.97125 2.85213 5.40186L1.93451 5.00439ZM1.48047 7.25C1.48047 8.04385 1.63068 8.79416 1.93451 9.49561L2.85213 9.09814C2.60549 8.52875 2.48047 7.9145 2.48047 7.25H1.48047ZM1.93451 9.49561C2.23359 10.1861 2.64181 10.7954 3.15904 11.3198L3.87103 10.6177C3.44311 10.1838 3.10353 9.67853 2.85213 9.09814L1.93451 9.49561ZM3.15904 11.3198C3.67828 11.8463 4.28797 12.2599 4.98368 12.5605L5.38038 11.6426C4.79857 11.3912 4.29694 11.0495 3.87103 10.6177L3.15904 11.3198ZM4.98368 12.5605C5.68786 12.8649 6.43857 13.0156 7.23071 13.0156V12.0156C6.56877 12.0156 5.95371 11.8904 5.38038 11.6426L4.98368 12.5605Z" fill="#BFC5D2"/>
</svg>
