<svg width="258" height="217" viewBox="0 0 258 217" fill="none" xmlns="http://www.w3.org/2000/svg">
<path fill-rule="evenodd" clip-rule="evenodd" d="M129.983 24.0521C127.415 23.3778 127.415 22.1416 123.486 22.1416C111.853 22.1416 115.479 44.4683 129.983 34.8409V58.3663H149.776C146.452 51.7357 152.949 45.1426 158.69 45.1426C164.281 45.1426 170.777 51.7357 167.605 58.3663C171.231 58.3663 174.857 58.3663 178.332 58.3663C181.354 58.3663 188.002 59.565 188.002 56.4557V13.2634C188.002 6.18331 182.713 0.526703 174.555 0.526703H129.983V24.0521Z" fill="#FDB71A"/>
<path fill-rule="evenodd" clip-rule="evenodd" d="M150.983 54.5412C150.983 57.2758 151.738 58.0999 152.947 60.2727H129.981V79.9771H134.967C142.824 79.9771 145.241 91.8147 139.953 96.3475C135.421 100.356 131.492 98.5202 129.981 98.3704V118.075H176.517C183.467 118.075 188 111.781 188 104.739V62.1832C188 59.1489 182.863 60.2727 177.121 60.2727C172.891 60.2727 168.66 60.2727 164.43 60.2727C166.243 56.8263 167.149 53.7919 164.732 50.3456C162.315 46.6744 155.818 46.3747 152.796 49.9709C151.889 50.9449 150.983 52.8554 150.983 54.5412Z" fill="#44C5F2"/>
<path fill-rule="evenodd" clip-rule="evenodd" d="M70.0029 10.7161V58.3663H93.5728C84.3564 72.1894 106.415 77.2091 106.415 63.461C106.415 60.4266 105.056 60.9136 104.451 58.3663L123.64 58.4037C129.381 58.4787 128.021 59.6399 128.021 40.5724C128.021 38.1374 127.115 39.1114 124.848 39.2238C110.948 39.8981 111.552 19.7067 124.244 20.2686C129.079 20.4559 128.021 24.1271 128.021 2.43721C128.021 0.976261 127.568 0.526703 126.057 0.526703H82.09C76.1976 0.526703 70.7584 5.20933 70.0029 9.81702V10.2666V10.7161Z" fill="#44C5F2"/>
<path fill-rule="evenodd" clip-rule="evenodd" d="M70.002 107.291V107.815V108.377C70.6063 113.734 75.29 118.08 80.8803 118.08H128.02V95.2285C131.193 95.9402 132.402 97.8507 136.028 96.2774C145.849 92.0443 139.352 76.2358 128.02 83.7655V64.6604C128.171 58.7416 129.229 60.2775 108.227 60.2775V65.3347C108.227 76.086 89.1902 76.985 89.1902 64.0611C89.1902 59.3784 94.3273 60.2775 70.002 60.2775V107.291Z" fill="#FDB71A"/>
<path fill-rule="evenodd" clip-rule="evenodd" d="M130.673 185.866H139.378C139.576 184.296 141.456 179.709 142.247 177.845C143.237 175.122 144.226 172.67 145.314 170.045C146.303 167.47 147.293 164.968 148.282 162.27L150.458 156.53C151.151 154.592 150.063 155.745 151.547 154.666C151.646 156.53 152.635 158.296 153.129 159.719C155.504 166.121 155.801 163.643 150.557 175.319L146.106 185.866H154.91C155.405 183.413 158.472 177.502 158.669 175.466L163.22 185.866H172.025C171.233 184.296 163.22 165.213 163.22 165.066L166.979 154.666C167.87 158.37 178.554 183.928 178.653 185.866H187.457C187.26 184.222 184.391 178.066 183.5 176.054L170.739 146.351H162.824C162.231 148.902 159.659 152.974 159.461 155.083H158.669C158.472 153.685 157.68 152.14 157.087 150.791C156.493 149.368 155.603 147.823 155.306 146.351H147.392C145.116 150.57 130.772 184.835 130.673 185.866Z" fill="black"/>
<path fill-rule="evenodd" clip-rule="evenodd" d="M69.7411 147.577C69.7411 153.513 67.7625 152.164 81.8103 152.164V185.032C81.8103 186.847 83.591 186.283 87.647 186.283C88.6363 186.283 88.9331 185.988 88.9331 185.032V152.164C92.2966 152.164 98.1334 152.875 101.002 151.747V147.185L110.301 164.502C115.149 173.307 114.358 170.143 114.358 180.445C114.358 187.117 112.973 186.283 121.085 186.283C121.085 166.734 119.897 175.932 127.911 159.792C129.098 157.315 130.186 155.721 131.373 153.268C132.461 151.011 134.44 147.994 134.836 146.351H127.317L118.018 164.992C115.545 163.128 109.906 146.351 107.729 146.351H70.9282C70.0379 146.351 69.7411 146.621 69.7411 147.577Z" fill="black"/>
<path fill-rule="evenodd" clip-rule="evenodd" d="M35.9033 147.579V185.034C35.9033 186.947 38.2776 186.285 43.0261 186.285V157.587L56.2824 179.245C61.3277 187.609 58.9535 186.285 67.1645 186.285V146.353H60.5363V174.634C59.4481 173.849 46.4886 152.191 44.9057 149.444C42.7293 145.74 44.0154 146.353 37.1894 146.353C36.2001 146.353 35.9033 146.623 35.9033 147.579Z" fill="black"/>
<path fill-rule="evenodd" clip-rule="evenodd" d="M240.886 180.86C229.213 180.86 230.894 170.73 230.894 161.311C230.894 148.312 249.691 147.355 249.691 162.979C249.691 168.915 250.383 180.86 240.886 180.86ZM223.771 162.145V170.043C223.771 179.438 230.598 186.698 240.095 186.698C243.062 186.698 244.447 185.987 246.723 185.447L253.549 192.413L258 188.366L251.867 182.013C252.856 180.468 253.747 179.904 254.835 177.696C257.11 173.134 256.319 166.904 256.319 160.894C256.319 153.193 249.097 145.932 241.282 145.932C237.522 145.932 236.039 145.736 232.378 147.478C230.499 148.385 229.41 149.612 228.025 151.01C225.552 153.487 223.771 157.387 223.771 162.145Z" fill="black"/>
<path fill-rule="evenodd" clip-rule="evenodd" d="M206.259 155.083H207.05C207.347 158.173 211.799 168.181 212.096 171.296H201.214C201.511 168.205 205.962 158.198 206.259 155.083ZM189.145 186.283H195.773C196.168 184.664 196.861 182.677 197.454 181.23C199.631 175.196 196.564 176.717 213.283 176.717C215.163 176.717 215.855 182.922 217.537 186.283H224.165C224.066 184.762 223.176 182.554 222.681 181.156L217.141 166.243C215.855 162.932 214.767 159.866 213.58 156.481C212.887 154.592 212.393 153.44 211.799 151.6C211.107 149.613 210.414 148.215 210.018 146.351H203.291L196.069 166.194C194.882 169.162 189.145 184.345 189.145 186.283Z" fill="black"/>
<path fill-rule="evenodd" clip-rule="evenodd" d="M14.6413 186.283C22.1598 186.283 20.3791 188.024 20.4781 174.19C20.4781 168.696 33.5365 150.055 33.8333 146.351H26.3148L21.6652 155.917C20.8738 157.511 20.1813 158.909 19.3898 160.626C18.4995 162.221 18.0049 164.109 16.7188 165.066L7.51852 146.351H0C0.395711 148.24 1.38498 149.049 2.27533 150.766L11.6735 168.402C14.0478 172.547 13.3553 174.411 13.3553 180.445C13.3553 182.358 12.5638 186.283 14.6413 186.283Z" fill="black"/>
<path d="M23.2431 207.223L25.1417 207.702C24.7451 209.255 24.0328 210.435 23.0026 211.25C21.9734 212.064 20.7143 212.473 19.2252 212.473C17.6868 212.473 16.4348 212.161 15.4678 211.532C14.5021 210.907 13.7699 209.999 13.2664 208.813C12.763 207.623 12.5107 206.35 12.5107 204.986C12.5107 203.5 12.7935 202.204 13.3626 201.096C13.9329 199.989 14.7426 199.148 15.7917 198.573C16.8408 197.998 17.9966 197.712 19.2557 197.712C20.6885 197.712 21.8901 198.074 22.8629 198.803C23.8392 199.53 24.5186 200.551 24.9012 201.868L23.0424 202.307C22.7127 201.269 22.2304 200.511 21.6003 200.039C20.9713 199.564 20.1781 199.327 19.2229 199.327C18.1269 199.327 17.2069 199.591 16.4711 200.116C15.7342 200.641 15.2155 201.349 14.9187 202.233C14.6182 203.121 14.4692 204.035 14.4692 204.976C14.4692 206.189 14.6452 207.25 14.9984 208.154C15.3516 209.062 15.9008 209.737 16.6471 210.185C17.3935 210.635 18.1996 210.858 19.0691 210.858C20.1288 210.858 21.0206 210.552 21.754 209.943C22.4862 209.332 22.9826 208.427 23.2431 207.223ZM25.9139 212.234L31.4044 197.951H33.4861L39.3123 212.234H37.1567L35.5009 207.905H29.4753L27.9228 212.234H25.9139ZM30.0315 206.37H34.9083L33.4157 202.41C32.9663 201.206 32.626 200.212 32.3901 199.427C32.193 200.358 31.9301 201.273 31.6004 202.177L30.0315 206.37ZM42.3128 197.951H51.2463V212.234H49.3476V199.627H44.2115V206.984C44.2115 208.48 44.1422 209.574 44.0014 210.268C43.8618 210.966 43.5649 211.505 43.1155 211.894C42.666 212.281 42.0934 212.473 41.4034 212.473C40.9845 212.473 40.4811 212.387 39.8943 212.214L40.2346 210.538C40.5444 210.698 40.8108 210.778 41.0302 210.778C41.4574 210.778 41.7801 210.617 41.9936 210.295C42.206 209.973 42.3128 209.214 42.3128 208.019V197.951ZM52.8023 212.234L58.2928 197.951H60.3745L66.2007 212.234H64.0451L62.3893 207.905H56.3637L54.8112 212.234H52.8023ZM56.9199 206.37H61.7968L60.3041 202.41C59.8547 201.206 59.5144 200.212 59.2785 199.427C59.0814 200.358 58.8185 201.273 58.4888 202.177L56.9199 206.37ZM69.2012 197.951H78.1347V212.234H76.236V199.627H71.0999V206.984C71.0999 208.48 71.0306 209.574 70.8898 210.268C70.7502 210.966 70.4533 211.505 70.0039 211.894C69.5544 212.281 68.9818 212.473 68.2918 212.473C67.8729 212.473 67.3695 212.387 66.7827 212.214L67.123 210.538C67.4328 210.698 67.6992 210.778 67.9186 210.778C68.3458 210.778 68.6685 210.617 68.882 210.295C69.0944 209.973 69.2012 209.214 69.2012 208.019V197.951ZM81.3605 197.951H83.2591V204.035H86.6668C88.9011 204.035 90.3702 204.448 91.0766 205.276C91.7795 206.1 92.1327 207.037 92.1327 208.084C92.1327 209.192 91.7561 210.16 91.0004 210.99C90.247 211.818 88.8483 212.234 86.7994 212.234H81.3605V197.951ZM83.2591 210.617H86.7102C87.8954 210.617 88.7579 210.418 89.2906 210.019C89.8281 209.621 90.0945 208.982 90.0945 208.104C90.0945 207.509 89.9313 207.008 89.6075 206.605C89.2848 206.203 88.8647 205.947 88.3519 205.837C87.8426 205.728 86.986 205.67 85.7867 205.67H83.2591V210.617ZM93.8519 197.951H95.7505V212.234H93.8519V197.951ZM109.008 216.203H107.329V212.234H106.649L104.24 208.357C103.641 207.383 103.198 206.744 102.912 206.449C102.332 205.851 101.659 205.551 100.894 205.551V212.234H98.9951V197.951H100.894V204.215C101.829 204.215 102.526 203.949 102.981 203.417C103.222 203.137 103.579 202.433 104.051 201.302C104.45 200.361 104.777 199.696 105.03 199.314C105.64 198.407 106.532 197.951 107.708 197.951C108.441 197.951 108.827 197.958 108.867 197.971V199.607C108.784 199.607 108.658 199.604 108.488 199.597C108.318 199.591 108.191 199.587 108.105 199.587C107.436 199.587 106.916 199.817 106.546 200.278C106.336 200.531 106.066 201.07 105.733 201.895C105.376 202.795 105.086 203.404 104.867 203.723C104.494 204.261 103.981 204.663 103.325 204.933C104.247 205.189 105.16 206.04 106.059 207.489L107.961 210.558H109.008V216.203ZM116.19 197.951H118.088V204.215C118.951 204.215 119.56 204.045 119.909 203.71C120.263 203.374 120.71 202.569 121.255 201.293C121.652 200.352 121.978 199.69 122.239 199.304C122.495 198.915 122.861 198.589 123.337 198.327C123.81 198.065 124.337 197.931 124.91 197.931C125.639 197.931 126.022 197.938 126.062 197.951V199.587C125.996 199.587 125.869 199.584 125.683 199.577C125.473 199.571 125.346 199.567 125.299 199.567C124.696 199.567 124.246 199.714 123.953 200.005C123.654 200.298 123.314 200.924 122.928 201.878C122.448 203.088 122.042 203.853 121.708 204.168C121.379 204.48 120.98 204.733 120.52 204.923C121.442 205.176 122.355 206.03 123.254 207.48L126.203 212.234H123.85L121.449 208.364C120.793 207.29 120.243 206.552 119.803 206.153C119.36 205.751 118.791 205.551 118.088 205.551V212.234H116.19V197.951ZM140.383 204.936C140.428 207.097 139.912 208.883 138.84 210.292C137.734 211.745 136.055 212.473 133.797 212.473C131.545 212.473 129.87 211.745 128.763 210.288C127.728 208.926 127.212 207.14 127.212 204.933V204.016H138.343C138.267 202.589 137.847 201.468 137.084 200.651C136.278 199.797 135.176 199.367 133.77 199.367C131.708 199.367 130.409 200.365 129.87 202.359L128.011 201.875C128.374 200.521 129.076 199.481 130.12 198.756C131.112 198.061 132.328 197.712 133.757 197.712C135.059 197.712 136.225 198.031 137.261 198.666C138.32 199.307 139.116 200.215 139.649 201.383C140.113 202.383 140.356 203.567 140.383 204.936ZM138.423 205.691H129.17C129.243 207.29 129.687 208.554 130.506 209.484C131.328 210.411 132.424 210.877 133.797 210.877C135.169 210.877 136.265 210.411 137.088 209.484C137.907 208.554 138.354 207.29 138.423 205.691ZM153.024 207.223L154.923 207.702C154.526 209.255 153.814 210.435 152.784 211.25C151.754 212.064 150.495 212.473 149.006 212.473C147.468 212.473 146.216 212.161 145.249 211.532C144.283 210.907 143.551 209.999 143.048 208.813C142.544 207.623 142.292 206.35 142.292 204.986C142.292 203.5 142.575 202.204 143.144 201.096C143.714 199.989 144.524 199.148 145.573 198.573C146.622 197.998 147.778 197.712 149.037 197.712C150.47 197.712 151.671 198.074 152.644 198.803C153.62 199.53 154.3 200.551 154.682 201.868L152.824 202.307C152.494 201.269 152.011 200.511 151.381 200.039C150.752 199.564 149.959 199.327 149.004 199.327C147.908 199.327 146.988 199.591 146.252 200.116C145.515 200.641 144.997 201.349 144.7 202.233C144.399 203.121 144.25 204.035 144.25 204.976C144.25 206.189 144.426 207.25 144.78 208.154C145.133 209.062 145.682 209.737 146.428 210.185C147.175 210.635 147.981 210.858 148.85 210.858C149.91 210.858 150.802 210.552 151.535 209.943C152.267 209.332 152.764 208.427 153.024 207.223ZM157.584 212.234V197.951H159.483V212.234H157.584ZM162.837 197.951H174.069V212.234H172.17V199.627H164.736V212.234H162.837V197.951ZM176.605 205.282C176.605 202.915 177.244 201.06 178.52 199.72C179.795 198.38 181.44 197.712 183.46 197.712C184.781 197.712 185.971 198.027 187.033 198.656C188.093 199.284 188.902 200.162 189.459 201.289C190.015 202.413 190.294 203.69 190.294 205.115C190.294 206.562 190.002 207.858 189.415 208.999C188.828 210.142 188 211.007 186.927 211.592C185.851 212.181 184.692 212.473 183.449 212.473C182.1 212.473 180.898 212.147 179.835 211.499C178.775 210.851 177.969 209.966 177.424 208.843C176.877 207.722 176.605 206.536 176.605 205.282ZM178.563 205.316C178.563 207.034 179.025 208.388 179.951 209.375C180.878 210.362 182.04 210.858 183.439 210.858C184.865 210.858 186.034 210.359 186.957 209.361C187.877 208.364 188.336 206.948 188.336 205.113C188.336 203.952 188.14 202.938 187.746 202.074C187.353 201.209 186.777 200.538 186.02 200.063C185.261 199.587 184.412 199.347 183.469 199.347C182.13 199.347 180.978 199.806 180.011 200.725C179.045 201.642 178.563 203.171 178.563 205.316ZM193.589 197.951H202.302V210.558H203.582V215.564H201.903V212.234H192.43V215.564H190.751V210.558H191.85C193.009 208.823 193.589 205.316 193.589 200.039V197.951ZM200.403 199.627H195.407V200.358C195.407 201.575 195.298 203.24 195.077 205.352C194.861 207.463 194.428 209.198 193.789 210.558H200.403V199.627ZM204.255 212.234L209.745 197.951H211.827L217.653 212.234H215.497L213.842 207.905H207.816L206.264 212.234H204.255ZM208.372 206.37H213.249L211.756 202.41C211.307 201.206 210.967 200.212 210.731 199.427C210.534 200.358 210.271 201.273 209.941 202.177L208.372 206.37ZM228.448 199.627H221.094V204.455H225.011V205.731H221.094V212.234H219.195V205.731H217.596V204.455H219.195V197.951H228.448V199.627ZM230.077 197.951H231.976V204.035H235.384C237.618 204.035 239.087 204.448 239.794 205.276C240.497 206.1 240.85 207.037 240.85 208.084C240.85 209.192 240.473 210.16 239.717 210.99C238.964 211.818 237.565 212.234 235.516 212.234H230.077V197.951ZM231.976 210.617H235.427C236.612 210.617 237.475 210.418 238.008 210.019C238.545 209.621 238.811 208.982 238.811 208.104C238.811 207.509 238.648 207.008 238.324 206.605C238.002 206.203 237.582 205.947 237.069 205.837C236.56 205.728 235.703 205.67 234.504 205.67H231.976V210.617ZM242.569 197.951H244.467V212.234H242.569V197.951Z" fill="#979797"/>
</svg>
