<svg width="21" height="21" viewBox="0 0 21 21" fill="none" xmlns="http://www.w3.org/2000/svg">
    <path d="M12.6716 19.0356C11.971 19.292 11.218 19.4319 10.434 19.4319C9.65093 19.4319 8.8987 19.2922 8.1987 19.0365C7.92058 19.5077 7.57058 19.9286 7.16016 20.2864C8.16444 20.7389 9.27136 20.9903 10.434 20.9903C11.5963 20.9903 12.703 20.739 13.7071 20.2867C13.2926 19.9241 12.9457 19.5002 12.6716 19.0356Z" fill="#80abcd"/>
    <path d="M6.03134 7.10085C5.78059 6.62214 5.60021 6.09808 5.50472 5.54395C3.72556 6.92188 2.49753 9.02612 2.23047 11.4299C2.73113 11.2418 3.25866 11.1369 3.79214 11.1217C4.08056 9.52622 4.89076 8.11951 6.03134 7.10085Z" fill="#80abcd"/>
    <path d="M17.0673 11.1217C17.6007 11.1369 18.1282 11.2418 18.629 11.4299C18.3619 9.02617 17.1339 6.92188 15.3548 5.54395C15.2593 6.09808 15.0789 6.62214 14.8281 7.10085C15.9687 8.11951 16.7789 9.52617 17.0673 11.1217Z" fill="#80abcd"/>
    <path d="M10.4312 8.26303C12.365 8.26303 13.9327 6.63496 13.9327 4.62663C13.9327 2.61831 12.365 0.990234 10.4312 0.990234C8.49736 0.990234 6.92969 2.61831 6.92969 4.62663C6.92969 6.63496 8.49736 8.26303 10.4312 8.26303Z" fill="#80abcd"/>
    <path d="M2.18104 13.1655C0.506269 14.1697 -0.067526 16.3937 0.899387 18.133C1.54796 19.2996 2.72492 19.9518 3.93509 19.9518C4.52904 19.9518 5.13115 19.7946 5.68253 19.464C7.35725 18.4598 7.93109 16.2357 6.96418 14.4966C6.3156 13.3299 5.1387 12.6777 3.92848 12.6777C3.33453 12.6777 2.73237 12.8349 2.18104 13.1655Z" fill="#80abcd"/>
    <path d="M13.8954 14.4966C12.9286 16.2358 13.5024 18.4598 15.1771 19.464C15.7286 19.7946 16.3305 19.9518 16.9246 19.9518C18.1346 19.9518 19.3117 19.2996 19.9602 18.133C20.9271 16.3938 20.3533 14.1697 18.6786 13.1655C18.1271 12.8349 17.5252 12.6777 16.9311 12.6777C15.7211 12.6778 14.544 13.3301 13.8954 14.4966Z" fill="#80abcd"/>
</svg>