<svg width="24" height="25" viewBox="0 0 24 25" fill="none" xmlns="http://www.w3.org/2000/svg">
    <path d="M17 9.01074H7V7.01074H17V9.01074ZM17 13.0107H7V11.0107H17V13.0107ZM14 17.0107H7V15.0107H14V17.0107ZM12 3.01074C12.2652 3.01074 12.5196 3.1161 12.7071 3.30364C12.8946 3.49117 13 3.74553 13 4.01074C13 4.27596 12.8946 4.53031 12.7071 4.71785C12.5196 4.90539 12.2652 5.01074 12 5.01074C11.7348 5.01074 11.4804 4.90539 11.2929 4.71785C11.1054 4.53031 11 4.27596 11 4.01074C11 3.74553 11.1054 3.49117 11.2929 3.30364C11.4804 3.1161 11.7348 3.01074 12 3.01074ZM19 3.01074H14.82C14.4 1.85074 13.3 1.01074 12 1.01074C10.7 1.01074 9.6 1.85074 9.18 3.01074H5C4.46957 3.01074 3.96086 3.22146 3.58579 3.59653C3.21071 3.9716 3 4.48031 3 5.01074V19.0107C3 19.5412 3.21071 20.0499 3.58579 20.425C3.96086 20.8 4.46957 21.0107 5 21.0107H19C19.5304 21.0107 20.0391 20.8 20.4142 20.425C20.7893 20.0499 21 19.5412 21 19.0107V5.01074C21 4.48031 20.7893 3.9716 20.4142 3.59653C20.0391 3.22146 19.5304 3.01074 19 3.01074Z" fill="white"/>
</svg>