<svg width="24" height="25" viewBox="0 0 24 25" fill="none"
     xmlns="http://www.w3.org/2000/svg">
    <path
            d="M12 6.0041C15.79 6.0041 19.17 8.1341 20.82 11.5041C20.23 12.7241 19.4 13.7741 18.41 14.6241L19.82 16.0341C21.21 14.8041 22.31 13.2641 23 11.5041C21.27 7.1141 17 4.0041 12 4.0041C10.73 4.0041 9.51 4.2041 8.36 4.5741L10.01 6.2241C10.66 6.0941 11.32 6.0041 12 6.0041ZM10.93 7.1441L13 9.2141C13.57 9.4641 14.03 9.9241 14.28 10.4941L16.35 12.5641C16.43 12.2241 16.49 11.8641 16.49 11.4941C16.5 9.0141 14.48 7.0041 12 7.0041C11.63 7.0041 11.28 7.0541 10.93 7.1441ZM2.01 3.8741L4.69 6.5541C3.06 7.8341 1.77 9.5341 1 11.5041C2.73 15.8941 7 19.0041 12 19.0041C13.52 19.0041 14.98 18.7141 16.32 18.1841L19.74 21.6041L21.15 20.1941L3.42 2.4541L2.01 3.8741ZM9.51 11.3741L12.12 13.9841C12.08 13.9941 12.04 14.0041 12 14.0041C10.62 14.0041 9.5 12.8841 9.5 11.5041C9.5 11.4541 9.51 11.4241 9.51 11.3741ZM6.11 7.9741L7.86 9.7241C7.63 10.2741 7.5 10.8741 7.5 11.5041C7.5 13.9841 9.52 16.0041 12 16.0041C12.63 16.0041 13.23 15.8741 13.77 15.6441L14.75 16.6241C13.87 16.8641 12.95 17.0041 12 17.0041C8.21 17.0041 4.83 14.8741 3.18 11.5041C3.88 10.0741 4.9 8.8941 6.11 7.9741Z"
            fill="#BFC5D2"/>
</svg>