<svg width="20" height="16" viewBox="0 0 20 16" fill="none" xmlns="http://www.w3.org/2000/svg">
    <path fill-rule="evenodd" clip-rule="evenodd" d="M4.2255 2.23529L4.71584 0.764216C4.86796 0.307833 5.29508 0 5.77615 0H14.2239C14.7049 0 15.132 0.307833 15.2842 0.764216L15.7745 2.23529H17.2647C18.4992 2.23529 19.5 3.23607 19.5 4.47059V13.4118C19.5 14.6463 18.4992 15.6471 17.2647 15.6471H2.73529C1.50078 15.6471 0.5 14.6463 0.5 13.4118V4.47059C0.5 3.23607 1.50078 2.23529 2.73529 2.23529H4.2255ZM10 13.1324C12.6234 13.1324 14.75 11.0057 14.75 8.38235C14.75 5.759 12.6234 3.63235 10 3.63235C7.37665 3.63235 5.25 5.759 5.25 8.38235C5.25 11.0057 7.37665 13.1324 10 13.1324ZM10 11.4559C8.30254 11.4559 6.92647 10.0798 6.92647 8.38235C6.92647 6.68489 8.30254 5.30882 10 5.30882C11.6975 5.30882 13.0735 6.68489 13.0735 8.38235C13.0735 10.0798 11.6975 11.4559 10 11.4559ZM16.1471 5.58824V6.70588H17.2647V5.58824H16.1471Z" fill="white"/>
</svg>