<svg width="24" height="25" viewBox="0 0 24 25" fill="none" xmlns="http://www.w3.org/2000/svg">
    <path fill-rule="evenodd" clip-rule="evenodd" d="M20.3333 4.01074H3.66667C2.79167 4.01074 2 4.85519 2 5.78852V18.233C2 19.1663 2.79167 20.0107 3.66667 20.0107H20.3333C21.2083 20.0107 22 19.1663 22 18.233V5.78852C22 4.85519 21.2083 4.01074 20.3333 4.01074ZM13.6667 7.5663V6.67741H20.3333V7.5663H13.6667ZM13.6667 9.34408V8.45519H20.3333V9.34408H19.9167H13.6667ZM13.6667 11.1219V10.233H19.5V11.1219H13.6667ZM3.66667 16.4552C3.66667 14.6774 7 13.7085 8.66667 13.7085C10.3333 13.7085 13.6667 14.6774 13.6667 16.4552V17.3441H3.66667V16.4552ZM8.5 12.0107C9.88071 12.0107 11 10.8915 11 9.51074C11 8.13003 9.88071 7.01074 8.5 7.01074C7.11929 7.01074 6 8.13003 6 9.51074C6 10.8915 7.11929 12.0107 8.5 12.0107Z" fill="white"/>
</svg>