<svg width="24" height="24" viewBox="0 0 24 24" fill="none" xmlns="http://www.w3.org/2000/svg">
<path d="M11.5046 4.00003C11.4009 4.00003 11.2971 4.00182 11.1933 4.00557C10.6396 4.02636 10.0819 4.11004 9.53656 4.25671C5.55962 5.32639 3.18955 9.45019 4.25517 13.4423C5.32079 17.4344 9.42893 19.8135 13.4059 18.7439C17.3828 17.6742 19.7529 13.5504 18.6873 9.55823C18.6673 9.46333 18.6283 9.37351 18.5726 9.29424C18.5169 9.21496 18.4457 9.1479 18.3634 9.09714C18.2811 9.04638 18.1893 9.01299 18.0937 8.99899C17.9981 8.98499 17.9006 8.99068 17.8073 9.01572C17.7139 9.04076 17.6266 9.08462 17.5507 9.14463C17.4748 9.20464 17.4118 9.27953 17.3657 9.36476C17.3195 9.44998 17.2912 9.54373 17.2823 9.64032C17.2734 9.7369 17.2843 9.8343 17.3141 9.92655C18.1807 13.1729 16.273 16.4956 13.039 17.3655C9.80496 18.2353 6.49489 16.3203 5.62832 13.074C4.76179 9.82765 6.66948 6.50497 9.90348 5.6351C11.67 5.15995 13.5572 5.51311 15.0348 6.59495C15.1103 6.65028 15.196 6.69013 15.2869 6.71222C15.3778 6.73431 15.4722 6.73822 15.5646 6.72371C15.657 6.7092 15.7456 6.67656 15.8255 6.62766C15.9053 6.57876 15.9748 6.51456 16.0299 6.43871C16.085 6.36286 16.1247 6.27685 16.1467 6.1856C16.1687 6.09435 16.1726 5.99964 16.1582 5.90689C16.1437 5.81413 16.1112 5.72513 16.0625 5.64498C16.0138 5.56484 15.9498 5.49512 15.8742 5.43979C14.5915 4.50055 13.0596 4.00654 11.5046 4V4.00003ZM19.2543 4.5302C19.0696 4.54046 18.8961 4.62252 18.7707 4.75899C16.8949 6.72897 13.1462 10.7993 11.0654 13.0015L8.56367 10.786C8.49358 10.7237 8.41196 10.6759 8.32346 10.6452C8.23496 10.6146 8.14132 10.6018 8.04788 10.6075C7.95444 10.6132 7.86303 10.6373 7.77888 10.6785C7.69473 10.7196 7.61948 10.777 7.55742 10.8474C7.49536 10.9177 7.44772 10.9997 7.41721 11.0885C7.3867 11.1773 7.37392 11.2713 7.3796 11.3651C7.38528 11.4589 7.4093 11.5507 7.45031 11.6352C7.49131 11.7196 7.54849 11.7952 7.61857 11.8575L10.6429 14.5362C10.7813 14.6592 10.962 14.7233 11.1467 14.715C11.3314 14.7067 11.5056 14.6265 11.6324 14.4915C13.6222 12.4018 17.8356 7.80344 19.7992 5.74117C19.8985 5.63833 19.9648 5.50787 19.9894 5.36674C20.0139 5.2256 19.9957 5.08031 19.9369 4.94973C19.8782 4.81916 19.7817 4.70932 19.6599 4.63451C19.5382 4.55969 19.3969 4.52335 19.2543 4.5302Z" fill="#9A9B9C"/>
</svg>
