<svg width="21" height="21" viewBox="0 0 21 21" fill="none" xmlns="http://www.w3.org/2000/svg">
    <path fill-rule="evenodd" clip-rule="evenodd" d="M10.4258 20.9902C15.9486 20.9902 20.4258 16.5131 20.4258 10.9902C20.4258 5.46739 15.9486 0.990234 10.4258 0.990234C4.90293 0.990234 0.425781 5.46739 0.425781 10.9902C0.425781 16.5131 4.90293 20.9902 10.4258 20.9902ZM7.39933 10.741C6.05696 10.741 4.96875 9.65277 4.96875 8.31034C4.96875 6.9679 6.05696 5.87964 7.39933 5.87964C8.74171 5.87964 9.82992 6.9679 9.82992 8.31034C9.82992 9.65277 8.74171 10.741 7.39933 10.741ZM13.4532 16.1007C12.1108 16.1007 11.0226 15.0125 11.0226 13.67C11.0226 12.3276 12.1108 11.2393 13.4532 11.2393C14.7956 11.2393 15.8838 12.3276 15.8838 13.67C15.8838 15.0125 14.7956 16.1007 13.4532 16.1007ZM12.7484 5.87964H14.005L8.10385 16.1007H6.84759L12.7484 5.87964ZM7.39933 7.26861C6.82398 7.26861 6.35765 7.73495 6.35765 8.31034C6.35765 8.88537 6.82363 9.35206 7.39933 9.35206C7.97434 9.35206 8.44101 8.88537 8.44101 8.31034C8.44101 7.73495 7.97434 7.26861 7.39933 7.26861ZM13.4532 12.6283C12.8779 12.6283 12.4115 13.0946 12.4115 13.67C12.4115 14.2454 12.8779 14.7117 13.4532 14.7117C14.0286 14.7117 14.4949 14.2451 14.4949 13.67C14.4949 13.0946 14.0286 12.6283 13.4532 12.6283Z" fill="#80abcd"/>
</svg>