<svg width="12" height="20" viewBox="0 0 12 20" fill="none" xmlns="http://www.w3.org/2000/svg">
<path fill-rule="evenodd" clip-rule="evenodd" d="M1.71429 0H10.2857C10.7404 0 11.1764 0.191558 11.4979 0.532533C11.8194 0.873509 12 1.33597 12 1.81818V18.1818C12 18.664 11.8194 19.1265 11.4979 19.4675C11.1764 19.8084 10.7404 20 10.2857 20H1.71429C1.25963 20 0.823592 19.8084 0.502101 19.4675C0.18061 19.1265 0 18.664 0 18.1818V1.81818C0 1.33597 0.18061 0.873509 0.502101 0.532533C0.823592 0.191558 1.25963 0 1.71429 0ZM1.71429 16.3636H10.2857V3.63636H1.71429V16.3636ZM6 19C6.55228 19 7 18.5523 7 18C7 17.4477 6.55228 17 6 17C5.44772 17 5 17.4477 5 18C5 18.5523 5.44772 19 6 19Z" fill="#BFC5D2"/>
</svg>
