<svg width="24" height="25" viewBox="0 0 24 25" fill="none" xmlns="http://www.w3.org/2000/svg">
<g clip-path="url(#clip0)">
<path d="M18 9.00163C18.5304 9.00163 19.0391 9.20231 19.4142 9.55952C19.7893 9.91673 20 10.4012 20 10.9064V20.4302C20 20.9354 19.7893 21.4199 19.4142 21.7771C19.0391 22.1343 18.5304 22.335 18 22.335H6C4.89 22.335 4 21.4778 4 20.4302V10.9064C4 10.4012 4.21071 9.91673 4.58579 9.55952C4.96086 9.20231 5.46957 9.00163 6 9.00163H15V7.09687C15 6.3391 14.6839 5.61238 14.1213 5.07656C13.5587 4.54074 12.7956 4.23972 12 4.23972C11.2044 4.23972 10.4413 4.54074 9.87868 5.07656C9.31607 5.61238 9 6.3391 9 7.09687H7C7 5.83393 7.52678 4.62272 8.46447 3.72969C9.40215 2.83666 10.6739 2.33496 12 2.33496C12.6566 2.33496 13.3068 2.45813 13.9134 2.69744C14.52 2.93675 15.0712 3.28751 15.5355 3.72969C15.9998 4.17187 16.3681 4.69682 16.6194 5.27456C16.8707 5.8523 17 6.47152 17 7.09687V9.00163H18ZM12 17.5731C12.5304 17.5731 13.0391 17.3724 13.4142 17.0152C13.7893 16.658 14 16.1735 14 15.6683C14 15.1631 13.7893 14.6786 13.4142 14.3214C13.0391 13.9642 12.5304 13.7635 12 13.7635C11.4696 13.7635 10.9609 13.9642 10.5858 14.3214C10.2107 14.6786 10 15.1631 10 15.6683C10 16.1735 10.2107 16.658 10.5858 17.0152C10.9609 17.3724 11.4696 17.5731 12 17.5731Z" fill="#BFC5D2"/>
</g>
<defs>
<clipPath id="clip0">
<rect width="24" height="24" fill="white" transform="translate(0 0.0107422)"/>
</clipPath>
</defs>
</svg>
