<svg width="21" height="21" viewBox="0 0 21 21" fill="none" xmlns="http://www.w3.org/2000/svg">
    <path d="M12.6519 16.5458H4.87413V14.3236H12.6519V16.5458ZM15.9852 12.1013H4.87413V9.87912H15.9852V12.1013ZM15.9852 7.6569H4.87413V5.43468H15.9852V7.6569ZM18.2075 0.990234H2.65191C1.41858 0.990234 0.429688 1.97912 0.429688 3.21246V18.768C0.429688 19.3574 0.663814 19.9226 1.08056 20.3394C1.49731 20.7561 2.06254 20.9902 2.65191 20.9902H18.2075C18.7968 20.9902 19.3621 20.7561 19.7788 20.3394C20.1956 19.9226 20.4297 19.3574 20.4297 18.768V3.21246C20.4297 1.97912 19.4297 0.990234 18.2075 0.990234Z" fill="#80abcd"/>
</svg>