<svg width="258" height="218" viewBox="0 0 258 218" fill="none" xmlns="http://www.w3.org/2000/svg">
    <path d="M128.399 109.7C156.952 109.7 180.099 86.5532 180.099 58C180.099 29.4469 156.952 6.30005 128.399 6.30005C99.8461 6.30005 76.6992 29.4469 76.6992 58C76.6992 86.5532 99.8461 109.7 128.399 109.7Z" fill="white"/>
    <path d="M55.1008 154.7L55.3008 154.5H56.3008L56.5008 154.7C56.6008 156.5 56.7008 157.6 56.8008 158C56.9008 158.4 57.3008 158.8 57.9008 159.3C58.5008 159.7 59.4008 160.1 60.4008 160.4C61.4008 160.7 62.5008 160.8 63.6008 160.8C65.1008 160.8 66.4008 160.5 67.6008 160C68.8008 159.5 69.7008 158.7 70.3008 157.6C70.9008 156.5 71.3008 155.4 71.3008 154.1C71.3008 153.2 71.1008 152.4 70.8008 151.7C70.5008 151 70.0008 150.5 69.5008 150.1C69.0008 149.7 68.3008 149.4 67.6008 149.2C66.9008 149 65.8008 148.8 64.4008 148.5C63.0008 148.3 61.9008 148.1 61.1008 147.9C60.3008 147.7 59.5008 147.4 58.8008 147.1C58.0008 146.7 57.4008 146.3 56.9008 145.7C56.4008 145.1 56.0008 144.4 55.6008 143.6C55.2008 142.8 55.1008 141.9 55.1008 140.9C55.1008 138.3 56.0008 136.2 57.8008 134.5C59.6008 132.8 62.0008 132 65.1008 132C66.3008 132 67.6008 132.2 69.0008 132.4C70.4008 132.7 71.7008 133.1 72.9008 133.7L73.0008 134C72.7008 135.3 72.5008 137.1 72.4008 139.5L72.2008 139.7H71.1008L70.9008 139.6C70.9008 137.9 70.8008 136.9 70.8008 136.5C70.7008 136.1 70.1008 135.5 68.9008 134.9C67.7008 134.3 66.4008 133.9 65.0008 133.9C63.8008 133.9 62.7008 134.1 61.7008 134.6C60.7008 135.1 59.9008 135.8 59.4008 136.8C58.9008 137.8 58.6008 138.8 58.6008 139.9C58.6008 140.7 58.8008 141.4 59.1008 142.1C59.4008 142.8 59.8008 143.2 60.3008 143.6C60.8008 144 61.4008 144.2 62.1008 144.4C62.8008 144.6 64.0008 144.8 65.8008 145.1C68.3008 145.4 70.0008 145.9 71.2008 146.4C72.3008 146.9 73.2008 147.7 73.9008 148.7C74.6008 149.8 74.9008 151.1 74.9008 152.6C74.9008 155.6 73.7008 158 71.3008 160C68.9008 162 66.0008 163 62.5008 163C59.6008 163 57.1008 162.5 54.9008 161.5L54.8008 161.2C54.9008 159.9 55.0008 157.9 55.1008 154.7Z" fill="#002F6C"/>
    <path d="M114.999 132.5L115.199 132.7V133.7L114.999 133.8C113.499 133.8 112.499 133.9 112.199 134C111.799 134.1 111.599 134.3 111.399 134.6C111.199 134.9 111.199 135.4 111.099 136.1C111.099 136.9 110.999 139 110.999 142.5V152.1C110.999 153.5 110.999 155.1 111.099 156.8C111.199 158.5 111.199 159.6 111.399 159.9C111.599 160.2 111.799 160.4 112.099 160.5C112.399 160.6 113.399 160.7 115.099 160.8L115.299 160.9V161.9L114.999 162C112.699 161.9 110.799 161.8 109.099 161.8C107.999 161.8 105.999 161.9 103.299 162L103.099 161.8V160.8L103.299 160.6C104.799 160.6 105.799 160.5 106.099 160.4C106.499 160.3 106.699 160.1 106.899 159.8C107.099 159.5 107.099 159 107.199 158.3C107.299 157.6 107.299 155.4 107.299 152V136.7L100.099 151.7C98.2992 155.5 96.6992 159 95.3992 162.3H94.5992C93.7992 160.5 93.1992 159.1 92.6992 158L82.6992 137.3V152C82.6992 153.4 82.6992 154.9 82.7992 156.7C82.7992 158.5 82.8992 159.5 83.0992 159.8C83.1992 160.1 83.4992 160.3 83.7992 160.4C84.0992 160.5 85.0992 160.6 86.7992 160.7L86.9992 160.9V161.9L86.7992 162.1L85.4992 162C84.0992 161.9 82.8992 161.9 81.9992 161.9C81.5992 161.9 79.8992 162 76.9992 162.1L76.7992 161.9V160.9L76.9992 160.7C78.4992 160.7 79.4992 160.6 79.7992 160.5C80.0992 160.4 80.3992 160.2 80.5992 159.9C80.7992 159.6 80.8992 159.1 80.8992 158.4C80.8992 157.7 80.9992 155.5 80.9992 152V142.5C80.9992 141.2 80.9992 139.7 80.8992 137.9C80.7992 136.1 80.7992 135 80.5992 134.8C80.4992 134.5 80.1992 134.3 79.8992 134.2C79.5992 134.1 78.5992 134 76.8992 133.9L76.6992 133.7V132.7L76.8992 132.5C77.8992 132.6 79.0992 132.6 80.7992 132.6C82.2992 132.6 83.6992 132.6 84.7992 132.5C85.9992 135.2 87.0992 137.6 88.1992 139.8L96.0992 156L103.199 141.1C105.099 137.1 106.399 134.2 107.099 132.4C108.399 132.5 109.699 132.5 110.999 132.5C111.999 132.6 113.399 132.5 114.999 132.5Z" fill="#002F6C"/>
    <path d="M117.102 162L116.902 161.8V160.7L117.102 160.5C118.102 160.5 118.802 160.4 119.102 160.3C119.402 160.2 119.702 160 119.902 159.8C120.102 159.5 120.602 158.6 121.302 157.1L123.502 152.4L129.202 139.6C130.302 137.1 131.302 134.6 132.402 132.1H133.802L142.702 153L143.902 155.8C144.202 156.6 144.602 157.5 145.102 158.4C145.602 159.3 145.902 159.9 146.002 160C146.202 160.2 146.402 160.3 146.602 160.4C146.902 160.5 147.402 160.5 148.302 160.6L148.502 160.8V161.9L148.302 162.1C146.802 162 145.502 161.9 144.302 161.9C142.002 162 139.702 162 137.402 162.1L137.202 161.9V160.8L137.402 160.6C139.002 160.6 139.902 160.5 140.302 160.4C140.702 160.3 140.902 160.1 140.902 159.7C140.902 159.4 140.802 159 140.602 158.5L138.002 152.1H125.902L123.602 157.4C123.202 158.4 123.002 159.1 123.002 159.5C123.002 159.8 123.202 160.1 123.602 160.3C124.002 160.5 124.902 160.6 126.402 160.6L126.602 160.8V161.9L126.402 162.1C124.602 162 123.002 161.9 121.702 161.9C120.202 161.8 118.602 161.9 117.102 162ZM126.602 150.3H137.102L131.902 137.7L126.602 150.3Z" fill="#002F6C"/>
    <path d="M150.199 132.5L150.399 132.4C152.899 132.5 154.899 132.6 156.299 132.6C157.899 132.6 159.999 132.6 162.699 132.5C163.699 132.5 164.399 132.5 164.799 132.5C168.299 132.5 170.699 133.1 171.899 134.4C173.099 135.7 173.799 137.2 173.799 138.9C173.799 140.1 173.499 141.2 172.899 142.3C172.299 143.4 171.399 144.4 170.199 145.2C168.999 146 167.399 146.6 165.299 147C165.699 147.5 166.399 148.5 167.399 149.8L170.399 153.7C171.399 155 172.399 156.4 173.499 157.8C174.599 159.2 175.299 160.1 175.599 160.2C175.899 160.4 176.199 160.5 176.399 160.5C176.599 160.5 176.999 160.6 177.499 160.6L177.699 160.8V161.8L177.499 162C176.799 161.9 175.999 161.9 175.099 161.9C174.099 161.9 172.999 161.9 171.899 162C170.899 160.8 169.399 158.8 167.399 155.9C164.999 152.6 162.599 149.5 160.099 146.6L160.299 146C160.999 146 161.599 146.1 161.999 146.1C164.399 146.1 166.299 145.5 167.599 144.4C168.999 143.2 169.599 141.6 169.599 139.6C169.599 137.8 168.999 136.4 167.799 135.4C166.599 134.5 164.899 134 162.799 134C161.299 134 159.999 134.2 158.699 134.6C158.499 134.9 158.399 137.5 158.399 142.4V152V156.1C158.399 157.7 158.499 158.7 158.499 159.1C158.599 159.6 158.699 159.9 158.799 160C158.899 160.2 159.199 160.3 159.599 160.4C159.999 160.5 160.899 160.6 162.399 160.6L162.599 160.7V161.7L162.399 161.9C162.299 161.9 161.099 161.9 158.699 161.8C157.699 161.8 156.899 161.8 156.399 161.8C155.999 161.8 153.999 161.9 150.399 162L150.199 161.8V160.8L150.399 160.7C151.699 160.6 152.599 160.6 152.999 160.5C153.399 160.4 153.699 160.3 153.899 160.2C153.999 160.1 154.199 159.8 154.299 159.4C154.399 159 154.399 158 154.499 156.5V152.1V142.5V138.4C154.499 136.8 154.399 135.8 154.399 135.3C154.399 134.8 154.199 134.5 154.099 134.4C153.999 134.2 153.699 134.1 153.299 134C152.899 133.9 151.999 133.8 150.499 133.8L150.299 133.7V132.5H150.199Z" fill="#002F6C"/>
    <path d="M203 132.4L203.2 132.6C203.1 133.9 203 136 203 139.1L202.8 139.3H201.8L201.6 139.1L201.4 137.2C201.3 136.2 201.2 135.5 201.1 135.3C201 135.1 200.9 134.9 200.8 134.8C200.7 134.7 200.2 134.6 199.4 134.5C198.6 134.4 197.8 134.4 196.8 134.4H193C192.9 137.5 192.8 139.4 192.8 139.8V152V156.1C192.8 157.7 192.9 158.7 192.9 159.2C193 159.7 193.1 160 193.2 160.1C193.3 160.2 193.6 160.4 194 160.5C194.4 160.6 195.3 160.7 196.8 160.7L196.9 160.8V161.8L196.8 162C193.2 161.9 191.3 161.8 190.8 161.8C190.4 161.8 188.4 161.9 184.9 162L184.7 161.8V160.8L184.9 160.7C186.2 160.6 187.1 160.6 187.5 160.5C187.9 160.4 188.2 160.3 188.4 160.2C188.5 160.1 188.7 159.8 188.8 159.4C188.9 159 188.9 158 188.9 156.5V152.1V140C188.9 139.8 188.8 138 188.7 134.6H185.6C184.3 134.6 183.2 134.6 182.3 134.7C181.4 134.8 180.8 134.9 180.7 135.1C180.6 135.3 180.4 136.1 180.3 137.3L180.1 139.2L179.9 139.4H178.9L178.7 139.2C178.7 135.9 178.6 133.7 178.5 132.7L178.7 132.5C181.1 132.6 185.1 132.7 190.8 132.7C196.6 132.6 200.7 132.5 203 132.4Z" fill="#002F6C"/>
    <path d="M8.1 194.7C11.6 191.5 14.1 189.2 15.7 187.6C17.3 186 18.5 184.8 19.5 183.8C20.5 182.8 21.1 182.1 21.3 181.9V180.5L21.5 180.3C22.6 180.4 23.7 180.4 25 180.4C25.3 180.4 26.4 180.4 28.3 180.3L28.5 180.5V181.5L28.3 181.7C27 181.7 26.1 181.8 25.7 181.9C25.3 182 24.5 182.5 23.6 183.2C22.7 183.9 21.6 184.9 20.5 185.9L12.1 193.6L24.6 205.2C26.6 207.1 27.7 208.1 28 208.3C28.3 208.5 28.7 208.6 29.5 208.6L29.6 208.8V209.7L29.5 209.9C28.7 209.8 27.9 209.8 27 209.8C26.5 209.8 25.4 209.8 23.6 209.9C22.3 208.7 21.2 207.6 20.3 206.7C19.3 205.8 15.3 202.1 8.2 195.5V199.9V204C8.2 205.6 8.3 206.6 8.3 207C8.4 207.5 8.5 207.8 8.6 207.9C8.7 208.1 9 208.2 9.4 208.3C9.8 208.4 10.7 208.5 12.2 208.5L12.4 208.6V209.6L12.2 209.8C12.1 209.8 10.9 209.8 8.5 209.7C7.5 209.7 6.7 209.7 6.2 209.7C5.8 209.7 3.8 209.8 0.2 209.9L0 209.8V208.8L0.2 208.7C1.5 208.6 2.4 208.6 2.8 208.5C3.2 208.4 3.5 208.3 3.7 208.2C3.8 208.1 4 207.8 4.1 207.4C4.2 207 4.2 206 4.3 204.5V200.1V190.5V186.4C4.3 184.8 4.2 183.8 4.2 183.3C4.2 182.8 4 182.5 3.9 182.4C3.8 182.2 3.5 182.1 3.1 182C2.7 181.9 1.8 181.8 0.3 181.8L0 181.6V180.6L0.2 180.5L2.8 180.6C4.5 180.7 5.6 180.7 6.2 180.7C6.7 180.7 8.7 180.6 12.2 180.5L12.4 180.6V181.6L12.2 181.7C11.2 181.7 10.5 181.8 10 181.8C9.5 181.9 9.1 182 8.9 182.1C8.7 182.2 8.5 182.6 8.4 183.2C8.3 183.8 8.3 184.5 8.3 185.5V190.3V194.7H8.1Z" fill="#002F6C"/>
    <path d="M31.0008 210L30.8008 209.8V208.7L31.0008 208.5C32.0008 208.5 32.7008 208.4 33.0008 208.3C33.3008 208.2 33.6008 208 33.8008 207.8C34.0008 207.5 34.5008 206.6 35.2008 205.1L37.4008 200.4L43.1008 187.6C44.2008 185.1 45.2008 182.6 46.3008 180.1H47.7008L56.6008 201L57.8008 203.8C58.1008 204.6 58.5008 205.5 59.0008 206.4C59.5008 207.3 59.8008 207.9 59.9008 208C60.1008 208.2 60.3008 208.3 60.5008 208.4C60.8008 208.5 61.3008 208.5 62.2008 208.6L62.4008 208.8V209.9L62.2008 210.1C60.7008 210 59.4008 209.9 58.2008 209.9C55.9008 210 53.6008 210 51.3008 210.1L51.1008 209.9V208.8L51.3008 208.6C52.9008 208.6 53.8008 208.5 54.2008 208.4C54.6008 208.3 54.8008 208.1 54.8008 207.7C54.8008 207.4 54.7008 207 54.5008 206.5L51.9008 200.1H39.8008L37.5008 205.4C37.1008 206.4 36.9008 207.1 36.9008 207.5C36.9008 207.8 37.1008 208.1 37.5008 208.3C37.9008 208.5 38.8008 208.6 40.3008 208.6L40.5008 208.8V209.9L40.3008 210.1C38.5008 210 36.9008 209.9 35.6008 209.9C34.1008 209.8 32.6008 209.9 31.0008 210ZM46.5008 176.6C45.8008 176.6 45.3008 176.4 44.8008 175.9C44.3008 175.4 44.1008 174.9 44.1008 174.2C44.1008 173.5 44.3008 173 44.8008 172.5C45.3008 172 45.8008 171.8 46.5008 171.8C47.2008 171.8 47.7008 172 48.2008 172.5C48.7008 173 48.9008 173.5 48.9008 174.2C48.9008 174.9 48.7008 175.4 48.2008 175.9C47.7008 176.4 47.1008 176.6 46.5008 176.6ZM40.5008 198.3H51.0008L45.8008 185.7L40.5008 198.3Z" fill="#002F6C"/>
    <path d="M64.6984 202.7L64.8984 202.5H65.8984L66.0984 202.7C66.1984 204.5 66.2984 205.6 66.3984 206C66.4984 206.4 66.8984 206.8 67.4984 207.3C68.0984 207.7 68.9984 208.1 69.9984 208.4C70.9984 208.7 72.0984 208.8 73.1984 208.8C74.6984 208.8 75.9984 208.5 77.1984 208C78.3984 207.5 79.2984 206.7 79.8984 205.6C80.4984 204.5 80.8984 203.4 80.8984 202.1C80.8984 201.2 80.6984 200.4 80.3984 199.7C80.0984 199 79.5984 198.5 79.0984 198.1C78.5984 197.7 77.8984 197.4 77.1984 197.2C76.4984 197 75.3984 196.8 73.9984 196.5C72.5984 196.3 71.4984 196.1 70.6984 195.9C69.8984 195.7 69.0984 195.4 68.3984 195.1C67.5984 194.7 66.9984 194.3 66.4984 193.7C65.9984 193.1 65.5984 192.4 65.1984 191.6C64.7984 190.8 64.6984 189.9 64.6984 188.9C64.6984 186.3 65.5984 184.2 67.3984 182.5C69.1984 180.8 71.5984 180 74.6984 180C75.8984 180 77.1984 180.2 78.5984 180.4C79.9984 180.7 81.2984 181.1 82.4984 181.7L82.5984 182C82.2984 183.3 82.0984 185.1 81.9984 187.5L81.7984 187.7H80.6984L80.4984 187.6C80.4984 185.9 80.3984 184.9 80.3984 184.5C80.2984 184.1 79.6984 183.5 78.4984 182.9C77.2984 182.3 75.9984 181.9 74.5984 181.9C73.3984 181.9 72.2984 182.1 71.2984 182.6C70.2984 183.1 69.4984 183.8 68.9984 184.8C68.4984 185.8 68.1984 186.8 68.1984 187.9C68.1984 188.7 68.3984 189.4 68.6984 190.1C68.9984 190.8 69.3984 191.2 69.8984 191.6C70.3984 192 70.9984 192.2 71.6984 192.4C72.3984 192.6 73.5984 192.8 75.3984 193.1C77.8984 193.4 79.5984 193.9 80.7984 194.4C81.8984 194.9 82.7984 195.7 83.4984 196.7C84.1984 197.8 84.4984 199.1 84.4984 200.6C84.4984 203.6 83.2984 206 80.8984 208C78.4984 210 75.5984 211 72.0984 211C69.1984 211 66.6984 210.5 64.4984 209.5L64.3984 209.2C64.5984 207.9 64.6984 205.9 64.6984 202.7Z" fill="#002F6C"/>
    <path d="M86.7016 180.4L89.3016 180.5C91.0016 180.6 92.1016 180.6 92.7016 180.6C93.2016 180.6 95.2016 180.5 98.7016 180.4L98.9016 180.5V181.5L98.7016 181.6C97.7016 181.6 97.0016 181.7 96.5016 181.7C96.0016 181.8 95.6016 181.9 95.4016 182C95.2016 182.2 95.0016 182.5 94.9016 183.1C94.8016 183.7 94.8016 184.4 94.8016 185.4V190.2V199.8V203.9C94.8016 205.5 94.9016 206.5 94.9016 206.9C95.0016 207.4 95.1016 207.7 95.2016 207.8C95.3016 208 95.6016 208.1 96.0016 208.2C96.4016 208.3 97.3016 208.4 98.8016 208.4L99.0016 208.5V209.5L98.8016 209.7C98.7016 209.7 97.5016 209.7 95.1016 209.6C94.1016 209.6 93.3016 209.6 92.8016 209.6C92.4016 209.6 90.4016 209.7 86.8016 209.8L86.6016 209.6V208.6L86.8016 208.5C88.1016 208.4 89.0016 208.4 89.4016 208.3C89.8016 208.2 90.1016 208.1 90.3016 208C90.4016 207.9 90.6016 207.6 90.7016 207.2C90.8016 206.8 90.8016 205.8 90.9016 204.3V199.9V190.3V186.2C90.9016 184.6 90.8016 183.6 90.8016 183.1C90.8016 182.6 90.6016 182.3 90.5016 182.2C90.4016 182 90.1016 181.9 89.7016 181.8C89.3016 181.7 88.4016 181.6 86.9016 181.6L86.7016 181.5V180.5V180.4Z" fill="#002F6C"/>
    <path d="M101.101 180.4C104.601 180.5 106.801 180.6 107.801 180.6C109.101 180.6 110.601 180.6 112.201 180.5C113.901 180.4 115.001 180.4 115.401 180.4C117.301 180.4 119.001 180.6 120.201 181C121.501 181.4 122.501 182.1 123.401 183.2C124.201 184.3 124.701 185.6 124.701 187.1C124.701 188.4 124.401 189.6 123.801 190.7C123.201 191.9 122.401 192.9 121.401 193.7C120.401 194.5 119.301 195.1 118.201 195.5C117.101 195.9 116.001 196 114.901 196C114.001 196 113.101 195.9 112.001 195.7L111.601 194.4L111.801 194.2C112.801 194.4 113.701 194.6 114.301 194.6C116.101 194.6 117.601 194 118.701 192.8C119.801 191.6 120.401 190.1 120.401 188.2C120.401 186.3 119.801 184.8 118.701 183.7C117.601 182.6 115.801 182 113.501 182C112.201 182 110.801 182.2 109.301 182.7C109.201 183.8 109.101 186.4 109.101 190.4V200V204.1C109.101 205.7 109.201 206.7 109.201 207.1C109.301 207.6 109.401 207.9 109.501 208C109.601 208.2 109.901 208.3 110.301 208.4C110.701 208.5 111.601 208.6 113.101 208.6L113.301 208.7V209.7L113.001 210C109.501 209.9 107.501 209.8 107.001 209.8C106.501 209.8 104.501 209.9 101.001 210L100.801 209.8V208.8L101.001 208.7C102.301 208.6 103.201 208.6 103.601 208.5C104.001 208.4 104.301 208.3 104.501 208.2C104.601 208.1 104.801 207.8 104.901 207.4C105.001 207 105.001 206 105.101 204.5V200.1V190.5V186.4C105.101 184.8 105.001 183.8 105.001 183.3C105.001 182.8 104.801 182.5 104.701 182.4C104.601 182.2 104.301 182.1 103.901 182C103.501 181.9 102.601 181.8 101.101 181.8L100.901 181.7V180.7L101.101 180.4Z" fill="#002F6C"/>
    <path d="M126.602 195.5C126.602 193.4 126.902 191.5 127.502 189.7C128.102 187.9 129.102 186.2 130.602 184.7C132.002 183.2 133.802 182 135.802 181.1C137.802 180.3 140.102 179.8 142.702 179.8C147.402 179.8 151.202 181.1 154.002 183.7C156.802 186.3 158.202 189.8 158.202 194.3C158.202 197.4 157.502 200.3 156.102 202.8C154.702 205.3 152.802 207.2 150.202 208.6C147.602 210 144.802 210.7 141.602 210.7C139.302 210.7 137.302 210.3 135.402 209.6C133.502 208.8 131.902 207.7 130.502 206.2C129.202 204.7 128.202 203 127.602 201C126.902 198.9 126.602 197.1 126.602 195.5ZM131.002 194.1C131.002 195.8 131.302 197.6 131.802 199.6C132.302 201.6 133.202 203.2 134.302 204.6C135.402 206 136.602 207 138.102 207.7C139.502 208.4 141.102 208.7 143.002 208.7C145.202 208.7 147.102 208.2 148.702 207.2C150.402 206.2 151.702 204.7 152.502 202.6C153.402 200.5 153.802 198.2 153.802 195.6C153.802 192.8 153.302 190.3 152.302 188C151.302 185.7 149.902 184.1 148.002 183.1C146.202 182.1 144.102 181.6 141.902 181.6C138.502 181.6 135.902 182.7 133.902 184.8C131.902 186.9 131.002 190 131.002 194.1Z" fill="#002F6C"/>
    <path d="M159.801 180.5L160.001 180.4C162.401 180.5 164.001 180.6 164.901 180.6L174.601 180.4C177.401 180.4 179.701 180.7 181.401 181.2C183.201 181.7 184.801 182.6 186.101 183.9C187.501 185.2 188.501 186.7 189.201 188.4C189.901 190.1 190.301 191.9 190.301 193.8C190.301 195.7 190.001 197.5 189.301 199.4C188.601 201.3 187.701 202.9 186.501 204.3C185.301 205.8 183.901 206.9 182.401 207.8C180.901 208.7 179.301 209.3 177.801 209.6C176.301 209.9 174.701 210 173.101 210C172.001 210 170.001 210 167.001 209.9C166.001 209.9 165.401 209.9 165.001 209.9C164.001 209.9 162.901 210 161.501 210.1L161.301 209.9V209.2L161.501 209C162.301 208.6 162.801 208.3 162.901 208.2C163.001 208.1 163.101 206.9 163.201 204.6C163.301 202.3 163.301 200.5 163.301 199.3V191.7V187C163.301 186 163.301 185.1 163.301 184.5C163.301 183.9 163.201 183.4 163.201 183.1C163.101 182.8 163.101 182.6 163.001 182.5C162.901 182.4 162.801 182.3 162.601 182.2C162.401 182.1 162.101 182.1 161.601 182L160.001 181.9L159.801 181.8V180.5ZM167.501 207.7C168.901 208 170.501 208.1 172.401 208.1C175.601 208.1 178.201 207.6 180.201 206.5C182.101 205.4 183.601 203.8 184.501 201.7C185.501 199.6 185.901 197.2 185.901 194.5C185.901 190.6 184.901 187.5 182.801 185.4C180.701 183.2 177.401 182.2 172.901 182.2C171.001 182.2 169.201 182.3 167.501 182.6C167.401 184.9 167.301 187.4 167.301 190.3V196.8V202.9C167.401 204.1 167.401 205.7 167.501 207.7Z" fill="#002F6C"/>
    <path d="M193.098 210L192.898 209.8V208.7L193.098 208.5C194.098 208.5 194.798 208.4 195.098 208.3C195.398 208.2 195.698 208 195.898 207.8C196.098 207.5 196.598 206.6 197.298 205.1L199.498 200.4L205.198 187.6C206.298 185.1 207.298 182.6 208.398 180.1H209.798L218.698 201L219.898 203.8C220.198 204.6 220.598 205.5 221.098 206.4C221.598 207.3 221.898 207.9 221.998 208C222.198 208.2 222.398 208.3 222.598 208.4C222.898 208.5 223.398 208.5 224.298 208.6L224.498 208.8V209.9L224.298 210.1C222.798 210 221.498 209.9 220.298 209.9C217.998 210 215.698 210 213.398 210.1L213.198 209.9V208.8L213.398 208.6C214.998 208.6 215.898 208.5 216.298 208.4C216.698 208.3 216.898 208.1 216.898 207.7C216.898 207.4 216.798 207 216.598 206.5L213.998 200.1H201.898L199.598 205.4C199.198 206.4 198.998 207.1 198.998 207.5C198.998 207.8 199.198 208.1 199.598 208.3C199.998 208.5 200.898 208.6 202.398 208.6L202.598 208.8V209.9L202.398 210.1C200.598 210 198.998 209.9 197.698 209.9C196.198 209.8 194.698 209.9 193.098 210ZM202.598 198.3H213.098L207.898 185.7L202.598 198.3Z" fill="#002F6C"/>
    <path d="M236.601 215.1V214.1L236.701 213.8C238.901 212.1 240.701 211 242.001 210.5C238.301 210.5 235.401 209.9 233.301 208.7C231.101 207.5 229.401 205.6 228.201 203.2C227.001 200.8 226.301 198.1 226.301 195.1C226.301 190.6 227.801 186.9 230.801 184C233.801 181.1 237.601 179.7 242.401 179.7C245.501 179.7 248.201 180.3 250.501 181.4C252.801 182.5 254.701 184.2 256.001 186.4C257.301 188.6 257.901 191.2 257.901 194.1C257.901 195.4 257.801 196.7 257.501 198.1C257.201 199.5 256.701 201 255.901 202.5C255.101 204 254.001 205.3 252.801 206.4C251.501 207.5 250.001 208.5 248.201 209.2C246.401 209.9 244.601 210.4 242.601 210.5C243.801 210.7 245.301 211.1 247.201 211.9C249.601 212.9 251.401 213.5 252.601 213.8C253.801 214.1 254.801 214.3 255.701 214.3C256.301 214.3 257.001 214.2 257.801 213.9L258.001 214V214.7L257.901 214.9C257.701 215.1 257.401 215.2 257.001 215.5C255.801 216.2 255.001 216.7 254.601 217.1C254.401 217.1 253.901 217 253.101 216.9C252.301 216.8 251.601 216.6 250.801 216.4C250.001 216.2 248.801 215.8 247.201 215.2C243.701 214 241.501 213.4 240.701 213.4C240.301 213.4 240.001 213.5 239.601 213.6C239.201 213.7 238.701 214 238.101 214.4L237.101 215L236.601 215.1ZM230.701 194.1C230.701 195.8 231.001 197.6 231.501 199.6C232.001 201.6 232.901 203.2 234.001 204.6C235.101 206 236.301 207 237.801 207.7C239.201 208.4 240.801 208.7 242.701 208.7C244.901 208.7 246.801 208.2 248.401 207.2C250.101 206.2 251.401 204.7 252.201 202.6C253.101 200.5 253.501 198.2 253.501 195.6C253.501 192.8 253.001 190.3 252.001 188C251.001 185.7 249.601 184.1 247.701 183.1C245.901 182.1 243.801 181.6 241.601 181.6C238.201 181.6 235.601 182.7 233.601 184.8C231.701 186.9 230.701 190 230.701 194.1Z" fill="#002F6C"/>
    <path fill-rule="evenodd" clip-rule="evenodd" d="M144.771 19.2822C161.153 23.081 174.143 32.6888 179.486 44.8974C181.117 48.6377 184.341 47.9264 184.341 47.9264H187.188V66.7676H185.149C185.149 66.7676 181.233 65.791 179.506 69.7526C173.954 82.4951 160.08 92.4073 142.709 95.8594C137.81 96.8311 138.529 100.682 138.529 100.682V103.216H119.688V100.414C119.688 100.414 120.259 96.8083 115.437 95.8448C97.9121 92.3422 83.9554 82.2608 78.5339 69.3392C77.1553 66.0514 74.123 66.7692 74.123 66.7692H71.1641V47.928H74.3932C74.3932 47.928 77.1976 48.2894 78.8952 44.5312C84.4372 32.2721 97.7103 22.692 114.349 19.0803C120.295 17.7896 119.688 13.4765 119.688 13.4765V10.6672H138.529V13.4765C138.529 14.2382 138.309 17.7848 144.771 19.2822ZM132.797 56.0726H135.186V57.8646H132.797V56.0726ZM123.039 56.0726H125.428V57.8646H123.039V56.0726ZM127.823 59.6387H130.212V61.4307H127.823V59.6387ZM127.823 52.876H130.212V54.668H127.823V52.876ZM163.459 34.4661L137.328 54.4547L138.273 55.6885L164.403 35.6998L163.459 34.4661ZM159.67 30.7454L133.539 50.734L134.484 51.9678L160.614 31.9791L159.67 30.7454ZM122.548 62.7539L96.4164 82.7425L97.362 83.9763L123.492 63.9876L122.548 62.7539ZM119.388 58.8948L93.2572 78.8835L94.2028 80.1172L120.332 60.1286L119.388 58.8948ZM135.197 62.4023L161.329 82.391L160.383 83.6247L134.253 63.6361L135.197 62.4023ZM138.389 58.6247L164.52 78.6133L163.575 79.847L137.445 59.8584L138.389 58.6247ZM94.6813 34.6809L120.813 54.6696L119.867 55.9033L93.7373 35.9147L94.6813 34.6809ZM98.3077 30.9602L124.439 50.9489L123.493 52.1826L97.3636 32.194L98.3077 30.9602ZM129.488 50.0667L108.291 32.4397C106.983 31.3476 105.703 23.8899 115.979 23.8899C123.454 23.8899 126.608 26.1393 123.781 31.0774C122.842 32.7164 123.628 38.8541 129.794 38.7451C135.305 38.6474 135.524 32.7311 134.722 30.76C132.618 25.6038 136.812 23.4277 143.379 24.2333C153.179 25.4329 151.371 32.1191 147.565 35.0927C143.762 38.0647 129.488 50.0667 129.488 50.0667ZM129.488 64.3799L108.291 82.0069C106.983 83.099 105.703 90.5567 115.979 90.5567C123.454 90.5567 126.608 88.3073 123.781 83.3692C122.842 81.7302 123.628 75.5925 129.794 75.7015C135.305 75.7992 135.524 81.7155 134.722 83.6865C132.618 88.8428 136.812 91.0189 143.379 90.2133C153.179 89.0137 151.371 82.3275 147.565 79.3539C143.762 76.3819 129.488 64.3799 129.488 64.3799ZM143.09 57.1175L163.843 72.1078C165.127 73.0339 173.908 73.9388 173.908 66.6716C173.908 61.3851 170.142 58.2812 165.446 61.154C163.182 62.5309 158.225 62.6025 158.479 56.7106C158.719 51.1084 164.154 52.0882 165.821 53.4163C169.763 56.5641 174.452 51.9385 173.505 47.2933C172.092 40.3629 164.219 41.6422 160.72 44.3326C157.22 47.0231 143.09 57.1175 143.09 57.1175ZM114.631 57.0801L93.8773 72.0703C92.5931 72.9964 83.8122 73.9014 83.8122 66.6341C83.8122 61.3476 87.5785 58.2438 92.2741 61.1165C94.5381 62.4935 99.4958 62.5651 99.2419 56.6732C99.001 51.0709 93.5664 52.0508 91.8998 53.3789C87.9577 56.5267 83.2686 51.901 84.2158 47.2558C85.6286 40.3255 93.5013 41.6048 97.0007 44.2952C100.5 46.9856 114.631 57.0801 114.631 57.0801Z" fill="#002F6C"/>
    <path fill-rule="evenodd" clip-rule="evenodd" d="M195.288 65.8923C195.288 65.8923 193.21 65.7948 193.275 63.8138C193.34 61.8327 195.808 62.3199 195.808 62.3199C195.6 61.107 195.413 58.2602 198.016 57.5132C197.089 59.0117 197.464 60.3713 198.049 61.6703C198.633 62.9694 198.861 63.6189 198.731 65.3727C198.601 67.1265 196.003 68.8153 193.535 67.9709C191.066 67.1265 190.352 64.1386 190.677 62.19C191.001 60.2413 193.405 57.838 194.249 56.6039C195.093 55.3697 194.574 54.7202 193.989 54.3955C194.785 54.0221 195.532 54.5741 195.532 55.2886C196.344 55.3535 198.134 53.2099 197.679 50.8715C197.224 48.5331 195.435 48.2573 194.119 48.6795C192.804 49.1016 192.106 50.4982 192.69 51.6025C193.275 52.7067 195.866 51.7942 194.2 49.7999C194.548 49.4619 195.922 49.7024 196.133 51.2776C196.344 52.8528 194.117 54.0855 192.64 52.9162C192.821 53.3603 193.47 54.6553 192.82 55.9544C192.17 57.2535 190.871 57.9029 190.871 57.9029C190.871 57.9029 191.748 54.6065 190.807 52.7716C189.865 50.9367 191.131 48.4591 192.755 47.8351C194.379 47.211 195.97 47.0881 197.562 48.4197C199.153 49.7512 198.974 52.4794 198.39 53.3887C196.799 55.8631 192.468 58.9033 194.393 61.4951C192.998 61.5591 192.767 60.278 192.897 59.9409C192.406 60.0141 190.336 63.4566 192.17 65.6325C194.005 67.8084 195.451 67.1589 196.133 66.9641C196.815 66.7693 198.309 64.9505 197.042 63.619C195.776 62.2874 193.275 63.8138 195.288 65.8923Z" fill="#002F6C"/>
    <path fill-rule="evenodd" clip-rule="evenodd" d="M63.804 65.7326C63.804 65.7326 61.7255 65.6351 61.7904 63.6541C61.8553 61.673 64.3236 62.1602 64.3236 62.1602C64.1156 60.9472 63.9287 58.1005 66.5321 57.3535C65.6051 58.852 65.9799 60.2115 66.5645 61.5106C67.1491 62.8097 67.3765 63.4592 67.2466 65.213C67.1167 66.9668 64.5186 68.6556 62.0502 67.8112C59.5819 66.9668 58.8675 63.9789 59.1923 62.0303C59.517 60.0816 61.9203 57.6783 62.7647 56.4442C63.6091 55.21 63.0895 54.5605 62.5049 54.2358C63.3006 53.8624 64.0475 54.4144 64.0475 55.1289C64.8594 55.1938 66.6494 53.0502 66.1947 50.7118C65.74 48.3734 63.9502 48.0976 62.6348 48.5198C61.3195 48.9419 60.6213 50.3385 61.2058 51.4427C61.7904 52.547 64.3819 51.6345 62.716 49.6402C63.0637 49.3022 64.4372 49.5427 64.6484 51.1179C64.8595 52.6931 62.6331 53.9258 61.1554 52.7565C61.3366 53.2006 61.9853 54.4956 61.3358 55.7947C60.6862 57.0938 59.3871 57.7432 59.3871 57.7432C59.3871 57.7432 60.2641 54.4468 59.3222 52.6119C58.3803 50.777 59.6467 48.2994 61.2707 47.6754C62.8947 47.0513 64.486 46.9284 66.0773 48.26C67.6687 49.5915 67.4899 52.3197 66.9055 53.229C65.3147 55.7034 60.9832 58.7436 62.9089 61.3354C61.5141 61.3994 61.2829 60.1183 61.4128 59.7812C60.9217 59.8544 58.8512 63.2969 60.6862 65.4728C62.5211 67.6487 63.9664 66.9992 64.6484 66.8044C65.3304 66.6095 66.8243 64.7908 65.5578 63.4593C64.2912 62.1277 61.7904 63.6541 63.804 65.7326Z" fill="#002F6C"/>
    <path d="M64.6445 80.7001L70.1442 77.0933L70.875 78.2082L68.4385 79.8049L72.348 80.4527L73.3262 81.9436L69.8236 81.2746L67.8965 85.6594L66.9541 84.2222L68.5443 81.0158L67.0387 80.7229L65.3753 81.815L64.6445 80.7001ZM71.9769 90.8612L71.0752 89.7463L71.8809 88.3629L70.2223 86.3121L68.7136 86.828L67.8281 85.7343L74.5469 83.5826L75.4323 84.6763L71.9769 90.8612ZM72.475 87.3293L73.7917 85.0865L71.3405 85.928L72.475 87.3293ZM73.7217 89.6438L74.7227 90.4739C74.4704 90.8336 74.3548 91.1672 74.376 91.4797C74.3988 91.7922 74.5518 92.0901 74.8366 92.3765C75.1345 92.6776 75.4258 92.8437 75.7074 92.8697C75.9857 92.8957 76.2136 92.8241 76.3845 92.6549C76.4951 92.5458 76.557 92.4205 76.5716 92.2773C76.5847 92.1389 76.5407 91.9566 76.4398 91.7401C76.3698 91.592 76.1875 91.2747 75.8994 90.7864C75.5267 90.1565 75.3298 89.6503 75.3135 89.2662C75.2875 88.7242 75.4616 88.2701 75.8327 87.9023C76.072 87.6662 76.3617 87.5116 76.7018 87.44C77.0453 87.37 77.3936 87.4075 77.7533 87.5539C78.1114 87.6988 78.4678 87.9511 78.8242 88.3092C79.402 88.8935 79.7097 89.4615 79.7406 90.0149C79.7731 90.5683 79.5811 91.0647 79.1612 91.5107L78.1911 90.5959C78.3946 90.316 78.4808 90.0588 78.458 89.8228C78.432 89.5868 78.2888 89.3362 78.0283 89.0725C77.7598 88.8007 77.4912 88.6428 77.2259 88.6021C77.055 88.5745 76.9102 88.62 76.7881 88.7421C76.6758 88.8511 76.6286 88.9911 76.6433 89.162C76.6579 89.3817 76.8402 89.774 77.1836 90.3388C77.5303 90.9036 77.7517 91.3544 77.8526 91.6881C77.9551 92.0217 77.9649 92.3505 77.8867 92.6728C77.8086 92.9967 77.6214 93.3043 77.3269 93.5956C77.0583 93.8609 76.7344 94.0351 76.3535 94.1181C75.9727 94.2011 75.5902 94.1637 75.2077 94.0041C74.8252 93.843 74.4313 93.5598 74.0293 93.1529C73.445 92.5637 73.1309 91.9745 73.0918 91.3886C73.0495 90.8026 73.2611 90.22 73.7217 89.6438ZM76.7881 95.6545L81.2657 90.8368L82.2406 91.7418L77.7647 96.5611L76.7881 95.6545ZM78.7071 97.4091L82.6882 92.1747L84.3825 93.4638C85.0254 93.9521 85.4242 94.2955 85.5788 94.4957C85.8197 94.8033 85.9401 95.1646 85.9434 95.5813C85.945 95.998 85.7871 96.4163 85.4714 96.8313C85.2256 97.1552 84.962 97.3798 84.6787 97.51C84.3955 97.6402 84.1172 97.7004 83.8422 97.6907C83.5703 97.6777 83.3246 97.6223 83.1081 97.5214C82.8184 97.3782 82.4343 97.1275 81.9558 96.7646L81.2689 96.2405L79.7666 98.2164L78.7071 97.4091ZM83.0756 93.8658L81.9411 95.3567L82.5173 95.7945C82.934 96.1103 83.2318 96.2942 83.4141 96.3446C83.5948 96.3967 83.7705 96.3951 83.9382 96.3381C84.1058 96.2812 84.2507 96.1754 84.3679 96.0208C84.5144 95.8287 84.5778 95.6301 84.5616 95.4202C84.5437 95.2118 84.4623 95.0263 84.3158 94.8635C84.2084 94.7447 83.9642 94.5413 83.585 94.2515L83.0756 93.8658ZM85.0498 98.2245C85.4014 97.6532 85.7839 97.2268 86.1941 96.9436C86.4968 96.7353 86.8288 96.5872 87.1885 96.496C87.5482 96.4065 87.8933 96.3853 88.2237 96.4358C88.6631 96.5042 89.1124 96.6799 89.5681 96.9615C90.3949 97.471 90.8962 98.135 91.0752 98.9537C91.2559 99.7724 91.0622 100.637 90.4991 101.55C89.9392 102.456 89.2556 103.013 88.4499 103.22C87.6426 103.43 86.8272 103.278 86.0052 102.772C85.1735 102.258 84.6657 101.595 84.4899 100.781C84.3109 99.9693 84.4981 99.1181 85.0498 98.2245ZM86.238 98.9065C85.8457 99.5396 85.696 100.111 85.7871 100.62C85.8783 101.128 86.1485 101.522 86.601 101.802C87.0518 102.08 87.5222 102.145 88.0137 102.001C88.5036 101.852 88.9496 101.455 89.35 100.804C89.7471 100.161 89.9034 99.595 89.8138 99.1067C89.7276 98.6152 89.4509 98.2262 88.9838 97.9381C88.5166 97.65 88.0414 97.5784 87.558 97.7216C87.0762 97.8665 86.6351 98.2603 86.238 98.9065ZM92.667 98.9863L94.8252 100.085C95.3119 100.334 95.6651 100.558 95.8832 100.764C96.1729 101.039 96.3764 101.369 96.487 101.753C96.6042 102.136 96.627 102.547 96.5652 102.987C96.5017 103.426 96.3308 103.921 96.0508 104.47C95.8051 104.953 95.5333 105.335 95.237 105.625C94.8724 105.977 94.4883 106.216 94.0831 106.341C93.7771 106.437 93.4206 106.452 93.0154 106.387C92.711 106.338 92.3431 106.201 91.907 105.98L89.6836 104.849L92.667 98.9863ZM93.349 100.581L91.3747 104.461L92.2553 104.909C92.584 105.077 92.8298 105.179 92.9958 105.217C93.2123 105.267 93.4125 105.266 93.5964 105.213C93.782 105.165 93.9789 105.028 94.1921 104.807C94.407 104.585 94.6283 104.247 94.8594 103.793C95.0905 103.34 95.2273 102.974 95.2696 102.691C95.3135 102.406 95.2973 102.16 95.2256 101.952C95.1491 101.743 95.0157 101.559 94.8187 101.398C94.6723 101.278 94.3581 101.096 93.878 100.851L93.349 100.581ZM101.136 109.977L99.8025 109.45L99.8253 107.849L97.3708 106.878L96.3113 108.07L95.0027 107.552L99.796 102.375L101.105 102.892L101.136 109.977ZM99.8318 106.655L99.8773 104.056L98.157 105.993L99.8318 106.655ZM107.11 110.961C107.351 111.281 107.635 111.563 107.958 111.808L107.213 112.567C107.04 112.451 106.878 112.315 106.726 112.158C106.692 112.123 106.471 111.852 106.057 111.335C105.59 111.389 105.105 111.338 104.606 111.183C103.64 110.884 102.97 110.365 102.599 109.627C102.229 108.887 102.203 108.003 102.522 106.971C102.841 105.944 103.364 105.23 104.086 104.828C104.812 104.426 105.646 104.372 106.585 104.662C107.516 104.95 108.167 105.462 108.536 106.205C108.904 106.944 108.932 107.826 108.613 108.854C108.447 109.396 108.222 109.852 107.942 110.217C107.731 110.497 107.452 110.746 107.11 110.961ZM106.313 109.932C106.536 109.79 106.728 109.597 106.896 109.349C107.058 109.103 107.197 108.804 107.306 108.451C107.53 107.725 107.539 107.132 107.329 106.673C107.12 106.216 106.757 105.907 106.241 105.746C105.724 105.586 105.247 105.637 104.816 105.899C104.381 106.161 104.054 106.654 103.829 107.378C103.601 108.114 103.592 108.716 103.802 109.18C104.01 109.645 104.36 109.953 104.851 110.106C105.035 110.163 105.218 110.184 105.398 110.176C105.195 109.929 104.973 109.717 104.736 109.541L105.32 108.915C105.691 109.188 106.023 109.527 106.313 109.932ZM110.115 112.523L111.357 107.201L109.461 106.758L109.713 105.676L114.794 106.861L114.542 107.943L112.654 107.503L111.412 112.826L110.115 112.523ZM119.35 114.099L117.929 113.903L117.571 112.342L114.957 111.981L114.212 113.391L112.817 113.198L116.245 107.031L117.639 107.224L119.35 114.099ZM117.296 111.182L116.721 108.644L115.511 110.936L117.296 111.182ZM120.048 114.271L120.408 107.704L123.201 107.857C123.901 107.896 124.41 107.984 124.721 108.117C125.035 108.252 125.276 108.475 125.452 108.788C125.626 109.1 125.703 109.45 125.681 109.837C125.654 110.332 125.489 110.731 125.182 111.035C124.876 111.341 124.435 111.52 123.854 111.571C124.13 111.755 124.357 111.952 124.531 112.162C124.707 112.372 124.938 112.743 125.226 113.27L125.957 114.595L124.37 114.507L123.497 113.023C123.185 112.494 122.968 112.16 122.848 112.02C122.731 111.882 122.602 111.784 122.465 111.727C122.325 111.669 122.104 111.633 121.798 111.616L121.528 111.602L121.378 114.344L120.048 114.271ZM121.585 110.555L122.566 110.609C123.204 110.645 123.6 110.638 123.763 110.593C123.924 110.549 124.054 110.462 124.15 110.336C124.246 110.209 124.3 110.046 124.309 109.849C124.322 109.627 124.274 109.447 124.163 109.304C124.052 109.16 123.889 109.066 123.68 109.019C123.57 108.999 123.248 108.973 122.711 108.944L121.676 108.887L121.585 110.555ZM134.329 114.523L133.733 107.972L138.235 107.564L138.336 108.67L135.161 108.959L135.302 110.513L138.048 110.264L138.149 111.371L135.403 111.621L135.655 114.403L134.329 114.523ZM139.917 114.001L138.958 107.494L143.774 106.784L143.935 107.884L140.436 108.4L140.649 109.844L143.904 109.364L144.065 110.464L140.812 110.944L141.07 112.707L144.697 112.173L144.86 113.273L139.917 114.001ZM144.475 106.647L146.834 106.097C147.368 105.974 147.783 105.918 148.081 105.936C148.481 105.959 148.847 106.081 149.181 106.302C149.515 106.52 149.799 106.82 150.034 107.196C150.268 107.572 150.457 108.062 150.597 108.661C150.719 109.19 150.758 109.658 150.717 110.07C150.667 110.573 150.525 111.004 150.297 111.361C150.125 111.633 149.861 111.872 149.51 112.084C149.246 112.241 148.875 112.375 148.398 112.486L145.97 113.052L144.475 106.647ZM146.025 107.427L147.015 111.667L147.976 111.444C148.336 111.359 148.59 111.278 148.74 111.201C148.938 111.1 149.091 110.969 149.197 110.812C149.308 110.655 149.371 110.423 149.391 110.117C149.414 109.81 149.365 109.408 149.249 108.911C149.134 108.417 149.003 108.049 148.852 107.805C148.702 107.559 148.533 107.381 148.343 107.267C148.151 107.157 147.929 107.101 147.675 107.106C147.487 107.108 147.128 107.17 146.604 107.292L146.025 107.427ZM152.412 111.462L150.468 105.179L155.12 103.74L155.447 104.803L152.068 105.848L152.5 107.243L155.642 106.271L155.971 107.333L152.828 108.304L153.354 110.007L156.857 108.924L157.185 109.987L152.412 111.462ZM158.253 109.605L155.725 103.532L158.308 102.456C158.956 102.188 159.453 102.046 159.79 102.031C160.131 102.017 160.446 102.113 160.74 102.318C161.031 102.525 161.253 102.806 161.403 103.164C161.593 103.62 161.617 104.053 161.473 104.46C161.329 104.87 161.009 105.222 160.509 105.519C160.838 105.563 161.126 105.643 161.375 105.757C161.624 105.869 161.993 106.104 162.482 106.454L163.715 107.329L162.249 107.94L160.818 106.981C160.306 106.641 159.967 106.434 159.798 106.361C159.632 106.288 159.474 106.253 159.326 106.263C159.174 106.271 158.958 106.335 158.676 106.452L158.427 106.556L159.482 109.092L158.253 109.605ZM158.024 105.589L158.932 105.212C159.521 104.966 159.876 104.789 160.001 104.678C160.127 104.567 160.206 104.434 160.239 104.278C160.271 104.121 160.247 103.952 160.172 103.77C160.087 103.566 159.964 103.425 159.801 103.342C159.641 103.26 159.454 103.247 159.243 103.296C159.137 103.325 158.834 103.441 158.339 103.648L157.382 104.046L158.024 105.589ZM169.635 104.318L168.359 104.974L167.169 103.902L164.824 105.109L165.022 106.691L163.771 107.336L163.032 100.319L164.283 99.6747L169.635 104.318ZM166.277 103.111L164.35 101.366L164.676 103.936L166.277 103.111ZM170.911 103.511L167.985 98.8951L166.339 99.9368L165.743 98.9976L170.151 96.2047L170.747 97.1438L169.109 98.1822L172.036 102.798L170.911 103.511ZM172.866 99.8277L173.823 98.9488C174.145 99.2483 174.461 99.4078 174.773 99.4273C175.086 99.4485 175.402 99.3378 175.724 99.0953C176.064 98.8398 176.266 98.5745 176.331 98.2994C176.394 98.026 176.355 97.7916 176.211 97.5979C176.116 97.4742 176.001 97.3961 175.862 97.3619C175.725 97.3293 175.54 97.3489 175.312 97.4205C175.154 97.4693 174.816 97.606 174.292 97.8258C173.618 98.109 173.09 98.2343 172.706 98.1985C172.166 98.1513 171.739 97.9169 171.427 97.4986C171.225 97.2317 171.111 96.9224 171.087 96.5758C171.064 96.2275 171.149 95.8873 171.342 95.5504C171.534 95.2135 171.832 94.8944 172.236 94.5917C172.893 94.0985 173.497 93.8707 174.049 93.9146C174.602 93.9569 175.07 94.2157 175.454 94.6926L174.415 95.5292C174.166 95.29 173.922 95.1679 173.686 95.1597C173.448 95.1532 173.18 95.2607 172.885 95.4836C172.579 95.7131 172.386 95.9573 172.309 96.2144C172.259 96.3805 172.285 96.5302 172.387 96.6669C172.482 96.7922 172.614 96.859 172.784 96.8687C173.004 96.8818 173.418 96.7564 174.025 96.4911C174.63 96.2258 175.109 96.068 175.452 96.0126C175.797 95.9573 176.123 95.9915 176.432 96.1135C176.743 96.234 177.021 96.4602 177.27 96.7922C177.496 97.095 177.625 97.44 177.656 97.8274C177.685 98.2164 177.596 98.5907 177.386 98.9488C177.176 99.3053 176.84 99.6568 176.385 100C175.721 100.498 175.094 100.729 174.508 100.689C173.922 100.651 173.374 100.362 172.866 99.8277ZM179.253 97.6288L175.061 92.5605L176.087 91.7125L180.278 96.7808L179.253 97.6288ZM181.194 95.9752L176.72 91.1542L177.697 90.2493L182.171 95.0686L181.194 95.9752ZM187.26 89.9921L186.251 91.011L184.788 90.3616L182.933 92.2366L183.611 93.6786L182.622 94.6796L179.742 88.2375L180.732 87.2382L187.26 89.9921ZM183.694 89.8863L181.32 88.8235L182.426 91.1672L183.694 89.8863ZM185.755 88.4361L186.409 87.3131C186.805 87.5035 187.155 87.5621 187.457 87.4888C187.762 87.4156 188.03 87.217 188.268 86.8899C188.517 86.5465 188.632 86.2307 188.613 85.9508C188.592 85.6708 188.484 85.4576 188.289 85.316C188.162 85.2248 188.029 85.1841 187.885 85.1939C187.747 85.2037 187.574 85.2753 187.378 85.412C187.242 85.5048 186.959 85.7359 186.525 86.1005C185.965 86.5709 185.498 86.8476 185.12 86.9273C184.589 87.0412 184.114 86.9436 183.691 86.6376C183.419 86.4407 183.219 86.1802 183.094 85.8563C182.968 85.5292 182.947 85.1793 183.032 84.8017C183.118 84.4224 183.307 84.0302 183.603 83.6216C184.085 82.956 184.596 82.5588 185.135 82.4367C185.677 82.3147 186.198 82.4237 186.707 82.7639L185.962 83.8707C185.654 83.716 185.384 83.6721 185.156 83.734C184.928 83.7974 184.703 83.9813 184.487 84.2808C184.262 84.5901 184.15 84.8814 184.153 85.1483C184.155 85.3225 184.223 85.4576 184.363 85.5585C184.49 85.6513 184.635 85.6757 184.801 85.6334C185.016 85.5813 185.372 85.3388 185.874 84.9058C186.375 84.4729 186.783 84.1799 187.096 84.0269C187.408 83.8707 187.731 83.8072 188.061 83.8316C188.395 83.856 188.727 83.9895 189.064 84.2336C189.37 84.455 189.594 84.7463 189.738 85.1077C189.882 85.4706 189.907 85.8547 189.812 86.2584C189.716 86.6604 189.502 87.095 189.166 87.5588C188.68 88.231 188.151 88.6379 187.579 88.7714C187.008 88.9097 186.398 88.7958 185.755 88.4361ZM192.111 83.0976L189.861 81.802L185.639 81.9794L186.368 80.7131L189.212 80.6692L187.804 78.2196L188.52 76.9778L190.494 80.7245L192.736 82.0152L192.111 83.0976Z" fill="#002F6C"/>
    <path d="M74.2723 30.4541C74.6467 30.306 74.9934 30.1107 75.3156 29.8633L75.8479 30.7862C75.69 30.9196 75.5142 31.0417 75.3221 31.1443C75.2798 31.167 74.9592 31.3086 74.3505 31.5691C74.2772 32.0313 74.0982 32.4854 73.815 32.9265C73.2681 33.7761 72.5878 34.2823 71.7772 34.4418C70.9667 34.5997 70.1073 34.3881 69.1991 33.8021C68.2941 33.2211 67.7456 32.5261 67.5536 31.7204C67.3599 30.9131 67.5324 30.0961 68.063 29.2692C68.5904 28.4506 69.2593 27.9607 70.0731 27.8044C70.8837 27.6465 71.7414 27.8581 72.648 28.4408C73.1232 28.7468 73.5025 29.0853 73.7792 29.4532C73.9924 29.7315 74.1568 30.0651 74.2723 30.4541ZM73.0679 30.9457C72.9898 30.6934 72.8547 30.4558 72.6626 30.2295C72.4689 30.0066 72.2183 29.7917 71.9074 29.5915C71.2678 29.1814 70.6997 29.0137 70.2017 29.0935C69.7036 29.1716 69.3081 29.4385 69.0168 29.8926C68.7222 30.3484 68.6441 30.8204 68.7808 31.3054C68.9175 31.7953 69.3032 32.2429 69.9413 32.653C70.5891 33.0697 71.1652 33.2406 71.6682 33.1641C72.1743 33.0876 72.565 32.8321 72.8433 32.4008C72.9475 32.238 73.0174 32.0687 73.0581 31.8913C72.7652 32.0232 72.5015 32.1794 72.2687 32.3601L71.8212 31.6293C72.1841 31.3461 72.5975 31.1166 73.0679 30.9457ZM80.1496 25.0749L79.1926 26.1426L77.6984 25.5681L75.939 27.5342L76.6893 28.9405L75.7502 29.9887L72.5536 23.6996L73.4927 22.6498L80.1496 25.0749ZM76.5819 25.1481L74.1584 24.2058L75.3807 26.4893L76.5819 25.1481ZM80.314 25.0521L79.5067 24.1732L79.1698 18.6817L76.9074 20.7601L76.1555 19.9414L79.7004 16.6846L80.397 17.4414L80.747 23.1462L83.4992 20.6153L84.2512 21.434L80.314 25.0521ZM89.8111 17.5554L88.6295 18.3675L87.3127 17.4561L85.1399 18.9519L85.5386 20.4965L84.3781 21.294L82.7538 14.4287L83.9126 13.6296L89.8111 17.5554ZM86.328 16.7855L84.1942 15.2979L84.8436 17.806L86.328 16.7855ZM94.6028 13.8412C95.0015 13.8851 95.4003 13.8737 95.8007 13.8054L95.8397 14.8698C95.6379 14.9138 95.4263 14.9398 95.2082 14.9414C95.161 14.9431 94.8095 14.9186 94.1519 14.8633C93.8703 15.2393 93.4992 15.5567 93.0435 15.8138C92.163 16.3119 91.3264 16.4421 90.5354 16.2045C89.7427 15.9652 89.0836 15.3776 88.5513 14.4369C88.0224 13.4994 87.8628 12.6286 88.0679 11.8278C88.273 11.0238 88.8069 10.3809 89.663 9.8975C90.511 9.419 91.3313 9.2969 92.1223 9.5378C92.9133 9.777 93.5741 10.3646 94.1031 11.3021C94.3814 11.7953 94.5588 12.2705 94.6321 12.7246C94.6907 13.0713 94.6809 13.444 94.6028 13.8412ZM93.3072 13.7142C93.356 13.4554 93.3479 13.182 93.2828 12.8906C93.216 12.6042 93.0923 12.2966 92.9117 11.9759C92.5373 11.3135 92.1125 10.9017 91.6356 10.7389C91.1588 10.5762 90.6851 10.6266 90.2147 10.8919C89.7427 11.1589 89.453 11.5397 89.3456 12.0329C89.2398 12.5293 89.3716 13.1055 89.746 13.7663C90.1236 14.4369 90.5533 14.8568 91.0351 15.0228C91.5168 15.1921 91.9807 15.1481 92.4299 14.8959C92.5959 14.8015 92.7375 14.6843 92.8563 14.5459C92.5357 14.5248 92.2313 14.541 91.94 14.5915L91.8863 13.737C92.3388 13.6556 92.8124 13.6459 93.3072 13.7142ZM95.4931 11.9841L96.6161 11.3298C96.8668 11.6911 97.1402 11.9141 97.4413 12.0003C97.7424 12.0866 98.0745 12.0459 98.4407 11.8783C98.828 11.7009 99.0836 11.4844 99.204 11.2289C99.3245 10.9766 99.3358 10.7373 99.2349 10.5192C99.1698 10.3776 99.0738 10.2767 98.9452 10.2132C98.8199 10.153 98.6343 10.1319 98.3951 10.153C98.2323 10.1677 97.871 10.2279 97.3127 10.332C96.595 10.4655 96.0513 10.4753 95.6851 10.3597C95.1659 10.197 94.7997 9.8779 94.5832 9.40269C94.4433 9.0983 94.3977 8.7712 94.4481 8.4277C94.5002 8.0827 94.6549 7.7669 94.9153 7.4805C95.1757 7.1924 95.5354 6.945 95.9944 6.735C96.7414 6.3932 97.3811 6.2988 97.9101 6.46C98.4407 6.6195 98.8427 6.971 99.1161 7.5179L97.9231 8.1152C97.731 7.82879 97.5178 7.6563 97.2899 7.5993C97.0588 7.5407 96.774 7.5895 96.4371 7.7442C96.0888 7.902 95.8495 8.1006 95.7193 8.335C95.6347 8.4863 95.6282 8.6377 95.6998 8.7956C95.7649 8.9372 95.8788 9.03 96.0448 9.0755C96.2564 9.1358 96.6861 9.1016 97.3355 8.9714C97.9849 8.8412 98.4846 8.7874 98.8329 8.8086C99.1812 8.8281 99.4937 8.9307 99.7688 9.1146C100.047 9.3001 100.27 9.5801 100.443 9.9577C100.6 10.3011 100.653 10.6657 100.599 11.0514C100.545 11.4372 100.377 11.7839 100.098 12.0882C99.816 12.3926 99.414 12.6644 98.8931 12.902C98.1396 13.2471 97.4787 13.3399 96.914 13.1755C96.3492 13.0127 95.8756 12.614 95.4931 11.9841ZM103.725 10.8806L101.88 5.7357L100.047 6.3932L99.6711 5.3483L104.583 3.5856L104.958 4.6322L103.133 5.2865L104.979 10.4313L103.725 10.8806ZM112.72 8.2503L111.335 8.6231L110.397 7.3242L107.85 8.0111L107.71 9.598L106.351 9.9642L107.108 2.9492L108.468 2.583L112.72 8.2503ZM109.692 6.3639L108.175 4.2497L107.952 6.8311L109.692 6.3639ZM113.434 8.1869L112.249 1.7171L113.517 1.4844L116.974 5.332L116.18 0.997695L117.391 0.774697L118.576 7.2445L117.267 7.4854L113.865 3.7126L114.645 7.9655L113.434 8.1869ZM127.62 6.5755L127.755 0L130.553 0.0586035C131.255 0.0732035 131.766 0.143204 132.08 0.266904C132.399 0.390604 132.648 0.605496 132.834 0.913096C133.017 1.2191 133.107 1.5658 133.099 1.9531C133.089 2.4479 132.938 2.8532 132.642 3.169C132.345 3.4847 131.909 3.6768 131.331 3.7484C131.614 3.9225 131.847 4.1113 132.028 4.3148C132.212 4.5182 132.454 4.8812 132.759 5.3988L133.535 6.6976L131.947 6.665L131.025 5.21C130.693 4.6924 130.465 4.3669 130.342 4.2318C130.22 4.0967 130.088 4.0023 129.948 3.9518C129.806 3.8981 129.583 3.8688 129.277 3.8623L129.009 3.8574L128.952 6.6032L127.62 6.5755ZM129.03 2.8109L130.013 2.8304C130.651 2.8434 131.046 2.8239 131.208 2.7734C131.365 2.723 131.492 2.6335 131.585 2.5033C131.678 2.3731 131.725 2.2087 131.728 2.0117C131.733 1.7904 131.678 1.6113 131.562 1.4714C131.448 1.3314 131.282 1.2435 131.069 1.2028C130.962 1.1865 130.638 1.1719 130.101 1.1605L129.064 1.1393L129.03 2.8109ZM134.256 6.7285L134.925 0.185498L139.767 0.680303L139.655 1.7855L136.136 1.4258L135.988 2.8792L139.259 3.2129L139.147 4.3197L135.874 3.9844L135.693 5.7585L139.339 6.1312L139.227 7.2363L134.256 6.7285ZM140.397 5.1921L141.693 5.2995C141.691 5.7389 141.787 6.0791 141.984 6.3216C142.183 6.5641 142.477 6.722 142.874 6.7936C143.293 6.8701 143.626 6.8392 143.872 6.7009C144.115 6.5609 144.261 6.3737 144.303 6.1361C144.333 5.9831 144.311 5.8447 144.241 5.7194C144.173 5.5973 144.033 5.4736 143.825 5.3548C143.683 5.2734 143.353 5.1156 142.837 4.8812C142.17 4.5785 141.719 4.2757 141.486 3.9697C141.154 3.54 141.037 3.0697 141.131 2.5553C141.191 2.2249 141.341 1.932 141.579 1.6797C141.82 1.4258 142.127 1.2565 142.505 1.1702C142.882 1.084 143.319 1.0856 143.815 1.1768C144.624 1.3249 145.202 1.6146 145.544 2.0492C145.887 2.4854 146.014 3.0029 145.924 3.6084L144.606 3.4131C144.613 3.068 144.536 2.806 144.381 2.627C144.227 2.4479 143.965 2.3242 143.602 2.2575C143.224 2.1891 142.915 2.2135 142.674 2.3307C142.518 2.4072 142.425 2.5277 142.394 2.6969C142.365 2.8499 142.406 2.9915 142.516 3.125C142.655 3.2959 143.027 3.5124 143.633 3.7793C144.24 4.0446 144.681 4.2871 144.954 4.5036C145.229 4.7184 145.425 4.9821 145.545 5.2913C145.667 5.6022 145.69 5.9603 145.615 6.3672C145.547 6.7399 145.381 7.0687 145.117 7.3535C144.85 7.64 144.515 7.8272 144.11 7.9151C143.706 8.0046 143.221 7.9964 142.658 7.8939C141.842 7.7442 141.247 7.4414 140.879 6.9841C140.509 6.5267 140.35 5.9277 140.397 5.1921ZM146.387 8.4522L148.096 2.1012L150.151 2.6546C150.931 2.863 151.429 3.0322 151.649 3.1576C151.987 3.3512 152.236 3.641 152.396 4.0267C152.555 4.4108 152.567 4.8584 152.432 5.363C152.326 5.7536 152.166 6.0612 151.955 6.2891C151.741 6.5169 151.505 6.6781 151.248 6.7725C150.99 6.8636 150.742 6.9059 150.504 6.8929C150.181 6.8701 149.731 6.7839 149.15 6.6276L148.317 6.403L147.672 8.7988L146.387 8.4522ZM149.092 3.5205L148.605 5.3288L149.305 5.5176C149.81 5.6527 150.155 5.7113 150.342 5.6885C150.531 5.669 150.692 5.6006 150.825 5.4834C150.96 5.3678 151.053 5.2165 151.103 5.0277C151.167 4.7949 151.149 4.5866 151.055 4.3994C150.96 4.2122 150.815 4.0706 150.618 3.9762C150.474 3.9063 150.171 3.8102 149.71 3.6865L149.092 3.5205ZM153.931 10.6283L154.868 8.0241L153.892 3.6247L155.356 4.152L155.937 7.1289L158.244 5.1921L159.683 5.7096L156.118 8.4847L155.182 11.0807L153.931 10.6283ZM160.806 6.1507L163.197 7.2445C163.672 7.4626 164.015 7.6416 164.23 7.7865C164.445 7.9362 164.616 8.112 164.741 8.3203C164.868 8.5303 164.946 8.7663 164.974 9.03C165 9.292 164.956 9.5541 164.837 9.8112C164.71 10.0895 164.518 10.3125 164.259 10.4769C164.004 10.6413 163.719 10.7227 163.408 10.7227C163.722 10.9945 163.918 11.3021 163.997 11.6504C164.075 11.9955 164.033 12.3405 163.875 12.6872C163.752 12.959 163.568 13.195 163.322 13.3952C163.079 13.5938 162.811 13.7207 162.521 13.7761C162.233 13.8281 161.919 13.7988 161.58 13.6898C161.37 13.6182 160.877 13.4099 160.106 13.0632L158.07 12.1306L160.806 6.1507ZM161.561 7.6986L160.931 9.0772L161.722 9.4385C162.192 9.6533 162.487 9.7803 162.607 9.81769C162.825 9.88929 163.021 9.8926 163.193 9.8291C163.366 9.764 163.494 9.6354 163.581 9.445C163.667 9.2578 163.683 9.0869 163.634 8.9242C163.586 8.763 163.465 8.6231 163.276 8.5091C163.162 8.4391 162.822 8.2764 162.256 8.016L161.561 7.6986ZM160.477 10.07L159.743 11.6748L160.863 12.1875C161.296 12.3845 161.579 12.5 161.706 12.5293C161.903 12.5781 162.085 12.5651 162.256 12.4919C162.427 12.4138 162.56 12.2705 162.658 12.0589C162.741 11.8766 162.767 11.7074 162.738 11.5414C162.708 11.3753 162.624 11.2256 162.485 11.0938C162.347 10.9619 162.002 10.7682 161.453 10.516L160.477 10.07ZM164.098 14.9886L167.306 9.3115L168.465 9.9658L165.804 14.6761L168.675 16.2989L168.128 17.2657L164.098 14.9886ZM168.87 17.7767L172.603 12.36L173.7 13.1169L169.967 18.5319L168.87 17.7767ZM171.043 19.2367L175.016 13.9942L176.079 14.7998L174.32 17.1208L178.218 16.4209L179.639 17.4984L176.115 18.042L175.77 22.819L174.401 21.7806L174.823 18.2259L173.307 18.4554L172.106 20.0407L171.043 19.2367ZM180.448 27.5L179.44 26.4812L180.104 25.0245L178.249 23.1478L176.798 23.8135L175.809 22.8125L182.28 20.0017L183.27 21.001L180.448 27.5ZM180.591 23.9356L181.678 21.5723L179.323 22.6547L180.591 23.9356ZM182.357 26.4291L183.27 27.3552C182.982 27.6872 182.832 28.0095 182.824 28.322C182.814 28.6345 182.936 28.9454 183.19 29.2595C183.457 29.5899 183.73 29.7836 184.007 29.8389C184.282 29.8926 184.515 29.8438 184.702 29.6924C184.824 29.5948 184.899 29.4776 184.927 29.336C184.954 29.1993 184.928 29.0153 184.849 28.7891C184.795 28.6329 184.647 28.2992 184.409 27.7849C184.102 27.1208 183.957 26.5967 183.979 26.2126C184.009 25.6706 184.227 25.2377 184.634 24.9089C184.894 24.6989 185.199 24.5736 185.545 24.5378C185.892 24.502 186.235 24.5736 186.579 24.7559C186.921 24.9366 187.251 25.223 187.567 25.6153C188.084 26.2549 188.333 26.8506 188.309 27.404C188.284 27.959 188.044 28.4343 187.58 28.8347L186.707 27.8256C186.937 27.57 187.051 27.321 187.051 27.085C187.049 26.8474 186.932 26.5821 186.699 26.2956C186.46 25.9978 186.208 25.8138 185.949 25.7455C185.781 25.7015 185.633 25.7325 185.498 25.8399C185.376 25.9392 185.314 26.0726 185.311 26.2435C185.306 26.4649 185.446 26.8718 185.732 27.4691C186.019 28.0664 186.195 28.5368 186.261 28.8786C186.328 29.222 186.307 29.5492 186.195 29.8633C186.086 30.1775 185.869 30.4639 185.545 30.7243C185.252 30.962 184.912 31.1019 184.525 31.1459C184.137 31.1898 183.76 31.1133 183.395 30.9164C183.031 30.7178 182.668 30.3956 182.31 29.9512C181.789 29.3051 181.535 28.6882 181.554 28.1006C181.572 27.5147 181.841 26.9564 182.357 26.4291ZM185.592 34.3409L187.92 32.8435L189.819 28.7549L190.662 30.0635L189.313 32.7816L192.323 32.6465L193.149 33.9307L188.633 33.9682L186.312 35.4607L185.592 34.3409Z" fill="#002F6C"/>
    <path fill-rule="evenodd" clip-rule="evenodd" d="M156.971 3.6394C157.251 3.6394 157.477 3.86571 157.477 4.14561C157.477 4.42561 157.251 4.65181 156.971 4.65181C156.691 4.65181 156.465 4.42561 156.465 4.14561C156.465 3.86571 156.691 3.6394 156.971 3.6394Z" fill="#303E68"/>
    <path fill-rule="evenodd" clip-rule="evenodd" d="M75.7132 82.9998C75.9931 82.9998 76.2194 83.2259 76.2194 83.5059C76.2194 83.7858 75.9931 84.0122 75.7132 84.0122C75.4332 84.0122 75.207 83.7858 75.207 83.5059C75.207 83.2259 75.4332 82.9998 75.7132 82.9998Z" fill="#303E68"/>
</svg>