<svg width="67" height="55" viewBox="0 0 67 55" fill="none" xmlns="http://www.w3.org/2000/svg">
    <path fill-rule="evenodd" clip-rule="evenodd" d="M41.3221 9.09672C49.0417 10.8868 55.1628 15.4142 57.6808 21.1672C58.4493 22.9298 59.9687 22.5946 59.9687 22.5946H61.3101V31.473H60.3491C60.3491 31.473 58.5038 31.0128 57.69 32.8796C55.0739 38.8842 48.5362 43.5551 40.3504 45.1818C38.0418 45.6397 38.3808 47.4544 38.3808 47.4544V48.6485H29.5024V47.3278C29.5024 47.3278 29.7716 45.629 27.499 45.1749C19.2411 43.5244 12.6643 38.7738 10.1096 32.6848C9.45992 31.1355 8.03103 31.4738 8.03103 31.4738H6.63672V22.5953H8.15835C8.15835 22.5953 9.47986 22.7656 10.2798 20.9947C12.8913 15.2179 19.146 10.7035 26.9867 9.00157C29.7884 8.39336 29.5024 6.36092 29.5024 6.36092V5.03711H38.3808V6.36092C38.3808 6.71985 38.2772 8.3911 41.3221 9.09672ZM35.6795 26.4333H36.8055V27.2777H35.6795V26.4333ZM31.0815 26.4333H32.2075V27.2777H31.0815V26.4333ZM33.3357 28.1137H34.4616V28.9582H33.3357V28.1137ZM33.3357 24.927H34.4616V25.7714H33.3357V24.927ZM50.1285 16.2518L37.8148 25.6709L38.2604 26.2523L50.5733 16.8331L50.1285 16.2518ZM48.343 14.4985L36.0293 23.9176L36.4749 24.499L48.7878 15.0798L48.343 14.4985ZM30.8499 29.5817L18.5362 39.0008L18.9818 39.5822L31.2948 30.163L30.8499 29.5817ZM29.3612 27.7632L17.0475 37.1824L17.4931 37.7637L29.8061 28.3446L29.3612 27.7632ZM36.8108 29.416L49.1245 38.8352L48.6789 39.4165L36.3659 29.9974L36.8108 29.416ZM38.3148 27.6359L50.6285 37.055L50.1829 37.6364L37.87 28.2172L38.3148 27.6359ZM17.7186 16.353L30.0323 25.7722L29.5867 26.3535L17.2738 16.9344L17.7186 16.353ZM19.4275 14.5997L31.7411 24.0189L31.2955 24.6002L18.9826 15.1811L19.4275 14.5997ZM34.1203 23.6031L24.132 15.2969C23.5154 14.7822 22.9126 11.268 27.7544 11.268C31.2771 11.268 32.7635 12.328 31.4313 14.6549C30.9887 15.4272 31.3592 18.3195 34.2645 18.2681C36.8614 18.2221 36.965 15.4342 36.5869 14.5053C35.5952 12.0756 37.5716 11.0502 40.6663 11.4298C45.2843 11.9951 44.4322 15.1458 42.639 16.547C40.8466 17.9475 34.1203 23.6031 34.1203 23.6031ZM34.1203 30.3479L24.132 38.6542C23.5154 39.1688 22.9126 42.6831 27.7544 42.6831C31.2771 42.6831 32.7635 41.6231 31.4313 39.2961C30.9887 38.5238 31.3592 35.6316 34.2645 35.6829C36.8614 35.729 36.965 38.5169 36.5869 39.4456C35.5952 41.8754 37.5716 42.9009 40.6663 42.5212C45.2843 41.956 44.4322 38.8053 42.639 37.404C40.8466 36.0035 34.1203 30.3479 34.1203 30.3479ZM40.5298 26.9257L50.3095 33.9895C50.9146 34.4259 55.0524 34.8523 55.0524 31.4278C55.0524 28.9367 53.2777 27.474 51.0649 28.8278C49.9981 29.4766 47.6619 29.5103 47.7815 26.7339C47.895 24.094 50.456 24.5557 51.2413 25.1816C53.0989 26.6649 55.3086 24.4852 54.8622 22.2963C54.1964 19.0305 50.4866 19.6333 48.8377 20.9011C47.1887 22.1689 40.5298 26.9257 40.5298 26.9257ZM27.1194 26.908L17.3398 33.9718C16.7346 34.4082 12.5968 34.8347 12.5968 31.4101C12.5968 28.919 14.3716 27.4564 16.5843 28.8101C17.6511 29.459 19.9873 29.4927 19.8677 26.7163C19.7542 24.0764 17.1932 24.5381 16.4079 25.1639C14.5503 26.6473 12.3407 24.4675 12.787 22.2786C13.4528 19.0128 17.1626 19.6157 18.8116 20.8835C20.4605 22.1513 27.1194 26.908 27.1194 26.908Z" fill="#0581BC"/>
    <path fill-rule="evenodd" clip-rule="evenodd" d="M65.1265 31.0606C65.1265 31.0606 64.1471 31.0147 64.1777 30.0812C64.2083 29.1477 65.3714 29.3772 65.3714 29.3772C65.2734 28.8057 65.1853 27.4642 66.4121 27.1122C65.9753 27.8183 66.1519 28.459 66.4274 29.0711C66.7029 29.6833 66.81 29.9894 66.7488 30.8158C66.6876 31.6422 65.4633 32.438 64.3001 32.0401C63.137 31.6422 62.8004 30.2343 62.9534 29.316C63.1064 28.3977 64.2389 27.2652 64.6368 26.6837C65.0347 26.1021 64.7898 25.7961 64.5144 25.6431C64.8893 25.4671 65.2413 25.7272 65.2413 26.0639C65.6239 26.0945 66.4673 25.0844 66.2531 23.9825C66.0389 22.8805 65.1955 22.7506 64.5756 22.9495C63.9558 23.1484 63.6267 23.8066 63.9022 24.3269C64.1777 24.8473 65.3988 24.4173 64.6139 23.4775C64.7777 23.3182 65.4249 23.4315 65.5244 24.1738C65.6239 24.9161 64.5748 25.497 63.8784 24.946C63.9639 25.1552 64.2695 25.7655 63.9634 26.3776C63.6573 26.9898 63.0452 27.2958 63.0452 27.2958C63.0452 27.2958 63.4585 25.7425 63.0146 24.8778C62.5708 24.0132 63.1675 22.8457 63.9328 22.5516C64.6981 22.2575 65.4479 22.1996 66.1978 22.8271C66.9477 23.4545 66.8635 24.7401 66.588 25.1686C65.8384 26.3346 63.7973 27.7672 64.7048 28.9886C64.0475 29.0187 63.9386 28.415 63.9998 28.2562C63.7683 28.2907 62.7927 29.9129 63.6573 30.9382C64.522 31.9636 65.2031 31.6575 65.5244 31.5657C65.8458 31.4739 66.5498 30.6168 65.953 29.9894C65.3561 29.3619 64.1777 30.0812 65.1265 31.0606Z" fill="#0581BC"/>
    <path fill-rule="evenodd" clip-rule="evenodd" d="M3.16709 30.9854C3.16709 30.9854 2.18765 30.9395 2.21823 30.006C2.24882 29.0725 3.41194 29.302 3.41194 29.302C3.31393 28.7304 3.22586 27.389 4.45264 27.037C4.01582 27.7431 4.19243 28.3838 4.46791 28.9959C4.74339 29.6081 4.85055 29.9142 4.78933 30.7406C4.72812 31.567 3.50383 32.3628 2.34066 31.9649C1.17753 31.567 0.840889 30.1591 0.993943 29.2408C1.14695 28.3226 2.27945 27.1901 2.67735 26.6085C3.07525 26.0269 2.8304 25.7209 2.55492 25.5679C2.92988 25.3919 3.28184 25.652 3.28184 25.9887C3.66442 26.0193 4.50792 25.0092 4.29365 23.9073C4.07939 22.8054 3.23599 22.6754 2.61614 22.8743C1.99633 23.0732 1.66732 23.7314 1.94276 24.2517C2.21823 24.7721 3.43941 24.3421 2.6544 23.4023C2.81825 23.243 3.46547 23.3564 3.565 24.0986C3.66447 24.8409 2.61534 25.4218 1.91901 24.8708C2.00439 25.0801 2.31008 25.6903 2.00402 26.3025C1.69791 26.9146 1.08574 27.2206 1.08574 27.2206C1.08574 27.2206 1.499 25.6673 1.05516 24.8026C0.611308 23.938 1.20807 22.7705 1.97334 22.4764C2.73861 22.1823 3.48847 22.1244 4.23833 22.7519C4.98824 23.3793 4.90398 24.6649 4.6286 25.0934C3.87897 26.2594 1.83786 27.6921 2.7453 28.9134C2.08804 28.9435 1.97909 28.3398 2.0403 28.181C1.80888 28.2155 0.833209 29.8377 1.69791 30.863C2.56256 31.8884 3.24362 31.5823 3.565 31.4905C3.88637 31.3987 4.59034 30.5416 3.99353 29.9142C3.39667 29.2867 2.21823 30.006 3.16709 30.9854Z" fill="#0581BC"/>
    <path d="M3.5625 38.0382L6.1541 36.3386L6.49847 36.864L5.35033 37.6164L7.19258 37.9216L7.65354 38.6242L6.00302 38.3089L5.09492 40.3752L4.65084 39.6979L5.40018 38.187L4.69071 38.049L3.90687 38.5636L3.5625 38.0382ZM7.01771 42.8264L6.59281 42.301L6.97248 41.6491L6.1909 40.6827L5.47996 40.9258L5.06269 40.4105L8.22876 39.3965L8.64598 39.9119L7.01771 42.8264ZM7.25243 41.1621L7.87289 40.1052L6.71782 40.5017L7.25243 41.1621ZM7.8399 42.2527L8.3116 42.6439C8.19271 42.8134 8.13824 42.9706 8.14823 43.1178C8.15897 43.2651 8.23107 43.4055 8.36527 43.5404C8.50565 43.6823 8.64292 43.7606 8.77562 43.7729C8.90676 43.7851 9.01415 43.7514 9.09468 43.6716C9.1468 43.6202 9.17597 43.5612 9.18285 43.4937C9.18902 43.4285 9.16829 43.3426 9.12074 43.2406C9.08776 43.1708 9.00185 43.0212 8.86609 42.7911C8.69047 42.4943 8.59768 42.2558 8.59 42.0748C8.57775 41.8194 8.65979 41.6054 8.83466 41.4321C8.94743 41.3208 9.08394 41.248 9.2442 41.2142C9.40607 41.1813 9.5702 41.1989 9.7397 41.2679C9.90844 41.3362 10.0764 41.4551 10.2443 41.6238C10.5166 41.8992 10.6616 42.1668 10.6762 42.4276C10.6915 42.6884 10.601 42.9223 10.4031 43.1325L9.946 42.7014C10.0419 42.5695 10.0825 42.4483 10.0718 42.3371C10.0595 42.2259 9.99204 42.1078 9.86928 41.9835C9.74276 41.8554 9.61619 41.781 9.49117 41.7618C9.41064 41.7488 9.34241 41.7703 9.28487 41.8278C9.23195 41.8792 9.20971 41.9451 9.21664 42.0257C9.22352 42.1292 9.30942 42.3141 9.47124 42.5802C9.63461 42.8464 9.73894 43.0588 9.78649 43.2161C9.83479 43.3733 9.83941 43.5282 9.80256 43.6801C9.76575 43.8327 9.67754 43.9776 9.53877 44.1149C9.41219 44.2399 9.25957 44.322 9.08008 44.3611C8.90063 44.4002 8.72039 44.3826 8.54015 44.3074C8.3599 44.2315 8.17429 44.098 7.98485 43.9063C7.70952 43.6286 7.56151 43.351 7.54308 43.0749C7.52315 42.7988 7.62286 42.5242 7.8399 42.2527ZM9.28487 45.0851L11.3948 42.8149L11.8542 43.2414L9.74507 45.5123L9.28487 45.0851ZM10.1892 45.9119L12.0651 43.4453L12.8635 44.0528C13.1665 44.2829 13.3544 44.4447 13.4273 44.5391C13.5408 44.684 13.5975 44.8543 13.5991 45.0506C13.5998 45.247 13.5254 45.4441 13.3767 45.6396C13.2608 45.7923 13.1366 45.8981 13.0031 45.9595C12.8697 46.0208 12.7385 46.0492 12.6089 46.0446C12.4808 46.0385 12.365 46.0124 12.263 45.9648C12.1265 45.8974 11.9455 45.7792 11.72 45.6082L11.3963 45.3612L10.6884 46.2924L10.1892 45.9119ZM12.2477 44.2422L11.7131 44.9448L11.9846 45.1511C12.181 45.2999 12.3213 45.3866 12.4072 45.4103C12.4924 45.4349 12.5752 45.4341 12.6542 45.4072C12.7332 45.3804 12.8014 45.3306 12.8567 45.2577C12.9257 45.1672 12.9556 45.0736 12.9479 44.9747C12.9395 44.8765 12.9011 44.7891 12.8321 44.7124C12.7815 44.6564 12.6664 44.5605 12.4877 44.424L12.2477 44.2422ZM13.178 46.2962C13.3437 46.0269 13.5239 45.826 13.7172 45.6926C13.8599 45.5944 14.0163 45.5246 14.1858 45.4816C14.3553 45.4395 14.5179 45.4295 14.6736 45.4533C14.8807 45.4855 15.0924 45.5683 15.3071 45.701C15.6967 45.9411 15.933 46.254 16.0173 46.6398C16.1025 47.0256 16.0112 47.4328 15.7458 47.8631C15.482 48.2903 15.1599 48.5526 14.7802 48.65C14.3998 48.7489 14.0155 48.6776 13.6282 48.4391C13.2363 48.1967 12.997 47.8846 12.9142 47.5011C12.8298 47.1184 12.918 46.7172 13.178 46.2962ZM13.7379 46.6175C13.553 46.9159 13.4825 47.1851 13.5254 47.4252C13.5684 47.6645 13.6957 47.8501 13.909 47.982C14.1214 48.1131 14.343 48.1438 14.5747 48.0756C14.8055 48.0058 15.0157 47.8186 15.2044 47.5118C15.3915 47.2089 15.4651 46.942 15.4229 46.7119C15.3823 46.4803 15.2519 46.297 15.0318 46.1612C14.8116 46.0254 14.5877 45.9917 14.3599 46.0592C14.1329 46.1275 13.925 46.313 13.7379 46.6175ZM16.7674 46.6551L17.7844 47.1728C18.0138 47.2902 18.1802 47.396 18.283 47.4926C18.4195 47.6223 18.5154 47.778 18.5675 47.959C18.6227 48.1392 18.6335 48.3333 18.6043 48.5403C18.5744 48.7474 18.4939 48.9806 18.3619 49.2391C18.2462 49.4669 18.1181 49.647 17.9785 49.7836C17.8067 49.9492 17.6257 50.062 17.4347 50.1211C17.2905 50.1663 17.1225 50.1732 16.9316 50.1425C16.7881 50.1195 16.6148 50.0551 16.4093 49.9508L15.3616 49.4178L16.7674 46.6551ZM17.0888 47.4067L16.1584 49.2352L16.5734 49.4461C16.7283 49.5251 16.8441 49.5734 16.9223 49.5911C17.0244 49.6149 17.1187 49.6141 17.2054 49.5896C17.2928 49.5665 17.3856 49.5021 17.4861 49.3978C17.5873 49.2935 17.6916 49.134 17.8005 48.92C17.9094 48.7068 17.9739 48.5342 17.9938 48.4008C18.0145 48.2665 18.0069 48.1507 17.9731 48.0526C17.937 47.9544 17.8742 47.8677 17.7813 47.7918C17.7124 47.735 17.5643 47.6491 17.3381 47.5341L17.0888 47.4067ZM20.758 51.8345L20.1298 51.5859L20.1406 50.8313L18.984 50.3741L18.4847 50.9356L17.868 50.6917L20.1268 48.2519L20.7434 48.4958L20.758 51.8345ZM20.1436 50.2691L20.1651 49.0442L19.3544 49.9569L20.1436 50.2691ZM23.5735 52.2977C23.687 52.4488 23.8205 52.5815 23.9731 52.6973L23.6219 53.0547C23.5405 53.0002 23.4639 52.9358 23.3925 52.8622C23.3764 52.8453 23.2721 52.718 23.0773 52.4741C22.8571 52.4994 22.6286 52.4757 22.3931 52.4028C21.9384 52.2617 21.6223 52.017 21.4475 51.6695C21.2734 51.3206 21.2611 50.9041 21.4114 50.4179C21.5617 49.9339 21.808 49.5972 22.1485 49.4078C22.4905 49.2183 22.8833 49.193 23.3258 49.3295C23.7645 49.4653 24.0713 49.7069 24.2454 50.0566C24.4187 50.4048 24.4317 50.8205 24.2814 51.3052C24.2032 51.5606 24.0974 51.7754 23.9654 51.9472C23.8657 52.0791 23.7346 52.1965 23.5735 52.2977ZM23.1977 51.813C23.3028 51.7463 23.3933 51.655 23.4723 51.5384C23.549 51.4226 23.6142 51.2815 23.6655 51.1151C23.7714 50.773 23.7752 50.4938 23.6763 50.2775C23.5781 50.062 23.4071 49.9163 23.164 49.8403C22.9201 49.7652 22.6953 49.789 22.4921 49.9124C22.2873 50.0359 22.1332 50.2683 22.0273 50.6096C21.9199 50.9563 21.9153 51.2401 22.0143 51.4587C22.1124 51.678 22.2773 51.823 22.509 51.8951C22.5956 51.9219 22.6815 51.9319 22.7667 51.928C22.6708 51.8115 22.5665 51.7118 22.4545 51.6289L22.7299 51.3337C22.9047 51.4625 23.0612 51.622 23.1977 51.813ZM24.9893 53.034L25.5745 50.526L24.681 50.3174L24.7999 49.8074L27.1944 50.3657L27.0755 50.8758L26.1858 50.6687L25.6006 53.1767L24.9893 53.034ZM29.3411 53.7764L28.6715 53.6844L28.5028 52.9489L27.2711 52.7786L26.9198 53.4428L26.2625 53.3523L27.8778 50.4462L28.535 50.5368L29.3411 53.7764ZM28.3732 52.402L28.1024 51.2063L27.5318 52.2862L28.3732 52.402ZM29.6702 53.8577L29.8397 50.763L31.1558 50.8351C31.4856 50.8535 31.7257 50.8949 31.8721 50.9578C32.0202 51.0215 32.1336 51.1266 32.2165 51.2738C32.2986 51.4211 32.3346 51.586 32.3246 51.7685C32.3116 52.0017 32.2342 52.1896 32.0892 52.333C31.945 52.4772 31.7372 52.5616 31.4633 52.5853C31.5937 52.672 31.7003 52.7648 31.7824 52.8637C31.8652 52.9627 31.9741 53.1376 32.1099 53.386L32.4543 54.0104L31.7065 53.9689L31.2954 53.2694C31.1481 53.0202 31.0461 52.863 30.9894 52.797C30.9341 52.7318 30.8735 52.6858 30.8091 52.659C30.7431 52.6314 30.6388 52.6145 30.4946 52.6068L30.3673 52.5999L30.2968 53.8922L29.6702 53.8577ZM30.3942 52.1067L30.8567 52.1321C31.1573 52.1489 31.3437 52.1459 31.4204 52.1244C31.4963 52.1037 31.5577 52.063 31.6029 52.0032C31.6482 51.9434 31.6735 51.8667 31.6781 51.7739C31.6842 51.6695 31.6612 51.5844 31.6091 51.517C31.5569 51.4494 31.4802 51.4049 31.3813 51.3827C31.3299 51.3735 31.178 51.3612 30.9249 51.3474L30.4371 51.3206L30.3942 52.1067ZM36.3995 53.9766L36.1188 50.8896L38.2402 50.697L38.2878 51.2186L36.7915 51.3543L36.8582 52.0868L38.1521 51.9694L38.1996 52.491L36.9057 52.6091L37.0246 53.9198L36.3995 53.9766ZM39.0326 53.7304L38.5808 50.6641L40.8503 50.3297L40.9262 50.8482L39.2772 51.0913L39.3777 51.7716L40.9116 51.5453L40.9875 52.0638L39.4544 52.2901L39.5763 53.1207L41.2851 52.8691L41.3618 53.3876L39.0326 53.7304ZM41.1808 50.2652L42.2922 50.006C42.5437 49.9477 42.7393 49.9216 42.8796 49.9301C43.0683 49.9408 43.2409 49.9983 43.3981 50.1026C43.5554 50.2054 43.6896 50.3465 43.8 50.5237C43.9105 50.7009 43.9994 50.9317 44.0654 51.214C44.1229 51.4632 44.1414 51.6841 44.1222 51.8782C44.0984 52.1152 44.0317 52.3184 43.9243 52.4864C43.843 52.6145 43.7187 52.7272 43.5531 52.8269C43.4288 52.9013 43.2539 52.9642 43.0292 53.0164L41.8849 53.2833L41.1808 50.2652ZM41.911 50.6326L42.3773 52.6306L42.8306 52.5255C43.0001 52.4856 43.1197 52.4473 43.1903 52.4112C43.2839 52.3637 43.356 52.3016 43.4058 52.2279C43.458 52.1535 43.4879 52.0446 43.4971 51.9004C43.5078 51.7555 43.4848 51.566 43.4304 51.3321C43.3759 51.0989 43.3145 50.9256 43.2432 50.8105C43.1727 50.6948 43.0929 50.6111 43.0032 50.5575C42.9126 50.5053 42.8084 50.4792 42.6887 50.4815C42.5997 50.4823 42.431 50.5115 42.184 50.5689L41.911 50.6326ZM44.9206 52.534L44.0048 49.5734L46.1968 48.8954L46.351 49.3963L44.7588 49.8886L44.962 50.546L46.443 50.0881L46.5979 50.5881L45.1169 51.046L45.3647 51.8483L47.0152 51.3382L47.1701 51.839L44.9206 52.534ZM47.6732 51.6589L46.4821 48.7973L47.6993 48.2903C48.0046 48.1638 48.2385 48.097 48.3972 48.0901C48.5583 48.0832 48.7064 48.1285 48.8452 48.2251C48.9824 48.3225 49.0868 48.4552 49.1573 48.6239C49.247 48.8387 49.2585 49.0427 49.1903 49.2344C49.1228 49.4277 48.9717 49.5934 48.7362 49.7337C48.8912 49.7544 49.0269 49.792 49.1443 49.8457C49.2616 49.8986 49.4357 50.0091 49.6658 50.174L50.2472 50.5866L49.5562 50.8742L48.882 50.4225C48.6404 50.2622 48.4808 50.1648 48.4011 50.1302C48.3229 50.0957 48.2485 50.0796 48.1787 50.0843C48.1073 50.0881 48.0053 50.118 47.8727 50.1732L47.7553 50.2223L48.2523 51.4172L47.6732 51.6589ZM47.5651 49.7667L47.9931 49.5888C48.2707 49.473 48.4379 49.3894 48.4969 49.3372C48.556 49.285 48.5936 49.2222 48.6089 49.1485C48.6243 49.0749 48.6128 48.9952 48.5775 48.9093C48.5376 48.8134 48.4793 48.7466 48.4026 48.7075C48.3274 48.6692 48.2393 48.663 48.1396 48.6861C48.0897 48.6999 47.947 48.7543 47.7139 48.8517L47.2629 49.0396L47.5651 49.7667ZM53.0366 49.1677L52.4353 49.4768L51.8747 48.9714L50.7695 49.5405L50.863 50.2859L50.2733 50.5897L49.925 47.2833L50.5149 46.9795L53.0366 49.1677ZM51.4544 48.5986L50.5463 47.7764L50.6997 48.9875L51.4544 48.5986ZM53.638 48.7873L52.2589 46.6122L51.4835 47.103L51.2028 46.6605L53.2798 45.3444L53.5605 45.7869L52.7889 46.2762L54.1679 48.4514L53.638 48.7873ZM54.5591 47.0516L55.0101 46.6375C55.1619 46.7786 55.3107 46.8538 55.458 46.863C55.6052 46.8729 55.754 46.8208 55.9059 46.7065C56.0662 46.5861 56.1613 46.4611 56.192 46.3315C56.2219 46.2026 56.2034 46.0922 56.1352 46.0009C56.0907 45.9426 56.0363 45.9058 55.9711 45.8897C55.9066 45.8743 55.8192 45.8836 55.7118 45.9173C55.6374 45.9403 55.4779 46.0047 55.2309 46.1083C54.9134 46.2417 54.6649 46.3008 54.4839 46.2839C54.2293 46.2617 54.0283 46.1512 53.8811 45.9541C53.786 45.8283 53.7323 45.6826 53.7208 45.5193C53.7101 45.3551 53.7499 45.1948 53.8412 45.0361C53.9317 44.8773 54.0721 44.7269 54.2622 44.5843C54.5721 44.3519 54.8566 44.2445 55.1167 44.2652C55.3774 44.2852 55.5975 44.4071 55.7785 44.6318L55.2892 45.0261C55.1719 44.9134 55.0568 44.8558 54.9456 44.852C54.8336 44.8489 54.7071 44.8995 54.5683 45.0046C54.4241 45.1127 54.3328 45.2278 54.2968 45.349C54.273 45.4272 54.2853 45.4978 54.3336 45.5622C54.3781 45.6212 54.4402 45.6527 54.5208 45.6573C54.6243 45.6634 54.8191 45.6044 55.1052 45.4793C55.3905 45.3543 55.616 45.28 55.7778 45.2539C55.9404 45.2278 56.0938 45.2439 56.2395 45.3014C56.386 45.3582 56.5171 45.4648 56.6345 45.6212C56.7411 45.7639 56.8017 45.9265 56.8163 46.109C56.8301 46.2923 56.7879 46.4687 56.6889 46.6375C56.59 46.8055 56.432 46.9711 56.2173 47.133C55.9044 47.3676 55.609 47.4765 55.333 47.4574C55.0568 47.4397 54.7983 47.3032 54.5591 47.0516ZM57.5687 46.0155L55.5937 43.6271L56.0769 43.2275L58.0519 45.6159L57.5687 46.0155ZM58.4837 45.2362L56.3753 42.9645L56.8355 42.538L58.9439 44.809L58.4837 45.2362ZM61.3422 42.4168L60.8666 42.897L60.1771 42.591L59.3028 43.4745L59.6226 44.154L59.1563 44.6257L57.7995 41.59L58.2659 41.1191L61.3422 42.4168ZM59.6617 42.367L58.5427 41.8662L59.0643 42.9706L59.6617 42.367ZM60.6327 41.6836L60.941 41.1544C61.1274 41.2442 61.2923 41.2718 61.4349 41.2372C61.5784 41.2027 61.7049 41.1092 61.8169 40.955C61.9343 40.7932 61.9887 40.6444 61.9795 40.5125C61.9696 40.3805 61.9189 40.2801 61.8269 40.2134C61.7671 40.1704 61.7042 40.1512 61.6367 40.1558C61.5715 40.1604 61.4902 40.1942 61.3974 40.2586C61.3337 40.3023 61.2003 40.4112 60.9955 40.583C60.7316 40.8047 60.5115 40.9351 60.3336 40.9726C60.0836 41.0263 59.8596 40.9803 59.6602 40.8361C59.5321 40.7433 59.4378 40.6206 59.3787 40.468C59.3197 40.3138 59.3097 40.1489 59.3496 39.971C59.3902 39.7923 59.4792 39.6075 59.6188 39.4149C59.8458 39.1013 60.0866 38.9141 60.3405 38.8566C60.5959 38.7991 60.8413 38.8504 61.0814 39.0107L60.7301 39.5323C60.5851 39.4594 60.4579 39.4387 60.3505 39.4679C60.2431 39.4978 60.1372 39.5844 60.0352 39.7255C59.9294 39.8713 59.8765 40.0086 59.878 40.1343C59.8788 40.2164 59.911 40.2801 59.9769 40.3276C60.0368 40.3714 60.1051 40.3829 60.1833 40.3629C60.2845 40.3384 60.4525 40.2241 60.6887 40.0201C60.9249 39.8161 61.1174 39.678 61.2647 39.6059C61.412 39.5323 61.5638 39.5024 61.7195 39.5139C61.8767 39.5254 62.0332 39.5883 62.192 39.7033C62.3362 39.8076 62.442 39.9449 62.5095 40.1152C62.5778 40.2862 62.5893 40.4672 62.5448 40.6574C62.4995 40.8469 62.3983 41.0517 62.2403 41.2702C62.011 41.587 61.7617 41.7787 61.4925 41.8416C61.2233 41.9068 60.9357 41.8531 60.6327 41.6836ZM63.6278 39.168L62.5678 38.5575L60.5783 38.6411L60.9219 38.0444L62.2618 38.0237L61.5983 36.8693L61.9358 36.2842L62.8661 38.0497L63.9223 38.6579L63.6278 39.168Z" fill="#0581BC"/>
    <path d="M8.09976 14.3615C8.27619 14.2917 8.43956 14.1997 8.59139 14.0831L8.84223 14.518C8.76782 14.5808 8.68498 14.6384 8.59446 14.6867C8.57452 14.6974 8.42345 14.7641 8.13661 14.8869C8.10207 15.1047 8.01772 15.3187 7.88427 15.5265C7.62656 15.9269 7.30598 16.1654 6.92401 16.2406C6.54208 16.315 6.13711 16.2153 5.70914 15.9391C5.28268 15.6654 5.02422 15.3379 4.93374 14.9582C4.84247 14.5778 4.92375 14.1928 5.17378 13.8031C5.42231 13.4174 5.73751 13.1865 6.121 13.1129C6.50297 13.0385 6.90714 13.1382 7.33435 13.4128C7.55828 13.557 7.73701 13.7165 7.8674 13.8898C7.96787 14.021 8.04534 14.1782 8.09976 14.3615ZM7.53222 14.5931C7.49542 14.4742 7.43175 14.3623 7.34123 14.2556C7.24996 14.1506 7.13187 14.0493 6.98536 13.955C6.68397 13.7618 6.41626 13.6827 6.18159 13.7203C5.94688 13.7571 5.76051 13.8829 5.62324 14.0969C5.48442 14.3117 5.44761 14.5341 5.51203 14.7626C5.57645 14.9935 5.7582 15.2044 6.05889 15.3977C6.36415 15.594 6.63562 15.6746 6.87265 15.6385C7.11113 15.6025 7.29524 15.4821 7.42638 15.2788C7.47549 15.2021 7.50842 15.1223 7.5276 15.0387C7.38958 15.1009 7.26532 15.1745 7.15562 15.2596L6.94474 14.9153C7.11575 14.7818 7.31056 14.6737 7.53222 14.5931ZM10.8693 11.8267L10.4183 12.3298L9.71423 12.0591L8.88515 12.9856L9.23871 13.6482L8.79619 14.1422L7.28987 11.1786L7.7324 10.6839L10.8693 11.8267ZM9.18811 11.8612L8.04609 11.4171L8.62207 12.4932L9.18811 11.8612ZM10.9468 11.8159L10.5663 11.4018L10.4076 8.81403L9.34149 9.79342L8.98717 9.40763L10.6576 7.87295L10.9859 8.22957L11.1508 10.9178L12.4477 9.72519L12.8021 10.111L10.9468 11.8159ZM15.422 8.28329L14.8652 8.66597L14.2447 8.2365L13.2209 8.94136L13.4087 9.66921L12.8619 10.045L12.0965 6.80991L12.6425 6.43335L15.422 8.28329ZM13.7807 7.92049L12.7752 7.2195L13.0812 8.40138L13.7807 7.92049ZM17.68 6.53307C17.8679 6.55375 18.0558 6.54838 18.2445 6.5162L18.2629 7.01777C18.1678 7.0385 18.0681 7.05075 17.9653 7.05151C17.943 7.05231 17.7774 7.04076 17.4675 7.0147C17.3348 7.19189 17.16 7.34145 16.9452 7.4626C16.5303 7.69732 16.1361 7.75868 15.7633 7.64671C15.3898 7.53395 15.0792 7.25706 14.8284 6.81378C14.5792 6.372 14.504 5.96166 14.6006 5.5843C14.6972 5.20544 14.9488 4.90248 15.3523 4.67469C15.7518 4.44921 16.1384 4.39168 16.5111 4.5052C16.8839 4.61791 17.1953 4.8948 17.4445 5.33658C17.5757 5.56898 17.6593 5.79291 17.6938 6.00689C17.7214 6.17027 17.7168 6.34589 17.68 6.53307ZM17.0695 6.47322C17.0925 6.35127 17.0887 6.22243 17.058 6.08512C17.0265 5.95016 16.9682 5.80521 16.8831 5.65409C16.7067 5.34195 16.5065 5.1479 16.2818 5.07118C16.0571 4.99451 15.8339 5.01827 15.6122 5.14328C15.3898 5.2691 15.2533 5.44854 15.2027 5.68095C15.1528 5.91487 15.2149 6.18638 15.3914 6.49777C15.5693 6.81377 15.7718 7.01164 15.9988 7.08987C16.2258 7.16964 16.4444 7.14891 16.6561 7.03007C16.7343 6.98558 16.801 6.93035 16.857 6.86514C16.7059 6.85519 16.5625 6.86283 16.4252 6.88663L16.3999 6.48396C16.6132 6.44561 16.8363 6.44103 17.0695 6.47322ZM18.0995 5.65795L18.6287 5.34963C18.7469 5.51989 18.8757 5.62497 19.0176 5.66559C19.1595 5.70625 19.316 5.68708 19.4885 5.6081C19.671 5.5245 19.7915 5.42248 19.8482 5.30208C19.905 5.18319 19.9103 5.07043 19.8628 4.96765C19.8321 4.90093 19.7869 4.85338 19.7263 4.82346C19.6672 4.79509 19.5798 4.78515 19.467 4.79509C19.3903 4.80202 19.2201 4.83039 18.957 4.87944C18.6188 4.94235 18.3626 4.94697 18.19 4.89249C17.9454 4.81582 17.7728 4.66546 17.6708 4.44153C17.6048 4.29809 17.5834 4.14395 17.6071 3.98208C17.6317 3.81951 17.7046 3.6707 17.8273 3.53574C17.95 3.39998 18.1195 3.2834 18.3358 3.18444C18.6878 3.02338 18.9892 2.9789 19.2385 3.05486C19.4885 3.13002 19.678 3.29565 19.8068 3.55337L19.2446 3.83483C19.1541 3.69987 19.0536 3.61858 18.9462 3.59172C18.8373 3.56411 18.7031 3.58711 18.5444 3.66C18.3802 3.73436 18.2675 3.82795 18.2061 3.9384C18.1663 4.0097 18.1632 4.08104 18.1969 4.15545C18.2276 4.22217 18.2813 4.2659 18.3595 4.28735C18.4592 4.31576 18.6617 4.29964 18.9677 4.23829C19.2737 4.17694 19.5092 4.15159 19.6733 4.16158C19.8375 4.17077 19.9847 4.21911 20.1144 4.30577C20.2455 4.39318 20.3506 4.52513 20.4319 4.70306C20.5063 4.86488 20.5308 5.03669 20.5055 5.21844C20.4802 5.40024 20.4012 5.56361 20.2693 5.70701C20.1366 5.85045 19.9472 5.97853 19.7017 6.09049C19.3466 6.25311 19.0352 6.29684 18.7691 6.21937C18.503 6.14265 18.2798 5.95478 18.0995 5.65795ZM21.9789 5.13795L21.1091 2.71355L20.2455 3.02338L20.0683 2.531L22.3831 1.70037L22.5595 2.19355L21.6997 2.50188L22.5694 4.92623L21.9789 5.13795ZM26.2172 3.89849L25.5645 4.07416L25.1227 3.46209L23.9224 3.78578L23.8564 4.53356L23.216 4.70612L23.5726 1.40048L24.2138 1.22792L26.2172 3.89849ZM24.7906 3.00957L24.0758 2.01331L23.9707 3.22973L24.7906 3.00957ZM26.5538 3.86862L25.9955 0.819883L26.593 0.710231L28.222 2.52332L27.8477 0.480881L28.4183 0.375799L28.9767 3.42453L28.36 3.53805L26.7571 1.76021L27.1244 3.76429L26.5538 3.86862ZM33.2387 3.10928L33.3024 0.0107422L34.6208 0.0383576C34.9514 0.0452375 35.1922 0.0782237 35.3402 0.136514C35.4905 0.194805 35.6079 0.296067 35.6953 0.441016C35.782 0.585211 35.8242 0.748585 35.8203 0.93109C35.8158 1.16425 35.7444 1.35524 35.6049 1.50406C35.4652 1.65282 35.2597 1.74334 34.9874 1.77708C35.1209 1.85912 35.2306 1.94809 35.3157 2.04399C35.4024 2.13983 35.5166 2.31089 35.66 2.55479L36.0259 3.16682L35.2774 3.15146L34.8432 2.46583C34.6868 2.22192 34.5794 2.06853 34.5211 2.00487C34.4636 1.94121 34.4014 1.89673 34.3355 1.87293C34.2688 1.84762 34.1637 1.83382 34.0195 1.83076L33.8929 1.82845L33.8661 3.12234L33.2387 3.10928ZM33.9029 1.33531L34.3662 1.3445C34.6668 1.35062 34.8532 1.34143 34.9291 1.31764C35.0035 1.29389 35.0634 1.25171 35.1071 1.19036C35.1508 1.12901 35.173 1.05154 35.1746 0.958706C35.1769 0.854424 35.1508 0.770026 35.0964 0.704101C35.0426 0.63813 34.9644 0.596712 34.8639 0.577533C34.8133 0.569852 34.6607 0.56297 34.4076 0.557598L33.919 0.547608L33.9029 1.33531ZM36.3656 3.18138L36.6809 0.0981535L38.9626 0.331318L38.9097 0.852114L37.2515 0.682616L37.1817 1.36749L38.7233 1.52474L38.6704 2.04629L37.128 1.88829L37.0429 2.72429L38.7609 2.89992L38.708 3.42067L36.3656 3.18138ZM39.2594 2.45739L39.87 2.508C39.8692 2.71506 39.9144 2.87537 40.0072 2.98964C40.1008 3.10391 40.2396 3.17832 40.4268 3.21206C40.6239 3.24811 40.7811 3.23355 40.8969 3.16837C41.0112 3.1024 41.0802 3.01419 41.1002 2.90223C41.114 2.83013 41.104 2.76491 41.071 2.70587C41.0388 2.64833 40.9729 2.59004 40.8747 2.53406C40.8079 2.4957 40.6522 2.42134 40.4091 2.31089C40.0947 2.16825 39.8822 2.02556 39.7726 1.88136C39.6161 1.67888 39.5609 1.45726 39.6054 1.21487C39.6337 1.05917 39.7043 0.921148 39.8162 0.802258C39.9298 0.682614 40.0748 0.602835 40.2527 0.562168C40.4306 0.521548 40.6362 0.522303 40.8701 0.565279C41.2513 0.635067 41.5235 0.771582 41.6846 0.976377C41.8464 1.18193 41.9063 1.42578 41.8641 1.71111L41.2428 1.61908C41.2459 1.45646 41.2098 1.333 41.137 1.24865C41.0641 1.16426 40.9406 1.10596 40.7696 1.07453C40.5917 1.0423 40.4459 1.0538 40.3324 1.10903C40.2588 1.14508 40.2151 1.20186 40.2005 1.28159C40.1867 1.35369 40.2059 1.42041 40.2581 1.48332C40.3232 1.56385 40.4989 1.66587 40.7842 1.79164C41.0703 1.91666 41.2781 2.03093 41.407 2.13295C41.5366 2.23417 41.6286 2.35843 41.6854 2.50414C41.7429 2.65064 41.7536 2.81938 41.7183 3.01113C41.6862 3.18675 41.6079 3.34169 41.4837 3.4759C41.3579 3.6109 41.1999 3.69912 41.0089 3.74054C40.8187 3.78271 40.5901 3.77885 40.3248 3.73055C39.9405 3.66 39.6598 3.51732 39.4865 3.30183C39.3124 3.08629 39.2372 2.80402 39.2594 2.45739ZM42.0819 3.99363L42.8872 1.00088L43.8559 1.26166C44.2233 1.35986 44.458 1.43959 44.5615 1.49868C44.721 1.58991 44.8384 1.72647 44.9135 1.90822C44.9887 2.08922 44.9941 2.30014 44.9304 2.53792C44.8805 2.72198 44.8054 2.86693 44.7057 2.97433C44.6052 3.08167 44.494 3.15763 44.3728 3.20212C44.2509 3.24504 44.1343 3.26498 44.0223 3.25885C43.8697 3.24811 43.658 3.20749 43.3842 3.13383L42.9915 3.028L42.6878 4.15696L42.0819 3.99363ZM43.3566 1.66969L43.1273 2.52181L43.4571 2.61077C43.6948 2.67444 43.8574 2.70205 43.9456 2.69131C44.0346 2.68212 44.1105 2.64989 44.1734 2.59466C44.2371 2.54018 44.2808 2.46889 44.3046 2.37992C44.3345 2.27022 44.3261 2.17207 44.2816 2.08385C44.2371 1.99564 44.1688 1.92891 44.076 1.88443C44.0077 1.85149 43.8651 1.80621 43.6481 1.74792L43.3566 1.66969ZM45.6368 5.01907L46.0786 3.7919L45.6184 1.71879L46.3086 1.96727L46.5825 3.37006L47.6693 2.45739L48.3473 2.70125L46.6676 4.00895L46.2266 5.23225L45.6368 5.01907ZM48.8765 2.90911L50.0031 3.42453C50.2271 3.52731 50.3889 3.61166 50.4902 3.67994C50.5914 3.75048 50.672 3.83332 50.731 3.93148C50.7908 4.03044 50.8276 4.14164 50.8407 4.26591C50.853 4.38937 50.8323 4.51288 50.7762 4.63403C50.7164 4.76517 50.6259 4.87025 50.504 4.94772C50.3836 5.02519 50.2494 5.06355 50.1029 5.06355C50.2509 5.19163 50.3429 5.33658 50.3805 5.5007C50.4173 5.66332 50.3974 5.8259 50.323 5.98927C50.2647 6.11735 50.178 6.22856 50.0622 6.3229C49.9479 6.41648 49.8214 6.47628 49.6849 6.50239C49.5491 6.52689 49.4011 6.51309 49.2415 6.46172C49.1426 6.42798 48.9102 6.32983 48.5467 6.16645L47.5872 5.72698L48.8765 2.90911ZM49.2324 3.63852L48.9355 4.28815L49.3083 4.4584C49.5299 4.55962 49.6688 4.61946 49.7255 4.63709C49.8283 4.67083 49.9203 4.67239 50.0016 4.64246C50.0829 4.61179 50.1435 4.55119 50.1841 4.46146C50.2248 4.37325 50.2325 4.29272 50.2094 4.21605C50.1865 4.14009 50.1297 4.07417 50.0407 4.02045C49.987 3.98746 49.8268 3.91079 49.5599 3.78808L49.2324 3.63852ZM48.7215 4.75598L48.3756 5.5122L48.9033 5.7538C49.1073 5.84663 49.2408 5.90106 49.3006 5.91486C49.3934 5.93786 49.4793 5.93174 49.5599 5.89724C49.6404 5.86044 49.7033 5.79291 49.7493 5.6932C49.7884 5.60729 49.8007 5.52756 49.7868 5.44934C49.773 5.37107 49.7332 5.30053 49.668 5.23842C49.6028 5.17627 49.4402 5.08499 49.1818 4.96615L48.7215 4.75598ZM50.428 7.07375L51.9397 4.39856L52.4858 4.70688L51.2318 6.92649L52.5848 7.69119L52.3271 8.14678L50.428 7.07375ZM52.6768 8.38757L54.4355 5.83509L54.9524 6.19176L53.1938 8.74344L52.6768 8.38757ZM53.7007 9.07556L55.5729 6.60516L56.0737 6.98478L55.2446 8.0785L57.0815 7.74868L57.7511 8.25643L56.0906 8.51259L55.928 10.7636L55.283 10.2743L55.4816 8.59925L54.7676 8.70739L54.2015 9.45443L53.7007 9.07556ZM58.1323 12.9694L57.6575 12.4894L57.9704 11.8029L57.0961 10.9186L56.4127 11.2323L55.9464 10.7606L58.9959 9.43605L59.4622 9.90694L58.1323 12.9694ZM58.1998 11.2898L58.7121 10.1762L57.6023 10.6862L58.1998 11.2898ZM59.0319 12.4648L59.4622 12.9012C59.3264 13.0576 59.2559 13.2095 59.252 13.3568C59.2475 13.504 59.3049 13.6505 59.4246 13.7986C59.5504 13.9543 59.6792 14.0455 59.8096 14.0716C59.9393 14.0969 60.0489 14.0739 60.1371 14.0026C60.1947 13.9566 60.2299 13.9013 60.243 13.8346C60.256 13.7702 60.2437 13.6835 60.2062 13.5769C60.1809 13.5033 60.111 13.346 59.9991 13.1037C59.8541 12.7907 59.7858 12.5438 59.7966 12.3628C59.8104 12.1074 59.9132 11.9034 60.1049 11.7484C60.2276 11.6495 60.371 11.5904 60.5344 11.5736C60.6978 11.5567 60.8596 11.5904 61.0214 11.6763C61.1825 11.7615 61.3382 11.8965 61.487 12.0813C61.7309 12.3827 61.8482 12.6634 61.8367 12.9242C61.8252 13.1857 61.7117 13.4097 61.4931 13.5984L61.082 13.1229C61.1902 13.0024 61.2438 12.8851 61.2438 12.7739C61.2431 12.6619 61.1879 12.5369 61.0782 12.4019C60.9654 12.2616 60.8466 12.1749 60.7246 12.1427C60.6456 12.1219 60.5758 12.1365 60.5122 12.1872C60.4546 12.2339 60.4255 12.2968 60.424 12.3773C60.4217 12.4817 60.4876 12.6734 60.6226 12.9549C60.7576 13.2363 60.8404 13.458 60.8719 13.6191C60.9033 13.7809 60.8933 13.9351 60.8404 14.0831C60.7891 14.2311 60.687 14.3661 60.5344 14.4888C60.3963 14.6008 60.236 14.6667 60.0535 14.6875C59.871 14.7082 59.693 14.6721 59.5212 14.5793C59.3494 14.4857 59.1784 14.3339 59.0097 14.1245C58.7643 13.82 58.6446 13.5293 58.6538 13.2525C58.6622 12.9764 58.7888 12.7133 59.0319 12.4648ZM60.5567 16.193L61.6534 15.4874L62.5485 13.5608L62.9458 14.1774L62.3099 15.4583L63.728 15.3946L64.1177 15.9997L61.9894 16.0174L60.8957 16.7207L60.5567 16.193Z" fill="#0581BC"/>
    <path fill-rule="evenodd" clip-rule="evenodd" d="M47.0701 1.72559C47.202 1.72559 47.3086 1.83222 47.3086 1.96412C47.3086 2.09606 47.202 2.20266 47.0701 2.20266C46.9381 2.20266 46.8315 2.09606 46.8315 1.96412C46.8315 1.83222 46.9381 1.72559 47.0701 1.72559Z" fill="#0581BC"/>
    <path fill-rule="evenodd" clip-rule="evenodd" d="M8.77906 39.1221C8.91096 39.1221 9.0176 39.2287 9.0176 39.3606C9.0176 39.4925 8.91096 39.5991 8.77906 39.5991C8.64712 39.5991 8.54053 39.4925 8.54053 39.3606C8.54053 39.2287 8.64712 39.1221 8.77906 39.1221Z" fill="#0581BC"/>
</svg>