<svg width="150" height="34" viewBox="0 0 150 34" fill="none" xmlns="http://www.w3.org/2000/svg">
<path fill-rule="evenodd" clip-rule="evenodd" d="M16.8802 6.63296C16.1574 6.44285 16.1574 6.0943 15.052 6.0943C11.7782 6.0943 12.7986 12.3893 16.8802 9.67483V16.3078H22.4499C21.5146 14.4383 23.3428 12.5794 24.9584 12.5794C26.5316 12.5794 28.3598 14.4383 27.4669 16.3078C28.4873 16.3078 29.5078 16.3078 30.4856 16.3078C31.336 16.3078 33.2067 16.6458 33.2067 15.7691V3.5911C33.2067 1.59487 31.7186 0 29.4227 0H16.8802V6.63296Z" fill="#FDB71A"/>
<path fill-rule="evenodd" clip-rule="evenodd" d="M22.7888 15.2304C22.7888 16.0014 23.0014 16.2338 23.3415 16.8464H16.8789V22.402H18.282C20.4928 22.402 21.1731 25.7396 19.685 27.0176C18.4095 28.1478 17.3041 27.6302 16.8789 27.588V33.1436H29.9741C31.9299 33.1436 33.2054 31.3692 33.2054 29.3835V17.3851C33.2054 16.5295 31.7598 16.8464 30.1442 16.8464C28.9537 16.8464 27.7632 16.8464 26.5728 16.8464C27.083 15.8747 27.3381 15.0192 26.6578 14.0475C25.9775 13.0124 24.1493 12.9279 23.299 13.9418C23.0439 14.2164 22.7888 14.7551 22.7888 15.2304Z" fill="#44C5F2"/>
<path fill-rule="evenodd" clip-rule="evenodd" d="M0 2.87288V16.3078H6.63264C4.03911 20.2052 10.2466 21.6205 10.2466 17.7442C10.2466 16.8887 9.86393 17.026 9.69386 16.3078L15.0935 16.3184C16.7092 16.3395 16.3265 16.6669 16.3265 11.2908C16.3265 10.6043 16.0714 10.8789 15.4337 10.9106C11.5221 11.1007 11.6922 5.40777 15.2636 5.5662C16.6241 5.61901 16.3265 6.65409 16.3265 0.538664C16.3265 0.126752 16.199 0 15.7738 0H3.40135C1.74319 0 0.212583 1.32026 0 2.61939V2.74614V2.87288Z" fill="#44C5F2"/>
<path fill-rule="evenodd" clip-rule="evenodd" d="M0 30.1023V30.2502V30.4086C0.170068 31.919 1.48809 33.1442 3.06121 33.1442H16.3265V26.7013C17.2194 26.902 17.5595 27.4407 18.5799 26.9971C21.3435 25.8035 19.5153 21.3464 16.3265 23.4693V18.0827C16.369 16.4139 16.6667 16.8469 10.7568 16.8469V18.2728C10.7568 21.3041 5.39965 21.5576 5.39965 17.9137C5.39965 16.5935 6.84523 16.8469 0 16.8469V30.1023Z" fill="#FDB71A"/>
<path fill-rule="evenodd" clip-rule="evenodd" d="M95.2812 20.4276H99.0227C99.1078 19.7516 99.9156 17.7765 100.256 16.9738C100.681 15.8014 101.106 14.7452 101.574 13.615C101.999 12.506 102.424 11.4287 102.849 10.2669L103.785 7.79536C104.082 6.96095 103.615 7.45737 104.252 6.99264C104.295 7.79536 104.72 8.55582 104.933 9.16842C105.953 11.9251 106.081 10.8583 103.827 15.8859L101.914 20.4276H105.698C105.91 19.3714 107.229 16.8259 107.314 15.9493L109.269 20.4276H113.053C112.713 19.7516 109.269 11.5343 109.269 11.4709L110.885 6.99264C111.268 8.58751 115.859 19.5932 115.902 20.4276H119.686C119.601 19.7199 118.368 17.0688 117.985 16.2027L112.501 3.41211H109.099C108.844 4.51056 107.739 6.26385 107.654 7.17219H107.314C107.229 6.57016 106.888 5.90475 106.633 5.32383C106.378 4.71124 105.996 4.04583 105.868 3.41211H102.467C101.489 5.22878 95.3238 19.9839 95.2812 20.4276Z" fill="#FDB71A"/>
<path fill-rule="evenodd" clip-rule="evenodd" d="M69.0919 3.94021C69.0919 6.49622 68.2415 5.91531 74.2789 5.91531V20.0685C74.2789 20.85 75.0442 20.6071 76.7874 20.6071C77.2126 20.6071 77.3402 20.4804 77.3402 20.0685V5.91531C78.7857 5.91531 81.2942 6.22161 82.5272 5.73575V3.77121L86.5238 11.228C88.6071 15.0198 88.267 13.6573 88.267 18.0933C88.267 20.9662 87.6718 20.6071 91.1582 20.6071C91.1582 12.1892 90.648 16.1499 94.0918 9.20011C94.602 8.13334 95.0697 7.44681 95.5799 6.39061C96.0476 5.4189 96.898 4.11976 97.068 3.41211H93.8367L89.8401 11.4393C88.7772 10.6365 86.3537 3.41211 85.4184 3.41211H69.6021C69.2194 3.41211 69.0919 3.52829 69.0919 3.94021Z" fill="#FDB71A"/>
<path fill-rule="evenodd" clip-rule="evenodd" d="M54.5469 3.93995V20.0682C54.5469 20.892 55.5673 20.6068 57.6081 20.6068V8.24926L63.3054 17.5755C65.4737 21.1772 64.4533 20.6068 67.9822 20.6068V3.41185H65.1336V15.5899C64.6659 15.2519 59.0962 5.92562 58.4159 4.74266C57.4805 3.1478 58.0333 3.41185 55.0996 3.41185C54.6744 3.41185 54.5469 3.52803 54.5469 3.93995Z" fill="#FDB71A"/>
<path fill-rule="evenodd" clip-rule="evenodd" d="M142.645 18.2727C137.628 18.2727 138.35 13.9106 138.35 9.85475C138.35 4.25687 146.429 3.84495 146.429 10.573C146.429 13.129 146.726 18.2727 142.645 18.2727ZM135.289 10.2139V13.6148C135.289 17.6601 138.223 20.7865 142.304 20.7865C143.58 20.7865 144.175 20.4802 145.153 20.2478L148.087 23.2474L150 21.5047L147.364 18.7691C147.789 18.1037 148.172 17.8608 148.639 16.9102C149.617 14.9457 149.277 12.2629 149.277 9.6752C149.277 6.35872 146.173 3.23235 142.815 3.23235C141.199 3.23235 140.561 3.14786 138.988 3.89777C138.18 4.28856 137.713 4.81666 137.117 5.4187C136.054 6.48546 135.289 8.16482 135.289 10.2139Z" fill="#FDB71A"/>
<path fill-rule="evenodd" clip-rule="evenodd" d="M127.766 7.17219H128.106C128.233 8.50301 130.147 12.8123 130.274 14.1537H125.597C125.725 12.8229 127.638 8.51357 127.766 7.17219ZM120.41 20.6071H123.259C123.429 19.91 123.726 19.0545 123.982 18.4313C124.917 15.8331 123.599 16.4879 130.784 16.4879C131.592 16.4879 131.89 19.1601 132.613 20.6071H135.461C135.419 19.9523 135.036 19.0017 134.823 18.3996L132.442 11.9779C131.89 10.552 131.422 9.23179 130.912 7.77423C130.614 6.96095 130.402 6.46454 130.147 5.67238C129.849 4.81686 129.551 4.21482 129.381 3.41211H126.49L123.386 11.9568C122.876 13.2348 120.41 19.7727 120.41 20.6071Z" fill="#FDB71A"/>
<path fill-rule="evenodd" clip-rule="evenodd" d="M45.4097 20.6071C48.641 20.6071 47.8757 21.357 47.9182 15.4C47.9182 13.0341 53.5304 5.00697 53.658 3.41211H50.4267L48.4284 7.53131C48.0883 8.21783 47.7906 8.81988 47.4505 9.55922C47.0679 10.2457 46.8553 11.059 46.3026 11.4709L42.3485 3.41211H39.1172C39.2873 4.22539 39.7124 4.57394 40.0951 5.31328L44.1342 12.9074C45.1546 14.6924 44.857 15.4951 44.857 18.0933C44.857 18.9172 44.5168 20.6071 45.4097 20.6071Z" fill="#FDB71A"/>
<path d="M49.1086 29.6249L49.9246 29.8312C49.7542 30.4999 49.448 31.0077 49.0052 31.3588C48.5629 31.7093 48.0218 31.8853 47.3818 31.8853C46.7207 31.8853 46.1825 31.7511 45.767 31.4803C45.3519 31.211 45.0372 30.8201 44.8209 30.3093C44.6045 29.7969 44.4961 29.2487 44.4961 28.6616C44.4961 28.0217 44.6176 27.4634 44.8622 26.9863C45.1073 26.5097 45.4553 26.1476 45.9062 25.9C46.357 25.6524 46.8538 25.5293 47.3949 25.5293C48.0107 25.5293 48.5271 25.6851 48.9452 25.9988C49.3648 26.312 49.6568 26.7518 49.8212 27.3186L49.0224 27.5077C48.8807 27.0609 48.6734 26.7346 48.4026 26.5314C48.1322 26.3266 47.7913 26.2248 47.3808 26.2248C46.9098 26.2248 46.5144 26.3382 46.1982 26.5642C45.8815 26.7906 45.6585 27.0952 45.531 27.476C45.4019 27.8582 45.3378 28.2521 45.3378 28.6571C45.3378 29.1796 45.4134 29.6365 45.5653 30.0258C45.7171 30.4167 45.9531 30.7072 46.2738 30.9003C46.5946 31.094 46.941 31.1898 47.3147 31.1898C47.7702 31.1898 48.1534 31.0582 48.4686 30.7959C48.7833 30.5327 48.9967 30.1433 49.1086 29.6249ZM50.2565 31.7824L52.6162 25.6322H53.5108L56.0148 31.7824H55.0884L54.3768 29.9184H51.7871L51.1199 31.7824H50.2565ZM52.0261 29.2572H54.1221L53.4806 27.5521C53.2874 27.0337 53.1412 26.6055 53.0398 26.2676C52.9551 26.6686 52.8421 27.0624 52.7004 27.4518L52.0261 29.2572ZM57.3044 25.6322H61.1438V31.7824H60.3278V26.3539H58.1204V29.522C58.1204 30.166 58.0906 30.6371 58.0301 30.9361C57.9701 31.2367 57.8425 31.4687 57.6493 31.6361C57.4562 31.8026 57.2101 31.8853 56.9135 31.8853C56.7335 31.8853 56.5171 31.8485 56.2649 31.7738L56.4112 31.0521C56.5443 31.1212 56.6588 31.1555 56.7531 31.1555C56.9367 31.1555 57.0754 31.0864 57.1672 30.9477C57.2585 30.809 57.3044 30.4822 57.3044 29.9673V25.6322ZM61.8125 31.7824L64.1722 25.6322H65.0669L67.5708 31.7824H66.6444L65.9328 29.9184H63.3431L62.6759 31.7824H61.8125ZM63.5822 29.2572H65.6781L65.0366 27.5521C64.8435 27.0337 64.6972 26.6055 64.5958 26.2676C64.5111 26.6686 64.3982 27.0624 64.2564 27.4518L63.5822 29.2572ZM68.8604 25.6322H72.6998V31.7824H71.8838V26.3539H69.6764V29.522C69.6764 30.166 69.6466 30.6371 69.5861 30.9361C69.5261 31.2367 69.3985 31.4687 69.2054 31.6361C69.0122 31.8026 68.7661 31.8853 68.4695 31.8853C68.2895 31.8853 68.0731 31.8485 67.821 31.7738L67.9672 31.0521C68.1004 31.1212 68.2149 31.1555 68.3092 31.1555C68.4927 31.1555 68.6314 31.0864 68.7232 30.9477C68.8145 30.809 68.8604 30.4822 68.8604 29.9673V25.6322ZM74.0862 25.6322H74.9022V28.2521H76.3667C77.327 28.2521 77.9584 28.4296 78.262 28.7862C78.5641 29.1412 78.7159 29.5447 78.7159 29.9956C78.7159 30.4727 78.554 30.8892 78.2292 31.2468C77.9054 31.6034 77.3043 31.7824 76.4237 31.7824H74.0862V25.6322ZM74.9022 31.0864H76.3854C76.8948 31.0864 77.2654 31.0007 77.4944 30.8287C77.7254 30.6572 77.8398 30.3824 77.8398 30.0041C77.8398 29.7479 77.7697 29.5321 77.6306 29.3586C77.4919 29.1856 77.3113 29.0752 77.0909 29.0278C76.8721 28.9809 76.5039 28.9562 75.9885 28.9562H74.9022V31.0864ZM79.4547 25.6322H80.2707V31.7824H79.4547V25.6322ZM85.9685 33.4915H85.2468V31.7824H84.9548L83.9194 30.1131C83.6617 29.6935 83.4716 29.4186 83.3486 29.2915C83.0994 29.0338 82.8099 28.9047 82.4811 28.9047V31.7824H81.6651V25.6322H82.4811V28.3293C82.8831 28.3293 83.1826 28.2148 83.3783 27.9858C83.4817 27.8653 83.635 27.5622 83.8383 27.075C84.0097 26.6701 84.1499 26.3836 84.2589 26.2192C84.5211 25.8284 84.9044 25.6322 85.4097 25.6322C85.7249 25.6322 85.8908 25.6352 85.908 25.6408V26.3453C85.8722 26.3453 85.8182 26.3438 85.7451 26.3407C85.672 26.3382 85.6175 26.3367 85.5802 26.3367C85.2927 26.3367 85.0693 26.4356 84.9104 26.6343C84.8202 26.7432 84.7042 26.9752 84.5609 27.3302C84.4076 27.7181 84.2831 27.9803 84.1888 28.1175C84.0284 28.3495 83.808 28.5224 83.5261 28.6384C83.9225 28.7489 84.3148 29.1155 84.7011 29.7394L85.5187 31.0607H85.9685V33.4915ZM89.055 25.6322H89.8709V28.3293C90.2416 28.3293 90.5034 28.2562 90.6537 28.1119C90.8055 27.9672 90.9976 27.6207 91.2321 27.071C91.4026 26.666 91.5428 26.3811 91.6547 26.2147C91.7647 26.0472 91.922 25.907 92.1268 25.7941C92.33 25.6811 92.5565 25.6236 92.8026 25.6236C93.1163 25.6236 93.2807 25.6266 93.2978 25.6322V26.3367C93.2696 26.3367 93.2151 26.3352 93.1349 26.3322C93.0447 26.3297 92.9902 26.3281 92.97 26.3281C92.7108 26.3281 92.5176 26.3912 92.3916 26.5168C92.263 26.6428 92.1167 26.9121 91.9508 27.3232C91.7445 27.8441 91.57 28.1735 91.4268 28.3091C91.2851 28.4438 91.1136 28.5527 90.9159 28.6344C91.3123 28.7433 91.7047 29.111 92.091 29.7353L93.3583 31.7824H92.3472L91.3153 30.1161C91.0334 29.6536 90.7969 29.3359 90.6078 29.1639C90.4176 28.991 90.173 28.9047 89.8709 28.9047V31.7824H89.055V25.6322ZM99.4526 28.64C99.4722 29.5704 99.2503 30.3395 98.7894 30.9462C98.3143 31.5721 97.5926 31.8853 96.6223 31.8853C95.6545 31.8853 94.9344 31.5721 94.4588 30.9447C94.014 30.3582 93.7921 29.5891 93.7921 28.6384V28.2436H98.5761C98.5433 27.6293 98.3627 27.1467 98.0349 26.7946C97.6885 26.427 97.2149 26.2419 96.6107 26.2419C95.7246 26.2419 95.1663 26.6716 94.9344 27.5304L94.1355 27.3217C94.2913 26.7387 94.5934 26.2908 95.0418 25.9786C95.4684 25.6796 95.9909 25.5293 96.6052 25.5293C97.1645 25.5293 97.6658 25.6665 98.1111 25.9398C98.566 26.2162 98.9084 26.607 99.1374 27.1098C99.3366 27.5405 99.441 28.0504 99.4526 28.64ZM98.6104 28.9652H94.6338C94.665 29.6536 94.8557 30.1978 95.2077 30.5982C95.5612 30.9977 96.0323 31.1984 96.6223 31.1984C97.2119 31.1984 97.6829 30.9977 98.0364 30.5982C98.3885 30.1978 98.5806 29.6536 98.6104 28.9652ZM104.886 29.6249L105.702 29.8312C105.531 30.4999 105.225 31.0077 104.782 31.3588C104.34 31.7093 103.799 31.8853 103.159 31.8853C102.498 31.8853 101.96 31.7511 101.544 31.4803C101.129 31.211 100.814 30.8201 100.598 30.3093C100.382 29.7969 100.273 29.2487 100.273 28.6616C100.273 28.0217 100.395 27.4634 100.639 26.9863C100.884 26.5097 101.232 26.1476 101.683 25.9C102.134 25.6524 102.631 25.5293 103.172 25.5293C103.788 25.5293 104.304 25.6851 104.722 25.9988C105.142 26.312 105.434 26.7518 105.598 27.3186L104.799 27.5077C104.658 27.0609 104.45 26.7346 104.18 26.5314C103.909 26.3266 103.568 26.2248 103.158 26.2248C102.687 26.2248 102.291 26.3382 101.975 26.5642C101.658 26.7906 101.436 27.0952 101.308 27.476C101.179 27.8582 101.115 28.2521 101.115 28.6571C101.115 29.1796 101.19 29.6365 101.342 30.0258C101.494 30.4167 101.73 30.7072 102.051 30.9003C102.372 31.094 102.718 31.1898 103.092 31.1898C103.547 31.1898 103.93 31.0582 104.246 30.7959C104.56 30.5327 104.774 30.1433 104.886 29.6249ZM106.845 31.7824V25.6322H107.661V31.7824H106.845ZM109.103 25.6322H113.93V31.7824H113.114V26.3539H109.919V31.7824H109.103V25.6322ZM115.02 28.7887C115.02 27.7695 115.295 26.9706 115.843 26.3937C116.391 25.8168 117.098 25.5293 117.966 25.5293C118.534 25.5293 119.045 25.665 119.502 25.9358C119.957 26.2061 120.305 26.5843 120.544 27.0695C120.783 27.5536 120.903 28.1033 120.903 28.7171C120.903 29.3399 120.778 29.8982 120.526 30.3894C120.274 30.8817 119.917 31.2544 119.457 31.506C118.994 31.7597 118.496 31.8853 117.962 31.8853C117.382 31.8853 116.865 31.7451 116.408 31.4662C115.953 31.1868 115.607 30.806 115.372 30.3224C115.137 29.8397 115.02 29.3289 115.02 28.7887ZM115.862 28.8034C115.862 29.5432 116.06 30.1262 116.458 30.5513C116.857 30.9765 117.356 31.1898 117.957 31.1898C118.57 31.1898 119.073 30.975 119.469 30.5453C119.865 30.1161 120.062 29.5064 120.062 28.7161C120.062 28.2163 119.977 27.7796 119.809 27.4074C119.64 27.0352 119.392 26.7462 119.067 26.5415C118.74 26.3367 118.375 26.2333 117.97 26.2333C117.395 26.2333 116.9 26.431 116.484 26.8264C116.069 27.2213 115.862 27.8799 115.862 28.8034ZM122.32 25.6322H126.064V31.0607H126.614V33.2167H125.893V31.7824H121.821V33.2167H121.1V31.0607H121.572C122.07 30.3138 122.32 28.8034 122.32 26.5314V25.6322ZM125.248 26.3539H123.101V26.6686C123.101 27.1925 123.054 27.9097 122.959 28.819C122.866 29.7283 122.68 30.4752 122.405 31.0607H125.248V26.3539ZM126.903 31.7824L129.263 25.6322H130.158L132.662 31.7824H131.735L131.024 29.9184H128.434L127.767 31.7824H126.903ZM128.673 29.2572H130.769L130.127 27.5521C129.934 27.0337 129.788 26.6055 129.687 26.2676C129.602 26.6686 129.489 27.0624 129.347 27.4518L128.673 29.2572ZM137.301 26.3539H134.14V28.4327H135.824V28.9824H134.14V31.7824H133.324V28.9824H132.637V28.4327H133.324V25.6322H137.301V26.3539ZM138.001 25.6322H138.817V28.2521H140.282C141.242 28.2521 141.874 28.4296 142.177 28.7862C142.479 29.1412 142.631 29.5447 142.631 29.9956C142.631 30.4727 142.469 30.8892 142.144 31.2468C141.821 31.6034 141.22 31.7824 140.339 31.7824H138.001V25.6322ZM138.817 31.0864H140.301C140.81 31.0864 141.181 31.0007 141.41 30.8287C141.641 30.6572 141.755 30.3824 141.755 30.0041C141.755 29.7479 141.685 29.5321 141.546 29.3586C141.407 29.1856 141.227 29.0752 141.006 29.0278C140.787 28.9809 140.419 28.9562 139.904 28.9562H138.817V31.0864ZM143.37 25.6322H144.186V31.7824H143.37V25.6322Z" fill="#DBDBE5"/>
</svg>
