<svg width="497" height="280" viewBox="0 0 497 280" fill="none" xmlns="http://www.w3.org/2000/svg">
<path fill-rule="evenodd" clip-rule="evenodd" d="M389.307 209.291C389.851 206.684 388.481 208.345 390.588 206.944C392.325 205.79 397.005 206.67 398.948 206.629C403.059 206.541 405.849 203.938 409.415 205.843C404.004 208.196 395.33 209.84 389.307 209.291ZM223.867 187.848C224.343 187.369 223.575 187.388 225.618 186.616C226.235 186.383 227.011 186.364 227.444 186.237C229.998 185.482 228.751 185.184 231.083 185.03L229.958 187.393C233.746 188.521 233.333 187.645 234.364 190.857L223.867 187.848ZM396.758 155.648C398.026 152.315 400.009 150.385 403.556 149.226L406.937 148.228C407.901 150.078 406.886 148.949 408.811 150.279C407.459 152.919 409.241 149.313 407.337 151.715C405.819 153.631 407.313 150.855 406.923 152.758C405.89 157.806 405.584 155.558 401.367 156.629C399.776 157.034 399.103 157.735 397.801 158.178C394.323 159.361 393.315 157.696 390.677 157.663C388.899 157.64 384.709 158.632 382.104 158.805C379.243 158.995 376.033 158.236 373.244 158.335C369.572 158.465 372.311 159.799 366.352 159.916C363.481 159.973 363.519 160.871 361.857 161.94C359.141 163.688 360.098 160.276 355.096 163.68C351.4 166.195 353.41 168.234 354.113 170.322C349.12 169.015 350.769 170.544 346.07 172.828C347.642 180.266 345.719 176.769 344.343 180.76C344.686 183.948 347.356 187.622 345.925 190.472C342.897 189.411 345.419 190.135 344.339 188.041C343.141 185.717 344.777 187.651 342.344 185.807C332.203 178.118 338.725 178.07 337.969 169.721C346.613 170.417 338.12 167.409 344.348 165.647C349.927 164.07 346.913 163.951 349.609 161.022L354.431 157.452C358.082 157.626 356.763 159.027 359.495 158.142C361.13 157.613 362.425 155.724 367.489 155.313L369.669 155.492C375.899 157.725 365.045 157.248 380.789 156.506C385.583 156.279 389.01 151.193 396.758 155.648ZM437.847 151.119C435.002 149.13 435.125 150.387 434.465 148.03C442.389 149.815 441.418 147.514 443.842 150.139C445.291 151.707 446.378 156.473 447.693 158.919C438.405 158.769 444.278 157.886 438.231 155.93L437.847 151.119ZM223.828 151.3C221.579 149.187 223.287 150.554 222.806 147.726C222.332 144.948 221.982 146.941 222.136 144.173C226.426 144.462 222.023 144.148 226.868 148.861C226.246 149.784 225.795 150.243 225.145 150.743C222.896 152.474 224.427 151.234 223.828 151.3ZM175.331 138.937C179.301 136.464 176.427 139.888 178.972 135.752C181.363 131.867 181.631 133.026 182.979 132.999L179.69 137.865C176.24 142.073 175.382 138.984 175.331 138.937ZM0 96.3703V97.785C2.49562 99.3078 6.97766 101.965 5.43732 105.973L4.62042 107.172C4.56762 107.266 4.42256 107.419 4.37947 107.514C3.55347 109.341 4.81524 112.067 5.44703 114.339C7.97421 113.187 6.13224 114.373 7.7976 112.124C10.2428 115.742 11.4439 114.201 15.8956 115.248C19.0522 125.839 17.893 120.86 21.0337 124.05C19.1098 130.138 22.4915 131.535 22.5474 136.701C17.127 137.544 20.5343 133.682 15.7833 136.185L20.8772 142.239C26.8631 143.629 28.9193 147.079 31.6298 148.102C30.4785 146.071 30.6308 147.159 30.8511 144.913L38.9619 140.718C43.3687 139.593 40.8081 141.176 43.8154 139.992L48.871 138.863C50.9229 138.756 52.7255 137.996 54.0418 139.426C55.1046 140.581 54.8163 143.626 57.5601 143.345C63.6924 142.715 59.5174 144.407 65.0955 145.57C66.7099 142.47 67.3102 142.726 70.4788 144.236C73.179 145.522 74.5986 146.096 75.021 150.393C75.3821 154.062 72.881 157.024 74.9803 160.281C72.7092 162.351 68.9039 164.281 71.4541 168L69.8446 168.705C68.7595 170.307 69.2371 169.174 69.5594 171.667L75.6273 171.209C75.941 168.354 75.4343 168.504 75.5229 167.122C75.6861 167.065 75.9283 167.05 76.0333 167.036L82.9721 167.863C83.7623 168.025 84.036 168.031 84.8432 168.19C87.1179 168.637 87.5331 171.186 88.918 174.704C90.4875 178.692 90.4996 176.089 92.0879 180.051L90.4365 180.47C89.2961 180.877 90.0748 180.501 88.9994 181.229C88.1454 181.808 86.9868 182.556 85.7724 183.298C83.6239 182.608 84.5228 182.531 82.9369 181.031C80.9723 181.833 81.958 182.019 79.8975 182.594C77.9402 183.141 77.4432 182.663 75.5975 183.39C72.9733 184.423 67.9948 195.061 61.6471 197.597C60.2336 195.625 60.9637 195.854 59.8931 193.907C57.8611 190.209 60.3604 192.813 56.7074 191.392L58.0341 189.173C59.8761 186.574 60.2536 187.207 62.5641 186.393C63.5965 188.94 63.2608 189.702 65.3407 191.121C66.9314 190.121 67.1068 189.83 68.1289 187.927C71.9706 180.775 75.5156 181.434 78.4324 179.342C70.8679 172.999 72.1539 180.94 63.452 173.976L59.3481 171.608C59.2583 171.349 58.9936 171.392 58.8547 171.241C52.6982 172.498 54.2913 170.494 51.6087 169.987C50.7336 169.822 46.9458 170.287 46.0773 170.736C42.34 173.1 47.4963 172.406 41.7258 175.089C42.4553 179.962 42.1312 174.906 43.8117 178.642C43.7832 178.688 42.9238 179.705 42.9117 179.719C42.8194 179.819 42.6513 179.96 42.5542 180.067C41.151 181.624 40.2595 179.077 41.0879 183.396C41.5194 185.647 44.1607 186.537 45.1488 187.139C41.6518 188.611 43.802 185.089 37.5697 186.727C35.1196 183.222 35.559 183.547 30.9659 182.367C26.1391 181.127 26.9002 182.37 26.7891 187.139C33.3668 193.088 31.0903 186.341 32.931 196.629C33.6187 200.475 33.1586 198.332 34.5806 201.449C36.5191 205.697 35.4697 207.719 34.2844 211.176L39.3103 212.375C39.2599 215.681 39.0323 212.803 40.0198 215.843C42.4553 223.342 40.6079 218.748 45.942 220.575C46.081 220.622 46.2673 220.715 46.4118 220.768L47.4374 221.184C48.5827 221.591 48.7878 221.569 49.7692 221.865C51.7368 228.146 51.4066 226.983 47.4726 231.066C44.3003 234.358 46.3826 235.968 44.5661 241.071C47.0454 239.954 48.5912 238.52 50.8325 237.286C53.1764 235.996 55.6283 235.543 58.1767 234.673C69.424 230.832 72.0471 236.469 78.1083 242.291C80.8461 244.922 79.4308 245.359 81.0531 249.265C84.365 257.241 82.0551 257.369 92.1523 257.638C95.0642 252.466 103.177 189.662 105.944 186.784C108.217 184.663 130.228 181.529 135.252 180.639C147.819 178.411 136.845 175.197 148.768 173.267C157.798 171.806 150.076 173.292 151.696 176.872C156.85 175.985 154.498 169.387 154.261 167.205C159.706 167.232 156.878 168.748 158.785 171.774C165.999 168.791 166.241 172.93 170.892 172.249C170.584 169.521 171.963 171.199 170.127 170.129C168.564 170.583 166.396 170.586 164.501 170.092C162.493 169.569 162.18 169.161 160.867 167.245C157.867 162.868 161.638 163.166 165.165 161.448L166.004 162.218C166.169 162.329 166.76 162.731 166.962 162.823C168.183 163.379 166.905 163.382 169.418 163.262C169.439 163.151 169.32 162.987 169.309 162.942L169.258 160.8C169.266 160.613 169.32 160.51 169.418 160.408C172.154 162.232 171.501 161.254 171.994 165.518L177.026 166.365C176.396 162.368 177.237 164.044 178.411 161.368C178.448 161.286 178.561 160.948 178.577 160.728C178.587 160.589 178.575 160.498 178.633 160.407C179.717 160.96 179.933 160.997 180.784 161.269C185.038 162.631 178.951 159.785 182.085 161.62C182.291 165.041 176.745 171.788 174.383 173.098C172.631 174.402 173.383 173.009 173.208 175.343C173.124 176.46 173.253 177.264 172.859 178.62C171.502 183.298 171.649 180.148 172.325 185.893C174.29 185.078 173.176 184.903 174.38 183.269C176.824 187.405 171.61 183.377 176.936 187.156C177.513 190.594 176.854 189.265 176.903 191.717C180.602 194.834 179.086 189.64 179.611 195.431C183.344 194.896 179.855 193.618 182.421 194.936C178.715 200.504 174.803 198.68 172.506 200.099L170.242 202.875C171.605 203.795 172.059 203.545 173.506 204.861C172.487 208.931 172.564 205.247 171.863 208.117C173.871 210.226 180.483 220.402 182.046 223.446C189.468 223.719 196.927 220.485 204.813 221.234C227.745 223.413 213.379 222.13 225.418 219.437C228.079 223.466 227.287 224.363 231.143 227.505C234.375 230.138 234.37 230.449 235.588 236.67C238.223 236.752 236.73 236.603 239.506 235.649L238.339 254.376L245.377 255.892L246.733 267.448C255.063 268.133 258.999 268.84 267.95 268.574C269.141 270.49 269.051 270.364 270.628 271.493C269.729 273.091 269.642 272.767 268.518 274.329L270.217 275.57C274.536 279.494 274.6 278.38 275.849 280H277.833C277.899 272.931 276.792 283.89 276.23 272.202L281.819 266.91C284.588 262.088 284.822 263.617 286.813 262.626C288.764 261.655 287.447 261.717 290.013 259.539C294.966 255.334 295.584 260.736 300.622 250.444C304.539 250.572 302.213 254.283 303.645 251.446C303.716 251.306 303.938 251.629 304.102 251.677L309.559 241.531C311.187 238.377 310.708 236.687 314.28 235.747C320.902 234.004 328.532 235.871 335.024 238.593C338.203 239.924 335.677 239.007 338.819 239.236C345.257 239.707 339.188 241.383 344.719 241.896C343.259 235.914 341.68 241.254 343.678 233.702C345.143 228.159 342.522 230.431 347.782 226.537C349.324 225.395 348.532 225.7 349.89 225.107C353.225 223.649 354.722 222.59 357.439 225.219C359.721 227.426 357.334 226.987 361.905 228.022C364.241 228.551 365.811 229.411 367.949 229.813C377.426 231.595 370.497 227.102 380.641 227.599C392.118 228.161 386.134 224.104 392.314 225.111C393.871 225.365 394.261 226.116 396.594 225.504C406.641 222.867 404.07 224.776 409.291 223.435C415.068 221.951 413.912 225.808 420.355 222.961L424.826 228.616C428.463 228.448 427.044 228.246 429.596 227.501C433.835 226.265 434.463 230.376 438.522 230.132C436.309 225.584 435.616 224.838 435.824 218.602L440.036 216.634L436.933 214.785C439.708 210.767 442.907 213.83 440.731 208.432L440.031 206.996C439.942 206.797 439.712 206.218 439.628 206.021C438.109 202.489 436.718 201.48 434.682 198.256L432.896 193.666C431.743 190.522 432.716 184.331 432.466 183.832C430.491 179.897 428.705 186.222 424.168 182.886C424.826 181.53 426.192 179.329 428.536 178.655C434.193 177.032 429.393 178.076 433.141 175.839C433.591 175.57 439.73 173.8 442.086 171.278C442.567 170.764 442.806 169.85 443.747 168.828C447.455 170.343 446.086 172.722 449.652 170.426C453.588 167.892 451.227 168.629 456.024 170.165L455.974 164.972C453.787 164.568 452.726 164.878 450.689 163.747C450.307 158.007 452.301 153.028 453.286 147.77C454.162 143.089 454.571 135.996 455.121 131.273C461.548 131.049 459.829 133.386 464.647 132.275C467.034 131.725 473.343 130.354 474.937 129.584C478.144 131.363 474.515 129.366 476.514 130.982C477.591 131.853 475.875 131.239 477.772 131.848C479.275 130.399 479.642 129.616 480.728 128.423C484.206 124.598 484.112 128.873 485.721 122.908C487.772 115.307 485.742 123.62 481.529 110.406C477.688 98.3616 483.624 98.4569 486.039 96.8771C492.849 92.4218 490.186 90.9688 489.139 84.8402C491.563 82.5886 491.507 81.8008 496.203 81.3171V81.0434C492.885 79.2081 492.707 80.0741 490.888 79.1025C487.259 77.1634 491.089 76.9552 486.32 76.4563C486.645 73.426 487.45 74.2187 486.279 72.5223L481.317 80.1427C478.041 79.9048 478.979 79.5036 475.564 79.9795C467.862 81.0531 471.119 82.1498 467.379 77.0262C465.223 74.0742 466.753 76.6475 465.343 72.7584C459.583 72.146 461.729 71.3049 455.85 71.5804L455.47 66.9424C450.861 66.0757 452.857 67.4067 450.456 64.1785C447.606 60.3477 442.203 60.0297 440.458 61.0796L439.242 62.1271C438.195 62.9143 439.612 62.1162 438.378 62.7984C436.827 63.6553 437.501 63.3143 435.497 63.4508L434.532 66.7512L422.253 69.5697L420.355 66.3931C418.52 66.574 418.454 66.8726 416.868 67.292L416.468 62.7189C413.843 62.5939 413.148 61.8856 411.14 61.1112C410.64 61.6094 409.52 63.0721 409.334 64.0286C408.736 67.1032 410.505 64.116 409.159 67.5208C408.536 69.0987 406.663 71.0985 404.591 72.0659C402.341 69.5169 401.058 67.363 398.85 64.7387C393.274 58.1094 387.885 49.8954 381.778 42.8328C377.763 38.1887 373.612 32.4722 368.74 29.6659C365.246 27.6527 364.214 26.059 361.476 24.129C357.282 21.1721 357.248 23.1203 354.569 18.0939L357.9 17.5743C358.2 12.8319 356.445 16.6524 359.071 11.8445C354.016 13.0255 358.645 12.7512 355.36 14.5374C353.806 15.3816 352.95 14.9118 351.765 14.3765C351.373 17.9883 351.97 17.013 348.874 18.5503C347.003 19.4788 345.871 20.209 343.333 20.0202C343.605 24.0198 344.061 23.8152 340.441 25.7859C332.483 30.1174 338.35 29.0298 334.432 29.3302C334.7 34.5994 332.53 35.8788 331.66 31.0769C329.67 32.9092 331.37 32.2143 329.233 32.3733C329.988 29.3842 329.277 31.1152 328.912 30.4057C324.192 33.0524 328.414 29.4031 323.949 34.2092L322.431 33.3874C321.874 33.0609 321.66 32.8691 321.26 32.6076C321.346 30.6132 321.842 28.7276 323.064 27.5647C325.478 25.2682 324.031 28.9127 325.757 23.4001C322.171 23.4584 323.906 26.5585 318.664 25.1589C314.536 24.0568 317.621 22.4709 312.121 22.9473C313.03 25.4375 313.548 23.269 312.915 25.3459C312.276 27.4446 311.75 26.6137 311.19 26.8546C310.009 24.3888 311.152 24.3414 309.578 21.4592C308.664 19.7841 308.134 18.7335 305.827 18.6625C306.453 21.3997 306.862 21.7153 308.642 23.1124C306.602 22.866 306.79 22.1432 304.811 20.9579C304.681 21.1321 304.533 21.3718 304.457 21.5059L303.393 23.8959C294.39 23.5087 297.311 23.7048 295.74 21.2656C295.858 21.1521 296.065 21.0392 296.141 20.9816L298.275 19.139C297.519 15.648 297.209 16.7052 298.29 13.4686C292.345 9.96853 298.103 12.8319 292.829 2.18488C285.769 2.21462 289.627 3.75921 286.086 4.77579C282.899 5.69162 282.894 3.41449 281.524 1.49543C278.091 1.08577 274.802 2.75174 273.929 0H272.373L273.006 2.12662C272.878 2.17092 272.668 2.12541 272.598 2.12783C269.276 2.26378 268.39 4.35763 264.895 5.4173C264.867 5.58723 264.839 7.54816 264.771 7.72599C263.495 11.0913 252.578 11.7419 249.406 13.3332C245.72 15.1825 244.516 15.4993 240.088 15.1582L239.056 15.0872C238.901 15.0805 238.692 15.0787 238.538 15.0757L231.621 16.9838L231.608 21.1254C224.257 17.0008 232.16 19.9577 217.382 22.3538C215.739 22.6202 213.899 22.5443 212.671 22.7349C208.12 23.4401 212.183 22.9831 209.319 24.3032C206.468 25.6165 205.159 23.8025 202.735 27.0179L199.316 25.2924C194.751 24.376 197.787 26.0699 194.399 25.6008C194.22 25.5759 193.285 25.361 193.114 25.3076C190.477 24.4853 192.931 25.1959 189.975 23.6404C186.492 26.4195 190.857 26.1913 184.914 25.5971C185.741 27.2006 186.559 26.5609 187.153 28.6553C185.626 30.4324 185.228 30.4494 183.853 31.8987C187.162 33.8305 189.315 32.7647 191.345 34.0253C189.977 37.3166 190.97 35.4588 187.1 34.3057C186.412 37.4829 186.352 35.4497 185.979 38.0819L196.894 42.553C196.309 47.3895 189.986 43.6297 185.013 43.7316C182.796 47.4593 184.269 45.8965 180.153 48.9116C180.614 52.8165 182.705 52.4888 183.907 55.9998C183.785 56.143 183.587 56.2996 183.489 56.3791L182.186 57.4005C181.924 57.5729 181.126 58.0086 180.76 58.1816C179.99 58.5458 178.16 59.2 177.78 59.4428C176.903 60.0011 177.271 59.9156 176.692 60.4071L172.457 62.3796C173.259 64.4261 174.803 64.8066 176.773 65.2624C176.204 66.8944 174.874 66.3531 175.524 68.0118C176.213 69.7724 175.759 68.5531 177.82 68.9949C181.527 69.7894 180.865 68.8244 181.459 72.7663C183.326 72.8853 187.354 73.0971 188.238 74.5919C189.132 76.1031 186.047 84.399 185.229 86.5074C179.022 86.7714 175.476 88.208 171.216 83.8874C170.018 82.6729 171.717 83.8339 169.866 82.6966C165.749 90.7315 165.443 88.4829 161.973 86.0923L152.086 81.5028L152.516 76.5826C148.117 76.0175 152.01 75.7851 148.312 75.7207L144.608 74.8656C141.467 77.442 144.336 77.5421 138.712 78.819C133.75 68.8948 130.888 79.1019 129.247 73.5438C124.121 75.8919 124.559 80.9341 118.821 81.1496C114.425 81.3147 115.073 76.1869 106.616 73.9813C105.563 77.5749 109.277 80.5463 102.943 80.0262C105.311 72.8458 104.495 76.9856 102.06 71.6247C101.221 69.776 101.377 68.4518 100.068 67.2373L96.5281 65.8603C96.4213 65.6193 96.1093 65.7801 95.9097 65.7079C95.3216 61.6817 95.9309 64.0808 94.4003 61.496C93.4268 59.853 93.607 60.0557 92.8611 58.1021C89.6524 57.7452 86.8054 59.1472 85.3269 58.5445C83.2112 57.6815 83.6312 55.297 82.9369 53.2905C75.7924 52.8268 76.2961 54.4661 75.1393 56.3323C72.779 55.1677 73.8545 54.7756 70.0783 54.6518C71.4918 53.4817 71.9913 53.7305 71.5045 51.284C65.396 51.176 68.1149 51.7046 64.5068 49.0385C61.6022 53.0405 64.6847 49.3978 61.6543 51.1615C60.2457 51.9814 61.0116 51.8242 60.1322 52.9203L59.1211 54.1135C56.6892 56.6303 53.8956 56.8148 50.2747 57.3204L47.1285 57.863C43.7529 60.6475 47.4198 59.8154 41.5989 62.9143C36.859 65.4372 40.1715 65.6745 35.2264 63.5285C35.1845 68.6927 34.966 71.2703 35.8551 75.3997C34.0805 76.656 30.2333 78.7292 28.5692 77.8553C25.8733 75.8585 29.1354 70.3629 22.6839 63.08C16.633 65.5944 19.3265 67.5505 16.9092 70.7592C12.202 74.289 13.1682 70.2834 9.88174 77.2641C6.77313 83.8667 9.64565 81.8214 9.76035 87.1896C6.68331 89.5237 6.58135 87.5604 3.93218 91.1381C2.19884 93.479 1.95608 94.711 0 96.3703Z" fill="#45568C"/>
</svg>
