<svg width="32" height="32" viewBox="0 0 32 32" fill="none" xmlns="http://www.w3.org/2000/svg">
<circle cx="16" cy="16" r="16" fill="#BFC5D2"/>
<path d="M14.6906 8.33316C15.7105 8.33316 16.6885 8.74582 17.4097 9.48034C18.1308 10.2149 18.5359 11.2111 18.5359 12.2499C18.5359 13.2886 18.1308 14.2849 17.4097 15.0194C16.6885 15.7539 15.7105 16.1666 14.6906 16.1666C13.6708 16.1666 12.6927 15.7539 11.9716 15.0194C11.2504 14.2849 10.8453 13.2886 10.8453 12.2499C10.8453 11.2111 11.2504 10.2149 11.9716 9.48034C12.6927 8.74582 13.6708 8.33316 14.6906 8.33316ZM14.6906 18.125C17.2574 18.125 22.3812 19.437 22.3812 22.0417V24H7V22.0417C7 19.437 12.1239 18.125 14.6906 18.125Z" fill="white"/>
<path d="M21.8436 16.3358C20.3641 16.3358 20.4566 14.2686 21.8436 14.2686C23.2307 14.2686 23.2307 16.3358 21.8436 16.3358Z" fill="white"/>
<path d="M18.6528 8.76356C18.9825 5.99938 22.9388 4.86119 24.5872 7.46277C26.0708 9.65785 23.1036 11.0399 22.6915 11.8529C22.3618 12.422 22.5267 13.235 21.7025 13.235C20.5486 13.235 20.7958 11.609 21.5376 10.796C22.197 10.0644 24.0927 9.00746 22.8564 7.86927C22.3618 7.38147 20.8782 7.13758 20.3837 8.84486C19.9716 10.0644 18.6528 9.57655 18.6528 8.76356Z" fill="white"/>
</svg>
