<svg width="15" height="21" viewBox="0 0 15 21" fill="none" xmlns="http://www.w3.org/2000/svg">
    <path d="M7.90332 9.51074C7.24028 9.51074 6.60439 9.24735 6.13555 8.77851C5.66671 8.30967 5.40332 7.67378 5.40332 7.01074C5.40332 6.3477 5.66671 5.71182 6.13555 5.24298C6.60439 4.77413 7.24028 4.51074 7.90332 4.51074C8.56636 4.51074 9.20225 4.77413 9.67109 5.24298C10.1399 5.71182 10.4033 6.3477 10.4033 7.01074C10.4033 7.33905 10.3387 7.66414 10.213 7.96745C10.0874 8.27077 9.90323 8.54636 9.67109 8.77851C9.43894 9.01066 9.16334 9.1948 8.86003 9.32044C8.55672 9.44608 8.23163 9.51074 7.90332 9.51074ZM7.90332 0.0107422C6.0468 0.0107422 4.26633 0.74824 2.95357 2.06099C1.64082 3.37375 0.90332 5.15423 0.90332 7.01074C0.90332 12.2607 7.90332 20.0107 7.90332 20.0107C7.90332 20.0107 14.9033 12.2607 14.9033 7.01074C14.9033 5.15423 14.1658 3.37375 12.8531 2.06099C11.5403 0.74824 9.75984 0.0107422 7.90332 0.0107422Z" fill="#BFC5D2"/>
</svg>