<svg width="24" height="25" viewBox="0 0 24 25" fill="none"
     xmlns="http://www.w3.org/2000/svg">
    <path
            d="M12 6.00391C15.79 6.00391 19.17 8.13391 20.82 11.5039C19.17 14.8739 15.79 17.0039 12 17.0039C8.21 17.0039 4.83 14.8739 3.18 11.5039C4.83 8.13391 8.21 6.00391 12 6.00391ZM12 4.00391C7 4.00391 2.73 7.11391 1 11.5039C2.73 15.8939 7 19.0039 12 19.0039C17 19.0039 21.27 15.8939 23 11.5039C21.27 7.11391 17 4.00391 12 4.00391ZM12 9.00391C13.38 9.00391 14.5 10.1239 14.5 11.5039C14.5 12.8839 13.38 14.0039 12 14.0039C10.62 14.0039 9.5 12.8839 9.5 11.5039C9.5 10.1239 10.62 9.00391 12 9.00391ZM12 7.00391C9.52 7.00391 7.5 9.02391 7.5 11.5039C7.5 13.9839 9.52 16.0039 12 16.0039C14.48 16.0039 16.5 13.9839 16.5 11.5039C16.5 9.02391 14.48 7.00391 12 7.00391Z"
            fill="#BFC5D2"/>
</svg>