<svg width="33" height="32" viewBox="0 0 33 32" fill="none" xmlns="http://www.w3.org/2000/svg">
    <g clip-path="url(#clip0)">
        <path d="M30.5912 5.51758H3.38436C2.06073 5.51758 0.987793 6.59052 0.987793 7.91414V24.0866C0.987793 25.4102 2.06073 26.4832 3.38436 26.4832H30.5912C31.9148 26.4832 32.9878 25.4103 32.9878 24.0866V7.91414C32.9878 6.59052 31.9149 5.51758 30.5912 5.51758Z" fill="#00AFCA"/>
        <path d="M4.70751 8.0276C4.65757 7.81622 4.64513 7.73822 4.74001 7.64341C4.78626 7.59716 4.78626 7.52222 4.74001 7.47597C4.69376 7.42972 4.61882 7.42972 4.57257 7.47597C4.38057 7.66803 4.42638 7.86734 4.47607 8.07834C4.3247 8.02891 4.1677 8.0656 4.08357 8.17172C4.04182 8.22466 3.96107 8.37316 4.11238 8.61028C4.14757 8.66534 4.22032 8.68153 4.27588 8.64666C4.33107 8.61147 4.34713 8.53816 4.31195 8.48316C4.2552 8.39384 4.25351 8.33878 4.26938 8.31866C4.28813 8.29484 4.34626 8.28228 4.40713 8.30385C4.44645 8.31747 4.53782 8.36466 4.53782 8.50716C4.53782 8.62097 4.4852 8.72528 4.39345 8.7931C4.30151 8.8611 4.18251 8.88028 4.06782 8.84466C3.9262 8.80141 3.82726 8.65222 3.82726 8.48178C3.82726 8.35985 3.85338 8.23659 3.90138 8.12859C3.90901 8.11266 4.09001 7.73772 4.13663 7.59797C4.22882 7.32153 4.13513 7.18253 4.0712 7.12447C3.98563 7.04653 3.86057 7.02709 3.75295 7.07428C3.73657 7.08153 3.72307 7.09203 3.70888 7.10178C3.6947 7.09197 3.68113 7.08153 3.66482 7.07428C3.55726 7.02709 3.43226 7.04647 3.34657 7.12447C3.28263 7.18253 3.18895 7.32159 3.28113 7.59797C3.32776 7.73772 3.5087 8.11266 3.51476 8.12516C3.56432 8.23666 3.59051 8.35991 3.59051 8.48184C3.59051 8.65234 3.49163 8.80147 3.34995 8.84472C3.23482 8.88028 3.1162 8.86134 3.02432 8.79316C2.93257 8.72534 2.87995 8.62109 2.87995 8.50722C2.87995 8.36472 2.97132 8.31759 3.01063 8.30391C3.0717 8.28241 3.12951 8.29484 3.14838 8.31872C3.16426 8.33884 3.16257 8.39391 3.10582 8.48322C3.07063 8.53828 3.0867 8.61166 3.14188 8.64672C3.19751 8.68191 3.27051 8.66547 3.30538 8.61034C3.4567 8.37322 3.37595 8.22478 3.3342 8.17178C3.25001 8.06566 3.09307 8.02891 2.9417 8.07841C2.99145 7.86747 3.0372 7.66803 2.8452 7.47603C2.79895 7.42978 2.72401 7.42978 2.67776 7.47603C2.63151 7.52228 2.63151 7.59722 2.67776 7.64347C2.77257 7.73828 2.76026 7.81622 2.71026 8.02766C2.6802 8.15434 2.64295 8.31234 2.64295 8.50709C2.64295 8.63672 2.68845 8.76059 2.76513 8.86241H2.76132C2.69588 8.86241 2.64288 8.91534 2.64288 8.98084C2.64288 9.04634 2.69582 9.09928 2.76132 9.09928H2.76513C2.68845 9.20103 2.64295 9.32497 2.64295 9.45453C2.64295 9.64928 2.6802 9.80728 2.71013 9.93403C2.76007 10.1455 2.77251 10.2234 2.67763 10.3182C2.63138 10.3645 2.63138 10.4394 2.67763 10.4857C2.70076 10.5088 2.73107 10.5203 2.76138 10.5203C2.79163 10.5203 2.82201 10.5088 2.84513 10.4857C3.03713 10.2936 2.99132 10.0942 2.94163 9.88328C3.09301 9.93253 3.25001 9.89603 3.33413 9.78991C3.37588 9.73697 3.45663 9.58847 3.30532 9.35134C3.27026 9.29628 3.19707 9.27991 3.14182 9.31497C3.08663 9.35016 3.07057 9.42347 3.10576 9.47847C3.16251 9.56778 3.1642 9.62284 3.14832 9.64297C3.12951 9.66653 3.07163 9.67903 3.01057 9.65778C2.97126 9.64416 2.87988 9.59697 2.87988 9.45447C2.87988 9.34066 2.93251 9.23634 3.02426 9.16859C3.1162 9.10059 3.23507 9.08116 3.34988 9.11703C3.49151 9.16028 3.59045 9.30947 3.59045 9.47991C3.59045 9.60185 3.56432 9.7251 3.5147 9.8366L2.73901 11.5816C2.67526 11.725 2.64288 11.8775 2.64288 12.0345C2.64288 12.2365 2.73476 12.421 2.87938 12.5337C2.73482 12.6463 2.64288 12.8308 2.64288 13.0328C2.64288 13.1899 2.67532 13.3423 2.73901 13.4857L3.51457 15.2307C3.56413 15.3422 3.59032 15.4654 3.59032 15.5873C3.59032 15.7578 3.49145 15.907 3.34976 15.9502C3.23463 15.9861 3.11601 15.9669 3.02413 15.8987C2.93238 15.8308 2.87976 15.7266 2.87976 15.6128C2.87976 15.4703 2.97113 15.4232 3.01045 15.4095C3.07151 15.3882 3.12932 15.4004 3.1482 15.4243C3.16407 15.4444 3.16238 15.4995 3.10563 15.5888C3.07045 15.6438 3.08651 15.7171 3.1417 15.7523C3.19732 15.7875 3.27032 15.7712 3.3052 15.7159C3.45651 15.4788 3.37576 15.3303 3.33401 15.2773C3.24982 15.1712 3.09288 15.1347 2.94151 15.184C2.99126 14.973 3.03701 14.7736 2.84501 14.5816C2.79876 14.5353 2.72382 14.5353 2.67757 14.5816C2.63132 14.6278 2.63132 14.7028 2.67757 14.749C2.77238 14.8438 2.76007 14.9218 2.71007 15.1332C2.68013 15.2598 2.64288 15.4178 2.64288 15.6126C2.64288 15.7422 2.68838 15.8661 2.76507 15.9679H2.76126C2.69582 15.9679 2.64282 16.0208 2.64282 16.0863C2.64282 16.1518 2.69576 16.2048 2.76126 16.2048H2.76507C2.68838 16.3066 2.64288 16.4305 2.64288 16.5601C2.64288 16.7548 2.68013 16.9128 2.71007 17.0396C2.76001 17.251 2.77245 17.329 2.67757 17.4238C2.63132 17.47 2.63132 17.545 2.67757 17.5912C2.7007 17.6143 2.73101 17.6259 2.76132 17.6259C2.79157 17.6259 2.82195 17.6143 2.84507 17.5912C3.03707 17.3992 2.99126 17.1998 2.94157 16.9888C3.09295 17.0381 3.24995 17.0016 3.33407 16.8955C3.37582 16.8425 3.45657 16.694 3.30526 16.4569C3.2702 16.4018 3.19701 16.3855 3.14176 16.4205C3.08657 16.4557 3.07051 16.529 3.1057 16.584C3.16245 16.6733 3.16413 16.7284 3.14826 16.7485C3.12945 16.7723 3.07157 16.7848 3.01051 16.7633C2.9712 16.7497 2.87982 16.7025 2.87982 16.56C2.87982 16.4462 2.93245 16.3419 3.0242 16.2742C3.11613 16.2062 3.23501 16.1867 3.34982 16.2226C3.49145 16.2658 3.59038 16.415 3.59038 16.5855C3.59038 16.7074 3.56426 16.8307 3.51463 16.9422L2.73901 18.6874C2.67526 18.8308 2.64288 18.9833 2.64288 19.1403C2.64288 19.3423 2.73476 19.5268 2.87938 19.6395C2.73482 19.752 2.64288 19.9366 2.64288 20.1387C2.64288 20.2957 2.67532 20.4482 2.73901 20.5915L3.51457 22.3365C3.56413 22.448 3.59032 22.5712 3.59032 22.6932C3.59032 22.8637 3.49145 23.0128 3.34976 23.056C3.23463 23.0919 3.11601 23.0725 3.02413 23.0045C2.93238 22.9367 2.87976 22.8324 2.87976 22.7186C2.87976 22.5761 2.97113 22.529 3.01045 22.5153C3.07151 22.494 3.12932 22.5062 3.1482 22.5301C3.16407 22.5502 3.16238 22.6053 3.10563 22.6946C3.07045 22.7497 3.08651 22.823 3.1417 22.8581C3.19732 22.8933 3.27032 22.877 3.3052 22.8217C3.45651 22.5846 3.37576 22.4362 3.33401 22.3832C3.24982 22.2767 3.09288 22.2403 2.94151 22.2898C2.99126 22.0788 3.03701 21.8794 2.84501 21.6874C2.79876 21.6412 2.72382 21.6412 2.67757 21.6874C2.63132 21.7337 2.63132 21.8086 2.67757 21.8548C2.77238 21.9497 2.76007 22.0276 2.71007 22.239C2.68013 22.3657 2.64288 22.5236 2.64288 22.7183C2.64288 22.9039 2.73182 23.0807 2.88051 23.1921C2.73182 23.3035 2.64288 23.4802 2.64288 23.6658C2.64288 23.8606 2.68013 24.0186 2.71007 24.1453C2.76001 24.3567 2.77245 24.4347 2.67757 24.5295C2.63132 24.5758 2.63132 24.6508 2.67757 24.697C2.7007 24.7201 2.73101 24.7317 2.76132 24.7317C2.79157 24.7317 2.82195 24.7201 2.84507 24.697C3.03707 24.5049 2.99126 24.3055 2.94157 24.0945C3.09295 24.1438 3.24995 24.1073 3.33407 24.0012C3.37582 23.9482 3.45657 23.7997 3.30526 23.5626C3.2702 23.5075 3.19701 23.4913 3.14176 23.5262C3.08657 23.5614 3.07051 23.6347 3.1057 23.6897C3.16245 23.779 3.16413 23.8341 3.14826 23.8542C3.12945 23.878 3.07157 23.8903 3.01051 23.869C2.9712 23.8554 2.87982 23.8082 2.87982 23.6657C2.87982 23.5519 2.93245 23.4476 3.0242 23.3798C3.11613 23.3118 3.23501 23.2926 3.34982 23.3282C3.49145 23.3715 3.59038 23.5207 3.59038 23.6911C3.59038 23.813 3.56426 23.9363 3.51626 24.0443C3.50863 24.0602 3.32763 24.4352 3.28101 24.5749C3.18882 24.8513 3.28251 24.9903 3.34645 25.0484C3.40113 25.0982 3.47157 25.1243 3.54357 25.1243C3.58438 25.1243 3.62576 25.1157 3.66476 25.0987C3.68113 25.0914 3.69463 25.0809 3.70882 25.0712C3.72301 25.081 3.73657 25.0914 3.75288 25.0987C3.79182 25.1158 3.83332 25.1243 3.87407 25.1243C3.94588 25.1243 4.01645 25.0982 4.0712 25.0484C4.13513 24.9903 4.22882 24.8513 4.13663 24.5749C4.09001 24.4352 3.90907 24.0603 3.90301 24.0477C3.85345 23.9362 3.82726 23.813 3.82726 23.691C3.82726 23.5205 3.92613 23.3714 4.06782 23.3282C4.18301 23.2925 4.30157 23.3117 4.39345 23.3797C4.4852 23.4475 4.53782 23.5518 4.53782 23.6657C4.53782 23.8082 4.44645 23.8553 4.40713 23.869C4.34632 23.8903 4.28807 23.878 4.26938 23.8542C4.25351 23.834 4.2552 23.779 4.31195 23.6897C4.34713 23.6346 4.33107 23.5613 4.27588 23.5262C4.22057 23.4915 4.14763 23.5077 4.11238 23.5625C3.96107 23.7997 4.04182 23.9481 4.08357 24.0011C4.16776 24.1072 4.3247 24.1438 4.47607 24.0945C4.42632 24.3054 4.38057 24.5048 4.57257 24.6969C4.5957 24.72 4.62601 24.7316 4.65632 24.7316C4.68663 24.7316 4.71695 24.72 4.74007 24.6969C4.78632 24.6507 4.78632 24.5757 4.74007 24.5295C4.64526 24.4347 4.65757 24.3567 4.70757 24.1453C4.73751 24.0185 4.77476 23.8605 4.77476 23.6658C4.77476 23.4802 4.68582 23.3034 4.5372 23.192C4.68582 23.0807 4.77476 22.904 4.77476 22.7183C4.77476 22.5235 4.73751 22.3655 4.70757 22.2388C4.65763 22.0274 4.6452 21.9494 4.74007 21.8546C4.78632 21.8083 4.78632 21.7334 4.74007 21.6872C4.69382 21.6409 4.61888 21.6409 4.57263 21.6872C4.38063 21.8792 4.42645 22.0785 4.47613 22.2895C4.32476 22.2401 4.16776 22.2765 4.08363 22.3829C4.04188 22.4358 3.96113 22.5843 4.11245 22.8215C4.14763 22.8765 4.22038 22.8927 4.27595 22.8578C4.33113 22.8227 4.3472 22.7493 4.31201 22.6943C4.25526 22.605 4.25357 22.55 4.26945 22.5298C4.2882 22.506 4.34632 22.4938 4.4072 22.515C4.44651 22.5287 4.53788 22.5758 4.53788 22.7183C4.53788 22.8322 4.48526 22.9365 4.39351 23.0042C4.30157 23.0722 4.18257 23.0917 4.06788 23.0558C3.92626 23.0125 3.82732 22.8633 3.82732 22.6929C3.82732 22.571 3.85345 22.4477 3.90307 22.3362L4.67863 20.5913C4.74238 20.4479 4.77476 20.2954 4.77476 20.1384C4.77476 19.9363 4.68288 19.7518 4.53826 19.6392C4.68288 19.5266 4.77476 19.3421 4.77476 19.14C4.77476 18.983 4.74232 18.8305 4.67863 18.6872L3.90307 16.9422C3.85351 16.8307 3.82732 16.7075 3.82732 16.5855C3.82732 16.415 3.9262 16.2659 4.06788 16.2227C4.18307 16.1871 4.30163 16.2062 4.39351 16.2742C4.48526 16.342 4.53788 16.4463 4.53788 16.5601C4.53788 16.7026 4.44651 16.7497 4.4072 16.7634C4.34638 16.7849 4.28813 16.7725 4.26945 16.7486C4.25357 16.7285 4.25526 16.6734 4.31201 16.5841C4.3472 16.529 4.33113 16.4557 4.27595 16.4206C4.22063 16.3859 4.1477 16.4021 4.11245 16.457C3.96113 16.6941 4.04188 16.8425 4.08363 16.8955C4.16782 17.0017 4.32476 17.0382 4.47613 16.9889C4.42638 17.1998 4.38063 17.3993 4.57263 17.5913C4.59576 17.6144 4.62607 17.626 4.65638 17.626C4.6867 17.626 4.71701 17.6144 4.74013 17.5913C4.78638 17.545 4.78638 17.47 4.74013 17.4238C4.64532 17.329 4.65763 17.2511 4.70763 17.0397C4.73757 16.9129 4.77482 16.7549 4.77482 16.5602C4.77482 16.4305 4.72932 16.3067 4.65263 16.2048H4.65645C4.72188 16.2048 4.77488 16.1519 4.77488 16.0864C4.77488 16.021 4.72195 15.968 4.65645 15.968H4.65263C4.72932 15.8662 4.77482 15.7423 4.77482 15.6127C4.77482 15.4179 4.73757 15.2599 4.70763 15.1332C4.6577 14.9217 4.64526 14.8438 4.74013 14.749C4.78638 14.7027 4.78638 14.6278 4.74013 14.5815C4.69388 14.5353 4.61895 14.5353 4.5727 14.5815C4.3807 14.7736 4.42651 14.973 4.4762 15.1839C4.32482 15.1347 4.16782 15.1712 4.0837 15.2773C4.04195 15.3302 3.9612 15.4787 4.11251 15.7158C4.1477 15.7709 4.22045 15.7869 4.27601 15.7522C4.3312 15.717 4.34726 15.6437 4.31207 15.5887C4.25532 15.4994 4.25363 15.4443 4.26951 15.4242C4.28826 15.4004 4.34638 15.3882 4.40726 15.4094C4.44657 15.423 4.53795 15.4702 4.53795 15.6127C4.53795 15.7265 4.48532 15.8308 4.39357 15.8986C4.30163 15.9666 4.18263 15.9858 4.06795 15.9502C3.92632 15.9069 3.82738 15.7577 3.82738 15.5873C3.82738 15.4653 3.85351 15.3421 3.90313 15.2306L4.6787 13.4857C4.74245 13.3423 4.77482 13.1898 4.77482 13.0328C4.77482 12.8307 4.68295 12.6462 4.53832 12.5336C4.68295 12.421 4.77482 12.2365 4.77482 12.0344C4.77482 11.8773 4.74238 11.7249 4.6787 11.5815L3.90313 9.8366C3.85357 9.7251 3.82738 9.60185 3.82738 9.47991C3.82738 9.30941 3.92626 9.16028 4.06795 9.11703C4.18313 9.08147 4.3017 9.10059 4.39357 9.16859C4.48532 9.23641 4.53795 9.34066 4.53795 9.45447C4.53795 9.59697 4.44657 9.64409 4.40726 9.65778C4.34645 9.67909 4.2882 9.66659 4.26951 9.64297C4.25363 9.62284 4.25532 9.56778 4.31207 9.47847C4.34726 9.42341 4.3312 9.35009 4.27601 9.31497C4.2207 9.28028 4.14776 9.29622 4.11251 9.35128C3.9612 9.58841 4.04195 9.73685 4.0837 9.78984C4.16788 9.89597 4.32482 9.93253 4.4762 9.88322C4.42645 10.0942 4.3807 10.2936 4.5727 10.4856C4.59582 10.5087 4.62613 10.5203 4.65645 10.5203C4.6867 10.5203 4.71707 10.5087 4.7402 10.4856C4.78645 10.4393 4.78645 10.3644 4.7402 10.3182C4.64538 10.2233 4.6577 10.1454 4.7077 9.93397C4.73763 9.80722 4.77488 9.64922 4.77488 9.45447C4.77488 9.32484 4.72938 9.20097 4.6527 9.09916H4.65651C4.72195 9.09916 4.77495 9.04622 4.77495 8.98072C4.77495 8.91522 4.72201 8.86228 4.65651 8.86228H4.6527C4.72938 8.76047 4.77488 8.63666 4.77488 8.50697C4.77463 8.31235 4.73738 8.15435 4.70751 8.0276ZM3.50563 7.52285C3.46357 7.3966 3.47826 7.32466 3.50601 7.29941C3.52413 7.28228 3.55163 7.28297 3.56907 7.29084C3.59045 7.30028 3.59045 7.31534 3.59045 7.32278C3.59045 7.38822 3.64338 7.44122 3.70888 7.44122C3.77432 7.44122 3.82732 7.38828 3.82732 7.32278C3.82732 7.31541 3.82732 7.30034 3.8487 7.29084C3.86582 7.28297 3.89313 7.28228 3.91176 7.29941C3.93957 7.32466 3.95426 7.3966 3.91213 7.52285C3.88151 7.61441 3.7707 7.85278 3.70895 7.98216C3.64845 7.85578 3.53645 7.61503 3.50563 7.52285ZM3.70882 12.4095C3.74282 12.4557 3.78126 12.4987 3.82801 12.5337C3.78126 12.5687 3.74282 12.6117 3.70882 12.6578C3.67482 12.6117 3.63638 12.5687 3.58963 12.5337C3.63638 12.4985 3.67482 12.4557 3.70882 12.4095ZM3.70882 19.5151C3.74282 19.5613 3.78126 19.6043 3.82801 19.6393C3.78126 19.6743 3.74282 19.7173 3.70882 19.7635C3.67482 19.7173 3.63638 19.6743 3.58963 19.6393C3.63638 19.6043 3.67482 19.5615 3.70882 19.5151ZM3.91201 24.6502C3.95407 24.7765 3.93938 24.8484 3.91163 24.8737C3.89301 24.8905 3.8657 24.8898 3.84857 24.8822C3.8272 24.8727 3.8272 24.8577 3.8272 24.8503C3.8272 24.7848 3.77426 24.7318 3.70876 24.7318C3.64326 24.7318 3.59032 24.7848 3.59032 24.8503C3.59032 24.8577 3.59032 24.8727 3.56895 24.8822C3.55157 24.8898 3.52407 24.8906 3.50588 24.8737C3.47807 24.8484 3.46345 24.7765 3.50551 24.6502C3.53613 24.5587 3.64695 24.3203 3.7087 24.1909C3.76913 24.3172 3.88113 24.558 3.91201 24.6502ZM3.82688 23.1922C3.78207 23.2271 3.74232 23.2688 3.70882 23.316C3.67538 23.2688 3.63557 23.2272 3.59076 23.1922C3.63557 23.1573 3.67532 23.1156 3.70882 23.0684C3.74226 23.1156 3.78195 23.1573 3.82688 23.1922ZM4.46201 20.4952L3.70876 22.1899L2.95551 20.4952C2.90595 20.3837 2.87976 20.2604 2.87976 20.1385C2.87976 19.968 2.97863 19.8188 3.12032 19.7756C3.23538 19.74 3.3542 19.7592 3.44595 19.8272C3.5377 19.895 3.59032 19.9992 3.59032 20.1131C3.59032 20.2556 3.49895 20.3027 3.45963 20.3164C3.39857 20.3377 3.34051 20.3255 3.32188 20.3016C3.30601 20.2815 3.3077 20.2264 3.36445 20.1371C3.39963 20.082 3.38357 20.0088 3.32838 19.9736C3.27307 19.9389 3.20013 19.9551 3.16488 20.01C3.01363 20.2471 3.09432 20.3955 3.13607 20.4485C3.22182 20.5568 3.38313 20.594 3.53738 20.5401C3.55495 20.534 3.57276 20.5265 3.59032 20.5175V20.817C3.59032 20.8169 3.59013 20.8168 3.59013 20.8168C3.58657 20.7544 3.53495 20.7052 3.47195 20.7052C3.40651 20.7052 3.35351 20.7582 3.35351 20.8237C3.35351 20.9009 3.40751 21.0349 3.59038 21.0764V21.2973C3.59038 21.3628 3.64332 21.4158 3.70882 21.4158C3.77426 21.4158 3.82726 21.3628 3.82726 21.2973V21.0764C4.01007 21.0349 4.06413 20.9009 4.06413 20.8237C4.06413 20.7582 4.01132 20.7013 3.94595 20.7013C3.88051 20.7013 3.82776 20.7504 3.82776 20.8158C3.8277 20.816 3.82732 20.8163 3.82726 20.8165V20.5176C3.84482 20.5265 3.86263 20.5341 3.8802 20.5402C4.03445 20.5941 4.1957 20.5568 4.28151 20.4487C4.32326 20.3957 4.40401 20.2472 4.2527 20.0101C4.21751 19.955 4.14445 19.9388 4.0892 19.9737C4.03401 20.0089 4.01795 20.0822 4.05313 20.1372C4.10988 20.2265 4.11157 20.2816 4.0957 20.3017C4.07695 20.3255 4.01895 20.3378 3.95795 20.3165C3.91863 20.3029 3.82726 20.2557 3.82726 20.1132C3.82726 19.9994 3.87988 19.8951 3.97163 19.8273C4.06357 19.7593 4.18257 19.7398 4.29726 19.7757C4.43888 19.819 4.53782 19.9682 4.53782 20.1386C4.53782 20.2604 4.5117 20.3838 4.46201 20.4952ZM4.46201 18.7835C4.51157 18.895 4.53776 19.0183 4.53776 19.1402C4.53776 19.3107 4.43888 19.4598 4.2972 19.5031C4.18226 19.539 4.06332 19.5195 3.97157 19.4515C3.87982 19.3837 3.8272 19.2795 3.8272 19.1657C3.8272 19.0232 3.91857 18.976 3.95788 18.9623C4.01882 18.941 4.07695 18.9533 4.09563 18.9772C4.11151 18.9973 4.10982 19.0523 4.05307 19.1417C4.01788 19.1967 4.03395 19.27 4.08913 19.3052C4.14476 19.3403 4.21776 19.3241 4.25263 19.2688C4.40395 19.0317 4.3232 18.8832 4.28145 18.8302C4.19563 18.722 4.03438 18.6852 3.88013 18.7387C3.86257 18.7448 3.84476 18.7523 3.8272 18.7612V18.4617L3.82738 18.462C3.83095 18.5242 3.88257 18.5735 3.94557 18.5735C4.01101 18.5735 4.06401 18.5206 4.06401 18.4551C4.06401 18.3778 4.01001 18.2438 3.82713 18.2023V17.9814C3.82713 17.916 3.7742 17.863 3.7087 17.863C3.64326 17.863 3.59026 17.9159 3.59026 17.9814V18.2023C3.40745 18.2438 3.35338 18.3778 3.35338 18.4551C3.35338 18.5205 3.4062 18.5774 3.47157 18.5774C3.53701 18.5774 3.58976 18.5283 3.58976 18.4629C3.58982 18.4627 3.5902 18.4624 3.5902 18.4624L3.59026 18.7612C3.5727 18.7523 3.55488 18.7447 3.53732 18.7386C3.38307 18.6852 3.22176 18.7219 3.13601 18.8302C3.09426 18.8831 3.01351 19.0316 3.16482 19.2687C3.20001 19.3238 3.27307 19.3398 3.32832 19.3051C3.38351 19.2699 3.39957 19.1966 3.36438 19.1416C3.30763 19.0523 3.30595 18.9972 3.32182 18.9771C3.34045 18.9533 3.39851 18.941 3.45957 18.9623C3.49888 18.9759 3.59026 19.0231 3.59026 19.1656C3.59026 19.2794 3.53763 19.3837 3.44588 19.4515C3.35395 19.5195 3.2352 19.5389 3.12026 19.503C2.97863 19.4598 2.8797 19.3106 2.8797 19.1402C2.8797 19.0182 2.90582 18.895 2.95545 18.7835L3.7087 17.0887L4.46201 18.7835ZM3.82688 16.0865C3.78207 16.1214 3.74232 16.1632 3.70882 16.2103C3.67538 16.1632 3.63557 16.1215 3.59076 16.0865C3.63557 16.0517 3.67532 16.0099 3.70882 15.9627C3.74226 16.0099 3.78195 16.0516 3.82688 16.0865ZM4.46201 13.3895L3.70876 15.0843L2.95551 13.3895C2.90595 13.278 2.87976 13.1548 2.87976 13.0328C2.87976 12.8623 2.97863 12.7132 3.12032 12.67C3.23538 12.6343 3.3542 12.6535 3.44595 12.7215C3.5377 12.7893 3.59032 12.8936 3.59032 13.0075C3.59032 13.15 3.49895 13.1971 3.45963 13.2108C3.39857 13.2323 3.34051 13.2198 3.32188 13.196C3.30601 13.1758 3.3077 13.1208 3.36445 13.0315C3.39963 12.9764 3.38357 12.9032 3.32838 12.868C3.27307 12.833 3.20013 12.8492 3.16488 12.9042C3.01363 13.1413 3.09432 13.2898 3.13607 13.3428C3.22182 13.451 3.38313 13.488 3.53738 13.4343C3.55495 13.4282 3.57276 13.4207 3.59032 13.4118V13.7113L3.59013 13.7109C3.58657 13.6487 3.53495 13.5994 3.47195 13.5994C3.40651 13.5994 3.35351 13.6523 3.35351 13.7178C3.35351 13.7951 3.40751 13.9291 3.59038 13.9706V14.1915C3.59038 14.257 3.64332 14.31 3.70882 14.31C3.77426 14.31 3.82726 14.257 3.82726 14.1915V13.9706C4.01007 13.9291 4.06413 13.7951 4.06413 13.7178C4.06413 13.6524 4.01132 13.5955 3.94595 13.5955C3.88051 13.5955 3.82776 13.6445 3.82776 13.71C3.8277 13.7102 3.82732 13.7105 3.82732 13.7105L3.82726 13.4117C3.84482 13.4207 3.86263 13.4282 3.8802 13.4343C4.03445 13.4879 4.1957 13.451 4.28151 13.3427C4.32326 13.2898 4.40401 13.1413 4.2527 12.9042C4.21751 12.8488 4.14445 12.8327 4.0892 12.8679C4.03401 12.9031 4.01795 12.9764 4.05313 13.0314C4.10988 13.1207 4.11157 13.1758 4.0957 13.1959C4.07695 13.2197 4.01895 13.2323 3.95795 13.2107C3.91863 13.1971 3.82726 13.1499 3.82726 13.0074C3.82726 12.8936 3.87988 12.7893 3.97163 12.7215C4.06357 12.6535 4.18257 12.6343 4.29726 12.6699C4.43888 12.7132 4.53782 12.8623 4.53782 13.0328C4.53782 13.1547 4.5117 13.278 4.46201 13.3895ZM4.46201 11.6778C4.51157 11.7893 4.53776 11.9125 4.53776 12.0345C4.53776 12.205 4.43888 12.3541 4.2972 12.3973C4.18226 12.4332 4.06332 12.4138 3.97157 12.3458C3.87982 12.278 3.8272 12.1737 3.8272 12.0598C3.8272 11.9173 3.91857 11.8702 3.95788 11.8565C4.01882 11.8352 4.07695 11.8475 4.09563 11.8713C4.11151 11.8915 4.10982 11.9465 4.05307 12.0358C4.01788 12.0909 4.03395 12.1642 4.08913 12.1993C4.14476 12.2343 4.21776 12.2183 4.25263 12.163C4.40395 11.9259 4.3232 11.7775 4.28145 11.7245C4.19563 11.6162 4.03438 11.5792 3.88013 11.6329C3.86257 11.639 3.84476 11.6465 3.8272 11.6555V11.356C3.8272 11.356 3.82738 11.3562 3.82738 11.3562C3.83095 11.4185 3.88257 11.4677 3.94557 11.4677C4.01101 11.4677 4.06401 11.4148 4.06401 11.3493C4.06401 11.272 4.01001 11.138 3.82713 11.0965V10.8756C3.82713 10.8102 3.7742 10.7572 3.7087 10.7572C3.64326 10.7572 3.59026 10.8101 3.59026 10.8756V11.0965C3.40745 11.138 3.35338 11.272 3.35338 11.3493C3.35338 11.4147 3.4062 11.4717 3.47157 11.4717C3.53701 11.4717 3.58976 11.4226 3.58976 11.3572C3.58982 11.357 3.5902 11.3567 3.59026 11.3565V11.6554C3.5727 11.6465 3.55488 11.6389 3.53732 11.6328C3.38307 11.5792 3.22176 11.6162 3.13601 11.7244C3.09426 11.7773 3.01351 11.9258 3.16482 12.163C3.20001 12.218 3.27307 12.234 3.32832 12.1993C3.38351 12.1641 3.39957 12.0908 3.36438 12.0358C3.30763 11.9465 3.30595 11.8914 3.32182 11.8713C3.34045 11.8475 3.39851 11.8352 3.45957 11.8565C3.49888 11.8701 3.59026 11.9173 3.59026 12.0598C3.59026 12.1736 3.53763 12.2779 3.44588 12.3457C3.35395 12.4137 3.2352 12.4332 3.12026 12.3973C2.97863 12.354 2.8797 12.2048 2.8797 12.0344C2.8797 11.9125 2.90582 11.7892 2.95545 11.6777L3.7087 9.98297L4.46201 11.6778ZM3.5907 8.98084C3.63551 8.94597 3.67526 8.90422 3.70876 8.85703C3.7422 8.90422 3.78195 8.94591 3.82682 8.98084C3.78201 9.01572 3.74226 9.05747 3.70876 9.10466C3.67532 9.05734 3.63563 9.01559 3.5907 8.98084Z" fill="#FFE15A"/>
        <path d="M17.909 17.5386C19.4832 17.5386 20.7593 16.2625 20.7593 14.6883C20.7593 13.114 19.4832 11.8379 17.909 11.8379C16.3347 11.8379 15.0586 13.114 15.0586 14.6883C15.0586 16.2625 16.3347 17.5386 17.909 17.5386Z" fill="#FFE15A"/>
        <path d="M18.1232 11.0554C18.1232 11.1735 18.0274 11.2692 17.9094 11.2692C17.7913 11.2692 17.6956 11.1735 17.6956 11.0554C17.6956 10.9374 17.9094 10.4141 17.9094 10.4141C17.9094 10.4141 18.1232 10.9374 18.1232 11.0554Z" fill="#FFE15A"/>
        <path d="M17.6956 18.3232C17.6956 18.2051 17.7913 18.1094 17.9094 18.1094C18.0274 18.1094 18.1232 18.2051 18.1232 18.3232C18.1232 18.4413 17.9094 18.9646 17.9094 18.9646C17.9094 18.9646 17.6956 18.4413 17.6956 18.3232Z" fill="#FFE15A"/>
        <path d="M21.5439 14.9022C21.4258 14.9022 21.3301 14.8065 21.3301 14.6884C21.3301 14.5704 21.4258 14.4746 21.5439 14.4746C21.662 14.4746 22.1853 14.6884 22.1853 14.6884C22.1853 14.6884 21.662 14.9022 21.5439 14.9022Z" fill="#FFE15A"/>
        <path d="M14.2749 14.4746C14.393 14.4746 14.4887 14.5704 14.4887 14.6884C14.4887 14.8065 14.393 14.9022 14.2749 14.9022C14.1569 14.9022 13.6335 14.6884 13.6335 14.6884C13.6335 14.6884 14.1569 14.4746 14.2749 14.4746Z" fill="#FFE15A"/>
        <path d="M20.6306 12.2708C20.5471 12.3543 20.4117 12.3543 20.3282 12.2708C20.2448 12.1873 20.2448 12.0519 20.3282 11.9684C20.4117 11.885 20.9329 11.666 20.9329 11.666C20.9329 11.666 20.7142 12.1873 20.6306 12.2708Z" fill="#FFE15A"/>
        <path d="M15.1883 17.1075C15.2718 17.024 15.4071 17.024 15.4907 17.1075C15.5742 17.191 15.5742 17.3264 15.4907 17.4099C15.4072 17.4935 14.886 17.7122 14.886 17.7122C14.886 17.7122 15.1048 17.191 15.1883 17.1075Z" fill="#FFE15A"/>
        <path d="M20.3282 17.4099C20.2448 17.3264 20.2448 17.1911 20.3282 17.1076C20.4117 17.024 20.5471 17.0241 20.6306 17.1076C20.7142 17.1911 20.933 17.7123 20.933 17.7123C20.933 17.7123 20.4117 17.4934 20.3282 17.4099Z" fill="#FFE15A"/>
        <path d="M15.4907 11.9683C15.5742 12.0518 15.5742 12.1871 15.4907 12.2707C15.4072 12.3543 15.2719 12.3542 15.1884 12.2707C15.1048 12.1872 14.886 11.666 14.886 11.666C14.886 11.666 15.4072 11.8849 15.4907 11.9683Z" fill="#FFE15A"/>
        <path d="M16.7162 11.2491C16.7614 11.3582 16.7096 11.4832 16.6004 11.5284C16.4913 11.5736 16.3663 11.5218 16.3211 11.4127C16.2759 11.3035 16.2732 10.7383 16.2732 10.7383C16.2732 10.7383 16.671 11.14 16.7162 11.2491Z" fill="#FFE15A"/>
        <path d="M19.103 18.1296C19.0578 18.0205 19.1096 17.8955 19.2187 17.8503C19.3279 17.8051 19.4529 17.8569 19.4981 17.9661C19.5433 18.0752 19.546 18.6404 19.546 18.6404C19.546 18.6404 19.1481 18.2388 19.103 18.1296Z" fill="#FFE15A"/>
        <path d="M21.3491 13.4957C21.24 13.5409 21.115 13.4891 21.0698 13.38C21.0246 13.2709 21.0764 13.1459 21.1855 13.1007C21.2947 13.0555 21.8599 13.0527 21.8599 13.0527C21.8599 13.0527 21.4582 13.4505 21.3491 13.4957Z" fill="#FFE15A"/>
        <path d="M14.4698 15.8816C14.5789 15.8364 14.7039 15.8882 14.7491 15.9973C14.7943 16.1064 14.7425 16.2314 14.6334 16.2766C14.5242 16.3218 13.959 16.3246 13.959 16.3246C13.959 16.3246 14.3607 15.9268 14.4698 15.8816Z" fill="#FFE15A"/>
        <path d="M19.4978 11.4126C19.4526 11.5217 19.3275 11.5735 19.2185 11.5283C19.1094 11.4832 19.0576 11.3581 19.1027 11.249C19.1479 11.1399 19.5457 10.7383 19.5457 10.7383C19.5457 10.7383 19.543 11.3035 19.4978 11.4126Z" fill="#FFE15A"/>
        <path d="M16.3211 17.966C16.3663 17.8569 16.4913 17.8052 16.6004 17.8503C16.7094 17.8955 16.7613 18.0205 16.7161 18.1296C16.6709 18.2387 16.2732 18.6403 16.2732 18.6403C16.2732 18.6403 16.2759 18.075 16.3211 17.966Z" fill="#FFE15A"/>
        <path d="M21.1853 16.2786C21.0761 16.2334 21.0244 16.1083 21.0695 15.9992C21.1147 15.8901 21.2398 15.8384 21.3488 15.8835C21.458 15.9287 21.8596 16.3264 21.8596 16.3264C21.8596 16.3264 21.2944 16.3238 21.1853 16.2786Z" fill="#FFE15A"/>
        <path d="M14.6333 13.1006C14.7424 13.1458 14.7942 13.2709 14.749 13.3799C14.7039 13.489 14.5788 13.5408 14.4697 13.4957C14.3606 13.4505 13.959 13.0527 13.959 13.0527C13.959 13.0527 14.5243 13.0554 14.6333 13.1006Z" fill="#FFE15A"/>
        <path d="M17.4102 11.0835C17.4332 11.1993 17.358 11.3118 17.2422 11.3348C17.1264 11.3579 17.0138 11.2827 16.9908 11.1668C16.9677 11.051 17.0754 10.4961 17.0754 10.4961C17.0754 10.4961 17.3871 10.9677 17.4102 11.0835Z" fill="#FFE15A"/>
        <path d="M18.4087 18.2965C18.3856 18.1807 18.4609 18.0682 18.5767 18.0452C18.6925 18.0221 18.8051 18.0974 18.8281 18.2132C18.8511 18.329 18.7435 18.8839 18.7435 18.8839C18.7435 18.8839 18.4317 18.4124 18.4087 18.2965Z" fill="#FFE15A"/>
        <path d="M21.5158 14.1902C21.4 14.2133 21.2874 14.1381 21.2644 14.0222C21.2413 13.9064 21.3165 13.7938 21.4324 13.7708C21.5482 13.7478 22.1032 13.8554 22.1032 13.8554C22.1032 13.8554 21.6316 14.1671 21.5158 14.1902Z" fill="#FFE15A"/>
        <path d="M14.303 15.1878C14.4188 15.1647 14.5313 15.2399 14.5543 15.3558C14.5774 15.4716 14.5021 15.5841 14.3863 15.6071C14.2705 15.6302 13.7156 15.5226 13.7156 15.5226C13.7156 15.5226 14.1871 15.2108 14.303 15.1878Z" fill="#FFE15A"/>
        <path d="M20.1064 11.7869C20.0409 11.8851 19.9081 11.9115 19.8099 11.8458C19.7117 11.7803 19.6853 11.6475 19.7509 11.5493C19.8165 11.4511 20.285 11.1348 20.285 11.1348C20.285 11.1348 20.1721 11.6886 20.1064 11.7869Z" fill="#FFE15A"/>
        <path d="M15.7123 17.5931C15.7778 17.4949 15.9106 17.4685 16.0088 17.5341C16.107 17.5997 16.1334 17.7325 16.0678 17.8307C16.0022 17.9288 15.5337 18.2452 15.5337 18.2452C15.5337 18.2452 15.6467 17.6914 15.7123 17.5931Z" fill="#FFE15A"/>
        <path d="M20.8125 16.8857C20.7144 16.8201 20.688 16.6873 20.7536 16.5891C20.8192 16.491 20.952 16.4646 21.0502 16.5302C21.1484 16.5958 21.4647 17.0643 21.4647 17.0643C21.4647 17.0643 20.9107 16.9513 20.8125 16.8857Z" fill="#FFE15A"/>
        <path d="M15.0061 12.493C15.1043 12.5586 15.1308 12.6914 15.0651 12.7896C14.9995 12.8878 14.8667 12.9141 14.7685 12.8485C14.6703 12.7829 14.354 12.3145 14.354 12.3145C14.354 12.3145 14.908 12.4275 15.0061 12.493Z" fill="#FFE15A"/>
        <path d="M16.0678 11.5492C16.1333 11.6474 16.1069 11.7801 16.0088 11.8458C15.9106 11.9113 15.7779 11.885 15.7123 11.7868C15.6467 11.6886 15.5337 11.1348 15.5337 11.1348C15.5337 11.1348 16.0022 11.4511 16.0678 11.5492Z" fill="#FFE15A"/>
        <path d="M19.7509 17.8306C19.6853 17.7325 19.7117 17.5997 19.8098 17.5341C19.908 17.4685 20.0408 17.4949 20.1064 17.593C20.1719 17.6912 20.2849 18.2451 20.2849 18.2451C20.2849 18.2451 19.8165 17.9288 19.7509 17.8306Z" fill="#FFE15A"/>
        <path d="M21.0501 12.8485C20.952 12.9141 20.8192 12.8877 20.7536 12.7896C20.688 12.6914 20.7144 12.5586 20.8125 12.493C20.9106 12.4275 21.4646 12.3145 21.4646 12.3145C21.4646 12.3145 21.1483 12.783 21.0501 12.8485Z" fill="#FFE15A"/>
        <path d="M14.7687 16.5302C14.8668 16.4646 14.9996 16.491 15.0652 16.5891C15.1308 16.6873 15.1044 16.8201 15.0063 16.8857C14.9081 16.9512 14.3542 17.0642 14.3542 17.0642C14.3542 17.0642 14.6705 16.5958 14.7687 16.5302Z" fill="#FFE15A"/>
        <path d="M18.8281 11.1668C18.805 11.2826 18.6925 11.3578 18.5767 11.3348C18.4609 11.3117 18.3856 11.1992 18.4087 11.0834C18.4318 10.9676 18.7435 10.4961 18.7435 10.4961C18.7435 10.4961 18.8511 11.0509 18.8281 11.1668Z" fill="#FFE15A"/>
        <path d="M16.9908 18.2132C17.0138 18.0974 17.1263 18.0221 17.2421 18.0452C17.358 18.0682 17.4332 18.1807 17.4101 18.2965C17.3871 18.4124 17.0753 18.8839 17.0753 18.8839C17.0753 18.8839 16.9678 18.329 16.9908 18.2132Z" fill="#FFE15A"/>
        <path d="M21.4324 15.6071C21.3166 15.5841 21.2413 15.4716 21.2644 15.3558C21.2875 15.2399 21.4 15.1647 21.5158 15.1877C21.6316 15.2108 22.1032 15.5226 22.1032 15.5226C22.1032 15.5226 21.5482 15.6301 21.4324 15.6071Z" fill="#FFE15A"/>
        <path d="M14.3863 13.7708C14.5021 13.7939 14.5774 13.9064 14.5543 14.0222C14.5313 14.138 14.4188 14.2132 14.303 14.1902C14.1871 14.1671 13.7156 13.8554 13.7156 13.8554C13.7156 13.8554 14.2705 13.7478 14.3863 13.7708Z" fill="#FFE15A"/>
        <path d="M24.6146 15.4393C24.5311 15.4042 24.4357 15.4444 24.4009 15.5274C24.4009 15.5278 24.4009 15.5278 24.4009 15.5278C24.4002 15.5294 24.397 15.5371 24.3914 15.5502C24.2679 15.8388 24.0122 16.2606 23.7541 16.6574C23.9946 15.8835 24.2143 15.0569 24.2297 14.9987C24.2526 14.9119 24.2012 14.8228 24.1146 14.7992C24.0277 14.7759 23.9385 14.8264 23.9142 14.9129C23.802 15.3149 23.5726 15.8439 23.3609 16.2918C23.3997 15.7924 23.407 15.3298 23.4075 15.2963C23.4087 15.2079 23.3395 15.1347 23.251 15.1306C23.1678 15.1331 23.0876 15.1938 23.081 15.2822C22.8717 18.1614 20.1011 19.4494 19.8313 19.5679C19.6902 19.582 19.0327 19.6561 18.4361 19.8632C18.3683 19.8867 18.3108 19.9103 18.2534 19.9337C18.2321 19.9257 18.2092 19.9212 18.1852 19.9226C16.3538 20.0551 14.8936 19.3039 13.8441 17.6944C13.0511 16.4782 12.8024 15.2017 12.8 15.189C12.7833 15.1002 12.6983 15.0431 12.6091 15.0587C12.5204 15.0756 12.4621 15.1609 12.4789 15.2496C12.4855 15.2849 12.5946 15.8421 12.8951 16.5754C12.4931 15.9407 12.2129 15.1718 12.1143 14.7714C12.1123 14.7634 12.1071 14.7573 12.1041 14.7499C12.0996 14.7386 12.0956 14.7272 12.0888 14.7174C12.084 14.7105 12.0777 14.7054 12.072 14.6994C12.0631 14.6899 12.0545 14.6807 12.0436 14.6736C12.0373 14.6696 12.0303 14.6676 12.0235 14.6644C12.0114 14.6587 11.9996 14.6532 11.9862 14.6507C11.9769 14.6489 11.9674 14.6501 11.9577 14.6499C11.9479 14.6498 11.9386 14.6473 11.9286 14.6491C11.9264 14.6494 11.9248 14.6509 11.9226 14.6514C11.9204 14.6519 11.9184 14.6512 11.9163 14.6516C11.9076 14.6537 11.9009 14.6592 11.8929 14.6627C11.8827 14.6671 11.8723 14.6704 11.8633 14.6766C11.8545 14.6827 11.8479 14.6906 11.8406 14.6981C11.8333 14.7056 11.8257 14.7122 11.8199 14.7209C11.8141 14.7297 11.811 14.7397 11.8069 14.7495C11.8029 14.7591 11.7984 14.7681 11.7963 14.7784C11.7942 14.7889 11.7951 14.7998 11.7952 14.8109C11.7952 14.8197 11.7928 14.8281 11.7943 14.8371C11.7949 14.8409 11.7962 14.8449 11.7969 14.8486V14.8492C11.7971 14.8499 11.7973 14.8509 11.7975 14.8516C11.8986 15.4474 12.1396 16.0651 12.3576 16.5361C12.0115 16.1434 11.7223 15.6909 11.6198 15.423C11.6169 15.4152 11.6109 15.4097 11.6069 15.4027C11.6009 15.3919 11.5956 15.3809 11.5874 15.3719C11.5816 15.3656 11.5745 15.3614 11.5679 15.3561C11.5579 15.3481 11.5485 15.3401 11.537 15.3346C11.5296 15.3311 11.5216 15.3299 11.5138 15.3275C11.5018 15.3239 11.4901 15.3199 11.4773 15.3191C11.4672 15.3184 11.4572 15.3209 11.447 15.3222C11.4376 15.3234 11.4283 15.3222 11.4189 15.3252C11.4171 15.3257 11.4158 15.3272 11.4141 15.3278C11.4124 15.3284 11.4106 15.328 11.4089 15.3287C11.4 15.3321 11.3937 15.3386 11.3858 15.3433C11.3764 15.3488 11.3665 15.3534 11.3586 15.3605C11.3504 15.3678 11.3448 15.3769 11.3384 15.3856C11.3324 15.3937 11.3256 15.4011 11.3211 15.4102C11.3164 15.4197 11.3147 15.4301 11.312 15.4404C11.3093 15.4505 11.3058 15.4599 11.3051 15.4704C11.3043 15.481 11.3069 15.4916 11.3083 15.5022C11.3095 15.5115 11.3083 15.5207 11.3111 15.5298C11.489 16.1036 11.9168 16.7862 12.2519 17.2671C11.9726 17.0519 11.7674 16.8191 11.7078 16.7489C11.7014 16.7412 11.6951 16.7336 11.6886 16.7259C11.631 16.6566 11.5291 16.6467 11.4594 16.7032C11.3898 16.7601 11.3789 16.8623 11.4351 16.9321C11.4382 16.936 11.4504 16.9513 11.4709 16.9752C11.7161 17.2671 11.9833 17.5394 12.2254 17.7693L11.8943 17.6282C11.8188 17.5956 11.73 17.625 11.6886 17.6968C11.6473 17.7687 11.6659 17.8596 11.7322 17.9094C11.7644 17.9334 12.3508 18.3714 12.8584 18.6303C12.8106 18.6332 12.7544 18.6297 12.6915 18.6249C12.6148 18.6175 12.5393 18.6724 12.5206 18.7503C12.5022 18.8285 12.5431 18.9084 12.6173 18.939C12.6298 18.9441 12.7845 19.0079 12.9755 19.0759C12.9309 19.0941 12.8955 19.1315 12.8808 19.18C12.8588 19.2525 12.8898 19.3311 12.9555 19.3687C12.9726 19.3786 13.2037 19.5111 13.4896 19.6286C13.482 19.6404 13.4758 19.6532 13.4711 19.6672C13.4488 19.7358 13.4743 19.8112 13.5339 19.8524C13.5835 19.8865 14.6938 20.64 15.9906 20.64C16.0757 20.64 16.1617 20.6368 16.2482 20.6298C16.3381 20.6227 16.4053 20.5439 16.3981 20.4539C16.3909 20.3638 16.3129 20.2958 16.2221 20.3041C15.4074 20.3706 14.6226 20.0647 14.1559 19.8309C14.2175 19.8159 14.2529 19.8022 14.2617 19.7987C14.3337 19.7693 14.3752 19.6936 14.3612 19.6173C14.3471 19.5409 14.2814 19.4851 14.2036 19.4835C14.0141 19.4796 13.7517 19.3874 13.5256 19.2884C13.611 19.2456 13.6609 19.2047 13.6653 19.2012C13.7144 19.16 13.7352 19.0942 13.7184 19.0323C13.7016 18.9707 13.6501 18.9244 13.5869 18.9142C13.5175 18.9027 13.431 18.8803 13.3403 18.8529C13.4284 18.8021 13.4659 18.7462 13.4803 18.7178C13.503 18.6725 13.5035 18.6194 13.4818 18.5738C13.4599 18.5282 13.4182 18.4952 13.3687 18.4847C13.3259 18.4754 13.2775 18.4598 13.2252 18.4394C13.2348 18.4298 13.2436 18.4189 13.2507 18.4065C13.2923 18.3359 13.2751 18.2452 13.2105 18.1945C13.2071 18.1919 13.0803 18.0923 12.8881 17.9266C12.9186 17.9154 12.9456 17.8947 12.9651 17.8666C13.0063 17.8072 13.0033 17.7277 12.9582 17.6715C12.9546 17.667 12.8275 17.5072 12.6524 17.2646C12.7102 17.3095 12.7679 17.3554 12.8257 17.3925C12.8529 17.4097 12.8836 17.4184 12.9141 17.4184C12.9555 17.4184 12.9963 17.4027 13.0278 17.3724C13.0407 17.3599 13.0508 17.3455 13.0588 17.3302C13.158 17.4361 13.2622 17.5323 13.3716 17.6144C13.3859 17.6251 13.4032 17.6249 13.4192 17.6302C13.4656 17.708 13.5138 17.7859 13.5644 17.8637C14.5571 19.3911 15.9568 20.2092 17.6356 20.2584C17.481 20.3522 17.3132 20.4492 17.0475 20.5527C16.9895 20.5754 16.9382 20.598 16.8867 20.6207C16.8619 20.6256 16.8386 20.6346 16.819 20.65C16.3552 20.8647 16.1632 21.0768 16.0854 21.2252C16.0076 21.3727 16.0747 21.524 16.1696 21.6026C16.1991 21.6268 16.2367 21.6392 16.2744 21.6392C16.3002 21.6392 16.3261 21.6335 16.3496 21.6217C16.4074 21.5929 16.446 21.5319 16.4434 21.4678C16.4501 21.4604 16.4786 21.4369 16.5676 21.4339C16.6326 21.4285 16.7692 21.4432 16.9287 21.456C17.0805 21.4685 17.2625 21.4827 17.456 21.4926C17.3349 21.6337 17.1942 21.7973 17.1942 21.7973C17.152 21.8465 17.1427 21.9161 17.1708 21.9745C17.1991 22.0332 17.2599 22.0697 17.3237 22.0674C17.4529 22.0629 17.5407 22.0603 17.5983 22.0591C17.6486 22.1249 17.7102 22.1511 17.7499 22.1612C17.8624 22.19 17.9744 22.145 18.0588 22.0917C18.1227 22.1377 18.1866 22.1571 18.2372 22.1644C18.3513 22.1801 18.4571 22.1469 18.5334 22.1092C18.6126 22.1603 18.6902 22.1734 18.7493 22.1734C18.7501 22.1734 18.7511 22.1734 18.752 22.1734C18.8795 22.1727 18.9911 22.1111 19.0701 22.0507C19.1399 22.0922 19.2066 22.1056 19.2582 22.1079C19.3752 22.1121 19.4722 22.0671 19.5367 22.0249C19.7671 22.0711 19.9657 21.9626 20.0969 21.8429C20.1568 21.8777 20.2137 21.8863 20.2591 21.8841C20.3758 21.8799 20.4647 21.809 20.5217 21.7455C20.7829 21.7771 20.9704 21.7289 21.0787 21.6002C21.1378 21.5303 21.1617 21.4515 21.1682 21.3796C21.8929 21.3755 21.9584 20.9799 21.9637 20.931C21.9685 20.8866 21.955 20.8422 21.9261 20.8081C21.8974 20.774 21.8557 20.7529 21.8112 20.7503L19.9114 20.6361C19.8319 20.6303 19.761 20.6836 19.7426 20.7612C19.7422 20.7626 19.7099 20.8832 19.6085 20.9797C19.4722 21.1099 19.2526 21.1786 19.0137 21.2151C19.0146 21.1932 19.0116 21.1709 19.0032 21.1492C18.9706 21.0649 18.8758 21.024 18.7918 21.0556C18.3996 21.2078 17.7646 21.1887 17.2679 21.1541C17.3441 21.0919 17.4358 21.0302 17.5091 20.9899C17.5711 20.9558 17.6043 20.8859 17.5912 20.8162C17.5817 20.7657 17.5451 20.7305 17.5011 20.7079C17.6392 20.6381 17.7524 20.5707 17.8599 20.5052C18.0464 20.391 18.2226 20.2834 18.5434 20.1719C19.1628 19.9567 19.8796 19.8913 19.8868 19.8906C19.9031 19.8894 19.9191 19.8852 19.9342 19.8791C19.9597 19.8686 21.9816 19.0216 22.9342 17.0672C22.9217 17.1262 22.9083 17.1802 22.8937 17.2274C22.8689 17.3079 22.9091 17.3938 22.9866 17.4263C23.0466 17.4516 23.1148 17.4384 23.161 17.3957C23.1008 17.5544 23.0464 17.6792 23.0019 17.7529C22.9566 17.828 22.9785 17.9254 23.0514 17.9739C23.0686 17.9851 23.0869 17.9927 23.1057 17.9972C23.0319 18.1051 22.9572 18.2072 22.8826 18.3009C22.833 18.3631 22.8359 18.4519 22.8877 18.5107C22.7597 18.6447 22.6462 18.7552 22.56 18.8255C22.5036 18.8711 22.4853 18.9475 22.5112 19.0126C22.428 19.0602 22.3597 19.0937 22.3123 19.1081C22.2328 19.132 22.184 19.2121 22.199 19.2939C22.2068 19.337 22.2311 19.3734 22.2646 19.3973C22.1646 19.4241 22.0552 19.45 21.9365 19.4736C21.8696 19.4869 21.8181 19.5402 21.8071 19.6076C21.7962 19.675 21.8282 19.7421 21.8873 19.7759C21.8924 19.7787 21.9482 19.8104 22.0337 19.8467C21.7176 19.9741 21.1529 20.1405 20.2263 20.2318C20.1366 20.2407 20.0708 20.3209 20.0797 20.4106C20.0885 20.5004 20.1661 20.5626 20.2585 20.5575C22.0174 20.3835 22.5605 19.9432 22.5827 19.9243C22.6334 19.8818 22.6536 19.8126 22.6334 19.7494C22.6201 19.7075 22.5907 19.6737 22.5529 19.6542C23.1149 19.4773 23.3561 19.2816 23.3687 19.2711C23.4302 19.2199 23.4458 19.1316 23.4052 19.0622C23.3644 18.9929 23.2793 18.9629 23.2051 18.9929C23.1842 19.0009 23.1508 19.0092 23.1086 19.0175C23.4857 18.7592 23.8861 18.4517 24.0621 18.3144C24.0931 18.2915 24.1212 18.2694 24.1459 18.2486C24.2143 18.1912 24.2239 18.0897 24.1675 18.0204C24.1114 17.9514 24.0094 17.9399 23.9396 17.9951C23.9141 18.0152 23.8875 18.036 23.8601 18.0574C23.7788 18.1177 23.6749 18.1861 23.5615 18.2562C23.9895 17.7703 24.4203 17.2435 24.5434 17.0922C24.5546 17.0784 24.5656 17.0647 24.5768 17.051C24.6333 16.9807 24.6223 16.8779 24.5521 16.8214C24.4816 16.764 24.3787 16.7758 24.3223 16.8457L24.3219 16.846L24.3218 16.8464C24.3187 16.8499 24.3049 16.8671 24.2816 16.8959C24.1527 17.0532 24.0169 17.2056 23.883 17.3479C24.319 16.5577 24.6491 15.7799 24.6975 15.6647C24.6992 15.6606 24.7009 15.6564 24.7026 15.6522C24.7374 15.5696 24.698 15.4738 24.6146 15.4393ZM16.9527 20.9498L16.9974 20.9556C16.9426 21.0068 16.8981 21.0642 16.8627 21.1234C16.7851 21.1172 16.7146 21.1118 16.6594 21.1092C16.7355 21.0595 16.8334 21.0056 16.9527 20.9498Z" fill="#FFE15A"/>
    </g>
    <defs>
        <clipPath id="clip0">
            <rect width="32" height="32" fill="white" transform="translate(0.987793)"/>
        </clipPath>
    </defs>
</svg>
