<svg width="228" height="32" viewBox="0 0 228 32" fill="none" xmlns="http://www.w3.org/2000/svg">
    <path d="M46.5183 19.5771L46.6036 19.4929H47.0299L47.1152 19.5771C47.1578 20.3353 47.2004 20.7986 47.2431 20.967C47.2857 21.1355 47.4562 21.304 47.712 21.5146C47.9678 21.683 48.3516 21.8515 48.7779 21.9779C49.2042 22.1042 49.6732 22.1463 50.1422 22.1463C50.7817 22.1463 51.3359 22.02 51.8475 21.8094C52.3592 21.5988 52.7429 21.2619 52.9987 20.7986C53.2545 20.3353 53.425 19.872 53.425 19.3244C53.425 18.9454 53.3397 18.6084 53.2118 18.3136C53.0839 18.0188 52.8708 17.8082 52.6576 17.6397C52.4444 17.4712 52.146 17.3449 51.8475 17.2607C51.5491 17.1764 51.0801 17.0922 50.4833 16.9658C49.8864 16.8816 49.4174 16.7974 49.0763 16.7131C48.7353 16.6289 48.3942 16.5025 48.0957 16.3762C47.7547 16.2077 47.4989 16.0392 47.2857 15.7865C47.0725 15.5338 46.902 15.239 46.7315 14.902C46.5609 14.5651 46.5183 14.186 46.5183 13.7649C46.5183 12.6698 46.902 11.7853 47.6694 11.0693C48.4368 10.3533 49.46 10.0164 50.7817 10.0164C51.2933 10.0164 51.8475 10.1006 52.4444 10.1848C53.0413 10.3112 53.5955 10.4797 54.1072 10.7324L54.1498 10.8587C54.0219 11.4063 53.9366 12.1644 53.894 13.1752L53.8087 13.2594H53.3397L53.2545 13.2173C53.2545 12.5013 53.2118 12.0801 53.2118 11.9117C53.1692 11.7432 52.9134 11.4905 52.4018 11.2378C51.8902 10.9851 51.3359 10.8166 50.7391 10.8166C50.2274 10.8166 49.7585 10.9008 49.3321 11.1114C48.9058 11.322 48.5647 11.6168 48.3516 12.038C48.1384 12.4592 48.0105 12.8804 48.0105 13.3437C48.0105 13.6806 48.0957 13.9755 48.2236 14.2703C48.3516 14.5651 48.5221 14.7336 48.7353 14.902C48.9484 15.0705 49.2042 15.1548 49.5027 15.239C49.8011 15.3232 50.3127 15.4075 51.0801 15.5338C52.146 15.6602 52.8708 15.8708 53.3824 16.0814C53.8514 16.2919 54.2351 16.6289 54.5335 17.0501C54.8319 17.5134 54.9598 18.0609 54.9598 18.6927C54.9598 19.9562 54.4482 20.967 53.425 21.8094C52.4018 22.6518 51.1654 23.0729 49.6732 23.0729C48.4368 23.0729 47.371 22.8624 46.433 22.4412L46.3904 22.3148C46.433 21.7673 46.4757 20.9249 46.5183 19.5771Z" fill="#002F6C"/>
    <path d="M72.0557 10.2272L72.1409 10.3114V10.7326L72.0557 10.7747C71.4162 10.7747 70.9898 10.8168 70.8619 10.8589C70.6914 10.9011 70.6061 10.9853 70.5208 11.1117C70.4356 11.238 70.4356 11.4486 70.3929 11.7434C70.3929 12.0804 70.3503 12.9648 70.3503 14.439V18.4823C70.3503 19.072 70.3503 19.7458 70.3929 20.4619C70.4356 21.1779 70.4356 21.6412 70.5208 21.7675C70.6061 21.8939 70.6914 21.9781 70.8193 22.0202C70.9472 22.0623 71.3735 22.1045 72.0983 22.1466L72.1836 22.1887V22.6099L72.0983 22.6941C71.1177 22.652 70.3077 22.6099 69.5829 22.6099C69.1139 22.6099 68.2612 22.652 67.1101 22.6941L67.0248 22.6099V22.1887L67.1101 22.1045C67.7496 22.1045 68.176 22.0623 68.3039 22.0202C68.4744 21.9781 68.5597 21.8939 68.6449 21.7675C68.7302 21.6412 68.7302 21.4306 68.7728 21.1357C68.8155 20.8409 68.8155 19.9143 68.8155 18.4823V12.0383L65.7458 18.356C64.9784 19.9564 64.2963 21.4306 63.742 22.8205H63.3583C63.0172 22.0623 62.7614 21.4727 62.5483 21.0094L58.2849 12.291V18.4402C58.2849 19.0298 58.2848 19.6616 58.3275 20.4197C58.3275 21.1779 58.3701 21.599 58.4554 21.7254C58.498 21.8517 58.6259 21.936 58.7538 21.9781C58.8817 22.0202 59.3081 22.0623 60.0328 22.1045L60.1181 22.1887V22.6099L60.0328 22.6941L59.4786 22.652C58.8817 22.6099 58.3701 22.6099 57.9864 22.6099C57.8159 22.6099 57.0911 22.652 55.8547 22.6941L55.7694 22.6099V22.1887L55.8547 22.1045C56.4942 22.1045 56.9206 22.0623 57.0485 22.0202C57.1764 21.9781 57.3043 21.8939 57.3895 21.7675C57.4748 21.6412 57.5174 21.4306 57.5174 21.1357C57.5174 20.8409 57.5601 19.9143 57.5601 18.4402V14.439C57.5601 13.8914 57.5601 13.2597 57.5174 12.5015C57.4748 11.7434 57.4748 11.2801 57.3895 11.1959C57.3469 11.0695 57.219 10.9853 57.0911 10.9432C56.9632 10.9011 56.5369 10.8589 55.8121 10.8168L55.7268 10.7326V10.3114L55.8121 10.2272C56.2384 10.2693 56.75 10.2693 57.4748 10.2693C58.1143 10.2693 58.7112 10.2693 59.1802 10.2272C59.6918 11.3644 60.1608 12.3752 60.6297 13.3018L63.9978 20.1249L67.0248 13.8493C67.8349 12.1646 68.3891 10.9432 68.6876 10.1851C69.2418 10.2272 69.7961 10.2272 70.3503 10.2272C70.8193 10.2693 71.4162 10.2272 72.0557 10.2272Z" fill="#002F6C"/>
    <path d="M72.9507 22.6526L72.8655 22.5684V22.1051L72.9507 22.0208C73.3771 22.0208 73.6755 21.9787 73.8034 21.9366C73.9313 21.8945 74.0592 21.8103 74.1445 21.726C74.2298 21.5997 74.4429 21.2206 74.7414 20.5888L75.6793 18.6093L78.1095 13.2182C78.5785 12.1652 79.0048 11.1123 79.4738 10.0593H80.0706L83.8651 18.862L84.3767 20.0413C84.5046 20.3782 84.6751 20.7573 84.8883 21.1364C85.1015 21.5154 85.2294 21.7681 85.272 21.8103C85.3573 21.8945 85.4425 21.9366 85.5278 21.9787C85.6557 22.0208 85.8689 22.0208 86.2526 22.063L86.3379 22.1472V22.6105L86.2526 22.6947C85.6131 22.6526 85.0588 22.6105 84.5472 22.6105C83.5666 22.6526 82.5861 22.6526 81.6055 22.6947L81.5202 22.6105V22.1472L81.6055 22.063C82.2876 22.063 82.6713 22.0208 82.8419 21.9787C83.0124 21.9366 83.0977 21.8524 83.0977 21.6839C83.0977 21.5575 83.055 21.3891 82.9698 21.1785L81.8613 18.4829H76.7025L75.722 20.7152C75.5514 21.1364 75.4662 21.4312 75.4662 21.5997C75.4662 21.726 75.5514 21.8524 75.722 21.9366C75.8925 22.0208 76.2762 22.063 76.9157 22.063L77.001 22.1472V22.6105L76.9157 22.6947C76.1483 22.6526 75.4662 22.6105 74.9119 22.6105C74.2724 22.5684 73.6329 22.6105 72.9507 22.6526ZM77.001 17.7248H81.4776L79.2606 12.4179L77.001 17.7248Z" fill="#002F6C"/>
    <path d="M87.1062 10.2689L87.1915 10.2268C88.2573 10.2689 89.11 10.311 89.7069 10.311C90.389 10.311 91.2843 10.311 92.4355 10.2689C92.8618 10.2689 93.1602 10.2689 93.3308 10.2689C94.823 10.2689 95.8462 10.5216 96.3578 11.0692C96.8694 11.6167 97.1679 12.2485 97.1679 12.9645C97.1679 13.4699 97.0399 13.9332 96.7841 14.3965C96.5283 14.8598 96.1446 15.281 95.633 15.6179C95.1214 15.9549 94.4393 16.2076 93.544 16.376C93.7145 16.5866 94.0129 17.0078 94.4393 17.5553L95.7183 19.1979C96.1446 19.7455 96.571 20.3351 97.0399 20.9248C97.5089 21.5144 97.8074 21.8935 97.9353 21.9356C98.0632 22.0199 98.1911 22.062 98.2763 22.062C98.3616 22.062 98.5321 22.1041 98.7453 22.1041L98.8306 22.1883V22.6095L98.7453 22.6937C98.4469 22.6516 98.1058 22.6516 97.7221 22.6516C97.2958 22.6516 96.8268 22.6516 96.3578 22.6937C95.9315 22.1883 95.2919 21.346 94.4393 20.1245C93.416 18.7346 92.3928 17.429 91.327 16.2076L91.4122 15.9549C91.7107 15.9549 91.9665 15.997 92.137 15.997C93.1602 15.997 93.9703 15.7443 94.5245 15.281C95.1214 14.7756 95.3772 14.1017 95.3772 13.2593C95.3772 12.5012 95.1214 11.9115 94.6098 11.4903C94.0982 11.1113 93.3734 10.9007 92.4781 10.9007C91.8386 10.9007 91.2843 10.9849 90.7301 11.1534C90.6448 11.2798 90.6022 12.3748 90.6022 14.4386V18.4819V20.2088C90.6022 20.8827 90.6448 21.3038 90.6448 21.4723C90.6875 21.6829 90.7301 21.8093 90.7727 21.8514C90.8154 21.9356 90.9433 21.9777 91.1138 22.0199C91.2843 22.062 91.668 22.1041 92.3076 22.1041L92.3928 22.1462V22.5674L92.3076 22.6516C92.2649 22.6516 91.7533 22.6516 90.7301 22.6095C90.3038 22.6095 89.9627 22.6095 89.7495 22.6095C89.579 22.6095 88.7263 22.6516 87.1915 22.6937L87.1062 22.6095V22.1883L87.1915 22.1462C87.7457 22.1041 88.1294 22.1041 88.3 22.062C88.4705 22.0199 88.5984 21.9777 88.6837 21.9356C88.7263 21.8935 88.8116 21.7671 88.8542 21.5987C88.8968 21.4302 88.8968 21.009 88.9395 20.3773V18.5241V14.4807V12.7539C88.9395 12.08 88.8968 11.6588 88.8968 11.4482C88.8968 11.2376 88.8116 11.1113 88.7689 11.0692C88.7263 10.9849 88.5984 10.9428 88.4279 10.9007C88.2573 10.8586 87.8736 10.8165 87.2341 10.8165L87.1488 10.7743V10.2689H87.1062Z" fill="#002F6C"/>
    <path d="M109.573 10.1851L109.658 10.2693C109.616 10.8168 109.573 11.7013 109.573 13.007L109.488 13.0912H109.061L108.976 13.007L108.891 12.2067C108.848 11.7855 108.806 11.4907 108.763 11.4065C108.72 11.3222 108.678 11.238 108.635 11.1959C108.592 11.1538 108.379 11.1117 108.038 11.0695C107.697 11.0274 107.356 11.0274 106.93 11.0274H105.267C105.224 12.3331 105.182 13.1333 105.182 13.3018V18.3981V20.1249C105.182 20.7988 105.224 21.22 105.224 21.4306C105.267 21.6412 105.31 21.7675 105.352 21.8096C105.395 21.8518 105.523 21.936 105.693 21.9781C105.864 22.0202 106.247 22.0623 106.887 22.0623L106.93 22.1045V22.5256L106.887 22.6099C105.352 22.5678 104.542 22.5256 104.329 22.5256C104.158 22.5256 103.306 22.5678 101.814 22.6099L101.728 22.5256V22.1045L101.814 22.0623C102.368 22.0202 102.751 22.0202 102.922 21.9781C103.093 21.936 103.22 21.8939 103.306 21.8518C103.348 21.8096 103.434 21.6833 103.476 21.5148C103.519 21.3463 103.519 20.9252 103.519 20.2934V18.4402V13.3439C103.519 13.2597 103.476 12.5015 103.434 11.0695H102.112C101.558 11.0695 101.089 11.0695 100.705 11.1117C100.321 11.1538 100.066 11.1959 100.023 11.2801C99.9803 11.3644 99.895 11.7013 99.8524 12.2067L99.7671 13.007L99.6818 13.0912H99.2555L99.1702 13.007C99.1702 11.6171 99.1276 10.6905 99.085 10.2693L99.1702 10.1851C100.193 10.2272 101.899 10.2693 104.329 10.2693C106.887 10.2693 108.592 10.2272 109.573 10.1851Z" fill="#002F6C"/>
    <path d="M121.458 16.4606C122.95 15.1128 124.016 14.1441 124.698 13.4702C125.38 12.7964 125.892 12.2909 126.318 11.8698C126.744 11.4486 127 11.1538 127.085 11.0695V10.4799L127.171 10.3956C127.64 10.4377 128.109 10.4377 128.663 10.4377C128.791 10.4377 129.26 10.4377 130.07 10.3956L130.155 10.4799V10.901L130.07 10.9853C129.516 10.9853 129.132 11.0274 128.961 11.0695C128.791 11.1116 128.45 11.3222 128.066 11.6171C127.682 11.9119 127.213 12.3331 126.744 12.7542L123.163 15.9973L128.492 20.883C129.345 21.6833 129.814 22.1044 129.942 22.1887C130.07 22.2729 130.24 22.315 130.581 22.315L130.624 22.3993V22.7783L130.581 22.8626C130.24 22.8204 129.899 22.8204 129.516 22.8204C129.302 22.8204 128.833 22.8204 128.066 22.8626C127.512 22.3572 127.043 21.8938 126.659 21.5148C126.233 21.1357 124.527 19.5774 121.5 16.7976V18.6508V20.3776C121.5 21.0515 121.543 21.4727 121.543 21.6411C121.586 21.8517 121.628 21.9781 121.671 22.0202C121.714 22.1044 121.841 22.1466 122.012 22.1887C122.183 22.2308 122.566 22.2729 123.206 22.2729L123.291 22.315V22.7362L123.206 22.8204C123.163 22.8204 122.652 22.8204 121.628 22.7783C121.202 22.7783 120.861 22.7783 120.648 22.7783C120.477 22.7783 119.624 22.8204 118.09 22.8626L118.004 22.7783V22.3571L118.09 22.315C118.644 22.2729 119.028 22.2729 119.198 22.2308C119.369 22.1887 119.497 22.1466 119.582 22.1044C119.624 22.0623 119.71 21.936 119.752 21.7675C119.795 21.599 119.795 21.1778 119.838 20.5461V18.6929V14.6495V12.9227C119.838 12.2488 119.795 11.8276 119.795 11.6171C119.795 11.4065 119.71 11.2801 119.667 11.238C119.625 11.1538 119.497 11.1116 119.326 11.0695C119.156 11.0274 118.772 10.9853 118.132 10.9853L118.047 10.9432V10.522L118.132 10.4799L119.241 10.522C119.966 10.5641 120.435 10.5641 120.69 10.5641C120.904 10.5641 121.756 10.522 123.248 10.4799L123.334 10.522V10.9432L123.248 10.9853C122.822 10.9853 122.524 11.0274 122.31 11.0274C122.097 11.0695 121.927 11.1116 121.841 11.1538C121.756 11.1959 121.671 11.3643 121.628 11.6171C121.586 11.8698 121.586 12.1646 121.586 12.5858V14.6074V16.4606H121.458Z" fill="#002F6C"/>
    <path d="M131.136 22.9045L131.051 22.8203V22.357L131.136 22.2727C131.562 22.2727 131.861 22.2306 131.989 22.1885C132.117 22.1464 132.245 22.0622 132.33 21.9779C132.415 21.8516 132.628 21.4725 132.927 20.8407L133.865 18.8612L136.295 13.4701C136.764 12.4171 137.19 11.3642 137.659 10.3112H138.256L142.05 19.1139L142.562 20.2932C142.69 20.6301 142.86 21.0092 143.074 21.3883C143.287 21.7673 143.415 22.02 143.457 22.0622C143.543 22.1464 143.628 22.1885 143.713 22.2306C143.841 22.2727 144.054 22.2727 144.438 22.3149L144.523 22.3991V22.8624L144.438 22.9466C143.798 22.9045 143.244 22.8624 142.733 22.8624C141.752 22.9045 140.771 22.9045 139.791 22.9466L139.706 22.8624V22.3991L139.791 22.3149C140.473 22.3149 140.857 22.2727 141.027 22.2306C141.198 22.1885 141.283 22.1043 141.283 21.9358C141.283 21.8094 141.24 21.641 141.155 21.4304L140.047 18.7348H134.888L133.907 20.9671C133.737 21.3883 133.651 21.6831 133.651 21.8516C133.651 21.9779 133.737 22.1043 133.907 22.1885C134.078 22.2727 134.462 22.3149 135.101 22.3149L135.186 22.3991V22.8624L135.101 22.9466C134.334 22.9045 133.651 22.8624 133.097 22.8624C132.458 22.8203 131.818 22.8624 131.136 22.9045ZM137.639 8.83709C137.341 8.83709 137.128 8.75286 136.915 8.54227C136.701 8.33168 136.616 8.12109 136.616 7.82626C136.616 7.53144 136.701 7.32085 136.915 7.11026C137.128 6.89967 137.341 6.81543 137.639 6.81543C137.938 6.81543 138.151 6.89967 138.364 7.11026C138.577 7.32085 138.663 7.53144 138.663 7.82626C138.663 8.12109 138.577 8.33168 138.364 8.54227C138.151 8.75286 137.895 8.83709 137.639 8.83709ZM135.186 17.9767H139.663L137.489 12.6698L135.186 17.9767Z" fill="#002F6C"/>
    <path d="M145.632 19.83L145.717 19.7457H146.143L146.229 19.83C146.271 20.5881 146.314 21.0514 146.356 21.2199C146.399 21.3883 146.57 21.5568 146.825 21.7674C147.081 21.9359 147.465 22.1043 147.891 22.2307C148.318 22.357 148.787 22.3992 149.256 22.3992C149.895 22.3992 150.449 22.2728 150.961 22.0622C151.473 21.8516 151.856 21.5147 152.112 21.0514C152.368 20.5881 152.538 20.1248 152.538 19.5773C152.538 19.1982 152.453 18.8613 152.325 18.5664C152.197 18.2716 151.984 18.061 151.771 17.8925C151.558 17.7241 151.259 17.5977 150.961 17.5135C150.663 17.4292 150.194 17.345 149.597 17.2187C149 17.1344 148.531 17.0502 148.19 16.9659C147.849 16.8817 147.508 16.7554 147.209 16.629C146.868 16.4605 146.612 16.2921 146.399 16.0393C146.186 15.7866 146.015 15.4918 145.845 15.1549C145.674 14.8179 145.589 14.3125 145.589 13.8913C145.589 12.7963 145.973 11.9118 146.74 11.1958C147.508 10.4798 148.531 10.1428 149.852 10.1428C150.364 10.1428 150.918 10.2271 151.515 10.3113C152.112 10.4376 152.666 10.6061 153.178 10.8588L153.221 10.9852C153.093 11.5327 153.007 12.2908 152.965 13.3017L152.88 13.3859H152.411L152.325 13.3438C152.325 12.6278 152.283 12.2066 152.283 12.0381C152.24 11.8697 151.984 11.617 151.473 11.3642C150.961 11.1115 150.407 10.9431 149.81 10.9431C149.298 10.9431 148.829 11.0273 148.403 11.2379C147.977 11.4485 147.636 11.7433 147.422 12.1645C147.209 12.5857 147.081 13.0068 147.081 13.4701C147.081 13.8071 147.167 14.1019 147.294 14.3967C147.422 14.6916 147.593 14.86 147.806 15.0285C148.019 15.197 148.275 15.2812 148.573 15.3655C148.872 15.4497 149.384 15.5339 150.151 15.6603C151.217 15.7866 151.942 15.9972 152.453 16.2078C152.922 16.4184 153.306 16.7554 153.604 17.1765C153.903 17.6398 154.031 18.1874 154.031 18.8191C154.031 20.0827 153.519 21.0935 152.496 21.9359C151.473 22.7782 150.236 23.1994 148.744 23.1994C147.508 23.1994 146.442 22.9888 145.504 22.5676L145.461 22.4413C145.546 22.0201 145.589 21.1777 145.632 19.83Z" fill="#002F6C"/>
    <path d="M154.968 10.4373L156.076 10.4794C156.801 10.5215 157.27 10.5215 157.526 10.5215C157.739 10.5215 158.591 10.4794 160.084 10.4373L160.169 10.4794V10.9006L160.084 10.9427C159.657 10.9427 159.359 10.9848 159.146 10.9848C158.933 11.0269 158.762 11.069 158.677 11.1111C158.592 11.1533 158.506 11.3217 158.464 11.5744C158.421 11.8272 158.378 12.2062 158.378 12.6274V14.6491V18.6924V20.4192C158.378 21.0931 158.421 21.5143 158.421 21.6828C158.464 21.8934 158.506 22.0197 158.549 22.0618C158.591 22.1461 158.719 22.1882 158.89 22.2303C159.06 22.2724 159.444 22.3145 160.084 22.3145L160.169 22.3567V22.7778L160.084 22.8621C160.041 22.8621 159.529 22.8621 158.506 22.82C158.08 22.82 157.739 22.82 157.526 22.82C157.355 22.82 156.502 22.8621 154.968 22.9042L154.882 22.82V22.3988L154.968 22.3567C155.522 22.3145 155.906 22.3145 156.076 22.2724C156.247 22.2303 156.375 22.1882 156.46 22.1461C156.502 22.1039 156.588 21.9776 156.63 21.8091C156.673 21.6407 156.673 21.2195 156.716 20.5877V18.7345V14.6912V12.9643C156.716 12.2904 156.673 11.8693 156.673 11.6587C156.673 11.4481 156.588 11.3217 156.545 11.2796C156.502 11.1954 156.375 11.1533 156.204 11.1111C156.033 11.069 155.65 11.0269 155.01 11.0269L154.925 10.9848V10.5636L154.968 10.4373Z" fill="#002F6C"/>
    <path d="M161.106 10.4373C162.598 10.4794 163.536 10.5215 163.963 10.5215C164.517 10.5215 165.156 10.5215 165.839 10.4794C166.563 10.4373 167.032 10.4373 167.203 10.4373C168.013 10.4373 168.738 10.5215 169.249 10.69C169.804 10.8584 170.23 11.1533 170.614 11.6166C170.955 12.0799 171.168 12.6274 171.168 13.2592C171.168 13.8067 171.04 14.3121 170.784 14.7754C170.528 15.2808 170.187 15.702 169.761 16.039C169.335 16.3759 168.866 16.6286 168.397 16.7971C167.928 16.9656 167.459 17.0077 166.99 17.0077C166.606 17.0077 166.222 16.9655 165.753 16.8813L165.583 16.3338L165.668 16.2495C166.094 16.3338 166.478 16.418 166.734 16.418C167.501 16.418 168.141 16.1653 168.61 15.6599C169.079 15.1545 169.335 14.5227 169.335 13.7225C169.335 12.9222 169.079 12.2904 168.61 11.8272C168.141 11.3639 167.373 11.1111 166.393 11.1111C165.839 11.1111 165.242 11.1954 164.602 11.406C164.56 11.8693 164.517 12.9643 164.517 14.6491V18.6924V20.4192C164.517 21.0931 164.56 21.5143 164.56 21.6828C164.602 21.8934 164.645 22.0197 164.688 22.0618C164.73 22.1461 164.858 22.1882 165.029 22.2303C165.199 22.2724 165.583 22.3145 166.222 22.3145L166.308 22.3567V22.7778L166.222 22.8621C164.73 22.82 163.877 22.7778 163.664 22.7778C163.451 22.7778 162.598 22.82 161.106 22.8621L161.021 22.7778V22.3567L161.106 22.3145C161.66 22.2724 162.044 22.2724 162.215 22.2303C162.385 22.1882 162.513 22.1461 162.598 22.1039C162.641 22.0618 162.726 21.9355 162.769 21.767C162.812 21.5985 162.812 21.1774 162.854 20.5456V18.6924V14.6491V12.9222C162.854 12.2483 162.812 11.8272 162.812 11.6166C162.812 11.406 162.726 11.2796 162.684 11.2375C162.641 11.1533 162.513 11.1111 162.343 11.069C162.172 11.0269 161.788 10.9848 161.149 10.9848L161.064 10.9427V10.5215L161.106 10.4373Z" fill="#002F6C"/>
    <path d="M171.979 16.7973C171.979 15.9129 172.106 15.1126 172.362 14.3545C172.618 13.5964 173.044 12.8804 173.684 12.2486C174.281 11.6168 175.048 11.1114 175.901 10.7323C176.754 10.3954 177.734 10.1848 178.843 10.1848C180.846 10.1848 182.467 10.7323 183.66 11.8274C184.854 12.9225 185.451 14.3966 185.451 16.2919C185.451 17.5976 185.152 18.819 184.556 19.872C183.959 20.9249 183.149 21.7252 182.04 22.3148C180.932 22.9045 179.738 23.1993 178.374 23.1993C177.393 23.1993 176.54 23.0308 175.73 22.736C174.92 22.399 174.238 21.9357 173.641 21.304C173.087 20.6722 172.661 19.9562 172.405 19.1138C172.106 18.2294 171.979 17.4712 171.979 16.7973ZM173.854 16.2077C173.854 16.9237 173.982 17.6818 174.195 18.5242C174.409 19.3665 174.792 20.0404 175.261 20.6301C175.73 21.2197 176.242 21.6409 176.881 21.9357C177.478 22.2306 178.16 22.3569 178.971 22.3569C179.908 22.3569 180.719 22.1463 181.401 21.7252C182.125 21.304 182.68 20.6722 183.021 19.7877C183.404 18.9032 183.575 17.9345 183.575 16.8395C183.575 15.6602 183.362 14.6072 182.935 13.6385C182.509 12.6698 181.912 11.9959 181.102 11.5747C180.335 11.1535 179.439 10.9429 178.502 10.9429C177.052 10.9429 175.943 11.4062 175.091 12.2907C174.238 13.1331 173.854 14.4809 173.854 16.2077Z" fill="#002F6C"/>
    <path d="M186.133 10.4794L186.218 10.4373C187.241 10.4794 187.923 10.5215 188.307 10.5215L192.443 10.4373C193.636 10.4373 194.617 10.5636 195.342 10.7742C196.109 10.9848 196.791 11.3639 197.346 11.9114C197.942 12.4589 198.369 13.0907 198.667 13.8067C198.966 14.5227 199.136 15.2808 199.136 16.0811C199.136 16.8813 199.008 17.6394 198.71 18.4397C198.411 19.2399 198.028 19.9138 197.516 20.5035C197.005 21.1352 196.408 21.5985 195.768 21.9776C195.129 22.3567 194.446 22.6094 193.807 22.7357C193.167 22.8621 192.485 22.9042 191.803 22.9042C191.334 22.9042 190.481 22.9042 189.202 22.8621C188.776 22.8621 188.52 22.8621 188.35 22.8621C187.923 22.8621 187.454 22.9042 186.858 22.9463L186.772 22.8621V22.5672L186.858 22.483C187.199 22.3145 187.412 22.1882 187.454 22.1461C187.497 22.1039 187.54 21.5985 187.582 20.6298C187.625 19.6611 187.625 18.903 187.625 18.3976V15.1966V13.217C187.625 12.7959 187.625 12.4168 187.625 12.1641C187.625 11.9114 187.582 11.7008 187.582 11.5744C187.54 11.4481 187.54 11.3639 187.497 11.3217C187.454 11.2796 187.412 11.2375 187.327 11.1954C187.241 11.1533 187.113 11.1533 186.9 11.1111L186.218 11.069L186.133 11.0269V10.4794ZM189.416 21.9355C190.013 22.0618 190.695 22.1039 191.505 22.1039C192.869 22.1039 193.977 21.8934 194.83 21.4301C195.64 20.9668 196.28 20.2929 196.663 19.4084C197.09 18.5239 197.26 17.5131 197.26 16.3759C197.26 14.7333 196.834 13.4276 195.939 12.5432C195.043 11.6166 193.636 11.1954 191.718 11.1954C190.908 11.1954 190.14 11.2375 189.416 11.3639C189.373 12.3326 189.33 13.3855 189.33 14.6069V17.3446V19.9138C189.373 20.4192 189.373 21.0931 189.416 21.9355Z" fill="#002F6C"/>
    <path d="M200.33 22.9046L200.244 22.8203V22.357L200.33 22.2728C200.756 22.2728 201.054 22.2307 201.182 22.1886C201.31 22.1464 201.438 22.0622 201.523 21.978C201.609 21.8516 201.822 21.4726 202.12 20.8408L203.058 18.8612L205.488 13.4701C205.957 12.4172 206.384 11.3642 206.853 10.3113H207.45L211.244 19.1139L211.756 20.2932C211.883 20.6302 212.054 21.0093 212.267 21.3883C212.48 21.7674 212.608 22.0201 212.651 22.0622C212.736 22.1464 212.821 22.1886 212.907 22.2307C213.035 22.2728 213.248 22.2728 213.631 22.3149L213.717 22.3991V22.8625L213.631 22.9467C212.992 22.9046 212.438 22.8625 211.926 22.8625C210.946 22.9046 209.965 22.9046 208.984 22.9467L208.899 22.8625V22.3991L208.984 22.3149C209.667 22.3149 210.05 22.2728 210.221 22.2307C210.391 22.1886 210.477 22.1043 210.477 21.9359C210.477 21.8095 210.434 21.641 210.349 21.4304L209.24 18.7349H204.081L203.101 20.9671C202.93 21.3883 202.845 21.6831 202.845 21.8516C202.845 21.978 202.93 22.1043 203.101 22.1886C203.271 22.2728 203.655 22.3149 204.295 22.3149L204.38 22.3991V22.8625L204.295 22.9467C203.527 22.9046 202.845 22.8625 202.291 22.8625C201.651 22.8203 201.012 22.8625 200.33 22.9046ZM204.38 17.9768H208.856L206.64 12.6699L204.38 17.9768Z" fill="#002F6C"/>
    <path d="M218.876 25.0526V24.6314L218.919 24.5051C219.857 23.7891 220.624 23.3258 221.178 23.1152C219.601 23.1152 218.365 22.8625 217.469 22.357C216.531 21.8516 215.807 21.0514 215.295 20.0406C214.783 19.0297 214.485 17.8925 214.485 16.629C214.485 14.7337 215.124 13.1753 216.403 11.9539C217.682 10.7325 219.303 10.1428 221.349 10.1428C222.671 10.1428 223.822 10.3955 224.802 10.8588C225.783 11.3221 226.593 12.0381 227.147 12.9647C227.701 13.8913 227.957 14.9864 227.957 16.2078C227.957 16.7554 227.915 17.3029 227.787 17.8925C227.659 18.4822 227.446 19.114 227.105 19.7457C226.764 20.3775 226.295 20.925 225.783 21.3883C225.229 21.8516 224.589 22.2728 223.822 22.5676C223.054 22.8625 222.287 23.0731 221.434 23.1152C221.946 23.1994 222.585 23.3679 223.395 23.7048C224.419 24.126 225.186 24.3787 225.698 24.5051C226.209 24.6314 226.636 24.7157 227.019 24.7157C227.275 24.7157 227.574 24.6735 227.915 24.5472L228 24.5893V24.8841L227.957 24.9684C227.872 25.0526 227.744 25.0947 227.574 25.2211C227.062 25.5159 226.721 25.7265 226.55 25.895C226.465 25.895 226.252 25.8528 225.911 25.8107C225.57 25.7686 225.271 25.6844 224.93 25.6001C224.589 25.5159 224.078 25.3474 223.395 25.0947C221.903 24.5893 220.965 24.3366 220.624 24.3366C220.454 24.3366 220.326 24.3787 220.155 24.4208C219.985 24.4629 219.772 24.5893 219.516 24.7578L219.089 25.0105L218.876 25.0526ZM216.361 16.2078C216.361 16.9238 216.489 17.6819 216.702 18.5243C216.915 19.3667 217.299 20.0406 217.768 20.6302C218.237 21.2199 218.748 21.641 219.388 21.9359C219.985 22.2307 220.667 22.357 221.477 22.357C222.415 22.357 223.225 22.1465 223.907 21.7253C224.632 21.3041 225.186 20.6723 225.527 19.7878C225.911 18.9034 226.081 17.9347 226.081 16.8396C226.081 15.6603 225.868 14.6073 225.442 13.6386C225.015 12.6699 224.419 11.996 223.609 11.5748C222.841 11.1537 221.946 10.9431 221.008 10.9431C219.558 10.9431 218.45 11.4064 217.597 12.2908C216.787 13.1332 216.361 14.481 216.361 16.2078Z" fill="#002F6C"/>
    <path fill-rule="evenodd" clip-rule="evenodd" d="M24.2456 5.38472C28.8763 6.44553 32.5481 9.12848 34.0585 12.5377C34.5195 13.5822 35.4309 13.3836 35.4309 13.3836H36.2356V18.6449H35.6591C35.6591 18.6449 34.5522 18.3722 34.0641 19.4785C32.4947 23.0368 28.5731 25.8047 23.6627 26.7687C22.2779 27.0401 22.4812 28.1154 22.4812 28.1154V28.8231H17.1554V28.0405C17.1554 28.0405 17.3169 27.0337 15.9537 26.7647C11 25.7866 7.05492 22.9714 5.52243 19.363C5.13274 18.4449 4.2756 18.6454 4.2756 18.6454H3.43921V13.384H4.35198C4.35198 13.384 5.14469 13.4849 5.62455 12.4354C7.19111 9.01212 10.943 6.3369 15.6463 5.32834C17.327 4.96792 17.1554 3.76349 17.1554 3.76349V2.979H22.4812V3.76349C22.4812 3.9762 22.4191 4.96658 24.2456 5.38472ZM20.8608 15.6584H21.5362V16.1588H20.8608V15.6584ZM18.1027 15.6584H18.7781V16.1588H18.1027V15.6584ZM19.4549 16.6542H20.1302V17.1546H19.4549V16.6542ZM19.4549 14.7657H20.1302V15.2661H19.4549V14.7657ZM29.5282 9.62479L22.1417 15.2066L22.409 15.5511L29.795 9.9693L29.5282 9.62479ZM28.4571 8.58579L21.0706 14.1676L21.3379 14.5121L28.724 8.9303L28.4571 8.58579ZM17.9637 17.5241L10.5773 23.1059L10.8446 23.4504L18.2306 17.8686L17.9637 17.5241ZM17.0707 16.4465L9.68425 22.0282L9.95154 22.3728L17.3376 16.791L17.0707 16.4465ZM21.5395 17.4259L28.926 23.0077L28.6586 23.3522L21.2726 17.7704L21.5395 17.4259ZM22.4417 16.371L29.8281 21.9528L29.5609 22.2973L22.1748 16.7155L22.4417 16.371ZM10.0868 9.68477L17.4733 15.2666L17.206 15.6111L9.81996 10.0293L10.0868 9.68477ZM11.1119 8.64578L18.4984 14.2276L18.231 14.5721L10.845 8.99031L11.1119 8.64578ZM19.9255 13.9812L13.934 9.05893C13.5641 8.75396 13.2024 6.67141 16.1069 6.67141C18.22 6.67141 19.1116 7.29955 18.3125 8.6785C18.047 9.13619 18.2692 10.8501 20.012 10.8197C21.5698 10.7924 21.6319 9.1403 21.4051 8.58987C20.8102 7.15001 21.9958 6.54234 23.8522 6.7673C26.6224 7.10229 26.1112 8.9694 25.0355 9.79977C23.9604 10.6297 19.9255 13.9812 19.9255 13.9812ZM19.9255 17.9782L13.934 22.9004C13.5641 23.2054 13.2024 25.288 16.1069 25.288C18.22 25.288 19.1116 24.6598 18.3125 23.2809C18.047 22.8232 18.2692 21.1092 20.012 21.1397C21.5698 21.167 21.6319 22.8191 21.4051 23.3695C20.8102 24.8094 21.9958 25.417 23.8522 25.1921C26.6224 24.8571 26.1112 22.99 25.0355 22.1596C23.9604 21.3297 19.9255 17.9782 19.9255 17.9782ZM23.7703 15.9501L29.6368 20.1362C29.9998 20.3948 32.4819 20.6475 32.4819 18.6181C32.4819 17.1419 31.4173 16.2751 30.0899 17.0773C29.45 17.4618 28.0486 17.4818 28.1203 15.8365C28.1884 14.2721 29.7246 14.5457 30.1958 14.9166C31.31 15.7956 32.6355 14.5039 32.3678 13.2068C31.9684 11.2715 29.743 11.6287 28.7539 12.38C27.7647 13.1313 23.7703 15.9501 23.7703 15.9501ZM15.7259 15.9397L9.85953 20.1257C9.49653 20.3843 7.01444 20.637 7.01444 18.6076C7.01444 17.1314 8.07906 16.2647 9.40636 17.0669C10.0463 17.4514 11.4477 17.4714 11.3759 15.8261C11.3078 14.2616 9.77165 14.5353 9.30056 14.9061C8.18624 15.7852 6.86078 14.4934 7.12852 13.1963C7.52788 11.261 9.75325 11.6183 10.7424 12.3695C11.7316 13.1208 15.7259 15.9397 15.7259 15.9397Z" fill="#002F6C"/>
    <path fill-rule="evenodd" clip-rule="evenodd" d="M38.5244 18.4007C38.5244 18.4007 37.9369 18.3735 37.9553 17.8203C37.9736 17.2671 38.6713 17.4031 38.6713 17.4031C38.6125 17.0644 38.5597 16.2694 39.2956 16.0608C39.0336 16.4793 39.1395 16.859 39.3048 17.2217C39.47 17.5845 39.5343 17.7658 39.4976 18.2556C39.4608 18.7453 38.7264 19.2169 38.0287 18.9811C37.331 18.7453 37.1291 17.911 37.2209 17.3668C37.3126 16.8227 37.992 16.1515 38.2307 15.8069C38.4694 15.4623 38.3225 15.2809 38.1572 15.1902C38.3822 15.086 38.5933 15.2401 38.5933 15.4396C38.8228 15.4578 39.3287 14.8592 39.2002 14.2062C39.0717 13.5532 38.5658 13.4762 38.194 13.5941C37.8221 13.7119 37.6248 14.1019 37.79 14.4103C37.9553 14.7186 38.6878 14.4638 38.2169 13.9069C38.3152 13.8125 38.7034 13.8797 38.7631 14.3196C38.8228 14.7594 38.1935 15.1037 37.7757 14.7771C37.827 14.9012 38.0104 15.2628 37.8267 15.6256C37.6431 15.9883 37.2759 16.1697 37.2759 16.1697C37.2759 16.1697 37.5238 15.2492 37.2576 14.7368C36.9913 14.2244 37.3493 13.5325 37.8084 13.3583C38.2674 13.184 38.7172 13.1497 39.167 13.5215C39.6169 13.8933 39.5663 14.6552 39.4011 14.9091C38.9515 15.6001 37.7271 16.449 38.2714 17.1728C37.8772 17.1907 37.8118 16.8329 37.8485 16.7388C37.7097 16.7592 37.1244 17.7205 37.6431 18.3281C38.1618 18.9358 38.5704 18.7544 38.7631 18.7C38.9559 18.6456 39.3782 18.1377 39.0202 17.7659C38.6622 17.394 37.9553 17.8203 38.5244 18.4007Z" fill="#002F6C"/>
    <path fill-rule="evenodd" clip-rule="evenodd" d="M1.35795 18.3553C1.35795 18.3553 0.770419 18.3281 0.788765 17.7749C0.80711 17.2216 1.50482 17.3577 1.50482 17.3577C1.44603 17.019 1.3932 16.224 2.1291 16.0154C1.86706 16.4339 1.97301 16.8135 2.13826 17.1763C2.3035 17.5391 2.36778 17.7204 2.33106 18.2102C2.29435 18.6999 1.55994 19.1715 0.862202 18.9357C0.164489 18.6999 -0.0374498 17.8656 0.0543612 17.3214C0.146144 16.7773 0.825483 16.1061 1.06417 15.7615C1.30286 15.4169 1.15598 15.2355 0.990732 15.1448C1.21565 15.0406 1.42678 15.1947 1.42678 15.3942C1.65628 15.4123 2.16226 14.8138 2.03373 14.1608C1.9052 13.5078 1.39927 13.4308 1.02745 13.5486C0.655656 13.6665 0.458296 14.0565 0.623516 14.3649C0.788765 14.6732 1.5213 14.4184 1.0504 13.8615C1.14869 13.7671 1.53693 13.8343 1.59663 14.2742C1.65631 14.714 1.02697 15.0583 0.60927 14.7317C0.660489 14.8558 0.843857 15.2174 0.660263 15.5801C0.476641 15.9429 0.109425 16.1243 0.109425 16.1243C0.109425 16.1243 0.357326 15.2037 0.0910799 14.6914C-0.175166 14.179 0.182806 13.4871 0.641861 13.3129C1.10092 13.1386 1.55073 13.1043 2.00054 13.4761C2.45038 13.8479 2.39984 14.6098 2.23465 14.8637C1.78498 15.5547 0.560594 16.4036 1.10493 17.1274C0.710663 17.1452 0.64531 16.7875 0.682029 16.6934C0.54321 16.7138 -0.0420569 17.6751 0.476641 18.2827C0.995311 18.8903 1.40385 18.709 1.59663 18.6546C1.78941 18.6002 2.21169 18.0923 1.85369 17.7205C1.49566 17.3486 0.788765 17.7749 1.35795 18.3553Z" fill="#002F6C"/>
    <path d="M1.59595 22.5348L3.15054 21.5276L3.35712 21.839L2.66839 22.2848L3.77349 22.4657L4.05 22.882L3.05992 22.6952L2.51519 23.9197L2.2488 23.5183L2.6983 22.623L2.27271 22.5412L1.80252 22.8461L1.59595 22.5348ZM3.66859 25.3723L3.41371 25.0609L3.64146 24.6746L3.17262 24.1019L2.74616 24.246L2.49585 23.9406L4.39505 23.3397L4.64533 23.6451L3.66859 25.3723ZM3.80939 24.386L4.18158 23.7597L3.4887 23.9947L3.80939 24.386ZM4.16179 25.0323L4.44475 25.2641C4.37343 25.3646 4.34075 25.4577 4.34674 25.545C4.35319 25.6323 4.39644 25.7154 4.47694 25.7954C4.56115 25.8795 4.64349 25.9259 4.72309 25.9331C4.80176 25.9404 4.86618 25.9204 4.91449 25.8732C4.94575 25.8427 4.96325 25.8077 4.96737 25.7677C4.97108 25.7291 4.95864 25.6782 4.93012 25.6177C4.91033 25.5763 4.8588 25.4877 4.77736 25.3514C4.67201 25.1755 4.61635 25.0341 4.61175 24.9269C4.6044 24.7755 4.65361 24.6487 4.75851 24.546C4.82615 24.4801 4.90804 24.4369 5.00418 24.4169C5.10127 24.3974 5.19973 24.4078 5.3014 24.4487C5.40263 24.4892 5.50337 24.5596 5.60411 24.6596C5.76744 24.8228 5.85442 24.9814 5.86315 25.1359C5.87234 25.2905 5.81807 25.4291 5.69937 25.5536L5.42516 25.2982C5.48268 25.22 5.50705 25.1482 5.5006 25.0823C5.49325 25.0164 5.45277 24.9464 5.37914 24.8728C5.30324 24.7969 5.22732 24.7528 5.15232 24.7414C5.10402 24.7337 5.06309 24.7464 5.02857 24.7805C4.99683 24.811 4.98349 24.85 4.98764 24.8978C4.99177 24.9591 5.0433 25.0687 5.14037 25.2264C5.23837 25.3841 5.30095 25.51 5.32947 25.6032C5.35845 25.6963 5.36122 25.7882 5.33911 25.8782C5.31703 25.9686 5.26412 26.0545 5.18087 26.1358C5.10495 26.2099 5.01339 26.2586 4.90572 26.2818C4.79808 26.3049 4.68996 26.2945 4.58184 26.2499C4.47372 26.2049 4.36238 26.1258 4.24874 26.0122C4.08358 25.8477 3.99479 25.6832 3.98374 25.5195C3.97178 25.3559 4.0316 25.1932 4.16179 25.0323ZM5.02857 26.7108L6.29425 25.3655L6.56983 25.6182L5.30463 26.964L5.02857 26.7108ZM5.57101 27.2008L6.69635 25.7391L7.17528 26.099C7.357 26.2354 7.46973 26.3313 7.51343 26.3872C7.58153 26.4731 7.61556 26.574 7.6165 26.6903C7.61695 26.8067 7.57231 26.9235 7.48307 27.0394C7.41359 27.1299 7.33908 27.1926 7.259 27.2289C7.17895 27.2653 7.10028 27.2821 7.02255 27.2794C6.94569 27.2758 6.87624 27.2603 6.81504 27.2321C6.73315 27.1921 6.62458 27.1221 6.48932 27.0208L6.29516 26.8744L5.8705 27.4262L5.57101 27.2008ZM6.80586 26.2113L6.48517 26.6276L6.64804 26.7499C6.76583 26.8381 6.85001 26.8894 6.90154 26.9035C6.95262 26.918 7.00228 26.9176 7.04969 26.9017C7.09706 26.8858 7.13802 26.8562 7.17115 26.8131C7.21256 26.7594 7.23048 26.704 7.2259 26.6454C7.22084 26.5872 7.19783 26.5354 7.15642 26.4899C7.12606 26.4567 7.05703 26.3999 6.94985 26.319L6.80586 26.2113ZM7.3639 27.4285C7.46329 27.2689 7.57141 27.1498 7.68736 27.0708C7.77292 27.0126 7.86677 26.9712 7.96845 26.9458C8.07012 26.9208 8.16767 26.9149 8.26107 26.929C8.38527 26.9481 8.51227 26.9971 8.64109 27.0758C8.8748 27.218 9.0165 27.4035 9.0671 27.6321C9.11818 27.8607 9.06342 28.102 8.90425 28.357C8.74599 28.6102 8.55275 28.7656 8.32501 28.8234C8.09681 28.882 7.86632 28.8397 7.63396 28.6984C7.39887 28.5547 7.25533 28.3697 7.20564 28.1425C7.15504 27.9157 7.20795 27.678 7.3639 27.4285ZM7.69977 27.6189C7.58888 27.7957 7.54656 27.9552 7.57231 28.0975C7.59809 28.2393 7.67447 28.3493 7.80238 28.4275C7.92981 28.5052 8.06277 28.5234 8.2017 28.4829C8.34019 28.4416 8.46626 28.3306 8.57944 28.1489C8.69168 27.9693 8.73587 27.8112 8.71054 27.6748C8.68617 27.5376 8.60796 27.4289 8.47592 27.3485C8.34386 27.268 8.20954 27.248 8.07289 27.288C7.9367 27.3285 7.81202 27.4385 7.69977 27.6189ZM9.51705 27.6412L10.1271 27.948C10.2647 28.0175 10.3645 28.0802 10.4262 28.1375C10.5081 28.2143 10.5656 28.3066 10.5968 28.4138C10.63 28.5206 10.6364 28.6356 10.619 28.7583C10.601 28.8811 10.5527 29.0192 10.4735 29.1724C10.4041 29.3074 10.3273 29.4142 10.2435 29.4951C10.1405 29.5933 10.0319 29.6601 9.91734 29.6951C9.83084 29.7219 9.73007 29.726 9.61553 29.7078C9.52949 29.6942 9.42549 29.656 9.30222 29.5942L8.67373 29.2783L9.51705 27.6412ZM9.70983 28.0866L9.15176 29.1701L9.40068 29.2951C9.49359 29.3419 9.56307 29.3706 9.60999 29.381C9.67119 29.3951 9.72778 29.3947 9.77976 29.3801C9.83223 29.3665 9.88788 29.3283 9.94815 29.2665C10.0089 29.2047 10.0715 29.1101 10.1368 28.9833C10.2021 28.857 10.2408 28.7547 10.2527 28.6756C10.2651 28.5961 10.2606 28.5275 10.2403 28.4693C10.2187 28.4111 10.181 28.3597 10.1253 28.3148C10.0839 28.2811 9.99507 28.2302 9.85936 28.162L9.70983 28.0866ZM11.9108 30.7105L11.534 30.5632L11.5405 30.116L10.8467 29.8451L10.5472 30.1778L10.1773 30.0332L11.5322 28.5874L11.9021 28.732L11.9108 30.7105ZM11.5423 29.7828L11.5552 29.0569L11.0689 29.5978L11.5423 29.7828ZM13.5998 30.985C13.6679 31.0745 13.7479 31.1531 13.8395 31.2218L13.6288 31.4336C13.58 31.4013 13.534 31.3631 13.4912 31.3195C13.4815 31.3095 13.419 31.234 13.3021 31.0895C13.17 31.1045 13.033 31.0904 12.8917 31.0472C12.6189 30.9636 12.4293 30.8186 12.3244 30.6127C12.22 30.4059 12.2126 30.1591 12.3028 29.871C12.393 29.5842 12.5407 29.3847 12.7449 29.2724C12.9501 29.1601 13.1857 29.1451 13.4512 29.226C13.7143 29.3065 13.8983 29.4497 14.0028 29.6569C14.1068 29.8632 14.1146 30.1096 14.0244 30.3968C13.9775 30.5482 13.914 30.6755 13.8349 30.7772C13.775 30.8554 13.6964 30.925 13.5998 30.985ZM13.3743 30.6977C13.4374 30.6582 13.4916 30.6041 13.539 30.535C13.585 30.4664 13.6242 30.3828 13.655 30.2841C13.7185 30.0814 13.7208 29.916 13.6614 29.7878C13.6025 29.6601 13.4999 29.5737 13.3541 29.5287C13.2078 29.4842 13.073 29.4983 12.9511 29.5715C12.8282 29.6446 12.7358 29.7823 12.6723 29.9846C12.6078 30.19 12.6051 30.3582 12.6644 30.4878C12.7233 30.6177 12.8222 30.7036 12.9612 30.7464C13.0132 30.7623 13.0647 30.7682 13.1158 30.7659C13.0582 30.6968 12.9957 30.6377 12.9285 30.5886L13.0937 30.4137C13.1986 30.49 13.2924 30.5845 13.3743 30.6977ZM14.4491 31.4213L14.8001 29.9351L14.2641 29.8114L14.3354 29.5092L15.7718 29.8401L15.7005 30.1423L15.1668 30.0196L14.8157 31.5058L14.4491 31.4213ZM17.0595 31.8613L16.6579 31.8067L16.5567 31.3708L15.8178 31.27L15.6071 31.6636L15.2128 31.6099L16.1817 29.8878L16.576 29.9414L17.0595 31.8613ZM16.4789 31.0468L16.3165 30.3382L15.9742 30.9781L16.4789 31.0468ZM17.2569 31.9094L17.3586 30.0755L18.1481 30.1182C18.3459 30.1291 18.4899 30.1537 18.5778 30.1909C18.6666 30.2287 18.7346 30.2909 18.7843 30.3782C18.8336 30.4655 18.8552 30.5632 18.8492 30.6714C18.8414 30.8095 18.7949 30.9209 18.708 31.0059C18.6215 31.0913 18.4968 31.1413 18.3325 31.1554C18.4108 31.2068 18.4747 31.2618 18.5239 31.3204C18.5736 31.379 18.639 31.4827 18.7204 31.6299L18.927 31.9999L18.4784 31.9753L18.2318 31.5608C18.1435 31.4131 18.0823 31.3199 18.0482 31.2808C18.0151 31.2422 17.9788 31.2149 17.9401 31.1991C17.9005 31.1827 17.838 31.1727 17.7515 31.1681L17.6751 31.164L17.6328 31.9299L17.2569 31.9094ZM17.6912 30.8718L17.9686 30.8868C18.149 30.8968 18.2608 30.895 18.3068 30.8822C18.3523 30.87 18.3891 30.8459 18.4163 30.8105C18.4434 30.775 18.4586 30.7295 18.4614 30.6745C18.4651 30.6127 18.4512 30.5623 18.42 30.5223C18.3887 30.4823 18.3427 30.4559 18.2833 30.4427C18.2525 30.4373 18.1614 30.43 18.0096 30.4218L17.717 30.4059L17.6912 30.8718ZM21.2936 31.9799L21.1252 30.1505L22.3978 30.0364L22.4263 30.3455L21.5287 30.4259L21.5687 30.86L22.3449 30.7904L22.3734 31.0995L21.5972 31.1695L21.6686 31.9462L21.2936 31.9799ZM22.873 31.834L22.602 30.0169L23.9634 29.8187L24.0089 30.126L23.0198 30.27L23.0801 30.6732L24.0002 30.5391L24.0457 30.8463L23.1261 30.9804L23.1992 31.4727L24.2243 31.3236L24.2703 31.6308L22.873 31.834ZM24.1617 29.7805L24.8283 29.6269C24.9792 29.5924 25.0966 29.5769 25.1808 29.5819C25.2939 29.5883 25.3974 29.6224 25.4918 29.6842C25.5861 29.7451 25.6666 29.8287 25.7329 29.9337C25.7991 30.0387 25.8525 30.1755 25.892 30.3427C25.9265 30.4905 25.9376 30.6214 25.9261 30.7364C25.9118 30.8768 25.8718 30.9972 25.8074 31.0968C25.7586 31.1727 25.6841 31.2395 25.5847 31.2986C25.5102 31.3427 25.4053 31.3799 25.2705 31.4108L24.584 31.569L24.1617 29.7805ZM24.5997 29.9982L24.8794 31.1822L25.1513 31.12C25.253 31.0963 25.3248 31.0736 25.3671 31.0522C25.4232 31.024 25.4665 30.9872 25.4964 30.9436C25.5277 30.8995 25.5456 30.835 25.5511 30.7495C25.5576 30.6636 25.5438 30.5514 25.5111 30.4127C25.4784 30.2746 25.4416 30.1719 25.3988 30.1037C25.3565 30.0351 25.3087 29.9855 25.2548 29.9537C25.2005 29.9228 25.138 29.9073 25.0662 29.9087C25.0128 29.9092 24.9116 29.9264 24.7635 29.9605L24.5997 29.9982ZM26.405 31.125L25.8557 29.3706L27.1706 28.9688L27.2631 29.2656L26.308 29.5574L26.4299 29.9469L27.3183 29.6755L27.4112 29.9719L26.5228 30.2432L26.6714 30.7186L27.6615 30.4164L27.7544 30.7132L26.405 31.125ZM28.0562 30.6064L27.3417 28.9106L28.0719 28.6102C28.255 28.5352 28.3953 28.4957 28.4905 28.4916C28.5871 28.4875 28.676 28.5143 28.7592 28.5716C28.8416 28.6293 28.9042 28.7079 28.9465 28.8079C29.0003 28.9351 29.0072 29.0561 28.9663 29.1697C28.9258 29.2842 28.8351 29.3824 28.6939 29.4656C28.7868 29.4778 28.8683 29.5001 28.9386 29.5319C29.0091 29.5633 29.1135 29.6287 29.2515 29.7264L29.6002 29.971L29.1857 30.1414L28.7813 29.8737C28.6364 29.7787 28.5407 29.721 28.4928 29.7005C28.4459 29.6801 28.4013 29.6705 28.3594 29.6733C28.3166 29.6755 28.2554 29.6933 28.1759 29.726L28.1054 29.7551L28.4036 30.4632L28.0562 30.6064ZM27.9914 29.4851L28.2481 29.3796C28.4146 29.311 28.5149 29.2615 28.5503 29.2306C28.5858 29.1997 28.6083 29.1624 28.6175 29.1188C28.6267 29.0752 28.6198 29.0279 28.5986 28.977C28.5747 28.9201 28.5398 28.8806 28.4938 28.8574C28.4487 28.8347 28.3958 28.8311 28.336 28.8447C28.3061 28.8529 28.2205 28.8851 28.0806 28.9429L27.8101 29.0542L27.9914 29.4851ZM31.2735 29.1301L30.9128 29.3133L30.5765 29.0138L29.9135 29.351L29.9697 29.7928L29.6159 29.9728L29.407 28.0134L29.7608 27.8334L31.2735 29.1301ZM30.3244 28.7929L29.7797 28.3057L29.8717 29.0233L30.3244 28.7929ZM31.6342 28.9047L30.807 27.6157L30.3419 27.9066L30.1735 27.6443L31.4194 26.8644L31.5878 27.1267L31.1249 27.4166L31.9522 28.7056L31.6342 28.9047ZM32.1868 27.8761L32.4573 27.6307C32.5484 27.7143 32.6377 27.7589 32.726 27.7643C32.8143 27.7703 32.9036 27.7393 32.9947 27.6716C33.0908 27.6003 33.1479 27.5262 33.1663 27.4494C33.1842 27.373 33.1732 27.3076 33.1322 27.2535C33.1056 27.2189 33.0729 27.1971 33.0338 27.1876C32.9951 27.1785 32.9427 27.1839 32.8783 27.2039C32.8336 27.2176 32.7379 27.2557 32.5898 27.3171C32.3993 27.3962 32.2503 27.4312 32.1417 27.4212C31.989 27.408 31.8684 27.3426 31.7801 27.2257C31.723 27.1512 31.6908 27.0648 31.6839 26.9681C31.6775 26.8708 31.7014 26.7758 31.7561 26.6817C31.8104 26.5876 31.8946 26.4985 32.0087 26.414C32.1946 26.2763 32.3653 26.2127 32.5213 26.2249C32.6777 26.2367 32.8097 26.309 32.9183 26.4422L32.6248 26.6758C32.5544 26.609 32.4854 26.5749 32.4186 26.5726C32.3515 26.5708 32.2756 26.6008 32.1923 26.6631C32.1058 26.7272 32.0511 26.7953 32.0294 26.8671C32.0152 26.9135 32.0225 26.9553 32.0515 26.9935C32.0782 27.0285 32.1155 27.0471 32.1638 27.0498C32.2259 27.0535 32.3427 27.0185 32.5144 26.9444C32.6855 26.8703 32.8208 26.8263 32.9178 26.8108C33.0154 26.7953 33.1074 26.8049 33.1948 26.839C33.2827 26.8726 33.3613 26.9358 33.4317 27.0285C33.4957 27.113 33.5321 27.2094 33.5408 27.3176C33.5491 27.4262 33.5238 27.5307 33.4644 27.6307C33.405 27.7303 33.3103 27.8284 33.1815 27.9243C32.9938 28.0634 32.8166 28.1279 32.651 28.1166C32.4854 28.1061 32.3303 28.0252 32.1868 27.8761ZM33.9921 27.2621L32.8074 25.8468L33.0973 25.61L34.282 27.0253L33.9921 27.2621ZM34.541 26.8003L33.2762 25.4541L33.5523 25.2014L34.817 26.5472L34.541 26.8003ZM36.2557 25.1296L35.9704 25.4141L35.5568 25.2328L35.0323 25.7563L35.2242 26.159L34.9445 26.4385L34.1306 24.6396L34.4103 24.3606L36.2557 25.1296ZM35.2477 25.1L34.5764 24.8032L34.8893 25.4577L35.2477 25.1ZM35.8301 24.6951L36.015 24.3815C36.1269 24.4346 36.2258 24.451 36.3113 24.4305C36.3974 24.4101 36.4733 24.3546 36.5405 24.2633C36.6109 24.1674 36.6435 24.0792 36.638 24.0011C36.632 23.9229 36.6016 23.8633 36.5464 23.8238C36.5106 23.7983 36.4728 23.787 36.4324 23.7897C36.3932 23.7924 36.3445 23.8124 36.2888 23.8506C36.2506 23.8765 36.1706 23.941 36.0477 24.0429C35.8895 24.1742 35.7574 24.2515 35.6507 24.2737C35.5007 24.3055 35.3664 24.2783 35.2467 24.1928C35.1699 24.1379 35.1133 24.0651 35.0779 23.9747C35.0425 23.8833 35.0365 23.7856 35.0604 23.6802C35.0848 23.5743 35.1381 23.4647 35.2219 23.3506C35.3581 23.1648 35.5025 23.0538 35.6548 23.0197C35.808 22.9857 35.9553 23.0161 36.0993 23.1111L35.8885 23.4202C35.8016 23.377 35.7252 23.3647 35.6608 23.382C35.5964 23.3997 35.5329 23.4511 35.4717 23.5347C35.4082 23.6211 35.3765 23.7024 35.3774 23.777C35.3779 23.8256 35.3972 23.8633 35.4367 23.8915C35.4726 23.9174 35.5136 23.9242 35.5605 23.9124C35.6212 23.8979 35.722 23.8302 35.8637 23.7092C36.0054 23.5884 36.1209 23.5065 36.2092 23.4638C36.2976 23.4202 36.3887 23.4025 36.482 23.4093C36.5763 23.4161 36.6702 23.4534 36.7654 23.5215C36.8519 23.5834 36.9154 23.6647 36.9559 23.7656C36.9969 23.867 37.0038 23.9742 36.9771 24.0869C36.9499 24.1992 36.8892 24.3206 36.7944 24.4501C36.6569 24.6378 36.5073 24.7514 36.3459 24.7887C36.1844 24.8273 36.0119 24.7955 35.8301 24.6951ZM37.6267 23.2043L36.9909 22.8425L35.7975 22.892L36.0036 22.5384L36.8073 22.5262L36.4093 21.8421L36.6118 21.4954L37.1698 22.5416L37.8034 22.902L37.6267 23.2043Z" fill="#002F6C"/>
    <path d="M4.3162 8.50424C4.42203 8.46288 4.52003 8.40834 4.61111 8.33926L4.76157 8.59698C4.71694 8.63423 4.66725 8.66832 4.61294 8.69697C4.60099 8.70331 4.51036 8.74286 4.3383 8.8156C4.31758 8.94467 4.26699 9.07148 4.18693 9.19465C4.03234 9.4319 3.84004 9.57325 3.61091 9.61779C3.38181 9.66189 3.13888 9.6028 2.88216 9.43916C2.62634 9.27692 2.4713 9.08284 2.41703 8.85785C2.36227 8.63241 2.41103 8.40427 2.56102 8.17336C2.7101 7.94476 2.89918 7.80796 3.12921 7.76432C3.35835 7.72022 3.60079 7.77931 3.85706 7.94203C3.99138 8.02748 4.0986 8.122 4.17681 8.22474C4.23708 8.30245 4.28355 8.39561 4.3162 8.50424ZM3.97575 8.64152C3.95368 8.57106 3.91549 8.50471 3.86118 8.44152C3.80643 8.37928 3.73559 8.31927 3.64771 8.26336C3.46692 8.14884 3.30633 8.10201 3.16556 8.12429C3.02477 8.1461 2.91297 8.22063 2.83063 8.34744C2.74735 8.47472 2.72528 8.60653 2.76392 8.74196C2.80256 8.87877 2.91159 9.00376 3.09196 9.11827C3.27507 9.23464 3.43792 9.28236 3.5801 9.261C3.72316 9.23964 3.8336 9.16829 3.91226 9.04785C3.94172 9.00239 3.96148 8.95511 3.97298 8.90557C3.89019 8.9424 3.81565 8.98602 3.74984 9.03648L3.62335 8.83241C3.72593 8.75333 3.84278 8.68924 3.97575 8.64152ZM5.97753 7.00211L5.70702 7.30026L5.28465 7.13983L4.78732 7.68886L4.99941 8.08157L4.73396 8.37428L3.83037 6.61806L4.09583 6.32491L5.97753 7.00211ZM4.96905 7.02255L4.284 6.75941L4.62951 7.39708L4.96905 7.02255ZM6.024 6.99574L5.7958 6.75031L5.70057 5.21682L5.06106 5.79721L4.84852 5.56859L5.85056 4.65914L6.04746 4.87047L6.1464 6.46352L6.92436 5.75678L7.13693 5.9854L6.024 6.99574ZM8.70854 4.90231L8.37454 5.12908L8.00232 4.87458L7.38814 5.29228L7.50084 5.7236L7.1728 5.9463L6.71366 4.02918L7.04122 3.80603L8.70854 4.90231ZM7.72398 4.68731L7.12082 4.2719L7.30438 4.97228L7.72398 4.68731ZM10.063 3.86512C10.1757 3.87738 10.2884 3.8742 10.4016 3.85513L10.4126 4.15236C10.3556 4.16465 10.2958 4.1719 10.2341 4.17235C10.2208 4.17283 10.1214 4.16599 9.93555 4.15054C9.85595 4.25554 9.75105 4.34417 9.62224 4.41597C9.37335 4.55506 9.13687 4.59142 8.91328 4.52507C8.68921 4.45825 8.5029 4.29416 8.35243 4.03147C8.20293 3.76968 8.15782 3.52651 8.21579 3.30289C8.27377 3.07837 8.42468 2.89884 8.66668 2.76385C8.90638 2.63023 9.13825 2.59614 9.36185 2.66341C9.58544 2.73021 9.77223 2.89429 9.92176 3.15609C10.0004 3.29381 10.0506 3.42651 10.0713 3.55332C10.0879 3.65013 10.0851 3.75421 10.063 3.86512ZM9.69678 3.82966C9.71057 3.75739 9.70829 3.68104 9.68988 3.59967C9.671 3.51969 9.63604 3.4338 9.58499 3.34424C9.47915 3.15927 9.35908 3.04427 9.22427 2.99881C9.08949 2.95338 8.95559 2.96745 8.82263 3.04154C8.68921 3.1161 8.60732 3.22243 8.57696 3.36016C8.54705 3.49878 8.58431 3.65968 8.69014 3.84421C8.79688 4.03147 8.91834 4.14873 9.05453 4.19508C9.19069 4.24236 9.32182 4.23007 9.44879 4.15965C9.49572 4.13328 9.53574 4.10056 9.56933 4.06191C9.4787 4.05602 9.39266 4.06054 9.31032 4.07464L9.29514 3.83603C9.42304 3.8133 9.55692 3.81059 9.69678 3.82966ZM10.3147 3.34653L10.6321 3.16382C10.703 3.26471 10.7803 3.32699 10.8654 3.35106C10.9505 3.37516 11.0444 3.36379 11.1479 3.31699C11.2573 3.26745 11.3296 3.20699 11.3636 3.13564C11.3977 3.06519 11.4009 2.99837 11.3724 2.93746C11.354 2.89792 11.3268 2.86975 11.2905 2.85201C11.2551 2.8352 11.2026 2.82931 11.135 2.8352C11.089 2.83931 10.9868 2.85612 10.829 2.88519C10.6261 2.92247 10.4725 2.9252 10.3689 2.89292C10.2222 2.84749 10.1187 2.75838 10.0575 2.62568C10.0179 2.54068 10.005 2.44934 10.0193 2.35341C10.034 2.25707 10.0777 2.16889 10.1513 2.08891C10.2249 2.00846 10.3266 1.93938 10.4564 1.88073C10.6675 1.78529 10.8483 1.75893 10.9979 1.80394C11.1479 1.84848 11.2615 1.94664 11.3388 2.09936L11.0016 2.26615C10.9473 2.18617 10.887 2.138 10.8226 2.12209C10.7572 2.10572 10.6767 2.11935 10.5815 2.16255C10.4831 2.20662 10.4154 2.26207 10.3786 2.32753C10.3547 2.36978 10.3529 2.41206 10.3731 2.45615C10.3915 2.49569 10.4237 2.52161 10.4706 2.53431C10.5304 2.55115 10.6519 2.5416 10.8355 2.50524C11.019 2.46888 11.1603 2.45386 11.2587 2.45978C11.3572 2.46523 11.4455 2.49388 11.5233 2.54523C11.6019 2.59703 11.665 2.67522 11.7137 2.78066C11.7584 2.87656 11.7731 2.97837 11.7579 3.08608C11.7427 3.19381 11.6953 3.29063 11.6162 3.3756C11.5366 3.46061 11.423 3.53651 11.2757 3.60285C11.0628 3.69922 10.8759 3.72514 10.7163 3.67923C10.5567 3.63377 10.4228 3.52243 10.3147 3.34653ZM12.6417 3.03838L12.12 1.60168L11.6019 1.78529L11.4957 1.4935L12.8842 1.00127L12.99 1.29353L12.4743 1.47624L12.996 2.91292L12.6417 3.03838ZM15.1841 2.30388L14.7926 2.40798L14.5276 2.04527L13.8076 2.23708L13.768 2.68022L13.3838 2.78248L13.5978 0.823557L13.9824 0.721296L15.1841 2.30388ZM14.3283 1.7771L13.8996 1.18672L13.8365 1.90757L14.3283 1.7771ZM15.3861 2.28617L15.0511 0.479496L15.4095 0.414517L16.3867 1.48895L16.1622 0.278604L16.5045 0.216332L16.8394 2.02301L16.4695 2.09028L15.508 1.03673L15.7284 2.22435L15.3861 2.28617ZM19.3961 1.83619L19.4343 0L20.2251 0.0163649C20.4234 0.0204419 20.5679 0.0399895 20.6567 0.0745324C20.7468 0.109075 20.8172 0.169083 20.8697 0.25498C20.9217 0.34043 20.947 0.437245 20.9447 0.545398C20.9419 0.683569 20.8991 0.796751 20.8154 0.884937C20.7317 0.973096 20.6084 1.02674 20.445 1.04673C20.5251 1.09535 20.5909 1.14807 20.642 1.2049C20.6939 1.2617 20.7625 1.36306 20.8485 1.5076L21.068 1.87029L20.619 1.86119L20.3585 1.45488C20.2647 1.31034 20.2003 1.21945 20.1653 1.18172C20.1308 1.14399 20.0935 1.11763 20.054 1.10353C20.014 1.08853 19.9509 1.08035 19.8644 1.07854L19.7885 1.07717L19.7724 1.84393L19.3961 1.83619ZM19.7945 0.784937L20.0724 0.790383C20.2527 0.794013 20.3645 0.788567 20.4101 0.774465C20.4547 0.760391 20.4906 0.735399 20.5168 0.699041C20.543 0.662683 20.5564 0.616774 20.5573 0.561762C20.5587 0.499965 20.543 0.449951 20.5104 0.410884C20.4782 0.371789 20.4312 0.347245 20.371 0.33588C20.3406 0.331328 20.2491 0.32725 20.0972 0.324066L19.8042 0.318146L19.7945 0.784937ZM21.2718 1.87892L21.4609 0.0517999L22.8296 0.189973L22.7979 0.498596L21.8032 0.398152L21.7613 0.80401L22.6861 0.897195L22.6543 1.20627L21.7291 1.11264L21.678 1.60805L22.7086 1.71212L22.6769 2.02072L21.2718 1.87892ZM23.0077 1.44988L23.3739 1.47987C23.3734 1.60258 23.4006 1.69758 23.4562 1.76529C23.5124 1.83301 23.5956 1.8771 23.7079 1.8971C23.8261 1.91846 23.9204 1.90983 23.9899 1.87121C24.0585 1.83212 24.0999 1.77984 24.1118 1.71349C24.1201 1.67077 24.1141 1.63212 24.0943 1.59713C24.075 1.56303 24.0355 1.52849 23.9766 1.49532C23.9365 1.47259 23.8431 1.42852 23.6973 1.36306C23.5087 1.27854 23.3812 1.19398 23.3155 1.10853C23.2216 0.988536 23.1885 0.857207 23.2152 0.713562C23.2322 0.621299 23.2745 0.539506 23.3417 0.469052C23.4097 0.398151 23.4967 0.350873 23.6035 0.326774C23.7102 0.302703 23.8335 0.30315 23.9738 0.328618C24.2025 0.369974 24.3658 0.450873 24.4624 0.572234C24.5595 0.694042 24.5954 0.838553 24.5701 1.00764L24.1974 0.953099C24.1992 0.856731 24.1776 0.78357 24.1339 0.733584C24.0902 0.683571 24.0161 0.649028 23.9136 0.630402C23.8068 0.611301 23.7194 0.618116 23.6513 0.650844C23.6071 0.672206 23.5809 0.705856 23.5722 0.753104C23.5639 0.795829 23.5754 0.83537 23.6067 0.872649C23.6458 0.920373 23.7511 0.980829 23.9223 1.05536C24.0939 1.12944 24.2186 1.19716 24.2959 1.25762C24.3736 1.3176 24.4288 1.39124 24.4629 1.47758C24.4974 1.5644 24.5038 1.6644 24.4827 1.77803C24.4633 1.8821 24.4164 1.97392 24.3419 2.05345C24.2664 2.13345 24.1717 2.18573 24.0571 2.21027C23.943 2.23527 23.8059 2.23298 23.6467 2.20435C23.4162 2.16255 23.2478 2.07799 23.1438 1.95029C23.0394 1.82257 22.9943 1.6553 23.0077 1.44988ZM24.7007 2.36026L25.1838 0.586756L25.7649 0.741291C25.9853 0.799486 26.126 0.846734 26.1882 0.881752C26.2838 0.935814 26.3542 1.01674 26.3993 1.12445C26.4444 1.23171 26.4476 1.3567 26.4094 1.4976C26.3795 1.60668 26.3344 1.69258 26.2746 1.75622C26.2144 1.81983 26.1477 1.86484 26.075 1.89121C26.0018 1.91664 25.9319 1.92846 25.8647 1.92483C25.7732 1.91846 25.6462 1.89439 25.4819 1.85074L25.2464 1.78802L25.0642 2.45704L24.7007 2.36026ZM25.4654 0.983091L25.3278 1.48805L25.5256 1.54078C25.6683 1.5785 25.7658 1.59487 25.8187 1.5885C25.8721 1.58305 25.9176 1.56395 25.9554 1.53123C25.9935 1.49895 26.0198 1.45669 26.034 1.40397C26.052 1.33896 26.0469 1.2808 26.0202 1.22852C25.9935 1.17625 25.9526 1.13671 25.8969 1.11035C25.856 1.09083 25.7704 1.06399 25.6402 1.02945L25.4654 0.983091ZM26.8332 2.96793L27.0982 2.24071L26.8221 1.01219L27.2362 1.15944L27.4004 1.99073L28.0524 1.44988L28.4591 1.59439L27.4515 2.36933L27.187 3.09426L26.8332 2.96793ZM28.7765 1.71757L29.4524 2.02301C29.5867 2.08391 29.6838 2.1339 29.7445 2.17436C29.8053 2.21617 29.8536 2.26526 29.889 2.32343C29.9249 2.38207 29.947 2.44797 29.9548 2.52161C29.9621 2.59477 29.9497 2.66796 29.9161 2.73976C29.8803 2.81747 29.8259 2.87974 29.7528 2.92565C29.6806 2.97156 29.6001 2.99429 29.5122 2.99429C29.601 3.07019 29.6562 3.15609 29.6787 3.25335C29.7008 3.34972 29.6889 3.44606 29.6442 3.54287C29.6093 3.61877 29.5573 3.68467 29.4878 3.74058C29.4192 3.79604 29.3433 3.83148 29.2615 3.84695C29.18 3.86147 29.0912 3.85328 28.9955 3.82285C28.9362 3.80285 28.7968 3.74468 28.5787 3.64787L28.0032 3.38744L28.7765 1.71757ZM28.99 2.14982L28.812 2.53479L29.0355 2.63568C29.1685 2.69566 29.2518 2.73113 29.2858 2.74157C29.3475 2.76156 29.4027 2.76249 29.4515 2.74475C29.5002 2.72658 29.5366 2.69066 29.5609 2.63749C29.5853 2.58522 29.5899 2.5375 29.5761 2.49206C29.5623 2.44705 29.5283 2.40798 29.4749 2.37615C29.4427 2.3566 29.3466 2.31116 29.1865 2.23845L28.99 2.14982ZM28.6836 2.81202L28.4761 3.26016L28.7926 3.40333C28.915 3.45834 28.9951 3.4906 29.0309 3.49878C29.0866 3.5124 29.1382 3.50878 29.1865 3.48834C29.2348 3.46653 29.2725 3.42651 29.3001 3.36742C29.3236 3.31651 29.3309 3.26926 29.3226 3.22291C29.3143 3.17653 29.2904 3.13472 29.2513 3.09792C29.2122 3.06109 29.1147 3.00699 28.9597 2.93657L28.6836 2.81202ZM29.7073 4.18553L30.6141 2.60022L30.9416 2.78293L30.1894 4.09827L31.001 4.55143L30.8464 4.82141L29.7073 4.18553ZM31.0562 4.9641L32.1112 3.4515L32.4212 3.66287L31.3663 5.17499L31.0562 4.9641ZM31.6704 5.3718L32.7934 3.90785L33.0939 4.13281L32.5965 4.78094L33.6984 4.5855L34.1001 4.88639L33.104 5.03819L33.0065 6.37215L32.6195 6.08218L32.7387 5.08954L32.3104 5.15363L31.9708 5.59632L31.6704 5.3718ZM34.3287 7.67931L34.0439 7.39481L34.2316 6.98804L33.7071 6.46397L33.2972 6.64986L33.0175 6.37034L34.8468 5.58543L35.1265 5.86448L34.3287 7.67931ZM34.3692 6.68396L34.6765 6.02402L34.0108 6.32627L34.3692 6.68396ZM34.8684 7.38027L35.1265 7.63888C35.045 7.73159 35.0027 7.82159 35.0004 7.90885C34.9977 7.99612 35.0322 8.08294 35.1039 8.17065C35.1794 8.26291 35.2567 8.317 35.3349 8.33244C35.4127 8.34744 35.4784 8.33381 35.5313 8.29154C35.5659 8.26428 35.587 8.23155 35.5948 8.19201C35.6027 8.15384 35.5953 8.10246 35.5728 8.03929C35.5576 7.99567 35.5157 7.90249 35.4485 7.75887C35.3616 7.57342 35.3206 7.42707 35.3271 7.31981C35.3353 7.16846 35.397 7.04757 35.512 6.95575C35.5856 6.89711 35.6717 6.86212 35.7697 6.85213C35.8677 6.84213 35.9647 6.86212 36.0618 6.91303C36.1584 6.96349 36.2518 7.04347 36.3411 7.15301C36.4874 7.33162 36.5578 7.49797 36.5509 7.65251C36.544 7.80749 36.4759 7.94021 36.3448 8.05202L36.0982 7.77023C36.163 7.69886 36.1952 7.62933 36.1952 7.56342C36.1948 7.49708 36.1616 7.42299 36.0959 7.34299C36.0282 7.25983 35.9569 7.20844 35.8838 7.18937C35.8364 7.17708 35.7945 7.18574 35.7563 7.21573C35.7218 7.24346 35.7043 7.28071 35.7034 7.32844C35.702 7.39026 35.7416 7.50389 35.8226 7.67068C35.9035 7.83748 35.9532 7.96884 35.9721 8.06428C35.991 8.16018 35.985 8.25155 35.9532 8.33926C35.9224 8.427 35.8612 8.50697 35.7697 8.57969C35.6868 8.64607 35.5907 8.68513 35.4812 8.69742C35.3717 8.70968 35.265 8.68832 35.1619 8.63333C35.0588 8.57787 34.9563 8.4879 34.855 8.3638C34.7078 8.18338 34.6361 8.01111 34.6416 7.84703C34.6466 7.68342 34.7225 7.52751 34.8684 7.38027ZM35.783 9.58962L36.4409 9.17147L36.9778 8.02974L37.2161 8.39516L36.8347 9.15419L37.6854 9.11646L37.9191 9.47507L36.6424 9.48554L35.9864 9.90232L35.783 9.58962Z" fill="#002F6C"/>
    <path fill-rule="evenodd" clip-rule="evenodd" d="M27.6932 1.01611C27.7724 1.01611 27.8363 1.07939 27.8363 1.15766C27.8363 1.23595 27.7724 1.2992 27.6932 1.2992C27.614 1.2992 27.55 1.23595 27.55 1.15766C27.55 1.07939 27.614 1.01611 27.6932 1.01611Z" fill="#303E68"/>
    <path fill-rule="evenodd" clip-rule="evenodd" d="M4.7247 23.1775C4.80385 23.1775 4.86785 23.2407 4.86785 23.319C4.86785 23.3973 4.80385 23.4606 4.7247 23.4606C4.64551 23.4606 4.58154 23.3973 4.58154 23.319C4.58154 23.2407 4.64551 23.1775 4.7247 23.1775Z" fill="#303E68"/>
</svg>