<svg width="142" height="32" viewBox="0 0 142 32" fill="none" xmlns="http://www.w3.org/2000/svg">
<path fill-rule="evenodd" clip-rule="evenodd" d="M15.9796 6.33765C15.2954 6.156 15.2954 5.82297 14.2489 5.82297C11.1498 5.82297 12.1157 11.8377 15.9796 9.24409V15.5817H21.2523C20.3668 13.7955 22.0975 12.0193 23.627 12.0193C25.1162 12.0193 26.8469 13.7955 26.0017 15.5817C26.9676 15.5817 27.9336 15.5817 28.8593 15.5817C29.6643 15.5817 31.4353 15.9047 31.4353 15.0671V3.43121C31.4353 1.52387 30.0266 0 27.8531 0H15.9796V6.33765Z" fill="#FDB71A"/>
<path fill-rule="evenodd" clip-rule="evenodd" d="M21.5751 14.5532C21.5751 15.2899 21.7763 15.5119 22.0983 16.0973H15.9805V21.4055H17.3087C19.4016 21.4055 20.0456 24.5945 18.6369 25.8157C17.4294 26.8955 16.383 26.401 15.9805 26.3606V31.6689H28.3772C30.2286 31.6689 31.4361 29.9735 31.4361 28.0762V16.6119C31.4361 15.7945 30.0676 16.0973 28.5382 16.0973C27.4112 16.0973 26.2842 16.0973 25.1573 16.0973C25.6403 15.1688 25.8817 14.3514 25.2378 13.4229C24.5938 12.4339 22.8631 12.3532 22.0581 13.322C21.8166 13.5844 21.5751 14.0991 21.5751 14.5532Z" fill="#44C5F2"/>
<path fill-rule="evenodd" clip-rule="evenodd" d="M0 2.74497V15.5817H6.27885C3.82366 19.3056 9.70002 20.6579 9.70002 16.9542C9.70002 16.1368 9.33778 16.268 9.17679 15.5817L14.2884 15.5918C15.8179 15.612 15.4556 15.9249 15.4556 10.7881C15.4556 10.1322 15.2141 10.3946 14.6104 10.4248C10.9075 10.6065 11.0685 5.167 14.4494 5.31838C15.7374 5.36884 15.4556 6.35784 15.4556 0.514682C15.4556 0.121109 15.3349 0 14.9324 0H3.21992C1.65021 0 0.201243 1.26148 0 2.50277V2.62387V2.74497Z" fill="#44C5F2"/>
<path fill-rule="evenodd" clip-rule="evenodd" d="M0 28.7643V28.9056V29.057C0.160996 30.5001 1.40871 31.6707 2.89793 31.6707H15.4556V25.5147C16.3009 25.7065 16.6229 26.2212 17.5888 25.7973C20.205 24.6569 18.4743 20.3982 15.4556 22.4266V17.2798C15.4959 15.6853 15.7776 16.0991 10.183 16.0991V17.4615C10.183 20.3578 5.11163 20.6 5.11163 17.1184C5.11163 15.8569 6.4801 16.0991 0 16.0991V28.7643Z" fill="#FDB71A"/>
<path fill-rule="evenodd" clip-rule="evenodd" d="M90.1982 19.5157H93.7402C93.8207 18.8698 94.5854 16.9827 94.9074 16.2157C95.3099 15.0955 95.7124 14.0863 96.1551 13.0065C96.5576 11.9468 96.9601 10.9175 97.3626 9.80739L98.2481 7.44591C98.5298 6.64865 98.0871 7.12297 98.6908 6.67893C98.7311 7.44591 99.1335 8.17251 99.3348 8.75784C100.301 11.3918 100.422 10.3725 98.2883 15.1762L96.4771 19.5157H100.059C100.261 18.5065 101.508 16.0744 101.589 15.2368L103.44 19.5157H107.022C106.7 18.8698 103.44 11.0184 103.44 10.9579L104.97 6.67893C105.332 8.20279 109.679 18.7184 109.719 19.5157H113.301C113.221 18.8395 112.053 16.3065 111.691 15.479L106.499 3.25781H103.279C103.038 4.30736 101.991 5.98259 101.911 6.85049H101.589C101.508 6.27526 101.186 5.63948 100.945 5.08442C100.703 4.49911 100.341 3.86332 100.22 3.25781H97.0003C96.0746 4.9936 90.2385 19.0918 90.1982 19.5157Z" fill="black"/>
<path fill-rule="evenodd" clip-rule="evenodd" d="M65.407 3.7624C65.407 6.20462 64.6021 5.64957 70.3174 5.64957V19.1726C70.3174 19.9194 71.0419 19.6873 72.6921 19.6873C73.0946 19.6873 73.2154 19.5662 73.2154 19.1726V5.64957C74.5838 5.64957 76.9585 5.94223 78.1258 5.478V3.60093L81.9092 10.7257C83.8814 14.3487 83.5594 13.0469 83.5594 17.2854C83.5594 20.0304 82.9959 19.6873 86.2963 19.6873C86.2963 11.6441 85.8133 15.4285 89.0735 8.78812C89.5565 7.76885 89.9992 7.11288 90.4822 6.1037C90.925 5.17525 91.7299 3.93396 91.8909 3.25781H88.832L85.0486 10.9276C84.0424 10.1606 81.7482 3.25781 80.8627 3.25781H65.89C65.5278 3.25781 65.407 3.36882 65.407 3.7624Z" fill="black"/>
<path fill-rule="evenodd" clip-rule="evenodd" d="M51.6367 3.76239V19.1726C51.6367 19.9597 52.6027 19.6872 54.5347 19.6872V7.87984L59.928 16.7909C61.9807 20.2322 61.0147 19.6872 64.3554 19.6872V3.2578H61.6587V14.8936C61.216 14.5707 55.9434 5.65965 55.2994 4.52936C54.4139 3.00551 54.9371 3.2578 52.16 3.2578C51.7575 3.2578 51.6367 3.36881 51.6367 3.76239Z" fill="black"/>
<path fill-rule="evenodd" clip-rule="evenodd" d="M135.038 17.4594C130.288 17.4594 130.973 13.2915 130.973 9.41623C130.973 4.06757 138.62 3.67399 138.62 10.1025C138.62 12.5447 138.902 17.4594 135.038 17.4594ZM128.075 9.75935V13.0089C128.075 16.8741 130.852 19.8612 134.716 19.8612C135.923 19.8612 136.487 19.5686 137.412 19.3466L140.19 22.2126L142.001 20.5475L139.505 17.9337C139.908 17.2979 140.27 17.0658 140.713 16.1575C141.639 14.2805 141.317 11.7172 141.317 9.24467C141.317 6.07584 138.378 3.08867 135.199 3.08867C133.669 3.08867 133.066 3.00794 131.576 3.72446C130.812 4.09785 130.369 4.60244 129.805 5.17767C128.799 6.19694 128.075 7.80154 128.075 9.75935Z" fill="black"/>
<path fill-rule="evenodd" clip-rule="evenodd" d="M120.951 6.85049H121.273C121.394 8.12206 123.205 12.2395 123.326 13.5212H118.898C119.019 12.2496 120.83 8.13215 120.951 6.85049ZM113.988 19.6873H116.685C116.846 19.0212 117.127 18.2038 117.369 17.6083C118.254 15.1258 117.007 15.7515 123.809 15.7515C124.573 15.7515 124.855 18.3047 125.539 19.6873H128.236C128.196 19.0616 127.834 18.1533 127.632 17.5781L125.378 11.4423C124.855 10.0799 124.412 8.81839 123.929 7.42572C123.648 6.64865 123.446 6.17434 123.205 5.41745C122.923 4.60002 122.641 4.02479 122.48 3.25781H119.744L116.805 11.4221C116.322 12.6432 113.988 18.89 113.988 19.6873Z" fill="black"/>
<path fill-rule="evenodd" clip-rule="evenodd" d="M42.9877 19.6873C46.0467 19.6873 45.3222 20.4038 45.3624 14.712C45.3624 12.4514 50.6753 4.78167 50.7961 3.25781H47.7371L45.8454 7.19361C45.5234 7.84957 45.2417 8.42481 44.9197 9.13124C44.5575 9.7872 44.3562 10.5643 43.833 10.9578L40.0898 3.25781H37.0309C37.1919 4.03488 37.5944 4.36791 37.9566 5.07434L41.7803 12.3303C42.7463 14.0358 42.4645 14.8028 42.4645 17.2854C42.4645 18.0726 42.1425 19.6873 42.9877 19.6873Z" fill="black"/>
<path d="M46.4886 28.3039L47.261 28.501C47.0997 29.1399 46.8099 29.6252 46.3907 29.9605C45.972 30.2954 45.4597 30.4636 44.8539 30.4636C44.228 30.4636 43.7186 30.3354 43.3252 30.0767C42.9322 29.8194 42.6343 29.4459 42.4295 28.9578C42.2247 28.4682 42.1221 27.9444 42.1221 27.3835C42.1221 26.772 42.2371 26.2386 42.4687 25.7827C42.7007 25.3274 43.0301 24.9814 43.4569 24.7448C43.8838 24.5082 44.354 24.3906 44.8663 24.3906C45.4492 24.3906 45.9381 24.5395 46.3339 24.8392C46.7311 25.1385 47.0075 25.5587 47.1632 26.1003L46.4069 26.281C46.2728 25.8541 46.0765 25.5423 45.8202 25.3481C45.5643 25.1525 45.2415 25.0551 44.8529 25.0551C44.407 25.0551 44.0327 25.1635 43.7334 25.3794C43.4335 25.5958 43.2225 25.8868 43.1017 26.2506C42.9795 26.6159 42.9189 26.9922 42.9189 27.3792C42.9189 27.8784 42.9905 28.315 43.1342 28.687C43.2779 29.0604 43.5013 29.338 43.805 29.5225C44.1086 29.7076 44.4366 29.7991 44.7904 29.7991C45.2215 29.7991 45.5843 29.6733 45.8827 29.4228C46.1806 29.1712 46.3826 28.7992 46.4886 28.3039ZM47.5752 30.3653L49.809 24.4889H50.656L53.0264 30.3653H52.1493L51.4757 28.5843H49.0241L48.3925 30.3653H47.5752ZM49.2504 27.9526H51.2346L50.6273 26.3234C50.4445 25.828 50.306 25.4189 50.2101 25.0961C50.1299 25.4792 50.0229 25.8555 49.8888 26.2275L49.2504 27.9526ZM54.2471 24.4889H57.8817V30.3653H57.1093V25.1785H55.0196V28.2056C55.0196 28.8209 54.9914 29.271 54.9341 29.5567C54.8773 29.8439 54.7565 30.0656 54.5737 30.2256C54.3908 30.3846 54.1579 30.4636 53.8771 30.4636C53.7067 30.4636 53.5019 30.4284 53.2632 30.3571L53.4016 29.6676C53.5277 29.7336 53.636 29.7663 53.7253 29.7663C53.8991 29.7663 54.0304 29.7003 54.1173 29.5678C54.2037 29.4353 54.2471 29.1231 54.2471 28.6311V24.4889ZM58.5148 30.3653L60.7487 24.4889H61.5956L63.966 30.3653H63.089L62.4153 28.5843H59.9638L59.3321 30.3653H58.5148ZM60.1901 27.9526H62.1742L61.5669 26.3234C61.3841 25.828 61.2456 25.4189 61.1497 25.0961C61.0695 25.4792 60.9625 25.8555 60.8284 26.2275L60.1901 27.9526ZM65.1868 24.4889H68.8214V30.3653H68.0489V25.1785H65.9592V28.2056C65.9592 28.8209 65.9311 29.271 65.8738 29.5567C65.817 29.8439 65.6962 30.0656 65.5133 30.2256C65.3305 30.3846 65.0975 30.4636 64.8168 30.4636C64.6463 30.4636 64.4415 30.4284 64.2028 30.3571L64.3412 29.6676C64.4673 29.7336 64.5757 29.7663 64.6649 29.7663C64.8387 29.7663 64.97 29.7003 65.0569 29.5678C65.1433 29.4353 65.1868 29.1231 65.1868 28.6311V24.4889ZM70.1338 24.4889H70.9063V26.9922H72.2927C73.2017 26.9922 73.7994 27.1618 74.0868 27.5025C74.3728 27.8418 74.5165 28.2273 74.5165 28.658C74.5165 29.1139 74.3633 29.5119 74.0558 29.8536C73.7493 30.1943 73.1802 30.3653 72.3466 30.3653H70.1338V24.4889ZM70.9063 29.7003H72.3104C72.7926 29.7003 73.1435 29.6184 73.3602 29.4541C73.5789 29.2903 73.6872 29.0276 73.6872 28.6662C73.6872 28.4215 73.6209 28.2152 73.4891 28.0494C73.3578 27.8842 73.1869 27.7786 72.9783 27.7333C72.7711 27.6885 72.4225 27.6649 71.9346 27.6649H70.9063V29.7003ZM75.2159 24.4889H75.9884V30.3653H75.2159V24.4889ZM81.3823 31.9984H80.6991V30.3653H80.4227L79.4426 28.7703C79.1986 28.3694 79.0186 28.1068 78.9021 27.9854C78.6663 27.7391 78.3922 27.6158 78.0809 27.6158V30.3653H77.3085V24.4889H78.0809V27.066C78.4614 27.066 78.745 26.9566 78.9303 26.7378C79.0282 26.6226 79.1733 26.333 79.3657 25.8675C79.528 25.4806 79.6607 25.2069 79.7639 25.0498C80.0121 24.6764 80.375 24.4889 80.8533 24.4889C81.1517 24.4889 81.3088 24.4918 81.325 24.4971V25.1703C81.2911 25.1703 81.24 25.1688 81.1708 25.1659C81.1016 25.1635 81.05 25.1621 81.0147 25.1621C80.7426 25.1621 80.5311 25.2565 80.3807 25.4464C80.2952 25.5505 80.1854 25.7721 80.0498 26.1114C79.9047 26.4819 79.7868 26.7325 79.6975 26.8636C79.5457 27.0852 79.337 27.2505 79.0702 27.3613C79.4454 27.4669 79.8168 27.8172 80.1826 28.4133L80.9565 29.6758H81.3823V31.9984ZM84.3041 24.4889H85.0766V27.066C85.4275 27.066 85.6753 26.9961 85.8176 26.8583C85.9613 26.72 86.1432 26.3889 86.3652 25.8637C86.5265 25.4768 86.6593 25.2045 86.7652 25.0455C86.8693 24.8855 87.0183 24.7515 87.2121 24.6436C87.4045 24.5357 87.6189 24.4807 87.8518 24.4807C88.1488 24.4807 88.3044 24.4836 88.3207 24.4889V25.1621C88.2939 25.1621 88.2424 25.1606 88.1665 25.1578C88.081 25.1553 88.0294 25.1539 88.0103 25.1539C87.765 25.1539 87.5821 25.2141 87.4627 25.3341C87.341 25.4546 87.2026 25.7119 87.0455 26.1046C86.8502 26.6024 86.685 26.9171 86.5494 27.0467C86.4153 27.1753 86.253 27.2794 86.0658 27.3575C86.4411 27.4616 86.8125 27.8129 87.1782 28.4094L88.378 30.3653H87.4207L86.4439 28.7732C86.1771 28.3313 85.9531 28.0278 85.7741 27.8634C85.5941 27.6982 85.3626 27.6158 85.0766 27.6158V30.3653H84.3041V24.4889ZM94.1471 27.3628C94.1657 28.2518 93.9557 28.9867 93.5193 29.5664C93.0696 30.1644 92.3864 30.4636 91.4678 30.4636C90.5517 30.4636 89.8699 30.1644 89.4197 29.5649C88.9986 29.0045 88.7886 28.2697 88.7886 27.3613V26.984H93.3174C93.2863 26.3971 93.1154 25.936 92.8051 25.5996C92.4771 25.2483 92.0288 25.0715 91.4569 25.0715C90.618 25.0715 90.0895 25.4821 89.8699 26.3027L89.1137 26.1032C89.2612 25.5461 89.5472 25.1182 89.9716 24.82C90.3755 24.5342 90.8701 24.3906 91.4516 24.3906C91.9811 24.3906 92.4556 24.5217 92.8772 24.7829C93.3078 25.0469 93.632 25.4204 93.8487 25.9008C94.0373 26.3123 94.1361 26.7995 94.1471 27.3628ZM93.3498 27.6736H89.5854C89.615 28.3313 89.7954 28.8513 90.1287 29.2339C90.4633 29.6155 90.9093 29.8073 91.4678 29.8073C92.0259 29.8073 92.4718 29.6155 92.8065 29.2339C93.1398 28.8513 93.3217 28.3313 93.3498 27.6736ZM99.2904 28.3039L100.063 28.501C99.9015 29.1399 99.6117 29.6252 99.1925 29.9605C98.7738 30.2954 98.2615 30.4636 97.6557 30.4636C97.0298 30.4636 96.5204 30.3354 96.127 30.0767C95.7341 29.8194 95.4362 29.4459 95.2313 28.9578C95.0265 28.4682 94.9239 27.9444 94.9239 27.3835C94.9239 26.772 95.0389 26.2386 95.2705 25.7827C95.5025 25.3274 95.8319 24.9814 96.2588 24.7448C96.6856 24.5082 97.1558 24.3906 97.6681 24.3906C98.251 24.3906 98.7399 24.5395 99.1357 24.8392C99.5329 25.1385 99.8093 25.5587 99.965 26.1003L99.2087 26.281C99.0746 25.8541 98.8784 25.5423 98.622 25.3481C98.3661 25.1525 98.0434 25.0551 97.6547 25.0551C97.2088 25.0551 96.8345 25.1635 96.5352 25.3794C96.2354 25.5958 96.0243 25.8868 95.9036 26.2506C95.7813 26.6159 95.7207 26.9922 95.7207 27.3792C95.7207 27.8784 95.7923 28.315 95.936 28.687C96.0797 29.0604 96.3032 29.338 96.6068 29.5225C96.9104 29.7076 97.2384 29.7991 97.5922 29.7991C98.0233 29.7991 98.3861 29.6733 98.6845 29.4228C98.9824 29.1712 99.1844 28.7992 99.2904 28.3039ZM101.146 30.3653V24.4889H101.918V30.3653H101.146ZM103.283 24.4889H107.852V30.3653H107.08V25.1785H104.056V30.3653H103.283V24.4889ZM108.884 27.5049C108.884 26.5311 109.144 25.7678 109.663 25.2165C110.182 24.6653 110.852 24.3906 111.673 24.3906C112.211 24.3906 112.695 24.5202 113.127 24.779C113.558 25.0373 113.888 25.3987 114.114 25.8622C114.34 26.3248 114.454 26.8501 114.454 27.4365C114.454 28.0316 114.335 28.5651 114.096 29.0344C113.857 29.5047 113.52 29.8608 113.084 30.1012C112.646 30.3436 112.175 30.4636 111.669 30.4636C111.12 30.4636 110.631 30.3296 110.198 30.0632C109.767 29.7962 109.439 29.4324 109.217 28.9703C108.995 28.5092 108.884 28.021 108.884 27.5049ZM109.681 27.5189C109.681 28.2258 109.869 28.7829 110.246 29.1891C110.623 29.5953 111.096 29.7991 111.665 29.7991C112.245 29.7991 112.721 29.5938 113.096 29.1833C113.47 28.7732 113.657 28.1906 113.657 27.4355C113.657 26.958 113.577 26.5407 113.417 26.1851C113.257 25.8295 113.023 25.5534 112.715 25.3577C112.406 25.1621 112.06 25.0633 111.677 25.0633C111.132 25.0633 110.663 25.2522 110.27 25.63C109.877 26.0073 109.681 26.6366 109.681 27.5189ZM115.794 24.4889H119.339V29.6758H119.86V31.7357H119.177V30.3653H115.323V31.7357H114.639V29.6758H115.087C115.559 28.9621 115.794 27.5189 115.794 25.3481V24.4889ZM118.567 25.1785H116.534V25.4792C116.534 25.9798 116.489 26.665 116.4 27.5338C116.312 28.4027 116.136 29.1163 115.876 29.6758H118.567V25.1785ZM120.134 30.3653L122.367 24.4889H123.214L125.585 30.3653H124.708L124.034 28.5843H121.583L120.951 30.3653H120.134ZM121.809 27.9526H123.793L123.186 26.3234C123.003 25.828 122.864 25.4189 122.769 25.0961C122.688 25.4792 122.581 25.8555 122.447 26.2275L121.809 27.9526ZM129.977 25.1785H126.985V27.1647H128.578V27.69H126.985V30.3653H126.212V27.69H125.561V27.1647H126.212V24.4889H129.977V25.1785ZM130.64 24.4889H131.412V26.9922H132.799C133.708 26.9922 134.305 27.1618 134.593 27.5025C134.879 27.8418 135.022 28.2273 135.022 28.658C135.022 29.1139 134.869 29.5119 134.562 29.8536C134.255 30.1943 133.686 30.3653 132.853 30.3653H130.64V24.4889ZM131.412 29.7003H132.816C133.299 29.7003 133.649 29.6184 133.866 29.4541C134.085 29.2903 134.193 29.0276 134.193 28.6662C134.193 28.4215 134.127 28.2152 133.995 28.0494C133.864 27.8842 133.693 27.7786 133.484 27.7333C133.277 27.6885 132.929 27.6649 132.441 27.6649H131.412V29.7003ZM135.722 24.4889H136.494V30.3653H135.722V24.4889Z" fill="#979797"/>
</svg>
