<svg width="227" height="32" viewBox="0 0 227 32" fill="none" xmlns="http://www.w3.org/2000/svg">
<path d="M46.1112 19.5773L46.1957 19.4931H46.6183L46.7028 19.5773C46.7451 20.3354 46.7873 20.7987 46.8296 20.9672C46.8718 21.1356 47.0409 21.3041 47.2944 21.5147C47.548 21.6832 47.9283 21.8516 48.3509 21.978C48.7735 22.1043 49.2384 22.1465 49.7033 22.1465C50.3372 22.1465 50.8865 22.0201 51.3937 21.8095C51.9008 21.5989 52.2811 21.262 52.5347 20.7987C52.7883 20.3354 52.9573 19.8721 52.9573 19.3246C52.9573 18.9455 52.8728 18.6086 52.746 18.3138C52.6192 18.0189 52.4079 17.8084 52.1966 17.6399C51.9853 17.4714 51.6895 17.3451 51.3937 17.2608C51.0978 17.1766 50.633 17.0924 50.0413 16.966C49.4497 16.8818 48.9848 16.7975 48.6468 16.7133C48.3087 16.6291 47.9706 16.5027 47.6748 16.3764C47.3367 16.2079 47.0831 16.0394 46.8718 15.7867C46.6605 15.534 46.4915 15.2392 46.3225 14.9022C46.1534 14.5653 46.1112 14.1862 46.1112 13.7651C46.1112 12.67 46.4915 11.7855 47.2522 11.0695C48.0129 10.3535 49.0271 10.0166 50.3372 10.0166C50.8443 10.0166 51.3937 10.1008 51.9853 10.1851C52.577 10.3114 53.1263 10.4799 53.6335 10.7326L53.6757 10.859C53.5489 11.4065 53.4644 12.1646 53.4222 13.1754L53.3376 13.2597H52.8728L52.7883 13.2175C52.7883 12.5015 52.746 12.0804 52.746 11.9119C52.7037 11.7434 52.4502 11.4907 51.9431 11.238C51.4359 10.9853 50.8865 10.8168 50.2949 10.8168C49.7878 10.8168 49.3229 10.9011 48.9003 11.1117C48.4777 11.3222 48.1396 11.6171 47.9283 12.0382C47.717 12.4594 47.5903 12.8806 47.5903 13.3439C47.5903 13.6808 47.6748 13.9757 47.8016 14.2705C47.9283 14.5653 48.0974 14.7338 48.3087 14.9022C48.52 15.0707 48.7735 15.1549 49.0694 15.2392C49.3652 15.3234 49.8723 15.4076 50.633 15.534C51.6895 15.6604 52.4079 15.8709 52.915 16.0815C53.3799 16.2921 53.7602 16.6291 54.0561 17.0502C54.3519 17.5135 54.4787 18.0611 54.4787 18.6928C54.4787 19.9563 53.9715 20.9672 52.9573 21.8095C51.9431 22.6519 50.7175 23.073 49.2384 23.073C48.0129 23.073 46.9564 22.8625 46.0266 22.4413L45.9844 22.3149C46.0266 21.7674 46.0689 20.925 46.1112 19.5773Z" fill="#002F6C"/>
<path d="M71.4239 10.2267L71.5084 10.3109V10.7321L71.4239 10.7742C70.79 10.7742 70.3674 10.8163 70.2406 10.8585C70.0716 10.9006 69.9871 10.9848 69.9025 11.1112C69.818 11.2375 69.818 11.4481 69.7758 11.7429C69.7758 12.0799 69.7335 12.9643 69.7335 14.4384V18.4817C69.7335 19.0714 69.7335 19.7453 69.7758 20.4613C69.818 21.1773 69.818 21.6405 69.9025 21.7669C69.9871 21.8932 70.0716 21.9775 70.1984 22.0196C70.3251 22.0617 70.7477 22.1038 71.4662 22.146L71.5507 22.1881V22.6092L71.4662 22.6935C70.4942 22.6514 69.6912 22.6092 68.9728 22.6092C68.508 22.6092 67.6628 22.6514 66.5217 22.6935L66.4372 22.6092V22.1881L66.5217 22.1038C67.1556 22.1038 67.5782 22.0617 67.705 22.0196C67.8741 21.9775 67.9586 21.8932 68.0431 21.7669C68.1276 21.6405 68.1276 21.43 68.1699 21.1351C68.2121 20.8403 68.2121 19.9137 68.2121 18.4817V12.0377L65.1694 18.3554C64.4087 19.9558 63.7326 21.43 63.1832 22.8198H62.8028C62.4648 22.0617 62.2112 21.4721 61.9999 21.0088L57.7739 12.2904V18.4396C57.7739 19.0293 57.7739 19.661 57.8161 20.4191C57.8161 21.1773 57.8584 21.5984 57.9429 21.7248C57.9852 21.8511 58.112 21.9354 58.2387 21.9775C58.3655 22.0196 58.7881 22.0617 59.5065 22.1038L59.5911 22.1881V22.6092L59.5065 22.6935L58.9572 22.6514C58.3655 22.6093 57.8584 22.6092 57.4781 22.6092C57.309 22.6092 56.5906 22.6514 55.3651 22.6935L55.2805 22.6092V22.1881L55.3651 22.1038C55.999 22.1038 56.4216 22.0617 56.5483 22.0196C56.6751 21.9775 56.8019 21.8932 56.8864 21.7669C56.9709 21.6405 57.0132 21.43 57.0132 21.1351C57.0132 20.8403 57.0555 19.9137 57.0555 18.4396V14.4384C57.0555 13.8909 57.0555 13.2592 57.0132 12.501C56.9709 11.7429 56.9709 11.2796 56.8864 11.1954C56.8442 11.069 56.7174 10.9848 56.5906 10.9427C56.4638 10.9006 56.0412 10.8585 55.3228 10.8163L55.2383 10.7321V10.3109L55.3228 10.2267C55.7454 10.2688 56.2525 10.2688 56.9709 10.2688C57.6048 10.2688 58.1965 10.2688 58.6613 10.2267C59.1685 11.3639 59.6333 12.3747 60.0982 13.3013L63.4367 20.1243L66.4372 13.8488C67.2402 12.1641 67.7895 10.9427 68.0854 10.1846C68.6347 10.2267 69.1841 10.2267 69.7335 10.2267C70.1984 10.2688 70.79 10.2267 71.4239 10.2267Z" fill="#002F6C"/>
<path d="M72.3111 22.6517L72.2266 22.5675V22.1042L72.3111 22.02C72.7337 22.02 73.0295 21.9779 73.1563 21.9357C73.2831 21.8936 73.4098 21.8094 73.4944 21.7252C73.5789 21.5988 73.7902 21.2197 74.086 20.588L75.0157 18.6085L77.4246 13.2174C77.8894 12.1645 78.312 11.1115 78.7769 10.0586H79.3685L83.1297 18.8612L83.6368 20.0405C83.7636 20.3774 83.9326 20.7565 84.1439 21.1355C84.3552 21.5146 84.482 21.7673 84.5243 21.8094C84.6088 21.8936 84.6933 21.9357 84.7778 21.9779C84.9046 22.02 85.1159 22.02 85.4962 22.0621L85.5808 22.1463V22.6096L85.4962 22.6939C84.8623 22.6517 84.313 22.6096 83.8058 22.6096C82.8338 22.6517 81.8619 22.6517 80.8899 22.6939L80.8054 22.6096V22.1463L80.8899 22.0621C81.566 22.0621 81.9464 22.02 82.1154 21.9779C82.2845 21.9357 82.369 21.8515 82.369 21.683C82.369 21.5567 82.3267 21.3882 82.2422 21.1776L81.1434 18.4821H76.03L75.058 20.7143C74.8889 21.1355 74.8044 21.4303 74.8044 21.5988C74.8044 21.7252 74.8889 21.8515 75.058 21.9357C75.227 22.02 75.6074 22.0621 76.2413 22.0621L76.3258 22.1463V22.6096L76.2413 22.6939C75.4806 22.6517 74.8044 22.6096 74.255 22.6096C73.6211 22.5675 72.9872 22.6096 72.3111 22.6517ZM76.3258 17.724H80.7631L78.5656 12.4172L76.3258 17.724Z" fill="#002F6C"/>
<path d="M86.3438 10.2687L86.4283 10.2266C87.4848 10.2687 88.33 10.3108 88.9216 10.3108C89.5978 10.3108 90.4852 10.3108 91.6263 10.2687C92.0489 10.2687 92.3447 10.2687 92.5137 10.2687C93.9928 10.2687 95.0071 10.5214 95.5142 11.0689C96.0213 11.6164 96.3171 12.2482 96.3171 12.9642C96.3171 13.4696 96.1904 13.9329 95.9368 14.3962C95.6832 14.8595 95.3029 15.2807 94.7958 15.6176C94.2887 15.9546 93.6125 16.2073 92.725 16.3757C92.8941 16.5863 93.1899 17.0075 93.6125 17.555L94.8803 19.1976C95.3029 19.7451 95.7255 20.3348 96.1904 20.9244C96.6552 21.5141 96.951 21.8931 97.0778 21.9352C97.2046 22.0195 97.3314 22.0616 97.4159 22.0616C97.5004 22.0616 97.6695 22.1037 97.8808 22.1037L97.9653 22.1879V22.6091L97.8808 22.6934C97.5849 22.6512 97.2469 22.6512 96.8665 22.6512C96.4439 22.6512 95.9791 22.6512 95.5142 22.6934C95.0916 22.188 94.4577 21.3456 93.6125 20.1242C92.5982 18.7343 91.584 17.4287 90.5275 16.2073L90.612 15.9546C90.9078 15.9546 91.1614 15.9967 91.3304 15.9967C92.3447 15.9967 93.1476 15.744 93.697 15.2807C94.2887 14.7753 94.5422 14.1014 94.5422 13.259C94.5422 12.5009 94.2887 11.9113 93.7815 11.4901C93.2744 11.111 92.556 10.9004 91.6685 10.9004C91.0346 10.9004 90.4852 10.9847 89.9359 11.1531C89.8513 11.2795 89.8091 12.3746 89.8091 14.4383V18.4816V20.2084C89.8091 20.8823 89.8513 21.3035 89.8513 21.472C89.8936 21.6825 89.9359 21.8089 89.9781 21.851C90.0204 21.9352 90.1472 21.9774 90.3162 22.0195C90.4852 22.0616 90.8656 22.1037 91.4995 22.1037L91.584 22.1458V22.567L91.4995 22.6512C91.4572 22.6512 90.9501 22.6512 89.9359 22.6091C89.5133 22.6091 89.1752 22.6091 88.9639 22.6091C88.7948 22.6091 87.9496 22.6512 86.4283 22.6934L86.3438 22.6091V22.1879L86.4283 22.1458C86.9777 22.1037 87.358 22.1037 87.527 22.0616C87.6961 22.0195 87.8229 21.9774 87.9074 21.9352C87.9496 21.8931 88.0342 21.7668 88.0764 21.5983C88.1187 21.4298 88.1187 21.0087 88.1609 20.3769V18.5237V14.4804V12.7536C88.1609 12.0797 88.1187 11.6586 88.1187 11.448C88.1187 11.2374 88.0342 11.111 87.9919 11.0689C87.9496 10.9847 87.8229 10.9426 87.6538 10.9004C87.4848 10.8583 87.1044 10.8162 86.4705 10.8162L86.386 10.7741V10.2687H86.3438Z" fill="#002F6C"/>
<path d="M108.615 10.1846L108.699 10.2688C108.657 10.8163 108.615 11.7008 108.615 13.0064L108.53 13.0907H108.108L108.023 13.0064L107.939 12.2062C107.896 11.785 107.854 11.4902 107.812 11.406C107.77 11.3217 107.727 11.2375 107.685 11.1954C107.643 11.1533 107.431 11.1112 107.093 11.069C106.755 11.0269 106.417 11.0269 105.995 11.0269H104.346C104.304 12.3326 104.262 13.1328 104.262 13.3013V18.3975V20.1243C104.262 20.7982 104.304 21.2194 104.304 21.43C104.346 21.6405 104.389 21.7669 104.431 21.809C104.473 21.8511 104.6 21.9354 104.769 21.9775C104.938 22.0196 105.318 22.0617 105.952 22.0617L105.995 22.1038V22.525L105.952 22.6092C104.431 22.5671 103.628 22.525 103.417 22.525C103.248 22.525 102.403 22.5671 100.923 22.6092L100.839 22.525V22.1038L100.923 22.0617C101.473 22.0196 101.853 22.0196 102.022 21.9775C102.191 21.9354 102.318 21.8933 102.403 21.8511C102.445 21.809 102.529 21.6827 102.572 21.5142C102.614 21.3457 102.614 20.9245 102.614 20.2928V18.4396V13.3434C102.614 13.2592 102.572 12.501 102.529 11.069H101.219C100.67 11.069 100.205 11.069 99.8246 11.1112C99.4443 11.1533 99.1907 11.1954 99.1485 11.2796C99.1062 11.3639 99.0217 11.7008 98.9794 12.2062L98.8949 13.0064L98.8104 13.0907H98.3878L98.3033 13.0064C98.3033 11.6166 98.261 10.69 98.2188 10.2688L98.3033 10.1846C99.3175 10.2267 101.008 10.2688 103.417 10.2688C105.952 10.2688 107.643 10.2267 108.615 10.1846Z" fill="#002F6C"/>
<path d="M120.392 16.4604C121.871 15.1127 122.927 14.144 123.604 13.4701C124.28 12.7962 124.787 12.2908 125.209 11.8696C125.632 11.4484 125.886 11.1536 125.97 11.0694V10.4797L126.055 10.3955C126.52 10.4376 126.984 10.4376 127.534 10.4376C127.661 10.4376 128.125 10.4376 128.928 10.3955L129.013 10.4797V10.9009L128.928 10.9852C128.379 10.9852 127.999 11.0273 127.83 11.0694C127.661 11.1115 127.322 11.3221 126.942 11.6169C126.562 11.9117 126.097 12.3329 125.632 12.7541L122.082 15.9971L127.365 20.8828C128.21 21.683 128.675 22.1042 128.802 22.1884C128.928 22.2727 129.097 22.3148 129.435 22.3148L129.478 22.399V22.7781L129.435 22.8623C129.097 22.8202 128.759 22.8202 128.379 22.8202C128.168 22.8202 127.703 22.8202 126.942 22.8623C126.393 22.3569 125.928 21.8936 125.548 21.5145C125.125 21.1355 123.435 19.5771 120.434 16.7974V18.6506V20.3774C120.434 21.0513 120.476 21.4724 120.476 21.6409C120.519 21.8515 120.561 21.9778 120.603 22.02C120.645 22.1042 120.772 22.1463 120.941 22.1884C121.11 22.2305 121.491 22.2727 122.124 22.2727L122.209 22.3148V22.736L122.124 22.8202C122.082 22.8202 121.575 22.8202 120.561 22.7781C120.138 22.7781 119.8 22.7781 119.589 22.7781C119.42 22.7781 118.575 22.8202 117.053 22.8623L116.969 22.7781V22.3569L117.053 22.3148C117.603 22.2727 117.983 22.2727 118.152 22.2305C118.321 22.1884 118.448 22.1463 118.532 22.1042C118.575 22.0621 118.659 21.9357 118.701 21.7672C118.744 21.5988 118.744 21.1776 118.786 20.5458V18.6927V14.6494V12.9226C118.786 12.2487 118.744 11.8275 118.744 11.6169C118.744 11.4063 118.659 11.28 118.617 11.2379C118.575 11.1536 118.448 11.1115 118.279 11.0694C118.11 11.0273 117.729 10.9852 117.096 10.9852L117.011 10.943V10.5219L117.096 10.4797L118.194 10.5219C118.913 10.564 119.378 10.564 119.631 10.564C119.842 10.564 120.688 10.5219 122.167 10.4797L122.251 10.5219V10.943L122.167 10.9852C121.744 10.9852 121.448 11.0273 121.237 11.0273C121.026 11.0694 120.857 11.1115 120.772 11.1536C120.688 11.1957 120.603 11.3642 120.561 11.6169C120.519 11.8696 120.519 12.1644 120.519 12.5856V14.6073V16.4604H120.392Z" fill="#002F6C"/>
<path d="M129.987 22.9043L129.902 22.8201V22.3568L129.987 22.2726C130.409 22.2726 130.705 22.2305 130.832 22.1883C130.959 22.1462 131.086 22.062 131.17 21.9777C131.255 21.8514 131.466 21.4723 131.762 20.8406L132.692 18.8611L135.1 13.47C135.565 12.4171 135.988 11.3641 136.453 10.3112H137.044L140.805 19.1138L141.313 20.293C141.439 20.63 141.608 21.009 141.82 21.3881C142.031 21.7672 142.158 22.0199 142.2 22.062C142.285 22.1462 142.369 22.1883 142.454 22.2305C142.58 22.2726 142.792 22.2726 143.172 22.3147L143.257 22.3989V22.8622L143.172 22.9465C142.538 22.9043 141.989 22.8622 141.482 22.8622C140.51 22.9043 139.538 22.9043 138.566 22.9465L138.481 22.8622V22.3989L138.566 22.3147C139.242 22.3147 139.622 22.2726 139.791 22.2305C139.96 22.1883 140.045 22.1041 140.045 21.9356C140.045 21.8093 140.003 21.6408 139.918 21.4302L138.819 18.7347H133.706L132.734 20.9669C132.565 21.3881 132.48 21.6829 132.48 21.8514C132.48 21.9778 132.565 22.1041 132.734 22.1883C132.903 22.2726 133.283 22.3147 133.917 22.3147L134.002 22.3989V22.8622L133.917 22.9465C133.156 22.9043 132.48 22.8622 131.931 22.8622C131.297 22.8201 130.663 22.8622 129.987 22.9043ZM136.433 8.83707C136.137 8.83707 135.926 8.75284 135.715 8.54225C135.503 8.33166 135.419 8.12107 135.419 7.82625C135.419 7.53143 135.503 7.32084 135.715 7.11025C135.926 6.89967 136.137 6.81543 136.433 6.81543C136.729 6.81543 136.94 6.89967 137.151 7.11025C137.363 7.32084 137.447 7.53143 137.447 7.82625C137.447 8.12107 137.363 8.33166 137.151 8.54225C136.94 8.75284 136.687 8.83707 136.433 8.83707ZM134.002 17.9766H138.439L136.284 12.6698L134.002 17.9766Z" fill="#002F6C"/>
<path d="M144.353 19.8296L144.437 19.7454H144.86L144.944 19.8296C144.987 20.5877 145.029 21.051 145.071 21.2195C145.113 21.388 145.282 21.5564 145.536 21.767C145.789 21.9355 146.17 22.104 146.592 22.2303C147.015 22.3567 147.48 22.3988 147.945 22.3988C148.579 22.3988 149.128 22.2724 149.635 22.0618C150.142 21.8513 150.523 21.5143 150.776 21.051C151.03 20.5877 151.199 20.1244 151.199 19.5769C151.199 19.1979 151.114 18.8609 150.987 18.5661C150.861 18.2713 150.649 18.0607 150.438 17.8922C150.227 17.7237 149.931 17.5974 149.635 17.5132C149.339 17.4289 148.874 17.3447 148.283 17.2183C147.691 17.1341 147.226 17.0499 146.888 16.9656C146.55 16.8814 146.212 16.755 145.916 16.6287C145.578 16.4602 145.325 16.2917 145.113 16.039C144.902 15.7863 144.733 15.4915 144.564 15.1546C144.395 14.8176 144.31 14.3122 144.31 13.891C144.31 12.796 144.691 11.9115 145.451 11.1955C146.212 10.4795 147.226 10.1426 148.536 10.1426C149.044 10.1426 149.593 10.2268 150.185 10.311C150.776 10.4374 151.326 10.6059 151.833 10.8586L151.875 10.9849C151.748 11.5325 151.664 12.2906 151.621 13.3014L151.537 13.3856H151.072L150.987 13.3435C150.987 12.6275 150.945 12.2063 150.945 12.0379C150.903 11.8694 150.649 11.6167 150.142 11.364C149.635 11.1113 149.086 10.9428 148.494 10.9428C147.987 10.9428 147.522 11.027 147.1 11.2376C146.677 11.4482 146.339 11.743 146.128 12.1642C145.916 12.5854 145.789 13.0066 145.789 13.4699C145.789 13.8068 145.874 14.1016 146.001 14.3965C146.128 14.6913 146.297 14.8597 146.508 15.0282C146.719 15.1967 146.973 15.2809 147.269 15.3652C147.564 15.4494 148.072 15.5336 148.832 15.66C149.889 15.7863 150.607 15.9969 151.114 16.2075C151.579 16.4181 151.959 16.755 152.255 17.1762C152.551 17.6395 152.678 18.187 152.678 18.8188C152.678 20.0823 152.171 21.0931 151.157 21.9355C150.142 22.7778 148.917 23.199 147.438 23.199C146.212 23.199 145.156 22.9884 144.226 22.5673L144.184 22.4409C144.268 22.0197 144.31 21.1774 144.353 19.8296Z" fill="#002F6C"/>
<path d="M153.608 10.4375L154.707 10.4796C155.425 10.5217 155.89 10.5217 156.144 10.5217C156.355 10.5217 157.2 10.4796 158.679 10.4375L158.764 10.4796V10.9008L158.679 10.9429C158.257 10.9429 157.961 10.985 157.749 10.985C157.538 11.0271 157.369 11.0693 157.285 11.1114C157.2 11.1535 157.116 11.322 157.073 11.5747C157.031 11.8274 156.989 12.2064 156.989 12.6276V14.6493V18.6925V20.4194C156.989 21.0932 157.031 21.5144 157.031 21.6829C157.073 21.8935 157.116 22.0198 157.158 22.0619C157.2 22.1462 157.327 22.1883 157.496 22.2304C157.665 22.2725 158.045 22.3147 158.679 22.3147L158.764 22.3568V22.7779L158.679 22.8622C158.637 22.8622 158.13 22.8622 157.116 22.8201C156.693 22.8201 156.355 22.8201 156.144 22.8201C155.975 22.8201 155.129 22.8622 153.608 22.9043L153.523 22.8201V22.3989L153.608 22.3568C154.157 22.3147 154.538 22.3147 154.707 22.2725C154.876 22.2304 155.003 22.1883 155.087 22.1462C155.129 22.1041 155.214 21.9777 155.256 21.8092C155.298 21.6408 155.298 21.2196 155.341 20.5878V18.7347V14.6914V12.9646C155.341 12.2907 155.298 11.8695 155.298 11.6589C155.298 11.4483 155.214 11.322 155.172 11.2799C155.129 11.1956 155.003 11.1535 154.834 11.1114C154.664 11.0693 154.284 11.0271 153.65 11.0271L153.566 10.985V10.5639L153.608 10.4375Z" fill="#002F6C"/>
<path d="M159.694 10.4375C161.173 10.4796 162.103 10.5217 162.525 10.5217C163.075 10.5217 163.709 10.5217 164.385 10.4796C165.103 10.4375 165.568 10.4375 165.737 10.4375C166.54 10.4375 167.258 10.5217 167.766 10.6902C168.315 10.8587 168.738 11.1535 169.118 11.6168C169.456 12.0801 169.667 12.6276 169.667 13.2594C169.667 13.8069 169.54 14.3123 169.287 14.7756C169.033 15.281 168.695 15.7022 168.273 16.0391C167.85 16.3761 167.385 16.6288 166.92 16.7973C166.456 16.9657 165.991 17.0078 165.526 17.0078C165.145 17.0078 164.765 16.9657 164.3 16.8815L164.131 16.334L164.216 16.2497C164.638 16.334 165.019 16.4182 165.272 16.4182C166.033 16.4182 166.667 16.1655 167.132 15.6601C167.597 15.1547 167.85 14.5229 167.85 13.7227C167.85 12.9224 167.597 12.2907 167.132 11.8274C166.667 11.3641 165.906 11.1114 164.934 11.1114C164.385 11.1114 163.793 11.1956 163.159 11.4062C163.117 11.8695 163.075 12.9646 163.075 14.6493V18.6925V20.4194C163.075 21.0932 163.117 21.5144 163.117 21.6829C163.159 21.8935 163.201 22.0198 163.244 22.0619C163.286 22.1462 163.413 22.1883 163.582 22.2304C163.751 22.2725 164.131 22.3147 164.765 22.3147L164.85 22.3568V22.7779L164.765 22.8622C163.286 22.8201 162.441 22.7779 162.229 22.7779C162.018 22.7779 161.173 22.8201 159.694 22.8622L159.609 22.7779V22.3568L159.694 22.3147C160.243 22.2725 160.624 22.2725 160.793 22.2304C160.962 22.1883 161.088 22.1462 161.173 22.1041C161.215 22.0619 161.3 21.9356 161.342 21.7671C161.384 21.5987 161.384 21.1775 161.427 20.5457V18.6925V14.6493V12.9224C161.427 12.2486 161.384 11.8274 161.384 11.6168C161.384 11.4062 161.3 11.2799 161.258 11.2377C161.215 11.1535 161.088 11.1114 160.919 11.0693C160.75 11.0271 160.37 10.985 159.736 10.985L159.652 10.9429V10.5217L159.694 10.4375Z" fill="#002F6C"/>
<path d="M170.469 16.797C170.469 15.9126 170.596 15.1123 170.849 14.3542C171.103 13.5961 171.525 12.8801 172.159 12.2483C172.751 11.6166 173.511 11.1112 174.357 10.7321C175.202 10.3952 176.174 10.1846 177.273 10.1846C179.259 10.1846 180.865 10.7321 182.048 11.8272C183.231 12.9222 183.823 14.3963 183.823 16.2916C183.823 17.5973 183.527 18.8187 182.935 19.8716C182.344 20.9245 181.541 21.7248 180.442 22.3144C179.343 22.9041 178.16 23.1989 176.808 23.1989C175.836 23.1989 174.991 23.0304 174.188 22.7356C173.385 22.3987 172.709 21.9354 172.117 21.3036C171.568 20.6718 171.145 19.9558 170.891 19.1135C170.596 18.229 170.469 17.4709 170.469 16.797ZM172.328 16.2074C172.328 16.9234 172.455 17.6815 172.666 18.5238C172.878 19.3662 173.258 20.0401 173.723 20.6297C174.188 21.2194 174.695 21.6405 175.329 21.9354C175.92 22.2302 176.596 22.3565 177.399 22.3565C178.329 22.3565 179.132 22.146 179.808 21.7248C180.527 21.3036 181.076 20.6718 181.414 19.7874C181.794 18.9029 181.964 17.9342 181.964 16.8391C181.964 15.6599 181.752 14.6069 181.33 13.6382C180.907 12.6695 180.315 11.9956 179.512 11.5744C178.752 11.1533 177.864 10.9427 176.935 10.9427C175.498 10.9427 174.399 11.406 173.554 12.2904C172.709 13.1328 172.328 14.4806 172.328 16.2074Z" fill="#002F6C"/>
<path d="M184.5 10.4796L184.585 10.4375C185.599 10.4796 186.275 10.5217 186.655 10.5217L190.754 10.4375C191.938 10.4375 192.91 10.5639 193.628 10.7744C194.389 10.985 195.065 11.3641 195.614 11.9116C196.206 12.4591 196.629 13.0909 196.924 13.8069C197.22 14.5229 197.389 15.281 197.389 16.0813C197.389 16.8815 197.263 17.6396 196.967 18.4398C196.671 19.2401 196.291 19.9139 195.783 20.5036C195.276 21.1354 194.685 21.5987 194.051 21.9777C193.417 22.3568 192.741 22.6095 192.107 22.7358C191.473 22.8622 190.797 22.9043 190.121 22.9043C189.656 22.9043 188.811 22.9043 187.543 22.8622C187.12 22.8622 186.867 22.8622 186.698 22.8622C186.275 22.8622 185.81 22.9043 185.218 22.9464L185.134 22.8622V22.5674L185.218 22.4831C185.556 22.3147 185.768 22.1883 185.81 22.1462C185.852 22.1041 185.895 21.5987 185.937 20.6299C185.979 19.6612 185.979 18.9031 185.979 18.3977V15.1968V13.2173C185.979 12.7961 185.979 12.417 185.979 12.1643C185.979 11.9116 185.937 11.701 185.937 11.5747C185.895 11.4483 185.895 11.3641 185.852 11.322C185.81 11.2799 185.768 11.2377 185.683 11.1956C185.599 11.1535 185.472 11.1535 185.261 11.1114L184.585 11.0693L184.5 11.0271V10.4796ZM187.754 21.9356C188.346 22.0619 189.022 22.1041 189.825 22.1041C191.177 22.1041 192.276 21.8935 193.121 21.4302C193.924 20.9669 194.558 20.293 194.938 19.4085C195.361 18.5241 195.53 17.5132 195.53 16.3761C195.53 14.7335 195.107 13.4278 194.22 12.5434C193.332 11.6168 191.938 11.1956 190.036 11.1956C189.233 11.1956 188.472 11.2377 187.754 11.3641C187.712 12.3328 187.67 13.3857 187.67 14.6071V17.3448V19.914C187.712 20.4194 187.712 21.0932 187.754 21.9356Z" fill="#002F6C"/>
<path d="M198.573 22.9047L198.488 22.8204V22.3571L198.573 22.2729C198.995 22.2729 199.291 22.2308 199.418 22.1887C199.545 22.1466 199.672 22.0623 199.756 21.9781C199.841 21.8517 200.052 21.4727 200.348 20.8409L201.277 18.8614L203.686 13.4703C204.151 12.4174 204.574 11.3645 205.039 10.3115H205.63L209.391 19.1141L209.899 20.2934C210.025 20.6303 210.194 21.0094 210.406 21.3884C210.617 21.7675 210.744 22.0202 210.786 22.0623C210.87 22.1466 210.955 22.1887 211.04 22.2308C211.166 22.2729 211.378 22.2729 211.758 22.315L211.842 22.3993V22.8626L211.758 22.9468C211.124 22.9047 210.575 22.8626 210.068 22.8626C209.096 22.9047 208.124 22.9047 207.152 22.9468L207.067 22.8626V22.3993L207.152 22.315C207.828 22.315 208.208 22.2729 208.377 22.2308C208.546 22.1887 208.631 22.1044 208.631 21.936C208.631 21.8096 208.588 21.6411 208.504 21.4306L207.405 18.735H202.292L201.32 20.9673C201.151 21.3884 201.066 21.6833 201.066 21.8517C201.066 21.9781 201.151 22.1044 201.32 22.1887C201.489 22.2729 201.869 22.315 202.503 22.315L202.588 22.3993V22.8626L202.503 22.9468C201.742 22.9047 201.066 22.8626 200.517 22.8626C199.883 22.8204 199.249 22.8626 198.573 22.9047ZM202.588 17.9769H207.025L204.827 12.6701L202.588 17.9769Z" fill="#002F6C"/>
<path d="M216.958 25.0522V24.631L217.001 24.5047C217.93 23.7887 218.691 23.3254 219.24 23.1148C217.677 23.1148 216.451 22.8621 215.564 22.3567C214.634 21.8513 213.916 21.051 213.408 20.0402C212.901 19.0294 212.605 17.8922 212.605 16.6287C212.605 14.7334 213.239 13.175 214.507 11.9536C215.775 10.7322 217.381 10.1426 219.409 10.1426C220.719 10.1426 221.86 10.3953 222.832 10.8586C223.804 11.3219 224.607 12.0379 225.157 12.9645C225.706 13.891 225.96 14.9861 225.96 16.2075C225.96 16.755 225.917 17.3026 225.791 17.8922C225.664 18.4819 225.453 19.1136 225.114 19.7454C224.776 20.3771 224.312 20.9247 223.804 21.388C223.255 21.8513 222.621 22.2724 221.86 22.5673C221.1 22.8621 220.339 23.0727 219.494 23.1148C220.001 23.199 220.635 23.3675 221.438 23.7044C222.452 24.1256 223.213 24.3783 223.72 24.5047C224.227 24.631 224.65 24.7153 225.03 24.7153C225.284 24.7153 225.579 24.6731 225.917 24.5468L226.002 24.5889V24.8837L225.96 24.968C225.875 25.0522 225.748 25.0943 225.579 25.2207C225.072 25.5155 224.734 25.7261 224.565 25.8945C224.481 25.8945 224.269 25.8524 223.931 25.8103C223.593 25.7682 223.297 25.684 222.959 25.5997C222.621 25.5155 222.114 25.347 221.438 25.0943C219.959 24.5889 219.029 24.3362 218.691 24.3362C218.522 24.3362 218.395 24.3783 218.226 24.4204C218.057 24.4625 217.846 24.5889 217.592 24.7574L217.17 25.0101L216.958 25.0522ZM214.465 16.2075C214.465 16.9235 214.592 17.6816 214.803 18.524C215.014 19.3663 215.395 20.0402 215.86 20.6299C216.324 21.2195 216.831 21.6407 217.465 21.9355C218.057 22.2303 218.733 22.3567 219.536 22.3567C220.466 22.3567 221.269 22.1461 221.945 21.7249C222.663 21.3037 223.213 20.672 223.551 19.7875C223.931 18.903 224.1 17.9343 224.1 16.8393C224.1 15.66 223.889 14.607 223.466 13.6383C223.044 12.6696 222.452 11.9958 221.649 11.5746C220.888 11.1534 220.001 10.9428 219.071 10.9428C217.634 10.9428 216.536 11.4061 215.69 12.2906C214.888 13.1329 214.465 14.4807 214.465 16.2075Z" fill="#002F6C"/>
<path fill-rule="evenodd" clip-rule="evenodd" d="M24.034 5.38421C28.6241 6.445 32.2637 9.12793 33.7609 12.5371C34.2178 13.5816 35.1212 13.3829 35.1212 13.3829H35.9189V18.6442H35.3474C35.3474 18.6442 34.2502 18.3715 33.7664 19.4778C32.2108 23.0361 28.3235 25.804 23.4562 26.768C22.0836 27.0393 22.2851 28.1147 22.2851 28.1147V28.8223H17.006V28.0397C17.006 28.0397 17.1661 27.033 15.8149 26.7639C10.9047 25.7858 6.99415 22.9706 5.4751 19.3624C5.08883 18.4443 4.23921 18.6447 4.23921 18.6447H3.41016V13.3834H4.31492C4.31492 13.3834 5.10068 13.4843 5.57633 12.4349C7.12914 9.01157 10.8481 6.33638 15.5102 5.32783C17.1761 4.96741 17.006 3.763 17.006 3.763V2.97852H22.2851V3.763C22.2851 3.9757 22.2236 4.96607 24.034 5.38421ZM20.679 15.6577H21.3484V16.1581H20.679V15.6577ZM17.945 15.6577H18.6145V16.1581H17.945V15.6577ZM19.2853 16.6535H19.9548V17.1539H19.2853V16.6535ZM19.2853 14.7651H19.9548V15.2655H19.2853V14.7651ZM29.2703 9.62423L21.9486 15.2059L22.2135 15.5505L29.5348 9.96873L29.2703 9.62423ZM28.2086 8.58524L20.8869 14.167L21.1519 14.5115L28.4731 8.92975L28.2086 8.58524ZM17.8073 17.5234L10.4856 23.1052L10.7505 23.4497L18.0718 17.8679L17.8073 17.5234ZM16.9221 16.4458L9.60042 22.0275L9.86536 22.3721L17.1866 16.7903L16.9221 16.4458ZM21.3516 17.4253L28.6733 23.007L28.4084 23.3515L21.0871 17.7698L21.3516 17.4253ZM22.2459 16.3704L29.5676 21.9521L29.3027 22.2966L21.9814 16.7149L22.2459 16.3704ZM9.99943 9.68421L17.3212 15.2659L17.0562 15.6105L9.73494 10.0287L9.99943 9.68421ZM11.0155 8.64523L18.3372 14.227L18.0722 14.5715L10.751 8.98976L11.0155 8.64523ZM19.7518 13.9806L13.8128 9.05837C13.4462 8.75341 13.0877 6.67088 15.9667 6.67088C18.0613 6.67088 18.9451 7.29902 18.153 8.67795C17.8898 9.13563 18.1101 10.8496 19.8376 10.8191C21.3817 10.7918 21.4433 9.13974 21.2185 8.58932C20.6288 7.14948 21.804 6.54181 23.6441 6.76677C26.3899 7.10176 25.8833 8.96884 24.817 9.7992C23.7513 10.6291 19.7518 13.9806 19.7518 13.9806ZM19.7518 17.9775L13.8128 22.8997C13.4462 23.2047 13.0877 25.2872 15.9667 25.2872C18.0613 25.2872 18.9451 24.6591 18.153 23.2802C17.8898 22.8225 18.1101 21.1086 19.8376 21.139C21.3817 21.1663 21.4433 22.8184 21.2185 23.3688C20.6288 24.8086 21.804 25.4163 23.6441 25.1913C26.3899 24.8564 25.8833 22.9893 24.817 22.1589C23.7513 21.329 19.7518 17.9775 19.7518 17.9775ZM23.5629 15.9495L29.3779 20.1355C29.7377 20.3941 32.1981 20.6468 32.1981 18.6174C32.1981 17.1412 31.1428 16.2745 29.8271 17.0767C29.1927 17.4612 27.8036 17.4812 27.8748 15.8359C27.9423 14.2715 29.465 14.5451 29.932 14.916C31.0365 15.795 32.3504 14.5033 32.0849 13.2062C31.6891 11.2709 29.4832 11.6281 28.5028 12.3794C27.5223 13.1307 23.5629 15.9495 23.5629 15.9495ZM15.5891 15.9391L9.77416 20.125C9.41434 20.3836 6.95402 20.6363 6.95402 18.607C6.95402 17.1307 8.0093 16.264 9.32496 17.0662C9.95931 17.4507 11.3484 17.4707 11.2773 15.8254C11.2098 14.261 9.68705 14.5347 9.22009 14.9055C8.11555 15.7845 6.80171 14.4928 7.06711 13.1957C7.46296 11.2604 9.66881 11.6177 10.6493 12.369C11.6298 13.1202 15.5891 15.9391 15.5891 15.9391Z" fill="#002F6C"/>
<path fill-rule="evenodd" clip-rule="evenodd" d="M38.1859 18.3999C38.1859 18.3999 37.6035 18.3727 37.6217 17.8195C37.6399 17.2663 38.3315 17.4023 38.3315 17.4023C38.2732 17.0636 38.2208 16.2687 38.9503 16.0601C38.6905 16.4785 38.7955 16.8582 38.9593 17.2209C39.1231 17.5837 39.1869 17.7651 39.1505 18.2548C39.1141 18.7445 38.3861 19.2161 37.6945 18.9803C37.0029 18.7445 36.8027 17.9102 36.8937 17.3661C36.9847 16.8219 37.6581 16.1508 37.8947 15.8062C38.1313 15.4615 37.9857 15.2802 37.8219 15.1895C38.0448 15.0852 38.2541 15.2394 38.2541 15.4389C38.4816 15.457 38.9831 14.8584 38.8557 14.2054C38.7283 13.5524 38.2268 13.4754 37.8583 13.5933C37.4897 13.7112 37.2941 14.1012 37.4579 14.4096C37.6217 14.7179 38.3478 14.4631 37.881 13.9062C37.9785 13.8118 38.3633 13.879 38.4224 14.3188C38.4816 14.7587 37.8578 15.1029 37.4437 14.7764C37.4945 14.9004 37.6763 15.262 37.4943 15.6248C37.3123 15.9876 36.9483 16.1689 36.9483 16.1689C36.9483 16.1689 37.194 15.2484 36.9301 14.736C36.6662 14.2236 37.021 13.5318 37.4761 13.3575C37.9311 13.1833 38.3769 13.1489 38.8228 13.5208C39.2687 13.8926 39.2186 14.6544 39.0549 14.9083C38.6092 15.5993 37.3955 16.4483 37.9351 17.172C37.5443 17.1899 37.4795 16.8321 37.5159 16.738C37.3783 16.7584 36.7982 17.7197 37.3123 18.3274C37.8264 18.935 38.2314 18.7536 38.4224 18.6992C38.6135 18.6448 39.0321 18.1369 38.6773 17.7651C38.3224 17.3933 37.6217 17.8195 38.1859 18.3999Z" fill="#002F6C"/>
<path fill-rule="evenodd" clip-rule="evenodd" d="M1.34604 18.355C1.34604 18.355 0.763661 18.3278 0.781846 17.7746C0.80003 17.2214 1.49162 17.3574 1.49162 17.3574C1.43334 17.0187 1.38098 16.2238 2.11042 16.0152C1.85069 16.4336 1.9557 16.8132 2.1195 17.176C2.2833 17.5388 2.34701 17.7201 2.31062 18.2099C2.27422 18.6996 1.54626 19.1712 0.854639 18.9354C0.163046 18.6996 -0.0371213 17.8653 0.0538844 17.3211C0.144862 16.777 0.818242 16.1059 1.05483 15.7612C1.29143 15.4166 1.14584 15.2352 0.982041 15.1446C1.20499 15.0403 1.41426 15.1944 1.41426 15.394C1.64175 15.4121 2.14329 14.8135 2.01589 14.1605C1.88848 13.5075 1.387 13.4305 1.01844 13.5484C0.649904 13.6663 0.454276 14.0563 0.618047 14.3646C0.781846 14.673 1.50796 14.4182 1.04119 13.8613C1.13861 13.7669 1.52345 13.834 1.58263 14.2739C1.64178 14.7138 1.01796 15.058 0.603925 14.7315C0.654695 14.8555 0.836455 15.2171 0.654471 15.5799C0.47246 15.9426 0.108465 16.124 0.108465 16.124C0.108465 16.124 0.354192 15.2035 0.090281 14.6911C-0.17363 14.1787 0.181203 13.4869 0.636231 13.3126C1.09126 13.1383 1.53713 13.104 1.98299 13.4759C2.42889 13.8477 2.37879 14.6095 2.21504 14.8634C1.76932 15.5544 0.555677 16.4033 1.09524 17.1271C0.704429 17.145 0.639649 16.7872 0.676046 16.6931C0.538445 16.7135 -0.041688 17.6748 0.47246 18.2824C0.98658 18.89 1.39154 18.7087 1.58263 18.6543C1.77372 18.5999 2.19229 18.092 1.83743 17.7202C1.48254 17.3483 0.781846 17.7746 1.34604 18.355Z" fill="#002F6C"/>
<path d="M1.58203 22.5346L3.12299 21.5274L3.32775 21.8387L2.64507 22.2846L3.74047 22.4655L4.01455 22.8818L3.03316 22.695L2.49321 23.9194L2.22916 23.5181L2.67472 22.6227L2.25286 22.5409L1.78679 22.8459L1.58203 22.5346ZM3.63649 25.372L3.38385 25.0607L3.6096 24.6743L3.14487 24.1017L2.72215 24.2457L2.47404 23.9403L4.35658 23.3395L4.60466 23.6449L3.63649 25.372ZM3.77606 24.3857L4.14498 23.7594L3.45818 23.9944L3.77606 24.3857ZM4.12537 25.032L4.40584 25.2638C4.33515 25.3643 4.30276 25.4574 4.3087 25.5447C4.31509 25.632 4.35795 25.7151 4.43775 25.7951C4.52122 25.8792 4.60284 25.9256 4.68174 25.9328C4.75972 25.9401 4.82357 25.9201 4.87146 25.8729C4.90245 25.8424 4.91979 25.8074 4.92388 25.7674C4.92755 25.7288 4.91522 25.6779 4.88695 25.6174C4.86734 25.5761 4.81626 25.4875 4.73554 25.3511C4.63111 25.1752 4.57594 25.0338 4.57138 24.9266C4.56409 24.7752 4.61287 24.6484 4.71685 24.5457C4.7839 24.4798 4.86507 24.4366 4.96036 24.4166C5.05661 24.3971 5.1542 24.4076 5.25498 24.4484C5.35532 24.4889 5.45518 24.5594 5.55504 24.6594C5.71693 24.8225 5.80315 24.9811 5.8118 25.1357C5.82091 25.2902 5.76711 25.4288 5.64946 25.5534L5.37765 25.2979C5.43467 25.2197 5.45882 25.1479 5.45243 25.082C5.44515 25.0161 5.40502 24.9461 5.33203 24.8725C5.2568 24.7966 5.18155 24.7525 5.10721 24.7411C5.05933 24.7334 5.01875 24.7461 4.98454 24.7802C4.95308 24.8107 4.93985 24.8498 4.94397 24.8975C4.94806 24.9588 4.99914 25.0684 5.09536 25.2261C5.1925 25.3838 5.25453 25.5097 5.28281 25.6029C5.31153 25.696 5.31427 25.7879 5.29236 25.8779C5.27048 25.9683 5.21802 26.0542 5.13551 26.1356C5.06025 26.2096 4.9695 26.2583 4.86277 26.2815C4.75608 26.3046 4.6489 26.2942 4.54173 26.2496C4.43456 26.2046 4.32419 26.1256 4.21156 26.0119C4.04784 25.8474 3.95983 25.6829 3.94888 25.5193C3.93703 25.3556 3.99631 25.1929 4.12537 25.032ZM4.98454 26.7105L6.23912 25.3652L6.51228 25.6179L5.25818 26.9636L4.98454 26.7105ZM5.52223 27.2004L6.63769 25.7388L7.11242 26.0987C7.29255 26.2351 7.40429 26.331 7.44761 26.3869C7.5151 26.4728 7.54884 26.5737 7.54977 26.69C7.55021 26.8064 7.50597 26.9232 7.41751 27.0391C7.34864 27.1295 7.27479 27.1923 7.19541 27.2286C7.11606 27.265 7.03808 27.2818 6.96103 27.2791C6.88485 27.2755 6.816 27.26 6.75534 27.2318C6.67417 27.1918 6.56655 27.1218 6.43248 27.0205L6.24002 26.8741L5.81909 27.4259L5.52223 27.2004ZM6.74624 26.211L6.42836 26.6273L6.58981 26.7496C6.70656 26.8378 6.79 26.8891 6.84108 26.9032C6.89171 26.9177 6.94094 26.9173 6.98793 26.9014C7.03489 26.8855 7.07549 26.8559 7.10833 26.8128C7.14937 26.7591 7.16714 26.7037 7.1626 26.6451C7.15758 26.5869 7.13478 26.5351 7.09373 26.4896C7.06364 26.4564 6.99521 26.3996 6.88896 26.3187L6.74624 26.211ZM7.29939 27.4281C7.3979 27.2686 7.50507 27.1495 7.62001 27.0705C7.70482 27.0123 7.79784 26.9709 7.89863 26.9455C7.99941 26.9205 8.09611 26.9146 8.18868 26.9287C8.3118 26.9478 8.43769 26.9968 8.56537 27.0755C8.79703 27.2177 8.93749 27.4032 8.98764 27.6318C9.03827 27.8604 8.984 28.1017 8.82622 28.3567C8.66935 28.6099 8.47781 28.7653 8.25206 28.823C8.02586 28.8816 7.7974 28.8394 7.56708 28.698C7.33405 28.5544 7.19177 28.3694 7.14251 28.1422C7.09235 27.9154 7.14481 27.6777 7.29939 27.4281ZM7.63231 27.6186C7.52239 27.7954 7.48044 27.9549 7.50597 28.0972C7.53152 28.239 7.60723 28.349 7.73402 28.4271C7.86033 28.5049 7.99213 28.523 8.12984 28.4826C8.26711 28.4412 8.39207 28.3303 8.50426 28.1485C8.61552 27.969 8.65932 27.8109 8.63421 27.6745C8.61006 27.5372 8.53253 27.4286 8.40165 27.3482C8.27075 27.2677 8.1376 27.2477 8.00216 27.2877C7.86716 27.3282 7.74357 27.4381 7.63231 27.6186ZM9.43365 27.6409L10.0384 27.9477C10.1747 28.0172 10.2737 28.0799 10.3348 28.1372C10.416 28.214 10.473 28.3063 10.504 28.4135C10.5368 28.5203 10.5432 28.6353 10.5259 28.758C10.5081 28.8807 10.4602 29.0189 10.3818 29.1721C10.3129 29.3071 10.2368 29.4139 10.1537 29.4948C10.0516 29.5929 9.94396 29.6598 9.83042 29.6947C9.74469 29.7216 9.6448 29.7257 9.53127 29.7075C9.44598 29.6939 9.3429 29.6557 9.2207 29.5939L8.59773 29.278L9.43365 27.6409ZM9.62474 28.0863L9.07156 29.1698L9.31829 29.2948C9.41039 29.3416 9.47926 29.3702 9.52577 29.3807C9.58644 29.3948 9.64253 29.3943 9.69406 29.3798C9.74606 29.3661 9.80123 29.328 9.86096 29.2662C9.92118 29.2043 9.98318 29.1098 10.0479 28.983C10.1127 28.8566 10.151 28.7544 10.1629 28.6753C10.1752 28.5958 10.1706 28.5271 10.1505 28.469C10.1291 28.4108 10.0917 28.3594 10.0365 28.3144C9.99551 28.2808 9.90748 28.2299 9.77296 28.1617L9.62474 28.0863ZM11.8064 30.7101L11.4329 30.5628L11.4393 30.1156L10.7516 29.8447L10.4547 30.1774L10.0881 30.0329L11.4311 28.5871L11.7978 28.7317L11.8064 30.7101ZM11.4412 29.7825L11.4539 29.0566L10.9719 29.5975L11.4412 29.7825ZM13.4805 30.9846C13.548 31.0742 13.6274 31.1528 13.7181 31.2214L13.5093 31.4332C13.4609 31.4009 13.4153 31.3628 13.3729 31.3191C13.3633 31.3091 13.3013 31.2337 13.1855 31.0892C13.0546 31.1042 12.9187 31.0901 12.7787 31.0469C12.5083 30.9633 12.3204 30.8183 12.2164 30.6124C12.1129 30.4056 12.1056 30.1588 12.195 29.8706C12.2844 29.5839 12.4308 29.3843 12.6332 29.2721C12.8366 29.1598 13.0701 29.1448 13.3332 29.2257C13.5941 29.3061 13.7765 29.4493 13.88 29.6566C13.9831 29.8629 13.9909 30.1093 13.9015 30.3965C13.855 30.5478 13.792 30.6751 13.7136 30.7769C13.6543 30.8551 13.5763 30.9246 13.4805 30.9846ZM13.2571 30.6974C13.3196 30.6578 13.3734 30.6037 13.4204 30.5347C13.4659 30.466 13.5047 30.3824 13.5353 30.2838C13.5982 30.0811 13.6005 29.9156 13.5416 29.7875C13.4833 29.6598 13.3816 29.5734 13.237 29.5284C13.092 29.4839 12.9584 29.498 12.8375 29.5711C12.7158 29.6443 12.6241 29.782 12.5612 29.9843C12.4973 30.1897 12.4946 30.3579 12.5534 30.4874C12.6118 30.6174 12.7099 30.7033 12.8476 30.746C12.8991 30.7619 12.9502 30.7678 13.0008 30.7655C12.9438 30.6965 12.8818 30.6374 12.8152 30.5883L12.9789 30.4133C13.0829 30.4897 13.1759 30.5842 13.2571 30.6974ZM14.3224 31.421L14.6703 29.9347L14.1391 29.8111L14.2098 29.5089L15.6335 29.8397L15.5628 30.142L15.0338 30.0193L14.6859 31.5055L14.3224 31.421ZM16.91 31.8609L16.5118 31.8064L16.4115 31.3705L15.6791 31.2696L15.4703 31.6632L15.0794 31.6096L16.0399 29.8875L16.4307 29.9411L16.91 31.8609ZM16.3344 31.0464L16.1734 30.3379L15.8342 30.9778L16.3344 31.0464ZM17.1056 31.9091L17.2064 30.0752L17.9889 30.1179C18.185 30.1288 18.3278 30.1533 18.4149 30.1906C18.5029 30.2283 18.5704 30.2906 18.6196 30.3779C18.6684 30.4651 18.6899 30.5628 18.6839 30.671C18.6762 30.8092 18.6301 30.9205 18.5439 31.0055C18.4582 31.091 18.3346 31.141 18.1718 31.1551C18.2493 31.2064 18.3127 31.2614 18.3615 31.32C18.4108 31.3787 18.4755 31.4823 18.5563 31.6295L18.761 31.9995L18.3164 31.975L18.072 31.5605C17.9844 31.4128 17.9237 31.3196 17.89 31.2805C17.8572 31.2419 17.8211 31.2146 17.7828 31.1987C17.7436 31.1823 17.6816 31.1723 17.5958 31.1678L17.5201 31.1637L17.4782 31.9295L17.1056 31.9091ZM17.5361 30.8715L17.8111 30.8865C17.9899 30.8964 18.1007 30.8946 18.1463 30.8819C18.1914 30.8696 18.2279 30.8455 18.2548 30.8101C18.2817 30.7746 18.2968 30.7292 18.2995 30.6742C18.3032 30.6124 18.2895 30.5619 18.2585 30.522C18.2275 30.4819 18.1818 30.4556 18.123 30.4424C18.0925 30.4369 18.0022 30.4297 17.8517 30.4215L17.5616 30.4056L17.5361 30.8715ZM21.1069 31.9795L20.94 30.1502L22.2014 30.0361L22.2297 30.3451L21.3399 30.4256L21.3796 30.8596L22.1489 30.7901L22.1772 31.0992L21.4079 31.1692L21.4786 31.9459L21.1069 31.9795ZM22.6725 31.8336L22.4039 30.0165L23.7533 29.8184L23.7984 30.1256L22.8179 30.2697L22.8777 30.6728L23.7898 30.5388L23.8349 30.846L22.9233 30.9801L22.9958 31.4723L24.0118 31.3232L24.0575 31.6305L22.6725 31.8336ZM23.9498 29.7802L24.6106 29.6266C24.7602 29.592 24.8765 29.5766 24.9599 29.5816C25.0721 29.5879 25.1747 29.622 25.2682 29.6838C25.3617 29.7447 25.4415 29.8284 25.5072 29.9334C25.5729 30.0384 25.6258 30.1752 25.665 30.3424C25.6992 30.4901 25.7101 30.621 25.6987 30.736C25.6846 30.8765 25.6449 30.9969 25.5811 31.0964C25.5327 31.1723 25.4588 31.2391 25.3604 31.2982C25.2865 31.3423 25.1825 31.3796 25.0489 31.4105L24.3685 31.5686L23.9498 29.7802ZM24.384 29.9979L24.6613 31.1819L24.9308 31.1196C25.0316 31.096 25.1027 31.0732 25.1446 31.0519C25.2003 31.0237 25.2432 30.9869 25.2728 30.9432C25.3038 30.8992 25.3216 30.8346 25.3271 30.7492C25.3334 30.6633 25.3198 30.551 25.2874 30.4124C25.255 30.2742 25.2185 30.1715 25.1761 30.1033C25.1342 30.0347 25.0867 29.9852 25.0334 29.9534C24.9796 29.9224 24.9176 29.907 24.8464 29.9084C24.7935 29.9088 24.6932 29.9261 24.5463 29.9602L24.384 29.9979ZM26.1735 31.1246L25.629 29.3702L26.9323 28.9685L27.024 29.2652L26.0773 29.557L26.1981 29.9465L27.0787 29.6752L27.1708 29.9715L26.2902 30.2429L26.4375 30.7183L27.4189 30.416L27.511 30.7128L26.1735 31.1246ZM27.8102 30.606L27.102 28.9103L27.8257 28.6098C28.0072 28.5349 28.1463 28.4953 28.2407 28.4912C28.3365 28.4872 28.4245 28.514 28.507 28.5712C28.5887 28.629 28.6507 28.7076 28.6926 28.8076C28.746 28.9348 28.7528 29.0557 28.7122 29.1693C28.6721 29.2839 28.5823 29.382 28.4423 29.4652C28.5344 29.4775 28.6151 29.4998 28.6849 29.5316C28.7547 29.5629 28.8582 29.6284 28.995 29.7261L29.3407 29.9706L28.9298 30.1411L28.5289 29.8734C28.3853 29.7784 28.2904 29.7207 28.243 29.7002C28.1965 29.6798 28.1522 29.6702 28.1107 29.6729C28.0683 29.6752 28.0077 29.6929 27.9288 29.7257L27.859 29.7548L28.1545 30.4629L27.8102 30.606ZM27.7459 29.4848L28.0004 29.3793C28.1655 29.3107 28.2649 29.2612 28.3 29.2302C28.3351 29.1993 28.3574 29.1621 28.3666 29.1184C28.3757 29.0748 28.3688 29.0275 28.3479 28.9766C28.3242 28.9198 28.2895 28.8803 28.2439 28.8571C28.1992 28.8344 28.1468 28.8307 28.0875 28.8444C28.0578 28.8526 27.973 28.8848 27.8344 28.9425L27.5662 29.0539L27.7459 29.4848ZM30.9993 29.1298L30.6417 29.313L30.3084 29.0134L29.6512 29.3507L29.7069 29.7925L29.3562 29.9725L29.1491 28.0131L29.4998 27.8331L30.9993 29.1298ZM30.0585 28.7926L29.5185 28.3053L29.6097 29.023L30.0585 28.7926ZM31.3568 28.9044L30.5368 27.6154L30.0758 27.9063L29.9089 27.644L31.1438 26.8641L31.3107 27.1264L30.852 27.4163L31.6719 28.7053L31.3568 28.9044ZM31.9045 27.8758L32.1727 27.6304C32.2629 27.714 32.3514 27.7586 32.439 27.764C32.5266 27.7699 32.615 27.739 32.7053 27.6713C32.8006 27.6 32.8572 27.5259 32.8754 27.4491C32.8932 27.3727 32.8823 27.3073 32.8417 27.2532C32.8152 27.2186 32.7828 27.1968 32.7441 27.1873C32.7058 27.1782 32.6538 27.1836 32.5899 27.2036C32.5457 27.2173 32.4508 27.2554 32.304 27.3168C32.1152 27.3959 31.9674 27.4309 31.8598 27.4209C31.7084 27.4077 31.5889 27.3422 31.5014 27.2254C31.4448 27.1509 31.4129 27.0645 31.4061 26.9678C31.3997 26.8705 31.4234 26.7755 31.4777 26.6814C31.5315 26.5873 31.6149 26.4982 31.728 26.4137C31.9123 26.276 32.0814 26.2124 32.236 26.2246C32.3911 26.2364 32.522 26.3087 32.6296 26.4419L32.3387 26.6755C32.2689 26.6087 32.2005 26.5746 32.1343 26.5723C32.0678 26.5705 31.9925 26.6005 31.91 26.6628C31.8243 26.7268 31.77 26.795 31.7485 26.8668C31.7344 26.9132 31.7417 26.955 31.7704 26.9932C31.7969 27.0282 31.8338 27.0468 31.8817 27.0495C31.9433 27.0532 32.0591 27.0182 32.2292 26.9441C32.3989 26.87 32.5329 26.826 32.6292 26.8105C32.7259 26.795 32.8171 26.8046 32.9037 26.8387C32.9908 26.8723 33.0688 26.9355 33.1385 27.0282C33.202 27.1127 33.238 27.2091 33.2466 27.3173C33.2549 27.4259 33.2298 27.5304 33.1709 27.6304C33.1121 27.73 33.0181 27.8281 32.8905 27.924C32.7044 28.0631 32.5288 28.1276 32.3647 28.1163C32.2005 28.1058 32.0468 28.0249 31.9045 27.8758ZM33.694 27.2618L32.5197 25.8465L32.807 25.6097L33.9813 27.025L33.694 27.2618ZM34.2381 26.8L32.9844 25.4538L33.258 25.2011L34.5117 26.5469L34.2381 26.8ZM35.9377 25.1293L35.655 25.4138L35.245 25.2325L34.7251 25.7561L34.9153 26.1587L34.638 26.4382L33.8313 24.6393L34.1086 24.3603L35.9377 25.1293ZM34.9385 25.0997L34.2732 24.803L34.5833 25.4574L34.9385 25.0997ZM35.5159 24.6948L35.6992 24.3812C35.81 24.4344 35.9081 24.4507 35.9929 24.4303C36.0782 24.4098 36.1534 24.3544 36.22 24.263C36.2898 24.1671 36.3222 24.0789 36.3167 24.0008C36.3108 23.9226 36.2806 23.8631 36.2259 23.8235C36.1904 23.798 36.153 23.7867 36.1128 23.7894C36.0741 23.7922 36.0257 23.8121 35.9706 23.8503C35.9327 23.8762 35.8534 23.9408 35.7316 24.0426C35.5747 24.1739 35.4438 24.2512 35.338 24.2735C35.1894 24.3053 35.0562 24.278 34.9376 24.1926C34.8615 24.1376 34.8054 24.0648 34.7703 23.9744C34.7351 23.883 34.7292 23.7853 34.7529 23.6799C34.7771 23.574 34.83 23.4645 34.913 23.3504C35.048 23.1645 35.1912 23.0536 35.3421 23.0195C35.494 22.9854 35.6399 23.0159 35.7827 23.1109L35.5738 23.4199C35.4876 23.3767 35.4119 23.3645 35.3481 23.3818C35.2842 23.3995 35.2213 23.4508 35.1606 23.5344C35.0977 23.6208 35.0662 23.7022 35.0671 23.7767C35.0676 23.8253 35.0868 23.8631 35.126 23.8912C35.1615 23.9171 35.2021 23.924 35.2487 23.9121C35.3088 23.8976 35.4087 23.8299 35.5492 23.709C35.6896 23.5881 35.8041 23.5063 35.8917 23.4635C35.9792 23.4199 36.0695 23.4022 36.1621 23.409C36.2556 23.4158 36.3486 23.4531 36.443 23.5213C36.5288 23.5831 36.5917 23.6644 36.6318 23.7653C36.6724 23.8667 36.6792 23.9739 36.6528 24.0867C36.6259 24.1989 36.5657 24.3203 36.4717 24.4498C36.3354 24.6375 36.1872 24.7511 36.0271 24.7884C35.867 24.827 35.696 24.7952 35.5159 24.6948ZM37.2967 23.204L36.6665 22.8422L35.4835 22.8918L35.6878 22.5382L36.4845 22.5259L36.09 21.8419L36.2907 21.4951L36.8439 22.5414L37.4718 22.9018L37.2967 23.204Z" fill="#002F6C"/>
<path d="M4.27908 8.50414C4.38399 8.46279 4.48113 8.40825 4.57141 8.33917L4.72055 8.59688C4.67631 8.63413 4.62705 8.66823 4.57323 8.69688C4.56138 8.70322 4.47155 8.74276 4.30099 8.8155C4.28046 8.94457 4.2303 9.07137 4.15095 9.19455C3.99772 9.43179 3.8071 9.57315 3.57998 9.61769C3.35289 9.66178 3.11209 9.60269 2.85762 9.43905C2.60405 9.27681 2.45037 9.08274 2.39657 8.85775C2.3423 8.63232 2.39063 8.40417 2.5393 8.17327C2.68707 7.94468 2.87449 7.80788 3.10251 7.76423C3.32963 7.72014 3.56995 7.77922 3.82397 7.94194C3.95712 8.02739 4.06339 8.12191 4.14092 8.22465C4.20066 8.30236 4.24672 8.39552 4.27908 8.50414ZM3.94162 8.64142C3.91974 8.57097 3.88189 8.50462 3.82806 8.44143C3.77379 8.37918 3.70357 8.31917 3.61646 8.26327C3.43725 8.14875 3.27808 8.10192 3.13854 8.1242C2.99898 8.14601 2.88817 8.22054 2.80655 8.34735C2.724 8.47463 2.70212 8.60643 2.74042 8.74186C2.77872 8.87867 2.88679 9.00366 3.06558 9.11817C3.24709 9.23453 3.40851 9.28226 3.54944 9.2609C3.69125 9.23953 3.80072 9.16819 3.87869 9.04775C3.90789 9.00229 3.92747 8.95501 3.93888 8.90547C3.85681 8.94231 3.78292 8.98592 3.7177 9.03638L3.59231 8.83231C3.69399 8.75323 3.80982 8.68914 3.94162 8.64142ZM5.92584 7.00203L5.6577 7.30018L5.23904 7.13975L4.74608 7.68878L4.9563 8.08148L4.69318 8.37418L3.79752 6.61799L4.06065 6.32484L5.92584 7.00203ZM4.92621 7.02247L4.24717 6.75934L4.58965 7.39699L4.92621 7.02247ZM5.97191 6.99566L5.74571 6.75024L5.65131 5.21676L5.01741 5.79714L4.80674 5.56853L5.79998 4.65908L5.99516 4.87042L6.09323 6.46345L6.86437 5.75671L7.07507 5.98533L5.97191 6.99566ZM8.6329 4.90225L8.30182 5.12902L7.93287 4.87452L7.32407 5.29222L7.43579 5.72354L7.11063 5.94624L6.65551 4.02914L6.9802 3.80599L8.6329 4.90225ZM7.65697 4.68726L7.0591 4.27186L7.24105 4.97223L7.65697 4.68726ZM9.97548 3.86508C10.0872 3.87734 10.1989 3.87416 10.3111 3.85508L10.322 4.15231C10.2655 4.1646 10.2062 4.17186 10.1451 4.1723C10.1319 4.17278 10.0334 4.16594 9.84914 4.1505C9.77024 4.25549 9.66627 4.34412 9.53858 4.41592C9.29188 4.55501 9.05747 4.59137 8.83584 4.52502C8.61373 4.4582 8.42906 4.29411 8.27991 4.03143C8.13172 3.76964 8.087 3.52647 8.14447 3.30285C8.20194 3.07834 8.35153 2.89881 8.5914 2.76382C8.829 2.6302 9.05884 2.59611 9.28047 2.66338C9.5021 2.73018 9.68725 2.89426 9.83547 3.15605C9.91345 3.29377 9.96315 3.42647 9.98369 3.55328C10.0001 3.65009 9.99736 3.75416 9.97548 3.86508ZM9.61247 3.82962C9.62614 3.75735 9.62387 3.681 9.60563 3.59963C9.58691 3.51965 9.55226 3.43376 9.50165 3.3442C9.39675 3.15923 9.27773 3.04424 9.1441 2.99878C9.01051 2.95335 8.87778 2.96742 8.74598 3.04151C8.61373 3.11606 8.53256 3.2224 8.50247 3.36012C8.47282 3.49874 8.50975 3.65964 8.61466 3.84416C8.72046 4.03143 8.84085 4.14868 8.97585 4.19504C9.11082 4.24231 9.2408 4.23002 9.36666 4.1596C9.41317 4.13324 9.45284 4.10051 9.48613 4.06186C9.3963 4.05597 9.31101 4.0605 9.22939 4.0746L9.21435 3.83598C9.34113 3.81325 9.47383 3.81054 9.61247 3.82962ZM10.2249 3.3465L10.5396 3.16379C10.6098 3.26468 10.6864 3.32695 10.7708 3.35102C10.8552 3.37512 10.9482 3.36375 11.0508 3.31695C11.1593 3.26741 11.231 3.20696 11.2647 3.13561C11.2985 3.06516 11.3016 2.99833 11.2733 2.93743C11.2551 2.89789 11.2282 2.86971 11.1922 2.85198C11.1571 2.83517 11.1051 2.82928 11.038 2.83517C10.9924 2.83927 10.8912 2.85609 10.7348 2.88516C10.5337 2.92243 10.3813 2.92517 10.2787 2.89289C10.1333 2.84746 10.0307 2.75835 9.96999 2.62565C9.93079 2.54065 9.91802 2.44931 9.93214 2.35339C9.94673 2.25705 9.99008 2.16886 10.063 2.08889C10.136 2.00844 10.2368 1.93935 10.3654 1.88071C10.5747 1.78527 10.7539 1.75891 10.9022 1.80392C11.0508 1.84846 11.1635 1.94661 11.2401 2.09933L10.9058 2.26612C10.852 2.18615 10.7922 2.13798 10.7284 2.12206C10.6636 2.1057 10.5838 2.11933 10.4894 2.16253C10.3918 2.20659 10.3248 2.26205 10.2883 2.3275C10.2646 2.36975 10.2628 2.41203 10.2829 2.45612C10.3011 2.49566 10.333 2.52158 10.3795 2.53428C10.4388 2.55112 10.5592 2.54157 10.7412 2.50521C10.9231 2.46886 11.0631 2.45384 11.1607 2.45975C11.2583 2.4652 11.3459 2.49385 11.4229 2.5452C11.5009 2.597 11.5634 2.67519 11.6117 2.78063C11.656 2.87653 11.6706 2.97834 11.6555 3.08604C11.6405 3.19378 11.5935 3.29059 11.5151 3.37557C11.4362 3.46057 11.3235 3.53647 11.1776 3.60281C10.9665 3.69918 10.7813 3.72509 10.6231 3.67919C10.4648 3.63373 10.3321 3.52239 10.2249 3.3465ZM12.5316 3.03835L12.0144 1.60166L11.5009 1.78527L11.3956 1.49348L12.7719 1.00126L12.8768 1.29352L12.3656 1.47623L12.8827 2.91288L12.5316 3.03835ZM15.0517 2.30385L14.6636 2.40795L14.4009 2.04524L13.6872 2.23706L13.648 2.68019L13.2671 2.78245L13.4792 0.823548L13.8605 0.721288L15.0517 2.30385ZM14.2034 1.77708L13.7784 1.1867L13.7159 1.90755L14.2034 1.77708ZM15.2518 2.28615L14.9199 0.479491L15.2751 0.414512L16.2437 1.48893L16.0212 0.278601L16.3605 0.21633L16.6925 2.02299L16.3258 2.09026L15.3727 1.03672L15.5911 2.22432L15.2518 2.28615ZM19.2267 1.83617L19.2645 0L20.0484 0.0163647C20.245 0.0204417 20.3882 0.039989 20.4762 0.0745316C20.5656 0.109074 20.6354 0.169081 20.6874 0.254977C20.7389 0.340426 20.764 0.43724 20.7617 0.545391C20.759 0.683562 20.7166 0.796742 20.6336 0.884927C20.5505 0.973085 20.4283 1.02673 20.2664 1.04672C20.3458 1.09534 20.411 1.14806 20.4616 1.20489C20.5132 1.26168 20.5811 1.36305 20.6664 1.50759L20.8839 1.87027L20.4388 1.86117L20.1807 1.45486C20.0877 1.31033 20.0238 1.21943 19.9892 1.18171C19.955 1.14398 19.918 1.11762 19.8788 1.10352C19.8391 1.08852 19.7767 1.08034 19.6909 1.07853L19.6157 1.07716L19.5997 1.84391L19.2267 1.83617ZM19.6216 0.784928L19.8971 0.790374C20.0758 0.794004 20.1866 0.788558 20.2318 0.774457C20.276 0.760383 20.3116 0.735391 20.3376 0.699033C20.3636 0.662676 20.3768 0.616767 20.3777 0.561756C20.3791 0.499959 20.3636 0.449946 20.3312 0.41088C20.2993 0.371785 20.2528 0.347241 20.193 0.335876C20.1629 0.331324 20.0722 0.327246 19.9217 0.324063L19.6312 0.318143L19.6216 0.784928ZM21.0859 1.8789L21.2734 0.0517993L22.6301 0.189971L22.5986 0.498591L21.6127 0.398147L21.5712 0.804001L22.4878 0.897185L22.4563 1.20625L21.5392 1.11262L21.4886 1.60803L22.5102 1.7121L22.4787 2.0207L21.0859 1.8789ZM22.8066 1.44987L23.1696 1.47986C23.1691 1.60256 23.196 1.69756 23.2512 1.76527C23.3069 1.83299 23.3894 1.87708 23.5007 1.89708C23.6179 1.91844 23.7114 1.90981 23.7802 1.87119C23.8482 1.8321 23.8892 1.77982 23.9011 1.71347C23.9093 1.67075 23.9034 1.6321 23.8837 1.59711C23.8646 1.56302 23.8254 1.52847 23.767 1.4953C23.7273 1.47257 23.6347 1.4285 23.4902 1.36305C23.3032 1.27852 23.1769 1.19397 23.1117 1.10852C23.0186 0.988525 22.9858 0.857198 23.0123 0.713555C23.0291 0.621292 23.0711 0.5395 23.1376 0.469046C23.2051 0.398146 23.2914 0.35087 23.3972 0.326771C23.503 0.3027 23.6252 0.303147 23.7643 0.328614C23.9909 0.36997 24.1528 0.450868 24.2486 0.572228C24.3448 0.694034 24.3804 0.838543 24.3553 1.00763L23.9859 0.953089C23.9877 0.856721 23.9663 0.783561 23.923 0.733576C23.8796 0.683563 23.8062 0.64902 23.7045 0.630395C23.5987 0.611294 23.5121 0.618109 23.4446 0.650836C23.4008 0.672198 23.3748 0.705848 23.3661 0.753096C23.3579 0.79582 23.3693 0.83536 23.4004 0.872639C23.4391 0.920362 23.5435 0.980818 23.7132 1.05535C23.8833 1.12943 24.0069 1.19715 24.0835 1.25761C24.1606 1.31759 24.2153 1.39122 24.249 1.47757C24.2832 1.56438 24.2896 1.66438 24.2686 1.77801C24.2495 1.88208 24.203 1.9739 24.1291 2.05342C24.0543 2.13343 23.9604 2.1857 23.8468 2.21025C23.7337 2.23524 23.5978 2.23295 23.44 2.20433C23.2115 2.16252 23.0446 2.07797 22.9416 1.95027C22.838 1.82255 22.7934 1.65528 22.8066 1.44987ZM24.4848 2.36023L24.9636 0.586749L25.5396 0.741283C25.7581 0.799477 25.8976 0.846725 25.9592 0.881742C26.054 0.935804 26.1238 1.01673 26.1685 1.12443C26.2132 1.23169 26.2164 1.35668 26.1785 1.49759C26.1489 1.60666 26.1042 1.69256 26.0449 1.7562C25.9852 1.81981 25.919 1.86482 25.847 1.89118C25.7745 1.91662 25.7052 1.92844 25.6386 1.92481C25.5478 1.91844 25.422 1.89437 25.2592 1.85072L25.0257 1.788L24.8451 2.45702L24.4848 2.36023ZM25.2427 0.98308L25.1064 1.48804L25.3025 1.54076C25.4439 1.57849 25.5405 1.59485 25.593 1.58848C25.6459 1.58304 25.691 1.56394 25.7284 1.53121C25.7663 1.49893 25.7923 1.45668 25.8064 1.40396C25.8242 1.33895 25.8192 1.28078 25.7927 1.22851C25.7663 1.17624 25.7257 1.13669 25.6705 1.11033C25.6299 1.09081 25.5451 1.06398 25.416 1.02944L25.2427 0.98308ZM26.5986 2.9679L26.8612 2.24069L26.5876 1.01218L26.998 1.15942L27.1608 1.99071L27.807 1.44987L28.2102 1.59437L27.2115 2.36931L26.9492 3.09423L26.5986 2.9679ZM28.5249 1.71755L29.1948 2.02299C29.3279 2.08389 29.4242 2.13388 29.4844 2.17434C29.5446 2.21614 29.5924 2.26523 29.6275 2.3234C29.6631 2.38204 29.685 2.44794 29.6928 2.52158C29.7001 2.59474 29.6878 2.66793 29.6544 2.73972C29.6189 2.81744 29.5651 2.87971 29.4925 2.92562C29.421 2.97153 29.3412 2.99425 29.2541 2.99425C29.3421 3.07015 29.3968 3.15605 29.4191 3.25331C29.441 3.34968 29.4292 3.44602 29.3849 3.54283C29.3503 3.61873 29.2987 3.68463 29.2299 3.74054C29.1619 3.79599 29.0867 3.83143 29.0055 3.8469C28.9248 3.86142 28.8368 3.85324 28.7419 3.8228C28.6831 3.80281 28.5449 3.74464 28.3288 3.64783L27.7583 3.3874L28.5249 1.71755ZM28.7365 2.14979L28.56 2.53476L28.7816 2.63565C28.9134 2.69563 28.9959 2.73109 29.0297 2.74154C29.0908 2.76153 29.1455 2.76246 29.1939 2.74472C29.2422 2.72654 29.2782 2.69063 29.3024 2.63747C29.3266 2.58519 29.3311 2.53747 29.3174 2.49203C29.3038 2.44702 29.27 2.40795 29.2171 2.37612C29.1852 2.35657 29.0899 2.31114 28.9312 2.23842L28.7365 2.14979ZM28.4327 2.81199L28.227 3.26013L28.5408 3.40329C28.6621 3.4583 28.7415 3.49056 28.777 3.49874C28.8322 3.51237 28.8833 3.50874 28.9312 3.4883C28.9791 3.46649 29.0164 3.42647 29.0438 3.36738C29.0671 3.31648 29.0744 3.26923 29.0662 3.22287C29.0579 3.17649 29.0342 3.13469 28.9955 3.09788C28.9567 3.06105 28.86 3.00696 28.7064 2.93654L28.4327 2.81199ZM29.4474 4.18549L30.3463 2.60019L30.671 2.7829L29.9253 4.09822L30.7298 4.55138L30.5766 4.82135L29.4474 4.18549ZM30.7845 4.96405L31.8302 3.45146L32.1376 3.66282L31.0919 5.17493L30.7845 4.96405ZM31.3933 5.37174L32.5065 3.9078L32.8043 4.13277L32.3113 4.78089L33.4035 4.58545L33.8017 4.88633L32.8143 5.03813L32.7177 6.37208L32.3341 6.08211L32.4522 5.08948L32.0277 5.15357L31.6911 5.59626L31.3933 5.37174ZM34.0283 7.67923L33.746 7.39473L33.9321 6.98796L33.4122 6.4639L33.0059 6.64979L32.7286 6.37027L34.5418 5.58537L34.8191 5.86441L34.0283 7.67923ZM34.0685 6.68389L34.3731 6.02395L33.7132 6.3262L34.0685 6.68389ZM34.5633 7.38018L34.8191 7.63879C34.7384 7.7315 34.6964 7.8215 34.6941 7.90877C34.6914 7.99603 34.7256 8.08285 34.7967 8.17056C34.8715 8.26282 34.9482 8.31691 35.0257 8.33235C35.1028 8.34735 35.168 8.33372 35.2204 8.29144C35.2546 8.26419 35.2756 8.23146 35.2833 8.19192C35.2911 8.15375 35.2838 8.10237 35.2615 8.0392C35.2464 7.99558 35.2049 7.9024 35.1383 7.75878C35.0521 7.57334 35.0115 7.42698 35.0179 7.31973C35.0261 7.16838 35.0872 7.04749 35.2012 6.95567C35.2742 6.89703 35.3595 6.86205 35.4566 6.85205C35.5538 6.84205 35.65 6.86204 35.7462 6.91295C35.842 6.96341 35.9346 7.04339 36.023 7.15294C36.1681 7.33154 36.2378 7.49789 36.231 7.65242C36.2241 7.8074 36.1567 7.94012 36.0267 8.05193L35.7822 7.77015C35.8465 7.69877 35.8785 7.62924 35.8785 7.56334C35.878 7.49699 35.8452 7.42291 35.78 7.3429C35.7129 7.25974 35.6422 7.20836 35.5697 7.18929C35.5228 7.177 35.4813 7.18566 35.4434 7.21565C35.4092 7.24338 35.3919 7.28063 35.391 7.32835C35.3896 7.39018 35.4288 7.50381 35.5091 7.6706C35.5893 7.83739 35.6386 7.96875 35.6573 8.06419C35.676 8.16009 35.6701 8.25145 35.6386 8.33917C35.6081 8.4269 35.5474 8.50688 35.4566 8.57959C35.3745 8.64597 35.2792 8.68504 35.1707 8.69732C35.0622 8.70958 34.9564 8.68822 34.8542 8.63324C34.752 8.57778 34.6504 8.48781 34.55 8.36371C34.4041 8.18329 34.333 8.01102 34.3384 7.84694C34.3434 7.68333 34.4187 7.52743 34.5633 7.38018ZM35.4699 9.58951L36.122 9.17137L36.6542 8.02965L36.8904 8.39507L36.5124 9.15409L37.3556 9.11636L37.5873 9.47497L36.3218 9.48544L35.6714 9.90221L35.4699 9.58951Z" fill="#002F6C"/>
<path fill-rule="evenodd" clip-rule="evenodd" d="M27.4504 1.01562C27.5289 1.01562 27.5922 1.07875 27.5922 1.15683C27.5922 1.23494 27.5289 1.29803 27.4504 1.29803C27.372 1.29803 27.3086 1.23494 27.3086 1.15683C27.3086 1.07875 27.372 1.01562 27.4504 1.01562Z" fill="#303E68"/>
<path fill-rule="evenodd" clip-rule="evenodd" d="M4.6848 23.1777C4.76323 23.1777 4.82663 23.2408 4.82663 23.3189C4.82663 23.397 4.76323 23.4601 4.6848 23.4601C4.60635 23.4601 4.54297 23.397 4.54297 23.3189C4.54297 23.2408 4.60635 23.1777 4.6848 23.1777Z" fill="#303E68"/>
</svg>
