<svg width="25" height="25" viewBox="0 0 25 25" fill="none" xmlns="http://www.w3.org/2000/svg">
    <path d="M16.7773 7.01074C16.7773 9.21988 14.9865 11.0107 12.7773 11.0107C10.5682 11.0107 8.77734 9.21988 8.77734 7.01074C8.77734 4.8016 10.5682 3.01074 12.7773 3.01074C14.9865 3.01074 16.7773 4.8016 16.7773 7.01074Z" fill="white"/>
    <path d="M16.7812 7.01074C16.7812 9.21988 14.9904 11.0107 12.7812 11.0107C10.5721 11.0107 8.78125 9.21988 8.78125 7.01074C8.78125 4.8016 10.5721 3.01074 12.7812 3.01074C14.9904 3.01074 16.7812 4.8016 16.7812 7.01074Z" fill="white"/>
    <path d="M12.7773 3.01074C13.8382 3.01074 14.8556 3.43217 15.6058 4.18231C16.3559 4.93246 16.7773 5.94988 16.7773 7.01074C16.7773 8.07161 16.3559 9.08902 15.6058 9.83917C14.8556 10.5893 13.8382 11.0107 12.7773 11.0107C11.7165 11.0107 10.6991 10.5893 9.94892 9.83917C9.19877 9.08902 8.77734 8.07161 8.77734 7.01074C8.77734 5.94988 9.19877 4.93246 9.94892 4.18231C10.6991 3.43217 11.7165 3.01074 12.7773 3.01074ZM16.7773 13.5507C15.7773 13.2591 14.598 13.0107 12.7773 13.0107C10.9567 13.0107 9.77734 13.2579 8.77734 13.5507C6.38734 14.2507 4.77734 15.5107 4.77734 17.0107V21.0107H10.7773H11.8673H13.6873H14.7773H20.7773V17.0107C20.7773 15.5107 19.1773 14.2507 16.7773 13.5507Z" fill="white"/>
</svg>