<svg width="24" height="25" viewBox="0 0 24 25" fill="none" xmlns="http://www.w3.org/2000/svg">
    <path fill-rule="evenodd" clip-rule="evenodd" d="M19.5725 9.67312L20.9763 9.91126C21.5737 10.0115 22.0082 10.5254 21.9999 11.1312V12.8902C21.9999 13.496 21.5654 14.0098 20.9679 14.1101L19.5641 14.3441C19.4221 14.812 19.2299 15.2674 19.0001 15.7061L19.8274 16.8676C20.1783 17.3606 20.1198 18.0332 19.6937 18.4594L18.4486 19.7044C18.2147 19.9384 17.9055 20.0679 17.5754 20.0679C17.3164 20.0679 17.0657 19.9885 16.8568 19.8381L15.6995 19.0109C15.265 19.2406 14.8096 19.4287 14.3375 19.5749L14.0994 20.9787C13.9991 21.5761 13.4852 22.0106 12.8794 22.0106H11.1163C10.5105 22.0106 9.99661 21.5761 9.89634 20.9787L9.66238 19.5749C9.20698 19.4328 8.76412 19.2532 8.34214 19.0317L7.16814 19.8673C6.95924 20.0177 6.71274 20.0971 6.45371 20.0971C6.12365 20.0971 5.81448 19.9676 5.58051 19.7336L4.33548 18.4886C3.90515 18.0625 3.85084 17.3898 4.20178 16.8968L5.02484 15.7521C4.79088 15.3175 4.59869 14.8621 4.45246 14.3942L3.03196 14.1519C2.43451 14.0516 2 13.5377 2 12.9319V11.173C2 10.5672 2.43451 10.0533 3.03196 9.95304L4.41904 9.71908C4.56109 9.24697 4.74492 8.79157 4.97471 8.35289L4.13912 7.17888C3.78817 6.68588 3.84666 6.01323 4.27281 5.58708L5.52202 4.34204C5.75181 4.10808 6.06515 3.97856 6.39521 3.97856C6.65425 3.97856 6.90492 4.05794 7.11382 4.20835L8.26276 5.03558C8.69727 4.80162 9.15267 4.60943 9.6206 4.4632L9.86292 3.0427C9.96319 2.44525 10.4771 2.01074 11.0829 2.01074H12.8418C13.4476 2.01074 13.9615 2.44525 14.0618 3.0427L14.2957 4.42978C14.7846 4.57601 15.2567 4.77237 15.7079 5.01052L16.8694 4.18328C17.0783 4.03287 17.3248 3.95349 17.5838 3.95349C17.9138 3.95349 18.223 4.08301 18.457 4.31698L19.702 5.56201C20.1323 5.98816 20.1867 6.66081 19.8357 7.15381L19.0085 8.31111C19.2383 8.74561 19.4263 9.20101 19.5725 9.67312ZM7.6875 12.008C7.6875 9.62653 9.6219 7.69214 12.0033 7.69214C14.3848 7.69214 16.3192 9.62653 16.3192 12.008C16.3192 14.3894 14.3848 16.3238 12.0033 16.3238C9.6219 16.3238 7.6875 14.3894 7.6875 12.008Z" fill="white"/>
</svg>