<svg width="24" height="25" viewBox="0 0 24 25" fill="none" xmlns="http://www.w3.org/2000/svg">
    <g clipPath="url(#clip0)">
        <path d="M12 2.01074L4 5.64711V11.1017C4 16.1471 7.41333 20.8653 12 22.0107C16.5867 20.8653 20 16.1471 20 11.1017V5.64711L12 2.01074ZM12 6.5562C12.7072 6.5562 13.3855 6.84353 13.8856 7.355C14.3857 7.86646 14.6667 8.56015 14.6667 9.28347C14.6667 10.0068 14.3857 10.7005 13.8856 11.2119C13.3855 11.7234 12.7072 12.0107 12 12.0107C11.2928 12.0107 10.6145 11.7234 10.1144 11.2119C9.61428 10.7005 9.33333 10.0068 9.33333 9.28347C9.33333 8.56015 9.61428 7.86646 10.1144 7.355C10.6145 6.84353 11.2928 6.5562 12 6.5562ZM16.4444 16.1017C15.3689 17.7835 13.8756 19.1198 12 19.738C10.1244 19.1198 8.63111 17.7835 7.55556 16.1017C7.25333 15.6471 7.11111 15.1926 7.11111 14.738C7.11111 13.238 9.07556 12.9198 12 12.9198C14.9244 12.9198 16.8889 13.2107 16.8889 14.738C16.8889 15.1926 16.7467 15.6471 16.4444 16.1017Z" fill="white"/>
    </g>
    <defs>
        <clipPath id="clip0">
            <rect width="24" height="24" fill="white" transform="translate(0 0.0107422)"/>
        </clipPath>
    </defs>
</svg>