<svg width="24" height="25" viewBox="0 0 24 25" fill="none" xmlns="http://www.w3.org/2000/svg">
    <path d="M2.58824 17.8343C2.26329 17.8343 2 18.0976 2 18.4225C2 18.7474 2.26329 19.0107 2.58824 19.0107H3.17647V21.4225C3.17647 21.7474 3.43976 22.0107 3.76471 22.0107H21.4118C21.7367 22.0107 22 21.7474 22 21.4225V2.59898C22 2.27404 21.7367 2.01074 21.4118 2.01074H3.76471C3.43976 2.01074 3.17647 2.27404 3.17647 2.59898C3.17647 5.70206 3.17647 2.87621 3.17647 5.83427H2.58824C2.26329 5.83427 2 6.09757 2 6.42251C2 6.74745 2.26329 7.01074 2.58824 7.01074H3.17647C3.17647 8.33427 3.17647 5.7743 3.17647 9.83427H2.58824C2.26329 9.83427 2 10.0976 2 10.4225C2 10.7474 2.26329 11.0107 2.58824 11.0107H3.17647V13.8343H2.58824C2.26329 13.8343 2 14.0976 2 14.4225C2 14.7474 2.26329 15.0107 2.58824 15.0107H3.17647C3.17647 17.7325 3.17647 16.3343 3.17647 17.8343H2.58824ZM4.35294 19.0107H4.94118C5.26612 19.0107 5.52941 18.7474 5.52941 18.4225C5.52941 18.0976 5.26612 17.8343 4.94118 17.8343H4.35294C4.35294 16.3343 4.35294 17.7325 4.35294 15.0107H4.94118C5.26612 15.0107 5.52941 14.7474 5.52941 14.4225C5.52941 14.0976 5.26612 13.8343 4.94118 13.8343H4.35294V11.0107H4.94118C5.26612 11.0107 5.52941 10.7474 5.52941 10.4225C5.52941 10.0976 5.26612 9.83427 4.94118 9.83427H4.35294C4.35294 6.57937 4.35294 8.08917 4.35294 7.01074H4.94118C5.26612 7.01074 5.52941 6.74745 5.52941 6.42251C5.52941 6.09757 5.26612 5.83427 4.94118 5.83427H4.35294C4.35294 3.03083 4.35294 5.76572 4.35294 3.18721H20.8235V20.8343H4.35294V19.0107Z" fill="white"/>
    <path d="M13 5.01074C13.7956 5.01074 14.5587 5.33852 15.1213 5.92197C15.6839 6.50541 16 7.29674 16 8.12185C16 8.94697 15.6839 9.73829 15.1213 10.3217C14.5587 10.9052 13.7956 11.233 13 11.233C12.2044 11.233 11.4413 10.9052 10.8787 10.3217C10.3161 9.73829 10 8.94697 10 8.12185C10 7.29674 10.3161 6.50541 10.8787 5.92197C11.4413 5.33852 12.2044 5.01074 13 5.01074ZM16 13.2085C15.25 12.9817 14.3655 12.7885 13 12.7885C11.6345 12.7885 10.75 12.9807 10 13.2085C8.2075 13.753 7 14.733 7 15.8996V19.0107H11.5H12.3175H13.6825H14.5H19V15.8996C19 14.733 17.8 13.753 16 13.2085Z" fill="white"/>
</svg>