<svg width="32" height="32" viewBox="0 0 32 32" fill="none" xmlns="http://www.w3.org/2000/svg">
<circle cx="16" cy="16" r="16" fill="#BFC5D2"/>
<path d="M7.26213 22.4599L15.8653 13.8639L14.6107 12.5925L13.9654 13.2282C13.6159 13.5774 13.0513 13.5774 12.7018 13.2282L12.0656 12.5925C11.7161 12.2433 11.7161 11.6791 12.0656 11.3299L17.1378 6.26191C17.4873 5.9127 18.0519 5.9127 18.4014 6.26191L19.0377 6.89765C19.3872 7.24686 19.3872 7.81097 19.0377 8.16018L18.4014 8.77801L19.674 10.0585C20.0235 9.70924 20.5881 9.70924 20.9376 10.0585C21.2871 10.4077 21.2871 10.9807 20.9376 11.3299L22.2011 12.5925L22.8374 11.9567C23.1869 11.6075 23.7605 11.6075 24.11 11.9567L24.7373 12.5925C25.0868 12.9417 25.0868 13.5147 24.7373 13.8639L19.674 18.923C19.3245 19.2722 18.7509 19.2722 18.4014 18.923L17.7741 18.2962C17.4156 17.947 17.4156 17.374 17.7741 17.0247L18.4014 16.389L17.1378 15.1265L8.52572 23.7314C8.17621 24.0806 7.61163 24.0806 7.26213 23.7314C6.91262 23.3822 6.91262 22.8091 7.26213 22.4599ZM23.1242 21.3138C23.5995 21.3138 24.0554 21.5024 24.3916 21.8383C24.7277 22.1741 24.9165 22.6296 24.9165 23.1046V24H15.9549V23.1046C15.9549 22.6296 16.1437 22.1741 16.4799 21.8383C16.816 21.5024 17.2719 21.3138 17.7472 21.3138H23.1242Z" fill="white"/>
</svg>
