<svg width="32" height="32" viewBox="0 0 32 32" fill="none" xmlns="http://www.w3.org/2000/svg">
<circle cx="16" cy="16" r="16" fill="#00AEEF"/>
<path d="M13.2704 8.84211C14.2345 8.84211 15.1592 9.24135 15.8409 9.95202C16.5226 10.6627 16.9056 11.6265 16.9056 12.6316C16.9056 13.6366 16.5226 14.6005 15.8409 15.3111C15.1592 16.0218 14.2345 16.4211 13.2704 16.4211C12.3063 16.4211 11.3817 16.0218 10.6999 15.3111C10.0182 14.6005 9.63521 13.6366 9.63521 12.6316C9.63521 11.6265 10.0182 10.6627 10.6999 9.95202C11.3817 9.24135 12.3063 8.84211 13.2704 8.84211ZM13.2704 18.3158C15.6969 18.3158 20.5408 19.5853 20.5408 22.1053V24H6V22.1053C6 19.5853 10.8439 18.3158 13.2704 18.3158ZM20.3227 9.18316C22.1585 11.2674 22.1585 14.1568 20.3227 16.0705L18.7959 14.4695C19.5593 13.3516 19.5593 11.9021 18.7959 10.7842L20.3227 9.18316ZM23.3309 6C26.9025 9.83684 26.8752 15.5779 23.3309 19.2632L21.8495 17.7189C24.3669 14.7063 24.3669 10.4053 21.8495 7.54421L23.3309 6Z" fill="white"/>
</svg>
