<svg width="210" height="173" viewBox="0 0 210 173" fill="none" xmlns="http://www.w3.org/2000/svg">
    <path fill-rule="evenodd" clip-rule="evenodd" d="M128.834 28.9521C153.44 34.6539 172.951 49.0747 180.977 67.3992C183.427 73.0132 188.27 71.9456 188.27 71.9456H192.546V100.225H189.482C189.482 100.225 183.601 98.7594 181.007 104.706C172.668 123.831 151.829 138.709 125.737 143.891C118.378 145.349 119.459 151.129 119.459 151.129V154.933H91.159V150.726C91.159 150.726 92.0171 145.315 84.7734 143.869C58.4512 138.611 37.488 123.48 29.3448 104.085C27.2741 99.1503 22.7195 100.228 22.7195 100.228H18.2751V71.948H23.1253C23.1253 71.948 27.3376 72.4904 29.8874 66.8496C38.2116 48.4493 58.1481 34.0701 83.1403 28.6491C92.0709 26.7118 91.159 20.2381 91.159 20.2381V16.0215H119.459V20.2381C119.459 21.3814 119.129 26.7046 128.834 28.9521ZM110.849 84.1726H114.437V86.8623H110.849V84.1726ZM96.1926 84.1726H99.7815V86.8623H96.1926V84.1726ZM103.378 89.5251H106.966V92.2148H103.378V89.5251ZM103.378 79.3747H106.966V82.0644H103.378V79.3747ZM156.904 51.7424L117.655 81.7442L119.075 83.5961L158.322 53.5941L156.904 51.7424ZM151.213 46.1578L111.963 76.1597L113.384 78.0115L152.631 48.0095L151.213 46.1578ZM95.4543 94.2009L56.2047 124.203L57.625 126.055L96.8722 96.0526L95.4543 94.2009ZM90.7091 88.4086L51.4595 118.411L52.8798 120.262L92.127 90.2605L90.7091 88.4086ZM114.455 93.6732L153.704 123.675L152.284 125.527L113.037 95.525L114.455 93.6732ZM119.249 88.0032L158.498 118.005L157.078 119.857L117.831 89.8549L119.249 88.0032ZM53.5985 52.0648L92.8483 82.0668L91.4278 83.9185L52.1806 53.9167L53.5985 52.0648ZM59.0454 46.4802L98.2951 76.4822L96.8746 78.3339L57.6274 48.3321L59.0454 46.4802ZM105.879 75.1581L74.0412 48.7009C72.0756 47.0617 70.1541 35.8681 85.5875 35.8681C96.8161 35.8681 101.554 39.2443 97.3074 46.6561C95.8968 49.1162 97.0776 58.3285 106.338 58.1649C114.616 58.0183 114.946 49.1382 113.741 46.1797C110.58 38.4405 116.88 35.1743 126.744 36.3835C141.464 38.184 138.748 48.2197 133.032 52.6829C127.319 57.1437 105.879 75.1581 105.879 75.1581ZM105.879 96.6414L74.0412 123.099C72.0756 124.738 70.1541 135.931 85.5875 135.931C96.8161 135.931 101.554 132.555 97.3074 125.143C95.8968 122.683 97.0776 113.471 106.338 113.635C114.616 113.781 114.946 122.661 113.741 125.62C110.58 133.359 116.88 136.625 126.744 135.416C141.464 133.615 138.748 123.58 133.032 119.117C127.319 114.656 105.879 96.6414 105.879 96.6414ZM126.309 85.741L157.481 108.241C159.41 109.631 172.599 110.989 172.599 100.081C172.599 92.1464 166.942 87.4876 159.889 91.7995C156.489 93.8662 149.042 93.9737 149.423 85.1302C149.785 76.7216 157.948 78.1922 160.452 80.1856C166.373 84.9103 173.416 77.9675 171.993 70.9953C169.871 60.5932 158.046 62.5133 152.79 66.5515C147.534 70.5898 126.309 85.741 126.309 85.741ZM83.5632 85.6848L52.3909 108.184C50.462 109.574 37.2729 110.933 37.2729 100.025C37.2729 92.0901 42.9299 87.4315 49.9828 91.7432C53.3834 93.8101 60.83 93.9175 60.4486 85.0741C60.0868 76.6653 51.9239 78.1361 49.4206 80.1295C43.4995 84.8542 36.4564 77.9113 37.8791 70.9391C40.0011 60.537 51.8261 62.4572 57.0823 66.4954C62.3383 70.5335 83.5632 85.6848 83.5632 85.6848Z" fill="#002F6C"/>
    <path fill-rule="evenodd" clip-rule="evenodd" d="M204.71 98.9124C204.71 98.9124 201.588 98.7661 201.685 95.7927C201.783 92.8192 205.49 93.5505 205.49 93.5505C205.178 91.73 204.897 87.4571 208.807 86.3358C207.415 88.585 207.978 90.6257 208.856 92.5754C209.734 94.5253 210.076 95.5002 209.881 98.1325C209.685 100.765 205.783 103.3 202.075 102.032C198.368 100.765 197.295 96.2802 197.783 93.3555C198.271 90.4306 201.88 86.8234 203.149 84.971C204.417 83.1186 203.636 82.1437 202.758 81.6563C203.954 81.0959 205.075 81.9244 205.075 82.9968C206.295 83.0942 208.983 79.8768 208.301 76.367C207.618 72.8572 204.929 72.4432 202.954 73.0769C200.978 73.7105 199.929 75.8067 200.807 77.4642C201.685 79.1216 205.578 77.7519 203.076 74.7586C203.598 74.2513 205.661 74.6123 205.978 76.9765C206.295 79.3408 202.951 81.1911 200.731 79.436C201.004 80.1026 201.978 82.0463 201.002 83.9962C200.027 85.9461 198.075 86.9208 198.075 86.9208C198.075 86.9208 199.393 81.9731 197.978 79.219C196.563 76.4649 198.465 72.7461 200.905 71.8095C203.344 70.8728 205.734 70.6883 208.124 72.687C210.515 74.6855 210.246 78.7804 209.368 80.1452C206.979 83.8591 200.473 88.4223 203.365 92.3125C201.27 92.4085 200.923 90.4857 201.118 89.9797C200.38 90.0896 197.271 95.2566 200.027 98.5225C202.783 101.788 204.954 100.814 205.978 100.521C207.002 100.229 209.246 97.4988 207.344 95.5003C205.442 93.5017 201.685 95.7927 204.71 98.9124Z" fill="#002F6C"/>
    <path fill-rule="evenodd" clip-rule="evenodd" d="M7.21574 98.6703C7.21574 98.6703 4.09378 98.5239 4.19126 95.5505C4.28875 92.577 7.99619 93.3083 7.99619 93.3083C7.68377 91.4876 7.40304 87.2149 11.3134 86.0937C9.92103 88.3428 10.484 90.3834 11.3621 92.3333C12.2401 94.2831 12.5817 95.258 12.3866 97.8904C12.1915 100.523 8.28908 103.058 4.58149 101.79C0.874048 100.523 -0.198997 96.038 0.28886 93.1133C0.776566 90.1884 4.38638 86.5812 5.65468 84.7289C6.92299 82.8764 6.14254 81.9015 5.26446 81.4142C6.45962 80.8537 7.58148 81.6822 7.58148 82.7547C8.80097 82.8521 11.4896 79.6346 10.8066 76.1248C10.1237 72.615 7.43533 72.201 5.45957 72.8347C3.48396 73.4683 2.43525 75.5645 3.31318 77.2219C4.19127 78.8794 8.08376 77.5098 5.58154 74.5164C6.10379 74.0091 8.16682 74.3701 8.48405 76.7344C8.80112 79.0986 5.45702 80.9489 3.23748 79.1938C3.50965 79.8604 4.48401 81.8041 3.50845 83.754C2.53273 85.7039 0.581453 86.6786 0.581453 86.6786C0.581453 86.6786 1.89873 81.7309 0.483972 78.9768C-0.930783 76.2227 0.97138 72.5039 3.41066 71.5673C5.84995 70.6306 8.24012 70.4461 10.6303 72.4448C13.0206 74.4433 12.752 78.5382 11.8743 79.903C9.48484 83.617 2.97883 88.1801 5.87128 92.0703C3.77626 92.1663 3.42899 90.2435 3.6241 89.7375C2.88646 89.8474 -0.223478 95.0144 2.53273 98.2803C5.28879 101.546 7.45967 100.571 8.48405 100.279C9.50842 99.9864 11.7523 97.2567 9.84998 95.2582C7.94752 93.2595 4.19127 95.5505 7.21574 98.6703Z" fill="#002F6C"/>
    <path d="M8.47632 121.136L16.737 115.723L17.8347 117.396L14.175 119.793L20.0471 120.765L21.5164 123.003L16.2554 121.999L13.3609 128.58L11.9454 126.423L14.3339 121.61L12.0725 121.171L9.574 122.81L8.47632 121.136ZM19.4897 136.388L18.1354 134.714L19.3456 132.638L16.8543 129.56L14.5882 130.334L13.2582 128.692L23.3499 125.463L24.6798 127.104L19.4897 136.388ZM20.2379 131.086L22.2156 127.72L18.5339 128.983L20.2379 131.086ZM22.1105 134.56L23.614 135.806C23.235 136.346 23.0614 136.847 23.0932 137.316C23.1275 137.785 23.3573 138.232 23.7851 138.662C24.2325 139.114 24.6701 139.363 25.093 139.402C25.5111 139.441 25.8534 139.334 26.1101 139.08C26.2762 138.916 26.3692 138.728 26.3911 138.513C26.4108 138.305 26.3447 138.032 26.1931 137.707C26.088 137.484 25.8142 137.008 25.3814 136.275C24.8216 135.33 24.5259 134.57 24.5014 133.994C24.4623 133.18 24.7238 132.498 25.2812 131.946C25.6407 131.592 26.0758 131.36 26.5867 131.253C27.1026 131.147 27.6258 131.204 28.166 131.424C28.7039 131.641 29.2392 132.02 29.7745 132.557C30.6424 133.434 31.1046 134.287 31.151 135.117C31.1998 135.948 30.9114 136.693 30.2807 137.362L28.8236 135.989C29.1293 135.569 29.2588 135.183 29.2245 134.829C29.1855 134.475 28.9704 134.099 28.5791 133.703C28.1758 133.295 27.7724 133.058 27.3739 132.997C27.1172 132.955 26.8997 133.024 26.7163 133.207C26.5476 133.371 26.4767 133.581 26.4988 133.837C26.5207 134.167 26.7945 134.756 27.3103 135.603C27.8311 136.451 28.1636 137.128 28.3152 137.629C28.4691 138.129 28.4839 138.623 28.3664 139.107C28.2491 139.593 27.9679 140.055 27.5256 140.492C27.1221 140.89 26.6356 141.151 26.0635 141.276C25.4915 141.401 24.917 141.344 24.3425 141.105C23.768 140.863 23.1763 140.438 22.5725 139.827C21.6949 138.943 21.2231 138.059 21.1644 137.179C21.1008 136.3 21.4186 135.425 22.1105 134.56ZM26.7163 143.582L33.4417 136.351L34.9061 137.709L28.1832 144.943L26.7163 143.582ZM29.5987 146.216L35.5784 138.359L38.1232 140.294C39.0889 141.027 39.6879 141.542 39.9201 141.843C40.2819 142.304 40.4628 142.847 40.4677 143.472C40.4701 144.098 40.233 144.725 39.7588 145.348C39.3896 145.835 38.9937 146.172 38.5681 146.367C38.1428 146.563 37.7248 146.653 37.3117 146.638C36.9033 146.619 36.5342 146.536 36.2091 146.384C35.7739 146.169 35.197 145.793 34.4783 145.248L33.4465 144.462L31.1901 147.427L29.5987 146.216ZM36.1602 140.897L34.4562 143.135L35.3217 143.792C35.9476 144.266 36.3949 144.542 36.6687 144.618C36.9401 144.696 37.204 144.694 37.4559 144.608C37.7076 144.523 37.9253 144.364 38.1013 144.132C38.3214 143.844 38.4166 143.545 38.3922 143.23C38.3654 142.918 38.2431 142.639 38.0231 142.395C37.8617 142.217 37.4949 141.911 36.9254 141.476L36.1602 140.897ZM39.1255 147.439C39.6536 146.582 40.2282 145.942 40.8443 145.517C41.299 145.204 41.7976 144.982 42.3379 144.845C42.8782 144.711 43.3965 144.679 43.8928 144.755C44.5528 144.857 45.2276 145.121 45.9121 145.544C47.154 146.309 47.907 147.305 48.1758 148.534C48.4472 149.763 48.1563 151.06 47.3105 152.43C46.4695 153.791 45.4427 154.627 44.2326 154.937C43.02 155.252 41.7952 155.025 40.5606 154.265C39.3113 153.493 38.5486 152.499 38.2846 151.277C38.0157 150.058 38.2969 148.781 39.1255 147.439ZM40.9102 148.463C40.321 149.413 40.0961 150.271 40.233 151.036C40.37 151.798 40.7758 152.389 41.4555 152.809C42.1326 153.227 42.8391 153.325 43.5774 153.107C44.3132 152.885 44.9831 152.289 45.5845 151.312C46.181 150.347 46.4157 149.497 46.2812 148.764C46.1517 148.026 45.7361 147.442 45.0345 147.01C44.3327 146.577 43.619 146.47 42.8929 146.685C42.1692 146.902 41.5067 147.493 40.9102 148.463ZM50.5667 148.583L53.8084 150.232C54.5394 150.606 55.07 150.943 55.3975 151.251C55.8327 151.663 56.1383 152.159 56.3045 152.736C56.4805 153.31 56.5147 153.928 56.4219 154.588C56.3265 155.247 56.0699 155.99 55.6493 156.813C55.2802 157.539 54.872 158.113 54.4269 158.548C53.8793 159.075 53.3024 159.434 52.6938 159.623C52.2341 159.767 51.6987 159.789 51.09 159.691C50.6328 159.618 50.0802 159.412 49.4252 159.08L46.0856 157.382L50.5667 148.583ZM51.5911 150.977L48.6257 156.801L49.9484 157.473C50.4421 157.724 50.8113 157.878 51.0606 157.934C51.3858 158.01 51.6865 158.008 51.9627 157.93C52.2415 157.856 52.5372 157.651 52.8575 157.319C53.1803 156.987 53.5127 156.479 53.8598 155.797C54.2069 155.118 54.4124 154.568 54.4759 154.143C54.5418 153.716 54.5175 153.347 54.4098 153.034C54.2949 152.721 54.0945 152.445 53.7986 152.203C53.5787 152.023 53.1068 151.749 52.3857 151.383L51.5911 150.977ZM63.2866 165.08L61.2844 164.289L61.3187 161.885L57.632 160.429L56.0406 162.217L54.075 161.44L61.2747 153.669L63.2402 154.446L63.2866 165.08ZM61.3284 160.094L61.3968 156.193L58.8128 159.1L61.3284 160.094ZM72.2611 166.556C72.6229 167.037 73.0483 167.46 73.5348 167.828L72.4152 168.967C72.1559 168.793 71.9115 168.588 71.6841 168.354C71.6328 168.3 71.3004 167.894 70.6794 167.118C69.9777 167.198 69.2492 167.122 68.4986 166.89C67.049 166.441 66.0418 165.661 65.4844 164.555C64.9294 163.443 64.8903 162.117 65.3695 160.568C65.8486 159.027 66.6334 157.954 67.7188 157.351C68.8091 156.747 70.0609 156.667 71.4714 157.101C72.8698 157.534 73.8476 158.303 74.4026 159.417C74.9551 160.526 74.9967 161.851 74.5175 163.394C74.2682 164.208 73.9309 164.892 73.5103 165.439C73.1925 165.859 72.7745 166.233 72.2611 166.556ZM71.0632 165.012C71.3981 164.799 71.6865 164.508 71.9384 164.137C72.1828 163.768 72.3907 163.319 72.5544 162.789C72.8917 161.699 72.9041 160.81 72.5886 160.121C72.2758 159.434 71.7305 158.97 70.9556 158.728C70.1782 158.489 69.4619 158.565 68.8141 158.958C68.1613 159.351 67.67 160.092 67.3326 161.179C66.9903 162.283 66.9756 163.187 67.291 163.883C67.6039 164.582 68.1296 165.044 68.8678 165.273C69.1441 165.359 69.4179 165.39 69.6893 165.378C69.3836 165.007 69.0512 164.689 68.6942 164.425L69.572 163.485C70.1294 163.895 70.6281 164.403 71.0632 165.012ZM76.774 168.901L78.6392 160.912L75.7913 160.248L76.1702 158.623L83.8026 160.402L83.4236 162.026L80.5878 161.367L78.7225 169.355L76.774 168.901ZM90.6452 171.266L88.511 170.973L87.9733 168.63L84.047 168.087L82.9274 170.203L80.8322 169.915L85.9808 160.658L88.0758 160.947L90.6452 171.266ZM87.5601 166.888L86.697 163.079L84.8782 166.519L87.5601 166.888ZM91.6941 171.525L92.2343 161.667L96.4293 161.897C97.4806 161.956 98.2459 162.088 98.7127 162.288C99.1846 162.491 99.5463 162.825 99.8104 163.294C100.072 163.763 100.187 164.289 100.155 164.87C100.114 165.613 99.8667 166.211 99.4046 166.668C98.9451 167.127 98.2825 167.396 97.4097 167.472C97.8253 167.748 98.1651 168.043 98.4267 168.359C98.6908 168.674 99.0379 169.231 99.4706 170.022L100.568 172.011L98.1848 171.879L96.8744 169.651C96.405 168.857 96.0798 168.356 95.899 168.146C95.7229 167.938 95.5298 167.792 95.3244 167.706C95.1142 167.618 94.7816 167.565 94.322 167.54L93.9163 167.518L93.6913 171.634L91.6941 171.525ZM94.0018 165.947L95.476 166.028C96.4343 166.082 97.0284 166.072 97.2729 166.004C97.5149 165.938 97.7104 165.808 97.8546 165.618C97.999 165.427 98.0796 165.183 98.0942 164.887C98.1139 164.555 98.0404 164.284 97.8743 164.069C97.708 163.854 97.4635 163.712 97.1482 163.641C96.9843 163.612 96.5002 163.573 95.6935 163.529L94.1388 163.443L94.0018 165.947ZM113.144 171.903L112.249 162.07L119.011 161.457L119.163 163.118L114.393 163.551L114.606 165.884L118.73 165.51L118.882 167.171L114.757 167.548L115.136 171.722L113.144 171.903ZM121.537 171.119L120.097 161.352L127.33 160.287L127.572 161.939L122.316 162.713L122.637 164.88L127.526 164.159L127.768 165.811L122.881 166.531L123.27 169.177L128.717 168.376L128.961 170.027L121.537 171.119ZM128.384 160.082L131.926 159.256C132.728 159.071 133.352 158.987 133.799 159.014C134.4 159.048 134.951 159.232 135.452 159.564C135.953 159.891 136.381 160.341 136.733 160.905C137.085 161.469 137.368 162.205 137.579 163.104C137.762 163.898 137.821 164.601 137.76 165.219C137.684 165.974 137.471 166.622 137.129 167.157C136.87 167.565 136.474 167.924 135.946 168.241C135.55 168.478 134.992 168.679 134.276 168.845L130.628 169.695L128.384 160.082ZM130.711 161.252L132.198 167.616L133.643 167.281C134.183 167.154 134.564 167.032 134.789 166.917C135.087 166.766 135.317 166.568 135.476 166.333C135.642 166.096 135.738 165.749 135.767 165.29C135.801 164.828 135.728 164.225 135.554 163.48C135.381 162.737 135.185 162.185 134.958 161.819C134.733 161.45 134.479 161.184 134.193 161.013C133.904 160.846 133.572 160.763 133.19 160.771C132.907 160.773 132.369 160.866 131.582 161.049L130.711 161.252ZM140.304 167.308L137.385 157.878L144.372 155.719L144.864 157.314L139.789 158.882L140.436 160.976L145.157 159.517L145.651 161.11L140.93 162.569L141.72 165.124L146.981 163.499L147.475 165.095L140.304 167.308ZM149.079 164.521L145.282 155.406L149.162 153.791C150.135 153.388 150.88 153.176 151.386 153.154C151.9 153.132 152.372 153.276 152.814 153.584C153.252 153.894 153.584 154.316 153.809 154.854C154.095 155.538 154.132 156.188 153.914 156.799C153.699 157.414 153.217 157.942 152.467 158.389C152.961 158.455 153.393 158.575 153.767 158.746C154.142 158.914 154.696 159.266 155.43 159.791L157.283 161.105L155.08 162.022L152.931 160.583C152.161 160.072 151.653 159.762 151.399 159.652C151.149 159.542 150.912 159.491 150.69 159.505C150.462 159.517 150.137 159.613 149.714 159.789L149.34 159.945L150.924 163.751L149.079 164.521ZM148.734 158.494L150.098 157.927C150.983 157.558 151.516 157.292 151.704 157.126C151.892 156.96 152.012 156.759 152.061 156.525C152.11 156.29 152.073 156.036 151.961 155.763C151.834 155.457 151.648 155.245 151.403 155.12C151.164 154.998 150.883 154.978 150.565 155.052C150.406 155.096 149.951 155.269 149.208 155.579L147.771 156.178L148.734 158.494ZM166.174 156.586L164.258 157.57L162.471 155.961L158.948 157.773L159.246 160.148L157.366 161.115L156.256 150.584L158.136 149.616L166.174 156.586ZM161.131 154.773L158.236 152.154L158.725 156.012L161.131 154.773ZM168.091 155.374L163.695 148.446L161.224 150.01L160.329 148.6L166.949 144.408L167.844 145.817L165.385 147.376L169.78 154.304L168.091 155.374ZM171.027 149.846L172.465 148.527C172.949 148.976 173.423 149.216 173.892 149.245C174.362 149.277 174.836 149.111 175.32 148.747C175.831 148.363 176.134 147.965 176.232 147.552C176.327 147.142 176.268 146.79 176.051 146.499C175.909 146.313 175.736 146.196 175.528 146.145C175.322 146.096 175.044 146.125 174.701 146.233C174.464 146.306 173.956 146.511 173.169 146.841C172.156 147.266 171.364 147.454 170.787 147.4C169.976 147.33 169.335 146.978 168.866 146.35C168.563 145.949 168.392 145.485 168.355 144.965C168.321 144.442 168.448 143.931 168.739 143.426C169.027 142.92 169.475 142.441 170.081 141.987C171.069 141.247 171.976 140.905 172.804 140.971C173.636 141.034 174.337 141.423 174.914 142.138L173.354 143.394C172.98 143.035 172.614 142.852 172.259 142.839C171.902 142.83 171.499 142.991 171.056 143.326C170.597 143.67 170.306 144.037 170.191 144.422C170.115 144.672 170.154 144.896 170.308 145.102C170.45 145.29 170.648 145.39 170.905 145.405C171.235 145.424 171.856 145.236 172.768 144.838C173.677 144.44 174.396 144.203 174.912 144.12C175.43 144.037 175.919 144.088 176.383 144.271C176.85 144.452 177.268 144.791 177.642 145.29C177.982 145.744 178.175 146.262 178.222 146.843C178.266 147.427 178.131 147.989 177.816 148.527C177.501 149.062 176.997 149.589 176.312 150.105C175.315 150.852 174.374 151.199 173.494 151.138C172.614 151.082 171.79 150.647 171.027 149.846ZM180.62 146.545L174.325 138.938L175.865 137.665L182.16 145.273L180.62 146.545ZM183.537 144.063L176.816 136.827L178.283 135.469L185.003 142.703L183.537 144.063ZM192.648 135.083L191.132 136.612L188.935 135.638L186.148 138.452L187.167 140.616L185.681 142.119L181.356 132.45L182.842 130.95L192.648 135.083ZM187.292 134.924L183.725 133.329L185.387 136.847L187.292 134.924ZM190.387 132.748L191.369 131.062C191.964 131.348 192.489 131.436 192.944 131.326C193.401 131.216 193.804 130.918 194.161 130.427C194.535 129.911 194.709 129.437 194.679 129.017C194.648 128.597 194.486 128.277 194.193 128.065C194.002 127.928 193.802 127.867 193.587 127.881C193.379 127.896 193.12 128.003 192.824 128.209C192.621 128.348 192.196 128.695 191.543 129.242C190.702 129.948 190 130.363 189.433 130.483C188.636 130.654 187.922 130.507 187.287 130.048C186.878 129.753 186.578 129.362 186.39 128.875C186.201 128.385 186.169 127.859 186.297 127.293C186.426 126.723 186.71 126.135 187.155 125.521C187.878 124.522 188.646 123.926 189.455 123.743C190.269 123.56 191.052 123.723 191.817 124.234L190.697 125.895C190.235 125.663 189.829 125.597 189.487 125.69C189.145 125.785 188.807 126.061 188.482 126.511C188.145 126.975 187.976 127.412 187.981 127.813C187.983 128.074 188.086 128.277 188.296 128.429C188.487 128.568 188.705 128.604 188.954 128.541C189.277 128.463 189.812 128.099 190.565 127.449C191.318 126.799 191.932 126.359 192.401 126.13C192.87 125.895 193.355 125.8 193.851 125.837C194.352 125.873 194.851 126.074 195.357 126.44C195.816 126.772 196.154 127.209 196.369 127.752C196.586 128.297 196.623 128.873 196.481 129.479C196.337 130.082 196.014 130.735 195.511 131.431C194.78 132.44 193.985 133.051 193.127 133.251C192.269 133.458 191.352 133.288 190.387 132.748ZM199.933 124.735L196.555 122.79L190.213 123.056L191.308 121.156L195.579 121.09L193.464 117.413L194.54 115.549L197.506 121.173L200.872 123.11L199.933 124.735Z" fill="#002F6C"/>
    <path d="M22.9378 45.7208C23.5001 45.4985 24.0209 45.2053 24.5048 44.834L25.3043 46.2192C25.0672 46.4194 24.8031 46.6027 24.5146 46.7567C24.451 46.7908 23.9695 47.0033 23.0552 47.3943C22.9451 48.0881 22.6763 48.7696 22.2509 49.4317C21.4294 50.7069 20.4076 51.4667 19.1901 51.7061C17.9727 51.9431 16.6818 51.6255 15.3177 50.7459C13.9584 49.8739 13.1345 48.8307 12.8461 47.6214C12.5552 46.4097 12.8143 45.1834 13.6112 43.9423C14.4034 42.7136 15.4081 41.9783 16.6305 41.7437C17.848 41.5067 19.1363 41.8243 20.498 42.6989C21.2118 43.1582 21.7815 43.6663 22.1971 44.2185C22.5173 44.6362 22.7643 45.1369 22.9378 45.7208ZM21.1287 46.4586C21.0114 46.0799 20.8085 45.7233 20.5199 45.3836C20.229 45.0491 19.8526 44.7265 19.3856 44.426C18.4249 43.8105 17.5716 43.5588 16.8236 43.6786C16.0755 43.7958 15.4814 44.1964 15.0439 44.878C14.6014 45.5621 14.4841 46.2705 14.6894 46.9985C14.8947 47.7338 15.4741 48.4056 16.4325 49.0212C17.4055 49.6466 18.2708 49.9031 19.0263 49.7883C19.7865 49.6735 20.3734 49.29 20.7914 48.6427C20.9479 48.3983 21.0529 48.1442 21.114 47.8779C20.6741 48.0759 20.278 48.3103 19.9283 48.5816L19.2561 47.4847C19.8012 47.0596 20.4222 46.7151 21.1287 46.4586ZM31.7656 37.6469L30.3282 39.2494L28.0838 38.3871L25.4412 41.3381L26.5681 43.4489L25.1576 45.0222L20.3562 35.5826L21.7668 34.0069L31.7656 37.6469ZM26.4068 37.7567L22.7667 36.3424L24.6026 39.7698L26.4068 37.7567ZM32.0125 37.6126L30.7999 36.2935L30.2939 28.051L26.8957 31.1706L25.7664 29.9417L31.0909 25.0535L32.1372 26.1894L32.6629 34.752L36.7968 30.9532L37.9263 32.1821L32.0125 37.6126ZM46.2774 26.3605L44.5026 27.5794L42.5247 26.2114L39.2611 28.4566L39.86 30.7749L38.1169 31.9719L35.6772 21.6675L37.4177 20.4681L46.2774 26.3605ZM41.0457 25.2049L37.8407 22.9721L38.8161 26.7366L41.0457 25.2049ZM53.4746 20.7857C54.0735 20.8516 54.6725 20.8344 55.2739 20.7319L55.3325 22.3295C55.0294 22.3956 54.7115 22.4346 54.3839 22.437C54.313 22.4395 53.7851 22.4028 52.7974 22.3198C52.3744 22.8841 51.817 23.3605 51.1325 23.7464C49.81 24.494 48.5534 24.6895 47.3653 24.3329C46.1746 23.9737 45.1847 23.0917 44.3851 21.6798C43.5907 20.2726 43.351 18.9656 43.6591 17.7637C43.9671 16.5569 44.769 15.5919 46.0549 14.8664C47.3286 14.1482 48.5607 13.9649 49.7489 14.3265C50.937 14.6855 51.9295 15.5675 52.7241 16.9746C53.1421 17.7149 53.4085 18.4281 53.5186 19.1097C53.6066 19.6301 53.5919 20.1895 53.4746 20.7857ZM51.5286 20.595C51.6019 20.2066 51.5897 19.7962 51.4919 19.3589C51.3916 18.929 51.2058 18.4673 50.9345 17.9859C50.3722 16.9917 49.7341 16.3736 49.0178 16.1293C48.3017 15.8851 47.5901 15.9607 46.8836 16.3589C46.1746 16.7597 45.7395 17.3312 45.5782 18.0715C45.4193 18.8166 45.6172 19.6814 46.1796 20.6732C46.7468 21.6798 47.3922 22.31 48.1158 22.5592C48.8394 22.8133 49.5362 22.7472 50.2109 22.3687C50.4602 22.227 50.6729 22.0511 50.8513 21.8434C50.3698 21.8117 49.9126 21.836 49.475 21.9118L49.3944 20.6293C50.074 20.5071 50.7854 20.4925 51.5286 20.595ZM54.8119 17.9983L56.4986 17.0162C56.8752 17.5585 57.2858 17.8932 57.7381 18.0226C58.1904 18.1521 58.6892 18.091 59.2392 17.8395C59.821 17.5732 60.2049 17.2482 60.3857 16.8647C60.5667 16.486 60.5837 16.1269 60.4321 15.7995C60.3344 15.587 60.1902 15.4355 59.997 15.3402C59.8088 15.2499 59.53 15.2182 59.1707 15.2499C58.9262 15.2719 58.3835 15.3623 57.5449 15.5185C56.4669 15.7189 55.6503 15.7336 55.1003 15.5601C54.3204 15.3159 53.7704 14.8369 53.4452 14.1237C53.235 13.6668 53.1666 13.1758 53.2423 12.6603C53.3205 12.1424 53.5529 11.6684 53.944 11.2386C54.3351 10.8062 54.8754 10.4348 55.5648 10.1196C56.6868 9.6066 57.6477 9.46491 58.4423 9.70686C59.2392 9.94627 59.843 10.4738 60.2537 11.2947L58.4618 12.1912C58.1732 11.7614 57.853 11.5024 57.5107 11.4169C57.1636 11.3289 56.7358 11.4022 56.2298 11.6344C55.7066 11.8712 55.3472 12.1693 55.1516 12.5211C55.0245 12.7482 55.0148 12.9755 55.1223 13.2125C55.2201 13.425 55.3912 13.5643 55.6405 13.6326C55.9584 13.7231 56.6038 13.6718 57.5792 13.4763C58.5546 13.2809 59.3052 13.2002 59.8283 13.232C60.3515 13.2613 60.8209 13.4153 61.2341 13.6913C61.6521 13.9697 61.987 14.39 62.2461 14.9567C62.4833 15.4721 62.5616 16.0194 62.4809 16.5983C62.4002 17.1774 62.1483 17.6978 61.7279 18.1545C61.305 18.6114 60.7011 19.0193 59.9187 19.376C58.787 19.8939 57.7943 20.0332 56.9461 19.7865C56.0977 19.5421 55.3864 18.9437 54.8119 17.9983ZM67.1771 16.3419L64.4048 8.61973L61.6521 9.60661L61.0873 8.03826L68.4656 5.39253L69.0278 6.96343L66.2873 7.94551L69.0596 15.6676L67.1771 16.3419ZM80.6866 12.394L78.6061 12.9536L77.198 11.004L73.3721 12.035L73.1618 14.4168L71.1204 14.9665L72.2573 4.43734L74.3009 3.88769L80.6866 12.394ZM76.1394 9.56262L73.861 6.38932L73.526 10.2639L76.1394 9.56262ZM81.7598 12.2989L79.9801 2.58802L81.8845 2.23876L87.077 8.0138L85.8839 1.50823L87.7029 1.17352L89.4826 10.8844L87.5171 11.2459L82.4076 5.58316L83.5786 11.9665L81.7598 12.2989ZM103.068 9.88022L103.271 0.0107422L107.473 0.098703C108.527 0.120617 109.294 0.225684 109.766 0.411352C110.245 0.597019 110.62 0.91956 110.898 1.38125C111.174 1.84054 111.309 2.36092 111.297 2.94224C111.282 3.68491 111.055 4.29325 110.61 4.76725C110.165 5.2411 109.51 5.52942 108.642 5.63689C109.067 5.89821 109.417 6.1816 109.688 6.48704C109.964 6.79233 110.329 7.33717 110.786 8.11406L111.952 10.0635L109.566 10.0146L108.182 7.83068C107.683 7.05379 107.341 6.56523 107.155 6.36245C106.972 6.15967 106.774 6.01798 106.564 5.94218C106.351 5.86158 106.016 5.81762 105.556 5.80786L105.153 5.8005L105.068 9.9218L103.068 9.88022ZM105.185 4.22975L106.662 4.25903C107.62 4.27854 108.214 4.24927 108.456 4.17347C108.693 4.09782 108.884 3.96349 109.023 3.76807C109.162 3.57264 109.233 3.32588 109.238 3.0302C109.246 2.69804 109.162 2.42921 108.989 2.21923C108.818 2.0091 108.568 1.87717 108.248 1.81609C108.087 1.79162 107.6 1.7697 106.794 1.75259L105.236 1.72077L105.185 4.22975ZM113.035 10.1099L114.04 0.289165L121.313 1.03184L121.144 2.69068L115.858 2.15079L115.636 4.33227L120.55 4.83314L120.381 6.49438L115.465 5.99112L115.193 8.65394L120.67 9.21335L120.501 10.872L113.035 10.1099ZM122.259 7.80381L124.205 7.96502C124.202 8.62453 124.346 9.13516 124.642 9.49914C124.941 9.86312 125.383 10.1001 125.979 10.2076C126.608 10.3224 127.109 10.276 127.478 10.0684C127.842 9.85831 128.062 9.57734 128.126 9.22071C128.17 8.99107 128.138 8.78334 128.033 8.59527C127.93 8.412 127.72 8.22634 127.407 8.04802C127.194 7.92585 126.698 7.68899 125.923 7.33717C124.921 6.88283 124.244 6.42834 123.894 5.96905C123.395 5.32409 123.22 4.61821 123.361 3.84612C123.452 3.3502 123.677 2.91057 124.033 2.53188C124.395 2.15079 124.857 1.89668 125.425 1.76714C125.992 1.63776 126.647 1.64017 127.393 1.77705C128.608 1.99934 129.475 2.43417 129.989 3.08648C130.505 3.7412 130.695 4.51794 130.561 5.42676L128.581 5.13362C128.59 4.61564 128.476 4.2224 128.243 3.95373C128.011 3.68492 127.617 3.49924 127.072 3.39913C126.505 3.29647 126.041 3.33309 125.679 3.50901C125.444 3.62383 125.305 3.80469 125.258 4.05865C125.214 4.2883 125.275 4.50083 125.442 4.7012C125.649 4.95772 126.209 5.28267 127.119 5.68327C128.031 6.08147 128.693 6.44546 129.104 6.77042C129.517 7.09282 129.81 7.48861 129.991 7.9527C130.175 8.41935 130.209 8.95684 130.096 9.56757C129.994 10.127 129.744 10.6205 129.348 11.048C128.947 11.478 128.444 11.759 127.835 11.8909C127.229 12.0252 126.5 12.0129 125.654 11.8591C124.43 11.6344 123.535 11.1799 122.982 10.4935C122.427 9.80698 122.188 8.90791 122.259 7.80381ZM131.255 12.697L133.822 3.16454L136.91 3.99516C138.081 4.30795 138.829 4.56191 139.159 4.75013C139.667 5.04071 140.041 5.47569 140.281 6.05461C140.521 6.63112 140.538 7.30294 140.335 8.06032C140.176 8.64659 139.936 9.10829 139.618 9.45035C139.298 9.79227 138.944 10.0342 138.558 10.1759C138.169 10.3126 137.797 10.3761 137.44 10.3566C136.954 10.3224 136.279 10.193 135.406 9.95842L134.155 9.62131L133.186 13.2173L131.255 12.697ZM135.318 5.29483L134.587 8.00899L135.639 8.29237C136.396 8.49515 136.915 8.5831 137.196 8.54888C137.479 8.51961 137.721 8.41695 137.922 8.24104C138.125 8.06753 138.264 7.84043 138.34 7.55705C138.435 7.20763 138.408 6.895 138.267 6.61402C138.125 6.33304 137.907 6.1205 137.611 5.97881C137.394 5.8739 136.939 5.72966 136.247 5.54399L135.318 5.29483ZM142.586 15.9633L143.995 12.0545L142.528 5.45122L144.728 6.24268L145.601 10.7108L149.065 7.80381L151.226 8.58055L145.872 12.7458L144.466 16.6423L142.586 15.9633ZM152.913 9.24263L156.504 10.8844C157.218 11.2117 157.734 11.4804 158.057 11.6979C158.379 11.9226 158.636 12.1864 158.824 12.4991C159.015 12.8143 159.132 13.1685 159.174 13.5643C159.213 13.9575 159.147 14.3509 158.968 14.7368C158.778 15.1546 158.489 15.4893 158.1 15.736C157.717 15.9828 157.289 16.1049 156.822 16.1049C157.294 16.5129 157.587 16.9746 157.707 17.4974C157.824 18.0154 157.761 18.5332 157.523 19.0536C157.338 19.4615 157.061 19.8157 156.692 20.1162C156.328 20.4143 155.925 20.6048 155.49 20.688C155.057 20.766 154.585 20.722 154.076 20.5584C153.761 20.451 153.02 20.1383 151.862 19.6179L148.803 18.2181L152.913 9.24263ZM154.047 11.5659L153.101 13.6351L154.289 14.1774C154.996 14.4998 155.438 14.6905 155.619 14.7466C155.947 14.8541 156.24 14.859 156.499 14.7637C156.758 14.666 156.951 14.473 157.081 14.1872C157.211 13.9062 157.235 13.6497 157.162 13.4055C157.088 13.1635 156.907 12.9536 156.624 12.7825C156.453 12.6774 155.942 12.4332 155.091 12.0423L154.047 11.5659ZM152.419 15.1253L151.316 17.534L152.998 18.3035C153.649 18.5992 154.074 18.7726 154.265 18.8166C154.561 18.8898 154.834 18.8703 155.091 18.7604C155.348 18.6432 155.548 18.4281 155.695 18.1105C155.82 17.8369 155.859 17.5829 155.815 17.3338C155.771 17.0845 155.644 16.8598 155.436 16.662C155.228 16.464 154.71 16.1732 153.886 15.7947L152.419 15.1253ZM157.858 22.5079L162.677 13.9868L164.418 14.9689L160.42 22.0388L164.733 24.4745L163.912 25.9257L157.858 22.5079ZM165.026 26.6926L170.632 18.5625L172.28 19.6985L166.674 27.8262L165.026 26.6926ZM168.29 28.884L174.257 21.0153L175.854 22.2245L173.211 25.7082L179.066 24.6577L181.2 26.2749L175.908 27.0908L175.389 34.2609L173.333 32.7023L173.967 27.3669L171.691 27.7113L169.886 30.0908L168.29 28.884ZM182.415 41.2868L180.902 39.7576L181.9 37.5712L179.113 34.7544L176.934 35.7536L175.448 34.2511L185.168 30.0322L186.655 31.5321L182.415 41.2868ZM182.631 35.9368L184.264 32.3896L180.726 34.0143L182.631 35.9368ZM185.283 39.6794L186.655 41.0695C186.222 41.5678 185.997 42.0515 185.985 42.5206C185.97 42.9896 186.153 43.4563 186.535 43.9277C186.936 44.4236 187.346 44.7144 187.762 44.7974C188.175 44.878 188.525 44.8047 188.806 44.5775C188.989 44.431 189.102 44.2551 189.143 44.0425C189.185 43.8374 189.146 43.5612 189.026 43.2217C188.945 42.9872 188.723 42.4864 188.366 41.7144C187.904 40.7176 187.686 39.931 187.72 39.3545C187.764 38.541 188.092 37.8912 188.703 37.3977C189.094 37.0825 189.552 36.8944 190.072 36.8407C190.593 36.787 191.109 36.8944 191.625 37.168C192.138 37.4393 192.634 37.8691 193.109 38.458C193.886 39.418 194.26 40.3121 194.223 41.1427C194.187 41.9757 193.825 42.6891 193.128 43.2901L191.818 41.7755C192.162 41.3919 192.334 41.0181 192.334 40.6639C192.331 40.3073 192.155 39.9091 191.806 39.4791C191.446 39.0321 191.067 38.7559 190.678 38.6534C190.427 38.5873 190.204 38.6339 190.001 38.7951C189.818 38.9441 189.725 39.1443 189.72 39.4009C189.713 39.7332 189.923 40.3439 190.353 41.2404C190.784 42.1369 191.048 42.843 191.148 43.356C191.248 43.8714 191.216 44.3625 191.048 44.834C190.884 45.3056 190.559 45.7355 190.072 46.1263C189.632 46.4831 189.121 46.6931 188.539 46.7591C187.958 46.825 187.39 46.7102 186.843 46.4146C186.295 46.1165 185.75 45.6329 185.212 44.9659C184.43 43.9962 184.049 43.0702 184.078 42.1883C184.105 41.3089 184.508 40.4709 185.283 39.6794ZM190.143 51.5546L193.639 49.3071L196.492 43.1703L197.758 45.1345L195.732 49.2142L200.252 49.0114L201.494 50.939L194.71 50.9952L191.224 53.2354L190.143 51.5546Z" fill="#002F6C"/>
    <path fill-rule="evenodd" clip-rule="evenodd" d="M147.156 5.47266C147.576 5.47266 147.916 5.81232 147.916 6.23244C147.916 6.6527 147.576 6.99222 147.156 6.99222C146.735 6.99222 146.396 6.6527 146.396 6.23244C146.396 5.81232 146.735 5.47266 147.156 5.47266Z" fill="#303E68"/>
    <path fill-rule="evenodd" clip-rule="evenodd" d="M25.1041 124.589C25.5245 124.589 25.8644 124.929 25.8644 125.349C25.8644 125.769 25.5245 126.109 25.1041 126.109C24.6835 126.109 24.3438 125.769 24.3438 125.349C24.3438 124.929 24.6835 124.589 25.1041 124.589Z" fill="#303E68"/>
</svg>