<svg width="516" height="435" viewBox="0 0 516 435" fill="none" xmlns="http://www.w3.org/2000/svg">
<path fill-rule="evenodd" clip-rule="evenodd" d="M259.966 48.0851C254.829 46.7292 254.829 44.2435 246.972 44.2435C223.704 44.2435 230.957 89.1372 259.966 69.7787V117.083H299.551C292.903 103.75 305.897 90.4931 317.379 90.4931C328.56 90.4931 341.554 103.75 335.208 117.083C342.46 117.083 349.713 117.083 356.663 117.083C362.706 117.083 376.002 119.493 376.002 113.241V26.3914C376.002 12.155 365.426 0.780914 349.108 0.780914H259.966V48.0851Z" fill="#FDB71A"/>
<path fill-rule="evenodd" clip-rule="evenodd" d="M301.965 109.391C301.965 114.89 303.476 116.547 305.893 120.916H259.962V160.537H269.934C285.647 160.537 290.482 184.34 279.906 193.454C270.84 201.514 262.984 197.823 259.962 197.522V237.143H353.033C366.933 237.143 375.998 224.488 375.998 210.327V124.758C375.998 118.656 365.724 120.916 354.241 120.916C345.78 120.916 337.319 120.916 328.858 120.916C332.485 113.986 334.298 107.885 329.463 100.955C324.628 93.5732 311.634 92.9707 305.591 100.202C303.778 102.16 301.965 106.002 301.965 109.391Z" fill="#44C5F2"/>
<path fill-rule="evenodd" clip-rule="evenodd" d="M140.004 21.2694V117.083H187.144C168.711 144.878 212.829 154.971 212.829 127.327C212.829 121.226 210.109 122.205 208.9 117.083L247.277 117.158C258.76 117.309 256.04 119.644 256.04 81.3035C256.04 76.4073 254.227 78.3658 249.694 78.5917C221.894 79.9476 223.103 39.3474 248.486 40.4773C258.155 40.8539 256.04 48.2358 256.04 4.62249C256.04 1.68487 255.134 0.780914 252.112 0.780914H164.178C152.393 0.780914 141.515 10.1966 140.004 19.4616V20.3655V21.2694Z" fill="#44C5F2"/>
<path fill-rule="evenodd" clip-rule="evenodd" d="M140.004 215.459V216.513V217.643C141.213 228.415 150.58 237.152 161.761 237.152H256.04V191.204C262.386 192.635 264.803 196.477 272.056 193.313C291.697 184.801 278.704 153.014 256.04 168.155V129.739C256.342 117.838 258.458 120.926 216.455 120.926V131.095C216.455 152.713 178.38 154.521 178.38 128.534C178.38 119.118 188.655 120.926 140.004 120.926V215.459Z" fill="#FDB71A"/>
<path fill-rule="evenodd" clip-rule="evenodd" d="M261.345 373.454H278.756C279.152 370.298 282.911 361.075 284.494 357.327C286.472 351.852 288.451 346.92 290.627 341.643C292.606 336.464 294.584 331.434 296.563 326.008L300.916 314.467C302.301 310.571 300.124 312.889 303.092 310.719C303.29 314.467 305.269 318.018 306.258 320.879C311.006 333.752 311.6 328.77 301.114 352.247L292.21 373.454H309.819C310.809 368.522 316.942 356.636 317.338 352.543L326.439 373.454H344.048C342.465 370.298 326.439 331.927 326.439 331.631L333.958 310.719C335.738 318.166 357.107 369.558 357.305 373.454H374.914C374.518 370.15 368.78 357.771 367 353.726L341.476 294H325.648C324.461 299.129 319.316 307.316 318.921 311.558H317.338C316.942 308.746 315.359 305.639 314.172 302.926C312.985 300.066 311.204 296.959 310.611 294H294.782C290.232 302.483 261.543 371.383 261.345 373.454Z" fill="black"/>
<path fill-rule="evenodd" clip-rule="evenodd" d="M139.483 296.466C139.483 308.401 135.526 305.688 163.622 305.688V371.777C163.622 375.427 167.183 374.293 175.295 374.293C177.274 374.293 177.867 373.701 177.867 371.777V305.688C184.594 305.688 196.268 307.119 202.005 304.85V295.676L220.604 330.496C230.299 348.202 228.716 341.84 228.716 362.555C228.716 375.97 225.946 374.293 242.17 374.293C242.17 334.985 239.796 353.48 255.822 321.027C258.196 316.046 260.373 312.84 262.747 307.908C264.923 303.37 268.881 297.304 269.672 294H254.635L236.037 331.483C231.09 327.735 219.812 294 215.46 294H141.857C140.077 294 139.483 294.542 139.483 296.466Z" fill="black"/>
<path fill-rule="evenodd" clip-rule="evenodd" d="M71.8066 296.47V371.782C71.8066 375.629 76.5552 374.297 86.0522 374.297V316.592L112.565 360.142C122.655 376.96 117.907 374.297 134.329 374.297V294.004H121.073V350.87C118.896 349.292 92.9771 305.742 89.8115 300.218C85.4587 292.771 88.0308 294.004 74.3787 294.004C72.4002 294.004 71.8066 294.546 71.8066 296.47Z" fill="black"/>
<path fill-rule="evenodd" clip-rule="evenodd" d="M481.77 363.39C458.423 363.39 461.787 343.02 461.787 324.082C461.787 297.942 499.379 296.018 499.379 327.435C499.379 339.371 500.764 363.39 481.77 363.39ZM447.541 325.758V341.639C447.541 360.529 461.193 375.128 480.187 375.128C486.123 375.128 488.893 373.698 493.444 372.613L507.096 386.619L515.999 378.482L503.732 365.708C505.711 362.601 507.491 361.466 509.668 357.027C514.218 347.854 512.636 335.326 512.636 323.243C512.636 307.757 498.192 293.158 482.561 293.158C475.043 293.158 472.075 292.763 464.754 296.265C460.995 298.09 458.819 300.556 456.049 303.367C451.102 308.348 447.541 316.19 447.541 325.758Z" fill="black"/>
<path fill-rule="evenodd" clip-rule="evenodd" d="M412.518 311.558H414.101C414.694 317.772 423.598 337.895 424.192 344.158H402.427C403.021 337.944 411.924 317.821 412.518 311.558ZM378.289 374.293H391.545C392.337 371.038 393.722 367.043 394.909 364.133C399.262 352 393.128 355.058 426.566 355.058C430.325 355.058 431.71 367.536 435.074 374.293H448.33C448.132 371.235 446.351 366.796 445.362 363.985L434.282 333.998C431.71 327.34 429.534 321.175 427.159 314.369C425.774 310.571 424.785 308.253 423.598 304.554C422.213 300.559 420.828 297.748 420.037 294H406.582L392.139 333.9C389.765 339.867 378.289 370.397 378.289 374.293Z" fill="black"/>
<path fill-rule="evenodd" clip-rule="evenodd" d="M29.2826 374.293C44.3196 374.293 40.7582 377.794 40.9561 349.978C40.9561 338.93 67.073 301.447 67.6665 294H52.6295L43.3303 313.234C41.7475 316.44 40.3625 319.252 38.7796 322.704C36.999 325.91 36.0097 329.707 33.4376 331.631L15.037 294H0C0.791422 297.797 2.76996 299.425 4.55065 302.877L23.3469 338.338C28.0955 346.673 26.7105 350.422 26.7105 362.555C26.7105 366.402 25.1276 374.293 29.2826 374.293Z" fill="black"/>
<path d="M46.4862 416.4L50.2834 417.363C49.4902 420.486 48.0656 422.857 46.0051 424.496C43.9468 426.133 41.4286 426.955 38.4504 426.955C35.3736 426.955 32.8695 426.329 30.9357 425.064C29.0041 423.806 27.5397 421.981 26.5328 419.596C25.526 417.203 25.0215 414.643 25.0215 411.902C25.0215 408.914 25.5871 406.307 26.7253 404.079C27.8659 401.853 29.4852 400.163 31.5834 399.006C33.6815 397.85 35.9932 397.275 38.5114 397.275C41.377 397.275 43.7802 398.003 45.7258 399.468C47.6784 400.93 49.0372 402.984 49.8023 405.631L46.0848 406.514C45.4254 404.427 44.4608 402.904 43.2005 401.955C41.9426 400.999 40.3561 400.523 38.4457 400.523C36.2537 400.523 34.4137 401.053 32.9422 402.108C31.4684 403.165 30.431 404.588 29.8373 406.366C29.2365 408.151 28.9384 409.99 28.9384 411.881C28.9384 414.321 29.2905 416.454 29.9969 418.272C30.7033 420.097 31.8016 421.454 33.2943 422.356C34.7869 423.26 36.3992 423.708 38.1383 423.708C40.2575 423.708 42.0411 423.093 43.508 421.868C44.9724 420.639 45.9652 418.821 46.4862 416.4ZM51.8277 426.475L62.8088 397.756H66.9722L78.6246 426.475H74.3133L71.0018 417.771H58.9506L55.8456 426.475H51.8277ZM60.063 414.683H69.8167L66.8314 406.721C65.9325 404.3 65.2519 402.301 64.7802 400.723C64.3859 402.595 63.8602 404.434 63.2008 406.253L60.063 414.683ZM84.6256 397.756H102.492V426.475H98.6952V401.126H88.4229V415.92C88.4229 418.927 88.2844 421.126 88.0027 422.523C87.7234 423.927 87.1297 425.01 86.2309 425.792C85.332 426.569 84.1867 426.955 82.8067 426.955C81.9689 426.955 80.9621 426.783 79.7886 426.435L80.4692 423.065C81.0888 423.387 81.6215 423.547 82.0604 423.547C82.9147 423.547 83.5601 423.225 83.9872 422.577C84.412 421.93 84.6256 420.403 84.6256 417.999V397.756ZM105.604 426.475L116.586 397.756H120.749L132.401 426.475H128.09L124.779 417.771H112.727L109.622 426.475H105.604ZM113.84 414.683H123.593L120.608 406.721C119.709 404.3 119.029 402.301 118.557 400.723C118.163 402.595 117.637 404.434 116.978 406.253L113.84 414.683ZM138.402 397.756H156.269V426.475H152.472V401.126H142.2V415.92C142.2 418.927 142.061 421.126 141.779 422.523C141.5 423.927 140.906 425.01 140.008 425.792C139.109 426.569 137.963 426.955 136.583 426.955C135.746 426.955 134.739 426.783 133.565 426.435L134.246 423.065C134.866 423.387 135.398 423.547 135.837 423.547C136.691 423.547 137.337 423.225 137.764 422.577C138.189 421.93 138.402 420.403 138.402 417.999V397.756ZM162.721 397.756H166.518V409.99H173.334C177.802 409.99 180.74 410.819 182.153 412.484C183.559 414.142 184.265 416.026 184.265 418.131C184.265 420.359 183.512 422.304 182.001 423.974C180.494 425.639 177.696 426.475 173.599 426.475H162.721V397.756ZM166.518 423.225H173.42C175.791 423.225 177.516 422.824 178.581 422.021C179.656 421.221 180.189 419.937 180.189 418.171C180.189 416.975 179.863 415.967 179.215 415.157C178.569 414.349 177.729 413.833 176.704 413.612C175.685 413.393 173.972 413.277 171.573 413.277H166.518V423.225ZM187.704 397.756H191.501V426.475H187.704V397.756ZM218.016 434.456H214.658V426.475H213.299L208.481 418.68C207.281 416.72 206.397 415.437 205.824 414.843C204.665 413.64 203.317 413.037 201.787 413.037V426.475H197.99V397.756H201.787V410.35C203.658 410.35 205.052 409.816 205.962 408.746C206.444 408.184 207.157 406.768 208.103 404.493C208.901 402.602 209.553 401.265 210.06 400.497C211.28 398.672 213.064 397.756 215.416 397.756C216.882 397.756 217.655 397.77 217.734 397.796V401.086C217.568 401.086 217.317 401.079 216.976 401.065C216.636 401.053 216.383 401.046 216.209 401.046C214.871 401.046 213.832 401.507 213.092 402.435C212.672 402.944 212.132 404.027 211.466 405.685C210.752 407.496 210.173 408.72 209.734 409.361C208.988 410.444 207.962 411.252 206.65 411.794C208.495 412.309 210.321 414.022 212.118 416.935L215.923 423.105H218.016V434.456ZM232.379 397.756H236.176V410.35C237.901 410.35 239.119 410.009 239.819 409.335C240.525 408.659 241.419 407.041 242.511 404.474C243.304 402.583 243.956 401.253 244.477 400.476C244.989 399.694 245.721 399.039 246.674 398.512C247.62 397.984 248.674 397.716 249.819 397.716C251.279 397.716 252.044 397.73 252.123 397.756V401.046C251.992 401.046 251.739 401.039 251.365 401.024C250.945 401.013 250.692 401.006 250.598 401.006C249.392 401.006 248.493 401.3 247.906 401.886C247.308 402.475 246.627 403.733 245.855 405.652C244.895 408.085 244.083 409.622 243.417 410.256C242.757 410.885 241.959 411.393 241.039 411.775C242.884 412.284 244.71 414 246.507 416.916L252.405 426.475H247.7L242.898 418.694C241.586 416.534 240.485 415.051 239.605 414.248C238.72 413.44 237.582 413.037 236.176 413.037V426.475H232.379V397.756ZM280.765 411.801C280.856 416.146 279.824 419.737 277.679 422.57C275.468 425.493 272.11 426.955 267.594 426.955C263.091 426.955 259.739 425.493 257.526 422.563C255.456 419.824 254.423 416.233 254.423 411.794V409.95H276.686C276.534 407.081 275.693 404.828 274.168 403.184C272.556 401.467 270.352 400.603 267.54 400.603C263.417 400.603 260.819 402.609 259.739 406.62L256.022 405.645C256.747 402.923 258.153 400.831 260.239 399.374C262.225 397.977 264.656 397.275 267.514 397.275C270.117 397.275 272.45 397.916 274.522 399.192C276.639 400.483 278.233 402.308 279.298 404.656C280.225 406.667 280.711 409.048 280.765 411.801ZM276.846 413.32H258.34C258.486 416.534 259.373 419.075 261.011 420.945C262.656 422.81 264.848 423.748 267.594 423.748C270.338 423.748 272.53 422.81 274.175 420.945C275.813 419.075 276.707 416.534 276.846 413.32ZM306.048 416.4L309.845 417.363C309.052 420.486 307.628 422.857 305.567 424.496C303.509 426.133 300.991 426.955 298.012 426.955C294.936 426.955 292.431 426.329 290.498 425.064C288.566 423.806 287.102 421.981 286.095 419.596C285.088 417.203 284.583 414.643 284.583 411.902C284.583 408.914 285.149 406.307 286.287 404.079C287.428 401.853 289.047 400.163 291.145 399.006C293.243 397.85 295.555 397.275 298.073 397.275C300.939 397.275 303.342 398.003 305.288 399.468C307.24 400.93 308.599 402.984 309.364 405.631L305.647 406.514C304.987 404.427 304.023 402.904 302.762 401.955C301.504 400.999 299.918 400.523 298.008 400.523C295.816 400.523 293.976 401.053 292.504 402.108C291.03 403.165 289.993 404.588 289.399 406.366C288.798 408.151 288.5 409.99 288.5 411.881C288.5 414.321 288.852 416.454 289.559 418.272C290.265 420.097 291.364 421.454 292.856 422.356C294.349 423.26 295.961 423.708 297.7 423.708C299.819 423.708 301.603 423.093 303.07 421.868C304.534 420.639 305.527 418.821 306.048 416.4ZM315.168 426.475V397.756H318.965V426.475H315.168ZM325.673 397.756H348.137V426.475H344.34V401.126H329.472V426.475H325.673V397.756ZM353.209 412.495C353.209 407.736 354.488 404.006 357.039 401.312C359.59 398.618 362.881 397.275 366.92 397.275C369.562 397.275 371.942 397.909 374.066 399.173C376.185 400.436 377.804 402.202 378.917 404.467C380.029 406.728 380.588 409.295 380.588 412.161C380.588 415.069 380.003 417.676 378.83 419.97C377.657 422.269 376 424.009 373.855 425.184C371.702 426.369 369.384 426.955 366.898 426.955C364.199 426.955 361.796 426.3 359.67 424.998C357.551 423.693 355.938 421.915 354.847 419.657C353.753 417.403 353.209 415.018 353.209 412.495ZM357.126 412.564C357.126 416.019 358.051 418.741 359.902 420.726C361.756 422.711 364.08 423.708 366.877 423.708C369.729 423.708 372.069 422.704 373.913 420.698C375.753 418.694 376.671 415.847 376.671 412.156C376.671 409.823 376.279 407.783 375.493 406.045C374.706 404.307 373.554 402.958 372.04 402.002C370.522 401.046 368.823 400.563 366.938 400.563C364.26 400.563 361.956 401.486 360.022 403.332C358.09 405.176 357.126 408.252 357.126 412.564ZM387.178 397.756H404.604V423.105H407.164V433.172H403.806V426.475H384.859V433.172H381.501V423.105H383.7C386.019 419.617 387.178 412.564 387.178 401.955V397.756ZM400.806 401.126H390.813V402.595C390.813 405.042 390.595 408.391 390.154 412.637C389.722 416.883 388.856 420.371 387.577 423.105H400.806V401.126ZM408.509 426.475L419.49 397.756H423.653L435.306 426.475H430.994L427.683 417.771H415.632L412.527 426.475H408.509ZM416.744 414.683H426.498L423.513 406.721C422.614 404.3 421.933 402.301 421.461 400.723C421.067 402.595 420.541 404.434 419.882 406.253L416.744 414.683ZM456.895 401.126H442.187V410.833H450.021V413.4H442.187V426.475H438.389V413.4H435.191V410.833H438.389V397.756H456.895V401.126ZM460.155 397.756H463.952V409.99H470.767C475.236 409.99 478.174 410.819 479.587 412.484C480.993 414.142 481.699 416.026 481.699 418.131C481.699 420.359 480.946 422.304 479.434 423.974C477.928 425.639 475.13 426.475 471.032 426.475H460.155V397.756ZM463.952 423.225H470.854C473.224 423.225 474.949 422.824 476.015 422.021C477.09 421.221 477.623 419.937 477.623 418.171C477.623 416.975 477.296 415.967 476.649 415.157C476.003 414.349 475.163 413.833 474.137 413.612C473.119 413.393 471.406 413.277 469.007 413.277H463.952V423.225ZM485.137 397.756H488.935V426.475H485.137V397.756Z" fill="#979797"/>
</svg>
