<svg width="31" height="31" viewBox="0 0 31 31" fill="none" xmlns="http://www.w3.org/2000/svg">
<path fill-rule="evenodd" clip-rule="evenodd" d="M15.0352 30.3516C23.3194 30.3516 30.0352 23.6358 30.0352 15.3516C30.0352 7.06729 23.3194 0.351562 15.0352 0.351562C6.75089 0.351562 0.0351562 7.06729 0.0351562 15.3516C0.0351562 23.6358 6.75089 30.3516 15.0352 30.3516Z" fill="url(#paint0_linear)"/>
<path fill-rule="evenodd" clip-rule="evenodd" d="M18.1871 7.55176H11.8817C9.31915 7.55176 7.23438 9.63654 7.23438 12.1991V18.5044C7.23438 21.067 9.31915 23.1518 11.8817 23.1518H18.1871C20.7496 23.1518 22.8344 21.067 22.8344 18.5044V12.1991C22.8343 9.63654 20.7496 7.55176 18.1871 7.55176ZM21.265 18.5044C21.265 20.2043 19.8869 21.5824 18.1871 21.5824H11.8817C10.1818 21.5824 8.80373 20.2043 8.80373 18.5044V12.1991C8.80373 10.4992 10.1818 9.12112 11.8817 9.12112H18.1871C19.8869 9.12112 21.265 10.4992 21.265 12.1991V18.5044ZM10.9997 15.3517C10.9997 13.127 12.8096 11.317 15.0344 11.317C17.2591 11.317 19.0691 13.127 19.0691 15.3517C19.0691 17.5765 17.2591 19.3864 15.0344 19.3864C12.8096 19.3864 10.9997 17.5764 10.9997 15.3517ZM15.0344 17.8171C13.6728 17.8171 12.569 16.7133 12.569 15.3518C12.569 13.9902 13.6728 12.8864 15.0344 12.8864C16.396 12.8864 17.4997 13.9902 17.4997 15.3518C17.4997 16.7133 16.3959 17.8171 15.0344 17.8171ZM20.0437 11.3473C20.0437 11.8813 19.6109 12.3141 19.0769 12.3141C18.543 12.3141 18.1101 11.8813 18.1101 11.3473C18.1101 10.8134 18.543 10.3805 19.0769 10.3805C19.6109 10.3805 20.0437 10.8134 20.0437 11.3473Z" fill="white"/>
<defs>
<linearGradient id="paint0_linear" x1="0.135387" y1="0.301447" x2="0.0351567" y2="30.3014" gradientUnits="userSpaceOnUse">
<stop stop-color="#7024C4"/>
<stop offset="0.415461" stop-color="#C21975"/>
<stop offset="0.702206" stop-color="#C74C4D"/>
<stop offset="1" stop-color="#E09B3D"/>
</linearGradient>
</defs>
</svg>
