<svg width="31" height="31" viewBox="0 0 31 31" fill="none" xmlns="http://www.w3.org/2000/svg">
<path fill-rule="evenodd" clip-rule="evenodd" d="M15.0352 30.3516C23.3194 30.3516 30.0352 23.6358 30.0352 15.3516C30.0352 7.06729 23.3194 0.351562 15.0352 0.351562C6.75089 0.351562 0.0351562 7.06729 0.0351562 15.3516C0.0351562 23.6358 6.75089 30.3516 15.0352 30.3516Z" fill="#2AA3EF"/>
<path fill-rule="evenodd" clip-rule="evenodd" d="M21.6336 11.2295C21.1482 11.4463 20.6256 11.5929 20.0781 11.6592C20.6373 11.3213 21.0667 10.7875 21.2686 10.151C20.7452 10.4634 20.1659 10.6903 19.5485 10.8121C19.0546 10.2821 18.3511 9.95117 17.5722 9.95117C16.0765 9.95117 14.8635 11.1717 14.8635 12.6776C14.8635 12.8921 14.8884 13.0996 14.9342 13.2994C12.6837 13.186 10.6887 12.0998 9.35304 10.4503C9.1193 10.853 8.98651 11.3213 8.98651 11.8212C8.98651 12.7671 9.46487 13.6018 10.191 14.0902C9.74676 14.0763 9.32897 13.9536 8.96476 13.7492C8.96476 13.7608 8.96476 13.7723 8.96476 13.7839C8.96476 15.1047 9.89741 16.2064 11.1368 16.4571C10.9093 16.5196 10.6709 16.5528 10.4231 16.5528C10.2492 16.5528 10.0791 16.5358 9.91372 16.5034C10.2585 17.5865 11.2587 18.375 12.4438 18.3974C11.5165 19.128 10.3486 19.5639 9.07969 19.5639C8.86148 19.5639 8.6456 19.5515 8.43359 19.5261C9.63183 20.2999 11.0553 20.7512 12.5851 20.7512C17.566 20.7512 20.2901 16.5967 20.2901 12.9939C20.2901 12.8751 20.287 12.7586 20.2824 12.6413C20.8112 12.2571 21.2709 11.7765 21.6336 11.2303V11.2295Z" fill="white"/>
</svg>
