<svg width="16" height="17" viewBox="0 0 16 17" fill="none" xmlns="http://www.w3.org/2000/svg">
<path d="M7.9987 1.34424C4.32244 1.34424 1.33203 4.33467 1.33203 8.01091C1.33203 11.6871 4.32244 14.6776 7.9987 14.6776C11.675 14.6776 14.6654 11.6871 14.6654 8.01091C14.6654 4.33467 11.675 1.34424 7.9987 1.34424ZM7.9987 2.29662C11.1602 2.29662 13.713 4.84937 13.713 8.01091C13.713 11.1724 11.1602 13.7252 7.9987 13.7252C4.83715 13.7252 2.28441 11.1724 2.28441 8.01091C2.28441 4.84937 4.83715 2.29662 7.9987 2.29662ZM7.9987 3.96329C7.7357 3.96329 7.52251 4.17648 7.52251 4.43948V8.01091C7.52251 8.187 7.61848 8.33774 7.7606 8.42015C8.64848 8.93279 9.5476 9.45253 10.4392 9.96777C10.667 10.0993 10.9624 10.0244 11.0939 9.79662C11.2254 9.56886 11.1431 9.28081 10.9154 9.14929L8.47489 7.73562V4.43948C8.47489 4.17648 8.2617 3.96329 7.9987 3.96329Z" fill="#BFC5D2"/>
</svg>
