<svg width="32" height="32" viewBox="0 0 32 32" fill="none" xmlns="http://www.w3.org/2000/svg">
<circle cx="16" cy="16" r="16" fill="#BFC5D2"/>
<path d="M15.9997 6L8 9.63636V15.0909C8 20.1364 11.4132 24.8545 15.9997 26C20.5863 24.8545 23.9995 20.1364 23.9995 15.0909V9.63636L15.9997 6ZM15.9997 10.5455C16.707 10.5455 17.3852 10.8328 17.8853 11.3443C18.3854 11.8557 18.6663 12.5494 18.6663 13.2727C18.6663 13.996 18.3854 14.6897 17.8853 15.2012C17.3852 15.7127 16.707 16 15.9997 16C15.2925 16 14.6143 15.7127 14.1142 15.2012C13.6141 14.6897 13.3332 13.996 13.3332 13.2727C13.3332 12.5494 13.6141 11.8557 14.1142 11.3443C14.6143 10.8328 15.2925 10.5455 15.9997 10.5455ZM20.444 20.0909C19.3685 21.7727 17.8752 23.1091 15.9997 23.7273C14.1242 23.1091 12.631 21.7727 11.5554 20.0909C11.2532 19.6364 11.111 19.1818 11.111 18.7273C11.111 17.2273 13.0754 16.9091 15.9997 16.9091C18.9241 16.9091 20.8885 17.2 20.8885 18.7273C20.8885 19.1818 20.7463 19.6364 20.444 20.0909Z" fill="white"/>
</svg>
