<svg width="259" height="58" viewBox="0 0 259 58" fill="none" xmlns="http://www.w3.org/2000/svg">
<path fill-rule="evenodd" clip-rule="evenodd" d="M29.0355 11.487C27.7923 11.1578 27.7923 10.5541 25.891 10.5541C20.26 10.5541 22.0151 21.4558 29.0355 16.7549V28.2419H38.6154C37.0066 25.0043 40.1512 21.785 42.9301 21.785C45.6358 21.785 48.7804 25.0043 47.2447 28.2419C48.9998 28.2419 50.7549 28.2419 52.4368 28.2419C53.8994 28.2419 57.1171 28.8272 57.1171 27.309V6.21907C57.1171 2.76201 54.5576 0 50.6086 0H29.0355V11.487Z" fill="#FDB71A"/>
<path fill-rule="evenodd" clip-rule="evenodd" d="M39.1962 26.377C39.1962 27.7122 39.5619 28.1146 40.1469 29.1755H29.0312V38.7968H31.4445C35.2472 38.7968 36.4173 44.5769 33.8578 46.7901C31.6639 48.7473 29.7625 47.851 29.0312 47.7779V57.3991H51.555C54.919 57.3991 57.1128 54.3262 57.1128 50.8874V30.1084C57.1128 28.6268 54.6265 29.1755 51.8475 29.1755C49.7999 29.1755 47.7523 29.1755 45.7047 29.1755C46.5823 27.4927 47.021 26.0111 45.851 24.3283C44.6809 22.5358 41.5363 22.3895 40.0737 24.1454C39.635 24.621 39.1962 25.5539 39.1962 26.377Z" fill="#44C5F2"/>
<path fill-rule="evenodd" clip-rule="evenodd" d="M0 4.97527V28.2419H11.4081C6.94726 34.9914 17.6241 37.4425 17.6241 30.7295C17.6241 29.2479 16.966 29.4857 16.6734 28.2419L25.9609 28.2602C28.7398 28.2968 28.0816 28.8638 28.0816 19.5535C28.0816 18.3646 27.6428 18.8401 26.5459 18.895C19.818 19.2243 20.1105 9.36519 26.2534 9.63957C28.5935 9.73102 28.0816 11.5236 28.0816 0.93286C28.0816 0.21951 27.8622 0 27.1309 0H5.85032C2.99829 0 0.365642 2.28643 0 4.53628V4.75577V4.97527Z" fill="#44C5F2"/>
<path fill-rule="evenodd" clip-rule="evenodd" d="M0 52.1321V52.3882V52.6626C0.292517 55.2782 2.55951 57.4 5.26529 57.4H28.0816V46.2423C29.6173 46.5898 30.2023 47.5227 31.9574 46.7544C36.7108 44.6875 33.5663 36.9686 28.0816 40.6451V31.3165C28.1547 28.4265 28.6666 29.1764 18.5017 29.1764V31.6457C18.5017 36.8954 9.28739 37.3344 9.28739 31.0239C9.28739 28.7374 11.7738 29.1764 0 29.1764V52.1321Z" fill="#FDB71A"/>
<path fill-rule="evenodd" clip-rule="evenodd" d="M163.883 35.3766H170.318C170.464 34.2059 171.854 30.7855 172.439 29.3953C173.17 27.365 173.902 25.5358 174.706 23.5786C175.437 21.6581 176.169 19.7923 176.9 17.7803L178.509 13.5001C179.021 12.0551 178.216 12.9148 179.313 12.11C179.386 13.5001 180.117 14.8171 180.483 15.878C182.238 20.652 182.458 18.8046 178.582 27.5113L175.291 35.3766H181.799C182.165 33.5475 184.432 29.1392 184.578 27.6211L187.942 35.3766H194.451C193.866 34.2059 187.942 19.9752 187.942 19.8655L190.721 12.11C191.379 14.872 199.277 33.9316 199.35 35.3766H205.859C205.713 34.1511 203.592 29.5599 202.934 28.06L193.5 5.90918H187.65C187.211 7.81149 185.31 10.8478 185.163 12.4209H184.578C184.432 11.3783 183.847 10.2259 183.408 9.21991C182.97 8.15902 182.311 7.00665 182.092 5.90918H176.242C174.56 9.0553 163.956 34.6084 163.883 35.3766Z" fill="black"/>
<path fill-rule="evenodd" clip-rule="evenodd" d="M118.84 6.82375C118.84 11.2503 117.378 10.2442 127.762 10.2442V34.7547C127.762 36.1083 129.078 35.6876 132.077 35.6876C132.808 35.6876 133.027 35.468 133.027 34.7547V10.2442C135.514 10.2442 139.828 10.7747 141.949 9.93328V6.53108L148.823 19.4448C152.406 26.0114 151.821 23.6518 151.821 31.3342C151.821 36.3095 150.798 35.6876 156.794 35.6876C156.794 21.1093 155.917 27.9686 161.84 15.9329C162.718 14.0854 163.522 12.8965 164.4 11.0674C165.204 9.38454 166.667 7.13469 166.959 5.90918H161.401L154.527 19.8106C152.699 18.4205 148.531 5.90918 146.922 5.90918H119.718C119.06 5.90918 118.84 6.11038 118.84 6.82375Z" fill="black"/>
<path fill-rule="evenodd" clip-rule="evenodd" d="M93.8203 6.82275V34.7537C93.8203 36.1804 95.5754 35.6866 99.0856 35.6866V14.2856L108.885 30.4369C112.614 36.6743 110.859 35.6866 116.929 35.6866V5.90818H112.029V26.9981C111.225 26.4128 101.645 10.2615 100.475 8.21289C98.8662 5.4509 99.8169 5.90818 94.771 5.90818C94.0397 5.90818 93.8203 6.10938 93.8203 6.82275Z" fill="black"/>
<path fill-rule="evenodd" clip-rule="evenodd" d="M245.351 31.6456C236.721 31.6456 237.965 24.0913 237.965 17.0674C237.965 7.37297 251.859 6.6596 251.859 18.3112C251.859 22.7377 252.371 31.6456 245.351 31.6456ZM232.699 17.6893V23.5791C232.699 30.5847 237.745 35.999 244.766 35.999C246.959 35.999 247.983 35.4685 249.665 35.0661L254.711 40.2609L258.002 37.2428L253.468 32.5053C254.199 31.353 254.857 30.9323 255.662 29.286C257.344 25.8839 256.759 21.2378 256.759 16.7565C256.759 11.013 251.42 5.5987 245.643 5.5987C242.864 5.5987 241.767 5.45238 239.061 6.75107C237.672 7.42785 236.868 8.34241 235.844 9.38502C234.016 11.2324 232.699 14.1408 232.699 17.6893Z" fill="black"/>
<path fill-rule="evenodd" clip-rule="evenodd" d="M219.757 12.4209H220.342C220.561 14.7256 223.852 22.1885 224.071 24.5115H216.027C216.247 22.2068 219.537 14.7439 219.757 12.4209ZM207.105 35.6876H212.005C212.298 34.4803 212.81 32.9987 213.248 31.9195C214.857 27.4198 212.59 28.5539 224.949 28.5539C226.338 28.5539 226.85 33.1816 228.094 35.6876H232.993C232.92 34.5535 232.262 32.9072 231.896 31.8646L227.801 20.7435C226.85 18.2742 226.046 15.9877 225.168 13.4635C224.656 12.0551 224.291 11.1954 223.852 9.82353C223.34 8.34193 222.828 7.29932 222.536 5.90918H217.563L212.225 20.7069C211.347 22.9202 207.105 34.2425 207.105 35.6876Z" fill="black"/>
<path fill-rule="evenodd" clip-rule="evenodd" d="M78.1044 35.6876C83.6622 35.6876 82.3459 36.9862 82.419 26.6699C82.419 22.5726 92.072 8.67117 92.2914 5.90918H86.7336L83.2965 13.0428C82.7115 14.2317 82.1996 15.2744 81.6146 16.5548C80.9564 17.7437 80.5908 19.1521 79.6401 19.8655L72.8391 5.90918H67.2812C67.5738 7.31762 68.3051 7.92124 68.9632 9.20163L75.9105 22.3531C77.6656 25.4444 77.1537 26.8345 77.1537 31.3342C77.1537 32.7609 76.5687 35.6876 78.1044 35.6876Z" fill="#303231"/>
<path d="M84.4648 51.3037L85.8683 51.6609C85.5751 52.819 85.0486 53.6985 84.287 54.3064C83.5262 54.9134 82.5955 55.2182 81.4947 55.2182C80.3575 55.2182 79.432 54.9859 78.7172 54.5169C78.0033 54.0505 77.462 53.3736 77.0899 52.4889C76.7177 51.6015 76.5312 50.6522 76.5312 49.6355C76.5312 48.5272 76.7403 47.5604 77.161 46.7341C77.5826 45.9088 78.1811 45.2817 78.9566 44.8529C79.7321 44.424 80.5865 44.2109 81.5173 44.2109C82.5764 44.2109 83.4646 44.4808 84.1837 45.0241C84.9054 45.5664 85.4077 46.328 85.6905 47.3097L84.3165 47.6372C84.0727 46.8634 83.7162 46.2983 83.2504 45.9464C82.7854 45.5918 82.1991 45.4153 81.493 45.4153C80.6828 45.4153 80.0027 45.6118 79.4588 46.0031C78.9141 46.3953 78.5307 46.9228 78.3112 47.5822C78.0892 48.2442 77.979 48.9264 77.979 49.6277C77.979 50.5325 78.1091 51.3238 78.3702 51.998C78.6313 52.6749 79.0373 53.178 79.5889 53.5125C80.1406 53.8479 80.7366 54.0138 81.3793 54.0138C82.1626 54.0138 82.8219 53.7859 83.364 53.3317C83.9053 52.8758 84.2722 52.2016 84.4648 51.3037ZM86.4391 55.0401L90.4978 44.3891H92.0366L96.3434 55.0401H94.7499L93.526 51.812H89.0717L87.9241 55.0401H86.4391ZM89.4829 50.667H93.0879L91.9846 47.7141C91.6523 46.8162 91.4008 46.0747 91.2264 45.4896C91.0807 46.1839 90.8864 46.866 90.6427 47.5403L89.4829 50.667ZM98.5615 44.3891H105.165V55.0401H103.762V45.6389H99.965V51.1255C99.965 52.2409 99.9138 53.0566 99.8097 53.5745C99.7065 54.0951 99.487 54.4968 99.1548 54.7868C98.8226 55.075 98.3992 55.2182 97.8892 55.2182C97.5795 55.2182 97.2074 55.1545 96.7737 55.0252L97.0252 53.7754C97.2542 53.895 97.4511 53.9544 97.6133 53.9544C97.9291 53.9544 98.1676 53.8348 98.3255 53.5946C98.4825 53.3544 98.5615 52.7885 98.5615 51.8967V44.3891ZM106.315 55.0401L110.374 44.3891H111.913L116.22 55.0401H114.626L113.402 51.812H108.948L107.8 55.0401H106.315ZM109.359 50.667H112.964L111.861 47.7141C111.529 46.8162 111.277 46.0747 111.103 45.4896C110.957 46.1839 110.763 46.866 110.519 47.5403L109.359 50.667ZM118.438 44.3891H125.042V55.0401H123.638V45.6389H119.841V51.1255C119.841 52.2409 119.79 53.0566 119.686 53.5745C119.583 54.0951 119.363 54.4968 119.031 54.7868C118.699 55.075 118.276 55.2182 117.766 55.2182C117.456 55.2182 117.084 55.1545 116.65 55.0252L116.902 53.7754C117.131 53.895 117.328 53.9544 117.49 53.9544C117.805 53.9544 118.044 53.8348 118.202 53.5946C118.359 53.3544 118.438 52.7885 118.438 51.8967V44.3891ZM127.426 44.3891H128.83V48.9264H131.349C133 48.9264 134.086 49.2338 134.609 49.8513C135.128 50.4661 135.389 51.1648 135.389 51.9456C135.389 52.7719 135.111 53.4933 134.552 54.1125C133.995 54.73 132.961 55.0401 131.447 55.0401H127.426V44.3891ZM128.83 53.8348H131.381C132.257 53.8348 132.894 53.6863 133.288 53.3885C133.686 53.0915 133.882 52.6155 133.882 51.9605C133.882 51.5168 133.762 51.143 133.522 50.8426C133.284 50.543 132.973 50.3517 132.594 50.2696C132.218 50.1884 131.585 50.1456 130.698 50.1456H128.83V53.8348ZM136.66 44.3891H138.064V55.0401H136.66V44.3891ZM147.864 58H146.622V55.0401H146.12L144.339 52.1491C143.896 51.4225 143.569 50.9465 143.357 50.7264C142.929 50.2801 142.431 50.0565 141.865 50.0565V55.0401H140.462V44.3891H141.865V49.06C142.557 49.06 143.072 48.8617 143.409 48.4652C143.586 48.2565 143.85 47.7315 144.2 46.8879C144.495 46.1865 144.736 45.6904 144.923 45.4057C145.374 44.7289 146.033 44.3891 146.903 44.3891C147.445 44.3891 147.73 44.3943 147.76 44.404V45.6241C147.698 45.6241 147.605 45.6214 147.48 45.6162C147.354 45.6118 147.26 45.6092 147.196 45.6092C146.701 45.6092 146.317 45.7804 146.044 46.1245C145.889 46.3132 145.689 46.7149 145.443 47.3298C145.179 48.0014 144.965 48.4556 144.803 48.6932C144.527 49.0949 144.148 49.3945 143.663 49.5954C144.345 49.7866 145.019 50.4216 145.684 51.502L147.09 53.7902H147.864V58ZM153.172 44.3891H154.576V49.06C155.214 49.06 155.664 48.9333 155.922 48.6835C156.183 48.4329 156.514 47.8329 156.917 46.8809C157.21 46.1795 157.452 45.6861 157.644 45.3979C157.833 45.1079 158.104 44.8651 158.456 44.6695C158.806 44.4738 159.195 44.3743 159.618 44.3743C160.158 44.3743 160.441 44.3795 160.47 44.3891V45.6092C160.422 45.6092 160.328 45.6066 160.19 45.6014C160.035 45.597 159.941 45.5944 159.906 45.5944C159.46 45.5944 159.128 45.7036 158.911 45.921C158.69 46.1394 158.439 46.6058 158.153 47.3176C157.799 48.2198 157.498 48.7901 157.252 49.025C157.008 49.2582 156.713 49.4469 156.373 49.5884C157.055 49.777 157.73 50.4137 158.394 51.495L160.574 55.0401H158.835L157.06 52.1544C156.575 51.3535 156.169 50.8033 155.843 50.5054C155.516 50.2059 155.096 50.0565 154.576 50.0565V55.0401H153.172V44.3891ZM171.056 49.598C171.09 51.2094 170.709 52.5413 169.916 53.592C169.099 54.6758 167.857 55.2182 166.188 55.2182C164.524 55.2182 163.285 54.6758 162.467 53.5894C161.702 52.5736 161.32 51.2417 161.32 49.5954V48.9115H169.549C169.492 47.8477 169.182 47.0119 168.618 46.4023C168.022 45.7656 167.208 45.445 166.168 45.445C164.644 45.445 163.684 46.1891 163.285 47.6765L161.911 47.3149C162.179 46.3053 162.699 45.5297 163.47 44.9891C164.204 44.4712 165.102 44.2109 166.159 44.2109C167.121 44.2109 167.983 44.4485 168.749 44.9219C169.531 45.4005 170.12 46.0774 170.514 46.9481C170.857 47.694 171.036 48.577 171.056 49.598ZM169.608 50.1613H162.768C162.822 51.3535 163.15 52.2959 163.755 52.9893C164.363 53.6811 165.173 54.0287 166.188 54.0287C167.202 54.0287 168.013 53.6811 168.621 52.9893C169.226 52.2959 169.557 51.3535 169.608 50.1613ZM180.401 51.3037L181.805 51.6609C181.512 52.819 180.985 53.6985 180.223 54.3064C179.463 54.9134 178.532 55.2182 177.431 55.2182C176.294 55.2182 175.368 54.9859 174.654 54.5169C173.94 54.0505 173.398 53.3736 173.026 52.4889C172.654 51.6015 172.468 50.6522 172.468 49.6355C172.468 48.5272 172.677 47.5604 173.097 46.7341C173.519 45.9088 174.118 45.2817 174.893 44.8529C175.668 44.424 176.523 44.2109 177.454 44.2109C178.513 44.2109 179.401 44.4808 180.12 45.0241C180.842 45.5664 181.344 46.328 181.627 47.3097L180.253 47.6372C180.009 46.8634 179.653 46.2983 179.187 45.9464C178.722 45.5918 178.135 45.4153 177.429 45.4153C176.619 45.4153 175.939 45.6118 175.395 46.0031C174.851 46.3953 174.467 46.9228 174.248 47.5822C174.026 48.2442 173.915 48.9264 173.915 49.6277C173.915 50.5325 174.046 51.3238 174.307 51.998C174.568 52.6749 174.974 53.178 175.525 53.5125C176.077 53.8479 176.673 54.0138 177.316 54.0138C178.099 54.0138 178.758 53.7859 179.3 53.3317C179.842 52.8758 180.209 52.2016 180.401 51.3037ZM183.772 55.0401V44.3891H185.176V55.0401H183.772ZM187.655 44.3891H195.958V55.0401H194.554V45.6389H189.059V55.0401H187.655V44.3891ZM197.832 49.8556C197.832 48.0905 198.305 46.7071 199.248 45.7079C200.191 44.7088 201.407 44.2109 202.9 44.2109C203.877 44.2109 204.756 44.4459 205.541 44.9149C206.324 45.383 206.923 46.0381 207.334 46.8782C207.745 47.7167 207.952 48.6687 207.952 49.7316C207.952 50.8102 207.736 51.7771 207.302 52.6278C206.868 53.4802 206.256 54.1256 205.463 54.5614C204.668 55.0008 203.811 55.2182 202.892 55.2182C201.894 55.2182 201.006 54.9754 200.22 54.4924C199.437 54.0086 198.841 53.3492 198.438 52.5116C198.034 51.6758 197.832 50.791 197.832 49.8556ZM199.28 49.881C199.28 51.1622 199.622 52.1719 200.306 52.9081C200.991 53.6444 201.85 54.0138 202.884 54.0138C203.938 54.0138 204.803 53.6418 205.485 52.8976C206.165 52.1544 206.504 51.0985 206.504 49.7299C206.504 48.8643 206.359 48.108 206.069 47.4634C205.778 46.8189 205.352 46.3184 204.793 45.9638C204.231 45.6092 203.603 45.4302 202.907 45.4302C201.917 45.4302 201.065 45.7726 200.35 46.4573C199.637 47.1411 199.28 48.2818 199.28 49.881ZM210.387 44.3891H216.828V53.7902H217.775V57.524H216.533V55.0401H209.531V57.524H208.289V53.7902H209.102C209.959 52.4967 210.387 49.881 210.387 45.9464V44.3891ZM215.425 45.6389H211.731V46.1839C211.731 47.0914 211.65 48.3333 211.487 49.908C211.328 51.4827 211.008 52.7762 210.535 53.7902H215.425V45.6389ZM218.272 55.0401L222.33 44.3891H223.869L228.176 55.0401H226.583L225.359 51.812H220.904L219.757 55.0401H218.272ZM221.315 50.667H224.92L223.817 47.7141C223.485 46.8162 223.233 46.0747 223.059 45.4896C222.913 46.1839 222.719 46.866 222.475 47.5403L221.315 50.667ZM236.155 45.6389H230.719V49.239H233.615V50.191H230.719V55.0401H229.316V50.191H228.133V49.239H229.316V44.3891H236.155V45.6389ZM237.36 44.3891H238.764V48.9264H241.283C242.934 48.9264 244.02 49.2338 244.543 49.8513C245.062 50.4661 245.323 51.1648 245.323 51.9456C245.323 52.7719 245.045 53.4933 244.486 54.1125C243.929 54.73 242.895 55.0401 241.381 55.0401H237.36V44.3891ZM238.764 53.8348H241.315C242.191 53.8348 242.829 53.6863 243.222 53.3885C243.62 53.0915 243.817 52.6155 243.817 51.9605C243.817 51.5168 243.696 51.143 243.457 50.8426C243.218 50.543 242.908 50.3517 242.529 50.2696C242.152 50.1884 241.519 50.1456 240.632 50.1456H238.764V53.8348ZM246.594 44.3891H247.998V55.0401H246.594V44.3891Z" fill="#979797"/>
</svg>
