<svg width="30" height="28" viewBox="0 0 30 28" fill="none" xmlns="http://www.w3.org/2000/svg">
<path opacity="0.5" d="M15 4C16.1935 4 17.3381 4.46825 18.182 5.30175C19.0259 6.13524 19.5 7.2657 19.5 8.44444C19.5 9.62318 19.0259 10.7536 18.182 11.5871C17.3381 12.4206 16.1935 12.8889 15 12.8889C13.8065 12.8889 12.6619 12.4206 11.818 11.5871C10.9741 10.7536 10.5 9.62318 10.5 8.44444C10.5 7.2657 10.9741 6.13524 11.818 5.30175C12.6619 4.46825 13.8065 4 15 4ZM19.5 15.7111C19.5 16.8889 19.185 19.6333 17.0363 22.7L16.125 17.3333L17.1825 15.2444C16.485 15.1667 15.7537 15.1111 15 15.1111C14.2463 15.1111 13.515 15.1667 12.8175 15.2444L13.875 17.3333L12.9637 22.7C10.815 19.6333 10.5 16.8889 10.5 15.7111C7.81125 16.4889 6 17.8889 6 19.5556V24H12.75H13.9763H16.0238H17.25H24V19.5556C24 17.8889 22.2 16.4889 19.5 15.7111Z" fill="white"/>
</svg>
