<svg width="20" height="16" viewBox="0 0 20 16" fill="none" xmlns="http://www.w3.org/2000/svg">
<path fill-rule="evenodd" clip-rule="evenodd" d="M3.7382 2.23725L4.22853 0.766169C4.38066 0.309787 4.80777 0.00195312 5.28884 0.00195312H13.7365C14.2176 0.00195312 14.6447 0.309787 14.7969 0.766169L15.2872 2.23725H16.7774C18.0119 2.23725 19.0127 3.23802 19.0127 4.47254V13.4137C19.0127 14.6482 18.0119 15.649 16.7774 15.649H2.24799C1.01347 15.649 0.0126953 14.6482 0.0126953 13.4137V4.47254C0.0126953 3.23802 1.01347 2.23725 2.24799 2.23725H3.7382ZM9.5127 13.1343C12.136 13.1343 14.2627 11.0077 14.2627 8.38431C14.2627 5.76095 12.136 3.63431 9.5127 3.63431C6.88934 3.63431 4.7627 5.76095 4.7627 8.38431C4.7627 11.0077 6.88934 13.1343 9.5127 13.1343ZM9.5127 11.4578C7.81523 11.4578 6.43917 10.0818 6.43917 8.38431C6.43917 6.68684 7.81523 5.31078 9.5127 5.31078C11.2102 5.31078 12.5862 6.68684 12.5862 8.38431C12.5862 10.0818 11.2102 11.4578 9.5127 11.4578ZM15.6598 5.59019V6.70784H16.7774V5.59019H15.6598Z" fill="#BFC5D2"/>
</svg>
