<svg width="25" height="25" viewBox="0 0 25 25" fill="none" xmlns="http://www.w3.org/2000/svg">
    <path d="M13 3C14.0609 3 15.0783 3.42143 15.8284 4.17157C16.5786 4.92172 17 5.93913 17 7C17 8.06087 16.5786 9.07828 15.8284 9.82843C15.0783 10.5786 14.0609 11 13 11C11.9391 11 10.9217 10.5786 10.1716 9.82843C9.42143 9.07828 9 8.06087 9 7C9 5.93913 9.42143 4.92172 10.1716 4.17157C10.9217 3.42143 11.9391 3 13 3ZM17 13.54C17 14.6 16.72 17.07 14.81 19.83L14 15L14.94 13.12C14.32 13.05 13.67 13 13 13C12.33 13 11.68 13.05 11.06 13.12L12 15L11.19 19.83C9.28 17.07 9 14.6 9 13.54C6.61 14.24 5 15.5 5 17V21H11H12.09H13.91H15H21V17C21 15.5 19.4 14.24 17 13.54Z" fill="#01579B"/>
</svg>
