<svg width="19" height="27" viewBox="0 0 19 27" fill="none" xmlns="http://www.w3.org/2000/svg">
    <path fill-rule="evenodd" clip-rule="evenodd" d="M17.5567 19.1394C15.9617 16.3508 16.8921 14.808 16.2651 9.64617C15.7033 5.0214 12.2048 3.69737 10.4129 3.3194V0H8.58962V3.3194C6.79519 3.69737 3.29668 5.02135 2.73617 9.64617C2.10921 14.8055 3.03962 16.3508 1.44459 19.1394C1.02074 19.8754 0.491566 20.4672 0 20.9234V22H19V20.9234C18.5097 20.4672 17.978 19.8754 17.5567 19.1394Z" fill="#BFC5D2"/>
    <path fill-rule="evenodd" clip-rule="evenodd" d="M9 27C10.1046 27 11 26.1046 11 25C11 23.8954 10.1046 23 9 23C7.89543 23 7 23.8954 7 25C7 26.1046 7.89543 27 9 27Z" fill="#BFC5D2"/>
</svg>