<svg width="25" height="25" viewBox="0 0 25 25" fill="none" xmlns="http://www.w3.org/2000/svg">
    <g clip-path="url(#clip0)">
        <path d="M13.5333 2.01074C19.0633 2.01074 23.5433 6.51074 23.5433 12.0107C23.5433 17.5107 19.0633 22.0107 13.5333 22.0107C10.0233 22.0107 6.95332 20.1907 5.16332 17.4407L6.74332 16.1907C8.15332 18.4807 10.6633 20.0107 13.5433 20.0107C15.6651 20.0107 17.6999 19.1679 19.2002 17.6676C20.7005 16.1673 21.5433 14.1325 21.5433 12.0107C21.5433 9.88901 20.7005 7.85418 19.2002 6.35389C17.6999 4.8536 15.6651 4.01074 13.5433 4.01074C9.46332 4.01074 6.10332 7.07074 5.61332 11.0107H8.37332L4.63332 14.7407L0.90332 11.0107H3.59332C4.09332 5.96074 8.35332 2.01074 13.5333 2.01074ZM16.4933 10.2507C16.9933 10.2607 17.4033 10.6607 17.4033 11.1707V15.7807C17.4033 16.2807 16.9933 16.7007 16.4833 16.7007H10.9533C10.4433 16.7007 10.0333 16.2807 10.0333 15.7807V11.1707C10.0333 10.6607 10.4433 10.2607 10.9433 10.2507V9.24074C10.9433 7.71074 12.1933 6.47074 13.7133 6.47074C15.2433 6.47074 16.4933 7.71074 16.4933 9.24074V10.2507ZM13.7133 7.87074C12.9633 7.87074 12.3433 8.48074 12.3433 9.24074V10.2507H15.0933V9.24074C15.0933 8.48074 14.4733 7.87074 13.7133 7.87074Z" fill="#BFC5D2"/>
    </g>
    <defs>
        <clipPath id="clip0">
            <rect width="24" height="24" fill="white" transform="translate(0.90332 0.0107422)"/>
        </clipPath>
    </defs>
</svg>