<svg width="25" height="25" viewBox="0 0 25 25" fill="none" xmlns="http://www.w3.org/2000/svg">
    <g clipPath="url(#clip0)">
        <path d="M12.9033 22.0107C14.0033 22.0107 14.9033 21.1107 14.9033 20.0107H10.9033C10.9033 21.1107 11.8033 22.0107 12.9033 22.0107ZM18.9033 16.0107V11.0107C18.9033 7.94074 17.2733 5.37074 14.4033 4.69074V4.01074C14.4033 3.18074 13.7333 2.51074 12.9033 2.51074C12.0733 2.51074 11.4033 3.18074 11.4033 4.01074V4.69074C8.54332 5.37074 6.90332 7.93074 6.90332 11.0107V16.0107L4.90332 18.0107V19.0107H20.9033V18.0107L18.9033 16.0107ZM16.9033 17.0107H8.90332V11.0107C8.90332 8.53074 10.4133 6.51074 12.9033 6.51074C15.3933 6.51074 16.9033 8.53074 16.9033 11.0107V17.0107Z" fill="#BFC5D2"/>
    </g>
    <defs>
        <clipPath id="clip0">
            <rect width="24" height="24" fill="white" transform="translate(0.90332 0.0107422)"/>
        </clipPath>
    </defs>
</svg>