<svg width="25" height="24" viewBox="0 0 25 24" fill="none" xmlns="http://www.w3.org/2000/svg">
    <path id="svg-line" d="M5.0127 7.11133H6.56825H19.0127" stroke="#F91F2A" stroke-width="1.5" stroke-linecap="round" stroke-linejoin="round"/>
    <path d="M18.2072 7.11111C18.2072 6.6969 17.8715 6.36111 17.4572 6.36111C17.043 6.36111 16.7072 6.6969 16.7072 7.11111H18.2072ZM7.31836 7.11111C7.31836 6.6969 6.98257 6.36111 6.56836 6.36111C6.15415 6.36111 5.81836 6.6969 5.81836 7.11111H7.31836ZM8.15169 7.11111C8.15169 7.52532 8.48748 7.86111 8.90169 7.86111C9.31591 7.86111 9.65169 7.52532 9.65169 7.11111H8.15169ZM14.3739 7.11111C14.3739 7.52532 14.7097 7.86111 15.1239 7.86111C15.5381 7.86111 15.8739 7.52532 15.8739 7.11111H14.3739ZM16.7072 7.11111V18.3889H18.2072V7.11111H16.7072ZM16.7072 18.3889C16.7072 18.8895 16.322 19.25 15.9017 19.25V20.75C17.1996 20.75 18.2072 19.6679 18.2072 18.3889H16.7072ZM15.9017 19.25H8.12391V20.75H15.9017V19.25ZM8.12391 19.25C7.70361 19.25 7.31836 18.8895 7.31836 18.3889H5.81836C5.81836 19.6679 6.826 20.75 8.12391 20.75V19.25ZM7.31836 18.3889V7.11111H5.81836V18.3889H7.31836ZM9.65169 7.11111V5.55556H8.15169V7.11111H9.65169ZM9.65169 5.55556C9.65169 5.11066 10.0124 4.75 10.4572 4.75V3.25C9.18392 3.25 8.15169 4.28223 8.15169 5.55556H9.65169ZM10.4572 4.75H13.5684V3.25H10.4572V4.75ZM13.5684 4.75C14.0133 4.75 14.3739 5.11066 14.3739 5.55556H15.8739C15.8739 4.28223 14.8417 3.25 13.5684 3.25V4.75ZM14.3739 5.55556V7.11111H15.8739V5.55556H14.3739Z" fill="#F91F2A"/>
</svg>
