<svg width="24" height="25" viewBox="0 0 24 25" fill="none" xmlns="http://www.w3.org/2000/svg">
<path d="M18.5663 4.19368H16.16V3.51158C16.16 3.22737 15.9326 3 15.6484 3C15.3642 3 15.1368 3.22737 15.1368 3.51158V4.19368H12.7116V3.51158C12.7116 3.22737 12.4842 3 12.2 3C11.9158 3 11.6884 3.22737 11.6884 3.51158V4.19368H9.26316V3.51158C9.26316 3.22737 9.03579 3 8.75158 3C8.46737 3 8.24 3.22737 8.24 3.51158V4.19368H5.83368C5.37895 4.19368 5 4.57263 5 5.02737V20.1663C5 20.6211 5.37895 21 5.83368 21H18.5663C19.0211 21 19.4 20.6211 19.4 20.1663V5.02737C19.4 4.57263 19.0211 4.19368 18.5663 4.19368ZM18.3768 19.9768H6.02316V5.21684H8.24V5.89895C8.24 6.18316 8.46737 6.41053 8.75158 6.41053C9.03579 6.41053 9.26316 6.18316 9.26316 5.89895V5.21684H11.6884V5.89895C11.6884 6.18316 11.9158 6.41053 12.2 6.41053C12.4842 6.41053 12.7116 6.18316 12.7116 5.89895V5.21684H15.1368V5.89895C15.1368 6.18316 15.3642 6.41053 15.6484 6.41053C15.9326 6.41053 16.16 6.18316 16.16 5.89895V5.21684H18.3768V19.9768Z" fill="#01579B"/>
<path d="M8.40973 10.5414C8.50447 10.6551 8.6371 10.7119 8.78868 10.7119C8.94026 10.7119 9.07289 10.6551 9.16763 10.5414L10.3424 9.27193C10.5318 9.06351 10.5318 8.7414 10.3234 8.55193C10.115 8.36246 9.79289 8.36246 9.60341 8.57088L8.78868 9.44246L8.54236 9.17719C8.35289 8.96877 8.03078 8.96877 7.82236 9.15825C7.61394 9.34772 7.59499 9.66983 7.80341 9.87825L8.40973 10.5414Z" fill="#01579B"/>
<path d="M9.58447 12.1138L8.78868 12.9665L8.54236 12.7012C8.35289 12.4928 8.03078 12.4738 7.82236 12.6823C7.61394 12.8717 7.59499 13.1938 7.80341 13.4023L8.40973 14.0844C8.50447 14.1981 8.6371 14.2549 8.78868 14.2549C8.94026 14.2549 9.07289 14.1981 9.16763 14.0844L10.3424 12.8149C10.5318 12.6065 10.5318 12.2844 10.3234 12.0949C10.115 11.9054 9.77394 11.9054 9.58447 12.1138Z" fill="#01579B"/>
<path d="M9.58447 15.6572L8.78868 16.5098L8.54236 16.2446C8.35289 16.0361 8.03078 16.0172 7.82236 16.2256C7.61394 16.4151 7.59499 16.7372 7.80341 16.9456L8.42868 17.6088C8.52341 17.7225 8.65605 17.7793 8.80762 17.7793C8.9592 17.7793 9.09184 17.7225 9.18657 17.6088L10.3613 16.3393C10.5508 16.1309 10.5508 15.8088 10.3424 15.6193C10.115 15.4298 9.77394 15.4488 9.58447 15.6572Z" fill="#01579B"/>
<path d="M16.2181 12.5879H11.7655C11.4813 12.5879 11.2539 12.8153 11.2539 13.0995C11.2539 13.3837 11.4813 13.611 11.7655 13.611H16.2371C16.5213 13.611 16.7486 13.3837 16.7486 13.0995C16.7297 12.8153 16.5023 12.5879 16.2181 12.5879Z" fill="#01579B"/>
<path d="M11.7655 9.04492C11.4813 9.04492 11.2539 9.27229 11.2539 9.5565C11.2539 9.84071 11.4813 10.0681 11.7655 10.0681H16.2371C16.5213 10.0681 16.7486 9.84071 16.7486 9.5565C16.7486 9.27229 16.5213 9.04492 16.2371 9.04492H11.7655Z" fill="#01579B"/>
<path d="M16.2181 16.1309H11.7655C11.4813 16.1309 11.2539 16.3582 11.2539 16.6424C11.2539 16.9266 11.4813 17.154 11.7655 17.154H16.2371C16.5213 17.154 16.7486 16.9266 16.7486 16.6424C16.7486 16.3582 16.5023 16.1309 16.2181 16.1309Z" fill="#01579B"/>
<rect x="18" y="14" width="2" height="4" fill="white"/>
<rect x="20" y="18" width="4" height="6" transform="rotate(90 20 18)" fill="white"/>
<rect x="17.5" y="15.5" width="2" height="3" transform="rotate(90 17.5 15.5)" fill="white"/>
<path d="M21.793 19.7906C21.9899 19.2014 22.8858 19.5009 22.6886 20.0903C22.162 21.6616 20.6841 22.7254 19.0266 22.7254C16.8935 22.7254 15.1641 20.9961 15.1641 18.8627C15.1641 16.7295 16.8935 15 19.0266 15C20.4687 15 21.7578 15.8 22.4203 17.0155L22.5958 16.4279C22.7734 15.8317 23.6801 16.1017 23.5025 16.6982L22.9526 18.5401C22.8597 18.8509 22.5985 19.0945 22.2496 18.9067L20.5748 18.0067C20.0271 17.7121 20.475 16.8794 21.0227 17.1739L21.5958 17.4821C21.0982 16.5568 20.1207 15.9474 19.0266 15.9474C17.4167 15.9474 16.1114 17.2525 16.1114 18.8627C16.1114 20.4728 17.4167 21.7779 19.0266 21.7779C20.2811 21.7779 21.394 20.9805 21.793 19.7906Z" fill="#01579B"/>
</svg>
