<svg width="41" height="40" viewBox="0 0 41 40" fill="none" xmlns="http://www.w3.org/2000/svg">
    <path fill-rule="evenodd" clip-rule="evenodd" d="M27.8857 27.1406C27.9791 27.2344 28.0259 27.3516 28.0259 27.4922C28.0259 27.6328 27.9791 27.75 27.8857 27.8438C27.7818 27.9479 27.6624 28 27.5273 28C27.3923 28 27.2729 27.9479 27.169 27.8438L22.3394 22.9688C21.7889 23.4479 21.1658 23.8229 20.4699 24.0938C19.774 24.3646 19.0366 24.5 18.2576 24.5C17.3956 24.5 16.5854 24.3359 15.8272 24.0078C15.069 23.6797 14.4069 23.2344 13.8409 22.6719C13.2748 22.1094 12.8308 21.4479 12.5088 20.6875C12.1869 19.9271 12.0259 19.1146 12.0259 18.25C12.0259 17.3854 12.1869 16.5729 12.5088 15.8125C12.8308 15.0521 13.2748 14.3906 13.8409 13.8281C14.4069 13.2656 15.069 12.8203 15.8272 12.4922C16.5854 12.1641 17.3956 12 18.2576 12C19.1093 12 19.9142 12.1641 20.6724 12.4922C21.4306 12.8203 22.0927 13.2656 22.6588 13.8281C23.2248 14.3906 23.6714 15.0521 23.9986 15.8125C24.3258 16.5729 24.4894 17.3854 24.4894 18.25C24.4894 19.0104 24.3595 19.7318 24.0999 20.4141C23.8402 21.0964 23.4871 21.7083 23.0405 22.25L27.8857 27.1406ZM18.2576 23.5156C18.9743 23.5156 19.652 23.3776 20.2907 23.1016C20.9295 22.8255 21.4852 22.4479 21.9577 21.9688C22.4303 21.4896 22.8042 20.9323 23.0794 20.2969C23.3547 19.6615 23.4923 18.9792 23.4923 18.25C23.4923 17.5208 23.3547 16.8385 23.0794 16.2031C22.8042 15.5677 22.4303 15.0104 21.9577 14.5312C21.4852 14.0521 20.9295 13.6745 20.2907 13.3984C19.652 13.1224 18.9743 12.9844 18.2576 12.9844C17.5306 12.9844 16.8477 13.1224 16.209 13.3984C15.5702 13.6745 15.0145 14.0521 14.542 14.5312C14.0694 15.0104 13.6955 15.5677 13.4202 16.2031C13.145 16.8385 13.0074 17.5208 13.0074 18.25C13.0074 18.9792 13.145 19.6615 13.4202 20.2969C13.6955 20.9323 14.0694 21.4896 14.542 21.9688C15.0145 22.4479 15.5702 22.8255 16.209 23.1016C16.8477 23.3776 17.5306 23.5156 18.2576 23.5156Z" fill="#BFC5D2"/>
    <path d="M27.8857 27.1406L27.5305 27.4925L27.5316 27.4937L27.8857 27.1406ZM27.8857 27.8438L27.5316 27.4907L27.8857 27.8438ZM27.169 27.8438L26.8138 28.1956L26.8149 28.1968L27.169 27.8438ZM22.3394 22.9688L22.6946 22.6169L22.3647 22.2838L22.0111 22.5916L22.3394 22.9688ZM23.0405 22.25L22.6547 21.9319L22.3671 22.2807L22.6853 22.6019L23.0405 22.25ZM27.5316 27.4937C27.5328 27.4948 27.5321 27.4944 27.5306 27.4921C27.5291 27.4898 27.5276 27.487 27.5264 27.4841C27.5253 27.4812 27.525 27.4797 27.5251 27.4803C27.5253 27.481 27.5259 27.4848 27.5259 27.4922H28.5259C28.5259 27.2283 28.4329 26.9813 28.2397 26.7876L27.5316 27.4937ZM27.5259 27.4922C27.5259 27.4996 27.5253 27.5033 27.5251 27.5041C27.525 27.5047 27.5253 27.5032 27.5264 27.5003C27.5276 27.4974 27.5291 27.4946 27.5306 27.4923C27.5321 27.49 27.5328 27.4895 27.5316 27.4907L28.2397 28.1968C28.4329 28.003 28.5259 27.756 28.5259 27.4922H27.5259ZM27.5316 27.4907C27.5248 27.4976 27.5202 27.501 27.5182 27.5024C27.5163 27.5038 27.5164 27.5035 27.5183 27.5026C27.5204 27.5017 27.5229 27.5009 27.5254 27.5004C27.5279 27.4999 27.5288 27.5 27.5273 27.5V28.5C27.8078 28.5 28.0513 28.3858 28.2397 28.1968L27.5316 27.4907ZM27.5273 27.5C27.5259 27.5 27.5268 27.4999 27.5293 27.5004C27.5318 27.5009 27.5343 27.5017 27.5363 27.5026C27.5383 27.5035 27.5384 27.5038 27.5365 27.5024C27.5345 27.501 27.5299 27.4976 27.5231 27.4907L26.8149 28.1968C27.0034 28.3858 27.2469 28.5 27.5273 28.5V27.5ZM27.5242 27.4919L22.6946 22.6169L21.9842 23.3206L26.8138 28.1956L27.5242 27.4919ZM22.0111 22.5916C21.5052 23.032 20.932 23.3774 20.2885 23.6278L20.6512 24.5597C21.3996 24.2684 22.0727 23.8638 22.6677 23.3459L22.0111 22.5916ZM20.2885 23.6278C19.653 23.8752 18.9773 24 18.2576 24V25C19.0959 25 19.8951 24.854 20.6512 24.5597L20.2885 23.6278ZM18.2576 24C17.4608 24 16.7186 23.8488 16.0258 23.5489L15.6287 24.4667C16.4523 24.8231 17.3303 25 18.2576 25V24ZM16.0258 23.5489C15.3229 23.2447 14.7135 22.8341 14.1933 22.3172L13.4884 23.0265C14.1004 23.6346 14.8152 24.1146 15.6287 24.4667L16.0258 23.5489ZM14.1933 22.3172C13.6749 21.802 13.2668 21.1953 12.9693 20.4925L12.0484 20.8825C12.3948 21.7005 12.8748 22.4167 13.4884 23.0265L14.1933 22.3172ZM12.9693 20.4925C12.6746 19.7967 12.5259 19.0508 12.5259 18.25H11.5259C11.5259 19.1784 11.6991 20.0575 12.0484 20.8825L12.9693 20.4925ZM12.5259 18.25C12.5259 17.4492 12.6746 16.7033 12.9693 16.0075L12.0484 15.6175C11.6991 16.4425 11.5259 17.3216 11.5259 18.25H12.5259ZM12.9693 16.0075C13.2668 15.3047 13.6749 14.698 14.1933 14.1828L13.4884 13.4735C12.8748 14.0833 12.3948 14.7995 12.0484 15.6175L12.9693 16.0075ZM14.1933 14.1828C14.7135 13.6659 15.3229 13.2553 16.0258 12.9511L15.6287 12.0333C14.8152 12.3854 14.1004 12.8654 13.4884 13.4735L14.1933 14.1828ZM16.0258 12.9511C16.7186 12.6512 17.4608 12.5 18.2576 12.5V11.5C17.3303 11.5 16.4523 11.6769 15.6287 12.0333L16.0258 12.9511ZM18.2576 12.5C19.0431 12.5 19.7803 12.6509 20.4738 12.9511L20.871 12.0333C20.0482 11.6772 19.1754 11.5 18.2576 11.5V12.5ZM20.4738 12.9511C21.1767 13.2553 21.7862 13.6659 22.3064 14.1828L23.0112 13.4735C22.3993 12.8654 21.6845 12.3854 20.871 12.0333L20.4738 12.9511ZM22.3064 14.1828C22.8254 14.6986 23.2364 15.3062 23.5393 16.0101L24.4579 15.6149C24.1064 14.798 23.6243 14.0827 23.0112 13.4735L22.3064 14.1828ZM23.5393 16.0101C23.8384 16.7053 23.9894 17.4503 23.9894 18.25H24.9894C24.9894 17.3205 24.8131 16.4405 24.4579 15.6149L23.5393 16.0101ZM23.9894 18.25C23.9894 18.9522 23.8697 19.6131 23.6326 20.2362L24.5672 20.5919C24.8494 19.8505 24.9894 19.0686 24.9894 18.25H23.9894ZM23.6326 20.2362C23.3915 20.8697 23.0653 21.4339 22.6547 21.9319L23.4263 22.5681C23.9089 21.9828 24.2889 21.323 24.5672 20.5919L23.6326 20.2362ZM22.6853 22.6019L27.5305 27.4925L28.2409 26.7887L23.3957 21.8981L22.6853 22.6019ZM18.2576 24.0156C19.0404 24.0156 19.7858 23.8645 20.4891 23.5605L20.0924 22.6426C19.5182 22.8908 18.9082 23.0156 18.2576 23.0156V24.0156ZM20.4891 23.5605C21.1848 23.2599 21.7945 22.8463 22.3137 22.3198L21.6017 21.6177C21.1758 22.0495 20.6742 22.3912 20.0924 22.6426L20.4891 23.5605ZM22.3137 22.3198C22.831 21.7954 23.2392 21.1861 23.5383 20.4956L22.6206 20.0981C22.3692 20.6785 22.0297 21.1838 21.6017 21.6177L22.3137 22.3198ZM23.5383 20.4956C23.8421 19.7942 23.9923 19.0438 23.9923 18.25H22.9923C22.9923 18.9145 22.8673 19.5288 22.6206 20.0981L23.5383 20.4956ZM23.9923 18.25C23.9923 17.4562 23.8421 16.7058 23.5383 16.0044L22.6206 16.4019C22.8673 16.9712 22.9923 17.5855 22.9923 18.25H23.9923ZM23.5383 16.0044C23.2392 15.3139 22.831 14.7046 22.3137 14.1802L21.6017 14.8823C22.0297 15.3162 22.3692 15.8215 22.6206 16.4019L23.5383 16.0044ZM22.3137 14.1802C21.7945 13.6537 21.1848 13.2401 20.4891 12.9395L20.0924 13.8574C20.6742 14.1088 21.1758 14.4505 21.6017 14.8823L22.3137 14.1802ZM20.4891 12.9395C19.7858 12.6355 19.0404 12.4844 18.2576 12.4844V13.4844C18.9082 13.4844 19.5182 13.6092 20.0924 13.8574L20.4891 12.9395ZM18.2576 12.4844C17.4655 12.4844 16.7148 12.6351 16.0106 12.9395L16.4073 13.8574C16.9806 13.6096 17.5957 13.4844 18.2576 13.4844V12.4844ZM16.0106 12.9395C15.3149 13.2401 14.7052 13.6537 14.186 14.1802L14.898 14.8823C15.3239 14.4505 15.8255 14.1088 16.4073 13.8574L16.0106 12.9395ZM14.186 14.1802C13.6687 14.7046 13.2605 15.3139 12.9614 16.0044L13.8791 16.4019C14.1305 15.8215 14.47 15.3162 14.898 14.8823L14.186 14.1802ZM12.9614 16.0044C12.6576 16.7058 12.5074 17.4562 12.5074 18.25H13.5074C13.5074 17.5855 13.6324 16.9712 13.8791 16.4019L12.9614 16.0044ZM12.5074 18.25C12.5074 19.0438 12.6576 19.7942 12.9614 20.4956L13.8791 20.0981C13.6324 19.5288 13.5074 18.9145 13.5074 18.25H12.5074ZM12.9614 20.4956C13.2605 21.1861 13.6687 21.7954 14.186 22.3198L14.898 21.6177C14.47 21.1838 14.1305 20.6785 13.8791 20.0981L12.9614 20.4956ZM14.186 22.3198C14.7052 22.8463 15.3149 23.2599 16.0106 23.5605L16.4073 22.6426C15.8255 22.3912 15.3239 22.0495 14.898 21.6177L14.186 22.3198ZM16.0106 23.5605C16.7148 23.8649 17.4655 24.0156 18.2576 24.0156V23.0156C17.5957 23.0156 16.9806 22.8904 16.4073 22.6426L16.0106 23.5605Z" fill="#BFC5D2"/>
</svg>
