<svg width="25" height="24" viewBox="0 0 25 24" fill="none" xmlns="http://www.w3.org/2000/svg">
<path d="M17.9119 10H7.91187V8H17.9119V10ZM17.9119 14H7.91187V12H17.9119V14ZM14.9119 18H7.91187V16H14.9119V18ZM12.9119 4C13.1771 4 13.4314 4.10536 13.619 4.29289C13.8065 4.48043 13.9119 4.73478 13.9119 5C13.9119 5.26522 13.8065 5.51957 13.619 5.70711C13.4314 5.89464 13.1771 6 12.9119 6C12.6466 6 12.3923 5.89464 12.2048 5.70711C12.0172 5.51957 11.9119 5.26522 11.9119 5C11.9119 4.73478 12.0172 4.48043 12.2048 4.29289C12.3923 4.10536 12.6466 4 12.9119 4ZM19.9119 4H15.7319C15.3119 2.84 14.2119 2 12.9119 2C11.6119 2 10.5119 2.84 10.0919 4H5.91187C5.38143 4 4.87272 4.21071 4.49765 4.58579C4.12258 4.96086 3.91187 5.46957 3.91187 6V20C3.91187 20.5304 4.12258 21.0391 4.49765 21.4142C4.87272 21.7893 5.38143 22 5.91187 22H19.9119C20.4423 22 20.951 21.7893 21.3261 21.4142C21.7012 21.0391 21.9119 20.5304 21.9119 20V6C21.9119 5.46957 21.7012 4.96086 21.3261 4.58579C20.951 4.21071 20.4423 4 19.9119 4Z" fill="#BFC5D2"/>
</svg>
