<svg width="25" height="24" viewBox="0 0 25 24" fill="none" xmlns="http://www.w3.org/2000/svg">
<path d="M12.8801 2.0918C14.0736 2.0918 15.2182 2.56005 16.0621 3.39354C16.906 4.22704 17.3801 5.3575 17.3801 6.53624C17.3801 7.71498 16.906 8.84544 16.0621 9.67894C15.2182 10.5124 14.0736 10.9807 12.8801 10.9807C11.6867 10.9807 10.5421 10.5124 9.69815 9.67894C8.85423 8.84544 8.38013 7.71498 8.38013 6.53624C8.38013 5.3575 8.85423 4.22704 9.69815 3.39354C10.5421 2.56005 11.6867 2.0918 12.8801 2.0918ZM17.3801 13.8029C17.3801 14.9807 17.0651 17.7251 14.9164 20.7918L14.0051 15.4251L15.0626 13.3362C14.3651 13.2585 13.6339 13.2029 12.8801 13.2029C12.1264 13.2029 11.3951 13.2585 10.6976 13.3362L11.7551 15.4251L10.8439 20.7918C8.69513 17.7251 8.38013 14.9807 8.38013 13.8029C5.69138 14.5807 3.88013 15.9807 3.88013 17.6474V22.0918H10.6301H11.8564H13.9039H15.1301H21.8801V17.6474C21.8801 15.9807 20.0801 14.5807 17.3801 13.8029Z" fill="#BFC5D2"/>
</svg>
