<svg width="25" height="24" viewBox="0 0 25 24" fill="none" xmlns="http://www.w3.org/2000/svg">
<path d="M14.254 17.5556H6.47618V15.3333H14.254V17.5556ZM17.5873 13.1111H6.47618V10.8889H17.5873V13.1111ZM17.5873 8.66667H6.47618V6.44444H17.5873V8.66667ZM19.8095 2H4.25396C3.02063 2 2.03174 2.98889 2.03174 4.22222V19.7778C2.03174 20.3671 2.26586 20.9324 2.68261 21.3491C3.09936 21.7659 3.66459 22 4.25396 22H19.8095C20.3989 22 20.9641 21.7659 21.3809 21.3491C21.7976 20.9324 22.0317 20.3671 22.0317 19.7778V4.22222C22.0317 2.98889 21.0317 2 19.8095 2Z" fill="#BFC5D2"/>
</svg>
