<svg width="25" height="24" viewBox="0 0 25 24" fill="none" xmlns="http://www.w3.org/2000/svg">
<path fill-rule="evenodd" clip-rule="evenodd" d="M12.9119 22C18.4347 22 22.9119 17.5228 22.9119 12C22.9119 6.47715 18.4347 2 12.9119 2C7.38902 2 2.91187 6.47715 2.91187 12C2.91187 17.5228 7.38902 22 12.9119 22ZM9.88542 11.751C8.54304 11.751 7.45483 10.6628 7.45483 9.32034C7.45483 7.97791 8.54304 6.88965 9.88542 6.88965C11.2278 6.88965 12.316 7.97791 12.316 9.32034C12.316 10.6628 11.2278 11.751 9.88542 11.751ZM15.9393 17.1107C14.5969 17.1107 13.5087 16.0225 13.5087 14.68C13.5087 13.3376 14.5969 12.2493 15.9393 12.2493C17.2817 12.2493 18.3699 13.3376 18.3699 14.68C18.3699 16.0225 17.2817 17.1107 15.9393 17.1107ZM15.2344 6.88965H16.491L10.5899 17.1107H9.33367L15.2344 6.88965ZM9.88542 8.27862C9.31006 8.27862 8.84374 8.74496 8.84374 9.32034C8.84374 9.89538 9.30972 10.3621 9.88542 10.3621C10.4604 10.3621 10.9271 9.89538 10.9271 9.32034C10.9271 8.74496 10.4604 8.27862 9.88542 8.27862ZM15.9393 13.6383C15.3639 13.6383 14.8976 14.1047 14.8976 14.68C14.8976 15.2554 15.3639 15.7218 15.9393 15.7218C16.5147 15.7218 16.981 15.2551 16.981 14.68C16.981 14.1047 16.5147 13.6383 15.9393 13.6383Z" fill="#BFC5D2"/>
</svg>
