<svg width="25" height="24" viewBox="0 0 25 24" fill="none" xmlns="http://www.w3.org/2000/svg">
<path fill-rule="evenodd" clip-rule="evenodd" d="M19.6042 9.66238L21.008 9.90052C21.6055 10.0008 22.04 10.5147 22.0316 11.1205V12.8794C22.0316 13.4852 21.5971 13.9991 20.9997 14.0994L19.5959 14.3333C19.4538 14.8013 19.2616 15.2567 19.0319 15.6954L19.8591 16.8568C20.21 17.3498 20.1516 18.0225 19.7254 18.4486L18.4804 19.6937C18.2464 19.9276 17.9372 20.0571 17.6072 20.0571C17.3481 20.0571 17.0975 19.9778 16.8886 19.8274L15.7313 19.0001C15.2968 19.2299 14.8414 19.4179 14.3693 19.5641L14.1311 20.9679C14.0308 21.5654 13.5169 21.9999 12.9111 21.9999H11.148C10.5422 21.9999 10.0284 21.5654 9.92808 20.9679L9.69412 19.5641C9.23872 19.4221 8.79586 19.2424 8.37388 19.021L7.19987 19.8566C6.99098 20.007 6.74448 20.0864 6.48544 20.0864C6.15538 20.0864 5.84622 19.9569 5.61225 19.7229L4.36722 18.4779C3.93689 18.0517 3.88257 17.3791 4.23352 16.8861L5.05658 15.7413C4.82262 15.3068 4.63043 14.8514 4.4842 14.3835L3.06369 14.1412C2.46625 14.0409 2.03174 13.527 2.03174 12.9212V11.1623C2.03174 10.5565 2.46625 10.0426 3.06369 9.9423L4.45078 9.70834C4.59283 9.23623 4.77666 8.78083 5.00645 8.34214L4.17085 7.16814C3.81991 6.67514 3.8784 6.00249 4.30455 5.57633L5.55376 4.3313C5.78355 4.09734 6.09689 3.96782 6.42695 3.96782C6.68599 3.96782 6.93666 4.0472 7.14556 4.19761L8.2945 5.02484C8.72901 4.79088 9.1844 4.59869 9.65234 4.45246L9.89466 3.03196C9.99493 2.43451 10.5088 2 11.1146 2H12.8735C13.4793 2 13.9932 2.43451 14.0935 3.03196L14.3275 4.41904C14.8163 4.56527 15.2884 4.76163 15.7396 4.99977L16.9011 4.17254C17.11 4.02213 17.3565 3.94275 17.6155 3.94275C17.9456 3.94275 18.2548 4.07227 18.4887 4.30623L19.7338 5.55127C20.1641 5.97742 20.2184 6.65007 19.8674 7.14307L19.0402 8.30036C19.27 8.73487 19.458 9.19027 19.6042 9.66238ZM7.71924 11.9972C7.71924 9.61579 9.65363 7.6814 12.0351 7.6814C14.4165 7.6814 16.3509 9.61579 16.3509 11.9972C16.3509 14.3787 14.4165 16.3131 12.0351 16.3131C9.65363 16.3131 7.71924 14.3787 7.71924 11.9972Z" fill="#BFC5D2"/>
</svg>
