<svg width="25" height="24" viewBox="0 0 25 24" fill="none" xmlns="http://www.w3.org/2000/svg">
<path d="M2.60093 17.8226C2.27599 17.8226 2.0127 18.0858 2.0127 18.4108C2.0127 18.7357 2.27599 18.999 2.60093 18.999H3.18917V21.4108C3.18917 21.7357 3.45246 21.999 3.7774 21.999H21.4245C21.7494 21.999 22.0127 21.7357 22.0127 21.4108V2.58726C22.0127 2.26232 21.7494 1.99902 21.4245 1.99902H3.7774C3.45246 1.99902 3.18917 2.26232 3.18917 2.58726C3.18917 5.69034 3.18917 2.86449 3.18917 5.82255H2.60093C2.27599 5.82255 2.0127 6.08585 2.0127 6.41079C2.0127 6.73573 2.27599 6.99902 2.60093 6.99902H3.18917C3.18917 8.32255 3.18917 5.76258 3.18917 9.82255H2.60093C2.27599 9.82255 2.0127 10.0858 2.0127 10.4108C2.0127 10.7357 2.27599 10.999 2.60093 10.999H3.18917V13.8226H2.60093C2.27599 13.8226 2.0127 14.0858 2.0127 14.4108C2.0127 14.7357 2.27599 14.999 2.60093 14.999H3.18917C3.18917 17.7208 3.18917 16.3226 3.18917 17.8226H2.60093ZM4.36564 18.999H4.95387C5.27881 18.999 5.54211 18.7357 5.54211 18.4108C5.54211 18.0858 5.27881 17.8226 4.95387 17.8226H4.36564C4.36564 16.3226 4.36564 17.7208 4.36564 14.999H4.95387C5.27881 14.999 5.54211 14.7357 5.54211 14.4108C5.54211 14.0858 5.27881 13.8226 4.95387 13.8226H4.36564V10.999H4.95387C5.27881 10.999 5.54211 10.7357 5.54211 10.4108C5.54211 10.0858 5.27881 9.82255 4.95387 9.82255H4.36564C4.36564 6.56765 4.36564 8.07746 4.36564 6.99902H4.95387C5.27881 6.99902 5.54211 6.73573 5.54211 6.41079C5.54211 6.08585 5.27881 5.82255 4.95387 5.82255H4.36564C4.36564 3.01911 4.36564 5.754 4.36564 3.17549H20.8362V20.8226H4.36564V18.999Z" fill="#BFC5D2"/>
<path d="M13.0127 4.99902C13.8083 4.99902 14.5714 5.3268 15.134 5.91025C15.6966 6.49369 16.0127 7.28502 16.0127 8.11013C16.0127 8.93525 15.6966 9.72658 15.134 10.31C14.5714 10.8935 13.8083 11.2212 13.0127 11.2212C12.217 11.2212 11.454 10.8935 10.8914 10.31C10.3288 9.72658 10.0127 8.93525 10.0127 8.11013C10.0127 7.28502 10.3288 6.49369 10.8914 5.91025C11.454 5.3268 12.217 4.99902 13.0127 4.99902ZM16.0127 13.1968C15.2627 12.9699 14.3782 12.7768 13.0127 12.7768C11.6472 12.7768 10.7627 12.969 10.0127 13.1968C8.2202 13.7412 7.0127 14.7212 7.0127 15.8879V18.999H11.5127H12.3302H13.6952H14.5127H19.0127V15.8879C19.0127 14.7212 17.8127 13.7412 16.0127 13.1968Z" fill="#BFC5D2"/>
</svg>
