<svg width="24" height="24" viewBox="0 0 24 24" fill="none" xmlns="http://www.w3.org/2000/svg">
<path d="M10.6909 5.33316C11.7107 5.33316 12.6888 5.74582 13.41 6.48034C14.1312 7.21487 14.5363 8.21109 14.5363 9.24987C14.5363 10.2886 14.1312 11.2849 13.41 12.0194C12.6888 12.7539 11.7107 13.1666 10.6909 13.1666C9.671 13.1666 8.6929 12.7539 7.97174 12.0194C7.25058 11.2849 6.84543 10.2886 6.84543 9.24987C6.84543 8.21109 7.25058 7.21487 7.97174 6.48034C8.6929 5.74582 9.671 5.33316 10.6909 5.33316ZM10.6909 15.125C13.2577 15.125 18.3817 16.437 18.3817 19.0417V21H3V19.0417C3 16.437 8.12404 15.125 10.6909 15.125Z" fill="#BFC5D2"/>
<path d="M17.8441 13.3358C16.3645 13.3358 16.457 11.2686 17.8441 11.2686C19.2312 11.2686 19.2312 13.3358 17.8441 13.3358Z" fill="#BFC5D2"/>
<path d="M14.6532 5.76356C14.9829 2.99938 18.9393 1.86119 20.5878 4.46277C22.0715 6.65785 19.1042 8.03994 18.692 8.85294C18.3623 9.42203 18.5272 10.235 17.7029 10.235C16.549 10.235 16.7963 8.60904 17.5381 7.79604C18.1975 7.06435 20.0933 6.00746 18.8569 4.86927C18.3623 4.38147 16.8787 4.13758 16.3841 5.84486C15.972 7.06435 14.6532 6.57655 14.6532 5.76356Z" fill="#BFC5D2"/>
</svg>
