<svg width="23" height="23" viewBox="0 0 23 23" fill="none" xmlns="http://www.w3.org/2000/svg">
<path fill-rule="evenodd" clip-rule="evenodd" d="M12.3107 9.25866H9.84522V10.7325H10.3421V16.0189H9.84522V17.4927H12.809V16.0189H12.3107V9.25866ZM22.6303 11.5004C22.6303 5.21583 17.5695 0.121094 11.3269 0.121094C5.08421 0.121094 0.0234375 5.21583 0.0234375 11.5004C0.0234375 17.7849 5.08421 22.8797 11.3269 22.8797C17.5695 22.8797 22.6303 17.7849 22.6303 11.5004ZM11.3269 1.40923C16.8637 1.40923 21.3508 5.92635 21.3508 11.5004C21.3508 17.0744 16.8637 21.5915 11.3269 21.5915C5.79 21.5915 1.30299 17.0744 1.30299 11.5004C1.30299 5.92635 5.79 1.40923 11.3269 1.40923ZM10.1848 6.65872C10.1848 7.29323 10.6961 7.80757 11.3269 7.80757C11.9567 7.80757 12.4681 7.29323 12.4681 6.65872C12.4681 6.02376 11.9567 5.50896 11.3269 5.50896C10.6961 5.5085 10.1848 6.0233 10.1848 6.65872Z" fill="#01579B"/>
</svg>
