<svg width="25" height="24" viewBox="0 0 25 24" fill="none" xmlns="http://www.w3.org/2000/svg">
<path d="M14.2405 20.0454C13.5398 20.3017 12.7868 20.4416 12.0029 20.4416C11.2198 20.4416 10.4676 20.302 9.76755 20.0462C9.48943 20.5175 9.13943 20.9384 8.729 21.2962C9.73329 21.7486 10.8402 22.0001 12.0028 22.0001C13.1651 22.0001 14.2718 21.7488 15.276 21.2965C14.8615 20.9339 14.5145 20.51 14.2405 20.0454Z" fill="#BFC5D2"/>
<path d="M7.60263 8.11086C7.35188 7.63215 7.1715 7.10809 7.07601 6.55396C5.29685 7.93189 4.06882 10.0361 3.80176 12.4399C4.30242 12.2518 4.82995 12.147 5.36343 12.1317C5.65185 10.5362 6.46205 9.12952 7.60263 8.11086Z" fill="#BFC5D2"/>
<path d="M18.6376 12.1317C19.171 12.1469 19.6985 12.2518 20.1993 12.4399C19.9322 10.0362 18.7042 7.93189 16.9251 6.55396C16.8296 7.10809 16.6492 7.63215 16.3984 8.11086C17.539 9.12952 18.3492 10.5362 18.6376 12.1317Z" fill="#BFC5D2"/>
<path d="M12.001 9.2728C13.9348 9.2728 15.5025 7.64473 15.5025 5.6364C15.5025 3.62807 13.9348 2 12.001 2C10.0672 2 8.49951 3.62807 8.49951 5.6364C8.49951 7.64473 10.0672 9.2728 12.001 9.2728Z" fill="#BFC5D2"/>
<path d="M3.75135 14.1755C2.07658 15.1796 1.50279 17.4037 2.4697 19.1429C3.11828 20.3095 4.29523 20.9617 5.5054 20.9617C6.09935 20.9617 6.70146 20.8046 7.25284 20.4739C8.92756 19.4698 9.50141 17.2457 8.53449 15.5065C7.88592 14.3398 6.70901 13.6876 5.49879 13.6877C4.90484 13.6877 4.30268 13.8449 3.75135 14.1755Z" fill="#BFC5D2"/>
<path d="M15.4653 15.5066C14.4984 17.2459 15.0722 19.4698 16.7469 20.474C17.2984 20.8046 17.9004 20.9618 18.4944 20.9618C19.7045 20.9618 20.8815 20.3096 21.53 19.143C22.4969 17.4038 21.9232 15.1797 20.2484 14.1755C19.697 13.8449 19.0951 13.6877 18.501 13.6877C17.2909 13.6878 16.1138 14.3401 15.4653 15.5066Z" fill="#BFC5D2"/>
</svg>
