<svg width="25" height="24" viewBox="0 0 25 24" fill="none" xmlns="http://www.w3.org/2000/svg">
<path fill-rule="evenodd" clip-rule="evenodd" d="M21.9388 4.76224C21.9108 4.62238 21.8549 4.48252 21.7989 4.34266C21.7849 4.31469 21.771 4.27972 21.757 4.24476C21.743 4.20979 21.729 4.17483 21.715 4.14685C21.6031 3.95105 21.4912 3.78322 21.3234 3.64336C21.2115 3.53147 21.0996 3.44755 20.9877 3.36364C20.903 3.30008 20.8022 3.25257 20.7097 3.20895C20.68 3.19498 20.6513 3.18141 20.6241 3.16783C20.3724 3.05594 20.0647 3 19.757 3H4.26047C3.95278 3 3.67306 3.05594 3.39333 3.16783C3.25347 3.22378 3.14159 3.27972 3.0297 3.36364L3.0297 3.36364C2.91781 3.44755 2.80592 3.53147 2.69403 3.64336C2.55417 3.78322 2.41431 3.97902 2.30243 4.14685C2.28844 4.17483 2.27445 4.20979 2.26047 4.24476C2.24648 4.27972 2.2325 4.31469 2.21851 4.34266C2.16257 4.48252 2.10662 4.62238 2.07865 4.76224C2.07865 4.79021 2.07166 4.81818 2.06466 4.84615C2.05767 4.87413 2.05068 4.9021 2.05068 4.93007L2.02271 5.7972V14.2448C2.02271 14.3846 2.05068 14.5524 2.07865 14.6923C2.10662 14.8322 2.16257 14.972 2.21851 15.1119C2.2325 15.1399 2.24648 15.1748 2.26047 15.2098C2.27445 15.2448 2.28844 15.2797 2.30243 15.3077C2.41431 15.5035 2.5262 15.6713 2.69403 15.8112C2.80592 15.9231 2.9178 16.007 3.02969 16.0909L3.0297 16.0909C3.11443 16.1545 3.21521 16.202 3.30773 16.2456L3.30774 16.2456C3.33739 16.2596 3.36619 16.2731 3.39333 16.2867C3.64508 16.3986 3.95278 16.4545 4.26047 16.4545H12.9318L14.0786 17.5734L14.9178 18.3566L17.3514 20.7063V16.3986H19.7849C20.0926 16.3986 20.3724 16.3427 20.6521 16.2308C20.7919 16.1748 20.9038 16.1189 21.0157 16.035C21.1276 15.951 21.2395 15.8671 21.3514 15.7552C21.4912 15.6154 21.6311 15.4196 21.743 15.2517C21.757 15.2238 21.771 15.1888 21.7849 15.1539L21.7849 15.1538L21.7849 15.1538C21.7989 15.1189 21.8129 15.0839 21.8269 15.0559C21.8828 14.9161 21.9388 14.7762 21.9668 14.6364C21.9947 14.4965 22.0227 14.3566 22.0227 14.1888V5.20979C22.0087 5.13986 21.9947 5.06294 21.9807 4.98601C21.9668 4.90909 21.9528 4.83217 21.9388 4.76224ZM13.0227 10C13.0227 10.5523 12.575 11 12.0227 11C11.4704 11 11.0227 10.5523 11.0227 10C11.0227 9.44772 11.4704 9 12.0227 9C12.575 9 13.0227 9.44772 13.0227 10ZM8.0227 11C8.57499 11 9.02271 10.5523 9.02271 10C9.02271 9.44772 8.57499 9 8.0227 9C7.47042 9 7.02271 9.44772 7.02271 10C7.02271 10.5523 7.47042 11 8.0227 11ZM17.0227 10C17.0227 10.5523 16.575 11 16.0227 11C15.4704 11 15.0227 10.5523 15.0227 10C15.0227 9.44772 15.4704 9 16.0227 9C16.575 9 17.0227 9.44772 17.0227 10Z" fill="#BFC5D2"/>
</svg>
