<svg width="51" height="41" viewBox="0 0 51 41" fill="none" xmlns="http://www.w3.org/2000/svg">
<path fill-rule="evenodd" clip-rule="evenodd" d="M4.22618 0.00390625H45.7992C48.1263 0.00390625 50.0127 1.88243 50.0127 4.19971V35.8081C50.0127 38.1254 48.1263 40.0039 45.7992 40.0039H4.22618C1.89914 40.0039 0.0126953 38.1254 0.0126953 35.8081V4.19971C0.0126953 1.88243 1.89914 0.00390625 4.22618 0.00390625ZM5.35089 2.80103C3.95467 2.80103 2.8228 3.92814 2.8228 5.31851V34.6891C2.8228 36.0795 3.95467 37.2066 5.35089 37.2066H44.6768C46.073 37.2066 47.2048 36.0795 47.2048 34.6891V5.31851C47.2048 3.92814 46.073 2.80103 44.6768 2.80103H5.35089Z" fill="#BFC5D2"/>
<path fill-rule="evenodd" clip-rule="evenodd" d="M19.167 24.2085L15.0064 20.2691L7.03613 28.0097V31.1074C7.03613 32.1586 7.95309 33.0108 9.0842 33.0108H40.9431C42.0742 33.0108 42.9912 32.1586 42.9912 31.1074V21.3168L32.4871 11.104L19.167 24.2085Z" fill="#BFC5D2"/>
<path fill-rule="evenodd" clip-rule="evenodd" d="M11.8114 16.5073C14.4487 16.5073 16.5867 14.3783 16.5867 11.7521C16.5867 9.12582 14.4487 6.99683 11.8114 6.99683C9.1741 6.99683 7.03613 9.12582 7.03613 11.7521C7.03613 14.3783 9.1741 16.5073 11.8114 16.5073Z" fill="#BFC5D2"/>
</svg>
