<svg width="20" height="21" viewBox="0 0 20 21" fill="none" xmlns="http://www.w3.org/2000/svg">
    <path d="M11 11.0039H9V5.00391H11V11.0039ZM11 15.0039H9V13.0039H11V15.0039ZM10 0.00390625C8.68678 0.00390625 7.38642 0.262564 6.17317 0.765111C4.95991 1.26766 3.85752 2.00425 2.92893 2.93284C1.05357 4.8082 0 7.35174 0 10.0039C0 12.6561 1.05357 15.1996 2.92893 17.075C3.85752 18.0036 4.95991 18.7402 6.17317 19.2427C7.38642 19.7452 8.68678 20.0039 10 20.0039C12.6522 20.0039 15.1957 18.9503 17.0711 17.075C18.9464 15.1996 20 12.6561 20 10.0039C20 8.69069 19.7413 7.39033 19.2388 6.17707C18.7362 4.96382 17.9997 3.86142 17.0711 2.93284C16.1425 2.00425 15.0401 1.26766 13.8268 0.765111C12.6136 0.262564 11.3132 0.00390625 10 0.00390625Z" fill="#BFC5D2"/>
</svg>