<svg width="25" height="25" viewBox="0 0 25 25" fill="none" xmlns="http://www.w3.org/2000/svg">
    <path d="M19.8356 10.5394V9.98526C19.8356 6.1445 16.725 3.01074 12.9127 3.01074C9.10028 3.01074 5.98969 6.1445 5.98969 9.98526V10.5394C4.7758 10.998 3.90332 12.1827 3.90332 13.5585C3.90332 15.3356 5.34481 16.7878 7.10875 16.7878H8.26573C8.56921 16.7878 8.81578 16.5394 8.81578 16.2337V10.8834C8.81578 10.5776 8.56921 10.3292 8.26573 10.3292H7.73466V9.98526C7.73466 7.09991 10.0486 4.7687 12.9127 4.7687C15.7767 4.7687 18.0906 7.09991 18.0906 9.98526V10.3292H17.5596C17.2561 10.3292 17.0095 10.5776 17.0095 10.8834V16.2337C17.0095 16.5394 17.2561 16.7878 17.5596 16.7878H17.8061C17.2561 18.0681 16.0422 18.9662 14.6007 19.0808C14.5248 18.7177 14.2024 18.4311 13.8041 18.4311H12.0022C11.547 18.4311 11.1867 18.7942 11.1867 19.2528V20.1891C11.1867 20.6477 11.547 21.0107 12.0022 21.0107H13.8041C14.2024 21.0107 14.5438 20.7241 14.6007 20.3228C16.744 20.2082 18.5269 18.7369 19.1338 16.7496C20.6891 16.5394 21.903 15.1827 21.903 13.5585C21.922 12.1636 21.0495 10.998 19.8356 10.5394Z" fill="#BFC5D2"/>
    <path d="M11.6147 10.8087C11.6147 10.4622 11.7788 10.1156 12.0836 9.87737C12.3884 9.63912 12.7635 9.55248 13.162 9.61746C13.6778 9.70409 14.1233 10.094 14.1936 10.5705C14.3342 11.2636 13.8419 11.7834 13.3027 11.9351C12.5525 12.1517 12.0602 12.8014 12.0602 13.5595V13.9512C12.0602 14.3844 12.4353 14.7309 12.9042 14.7309C13.373 14.7309 13.7481 14.3844 13.7481 13.9512V13.5595C13.7481 13.4946 13.795 13.4296 13.8185 13.4296C15.2486 12.9964 16.116 11.6751 15.8581 10.2889C15.6471 9.1626 14.6625 8.25289 13.4434 8.05795C12.5525 7.90633 11.6616 8.12293 10.9817 8.66442C10.3019 9.18426 9.90332 9.96401 9.90332 10.7871C9.90332 11.2203 10.2784 11.5668 10.7473 11.5668C11.2396 11.5885 11.6147 11.2419 11.6147 10.8087Z" fill="#BFC5D2"/>
    <path d="M12.9033 17.0107C13.4556 17.0107 13.9033 16.563 13.9033 16.0107C13.9033 15.4585 13.4556 15.0107 12.9033 15.0107C12.351 15.0107 11.9033 15.4585 11.9033 16.0107C11.9033 16.563 12.351 17.0107 12.9033 17.0107Z" fill="#BFC5D2"/>
</svg>