<svg width="25" height="25" viewBox="0 0 25 25" fill="none" xmlns="http://www.w3.org/2000/svg">
    <path fill-rule="evenodd" clip-rule="evenodd" d="M12.9033 22.0107C7.38047 22.0107 2.90332 17.5336 2.90332 12.0107C2.90332 6.48789 7.38047 2.01074 12.9033 2.01074C18.4262 2.01074 22.9033 6.48789 22.9033 12.0107C22.9033 17.5336 18.4262 22.0107 12.9033 22.0107ZM16.2187 12.8441H9.58797C9.77218 17.0975 11.3423 20.3441 12.9033 20.3441C14.4643 20.3441 16.0345 17.0975 16.2187 12.8441ZM9.58797 11.1774H16.2187C16.0345 6.92403 14.4643 3.67741 12.9033 3.67741C11.3423 3.67741 9.77218 6.92403 9.58797 11.1774ZM7.91939 12.8441H4.61113C4.91673 15.922 6.89708 18.5073 9.62805 19.6758C8.64594 18.0016 8.02502 15.5677 7.91939 12.8441ZM4.61113 11.1774H7.91939C8.02502 8.45375 8.64594 6.01987 9.62805 4.34571C6.89708 5.51417 4.91673 8.09945 4.61113 11.1774ZM21.1955 12.8441H17.8872C17.7816 15.5677 17.1607 18.0016 16.1786 19.6758C18.9096 18.5073 20.8899 15.922 21.1955 12.8441ZM17.8872 11.1774H21.1955C20.8899 8.09945 18.9096 5.51417 16.1786 4.34571C17.1607 6.01987 17.7816 8.45375 17.8872 11.1774Z" fill="#BFC5D2"/>
</svg>