<svg width="18" height="16" viewBox="0 0 18 16" fill="none" xmlns="http://www.w3.org/2000/svg">
<path d="M9 -6.10352e-05C11.5779 -6.10352e-05 13.7377 2.12383 13.7377 4.8141C13.7377 6.23003 13.041 7.50436 12.0656 8.42472C15.1311 9.13268 17.5 11.9645 17.5 15.292C17.5 15.7168 17.1516 15.9999 16.7336 15.9999H1.19672C0.778689 15.9999 0.5 15.646 0.5 15.2212C0.569672 11.8937 2.86885 9.13268 5.93443 8.42472C4.95902 7.50436 4.2623 6.23003 4.2623 4.8141C4.2623 2.12383 6.42213 -6.10352e-05 9 -6.10352e-05ZM10.4631 9.76985H7.53689C4.81967 9.76985 2.45082 11.7522 2.03279 14.5132H15.9672C15.5492 11.7522 13.1803 9.76985 10.4631 9.76985ZM9 1.48666C7.2582 1.48666 5.79508 2.97339 5.79508 4.8141C5.79508 6.58401 7.18852 8.07073 9 8.07073C10.7418 8.07073 12.2049 6.58401 12.2049 4.8141C12.2049 2.97339 10.7418 1.48666 9 1.48666Z" fill="#01579B"/>
</svg>
