<svg width="15" height="18" viewBox="0 0 15 18" fill="none" xmlns="http://www.w3.org/2000/svg">
<path d="M13.5937 1.19368H11.1873V0.511579C11.1873 0.227368 10.96 0 10.6758 0C10.3916 0 10.1642 0.227368 10.1642 0.511579V1.19368H7.73892V0.511579C7.73892 0.227368 7.51155 0 7.22734 0C6.94313 0 6.71576 0.227368 6.71576 0.511579V1.19368H4.2905V0.511579C4.2905 0.227368 4.06313 0 3.77892 0C3.49471 0 3.26734 0.227368 3.26734 0.511579V1.19368H0.861028C0.406291 1.19368 0.0273438 1.57263 0.0273438 2.02737V17.1663C0.0273438 17.6211 0.406291 18 0.861028 18H13.5937C14.0484 18 14.4273 17.6211 14.4273 17.1663V2.02737C14.4273 1.57263 14.0484 1.19368 13.5937 1.19368ZM13.4042 16.9768H1.0505V2.21684H3.26734V2.89895C3.26734 3.18316 3.49471 3.41053 3.77892 3.41053C4.06313 3.41053 4.2905 3.18316 4.2905 2.89895V2.21684H6.71576V2.89895C6.71576 3.18316 6.94313 3.41053 7.22734 3.41053C7.51155 3.41053 7.73892 3.18316 7.73892 2.89895V2.21684H10.1642V2.89895C10.1642 3.18316 10.3916 3.41053 10.6758 3.41053C10.96 3.41053 11.1873 3.18316 11.1873 2.89895V2.21684H13.4042V16.9768Z" fill="#01579B"/>
<path d="M3.43707 7.5414C3.53181 7.65509 3.66444 7.71193 3.81602 7.71193C3.9676 7.71193 4.10023 7.65509 4.19497 7.5414L5.36971 6.27193C5.55918 6.06351 5.55918 5.7414 5.35076 5.55193C5.14234 5.36246 4.82023 5.36246 4.63076 5.57088L3.81602 6.44246L3.56971 6.17719C3.38023 5.96877 3.05813 5.96877 2.84971 6.15825C2.64128 6.34772 2.62234 6.66983 2.83076 6.87825L3.43707 7.5414Z" fill="#01579B"/>
<path d="M4.61181 9.11385L3.81602 9.96648L3.56971 9.70122C3.38023 9.49279 3.05813 9.47385 2.84971 9.68227C2.64128 9.87174 2.62234 10.1938 2.83076 10.4023L3.43707 11.0844C3.53181 11.1981 3.66444 11.2549 3.81602 11.2549C3.9676 11.2549 4.10023 11.1981 4.19497 11.0844L5.36971 9.8149C5.55918 9.60648 5.55918 9.28437 5.35076 9.0949C5.14234 8.90543 4.80129 8.90543 4.61181 9.11385Z" fill="#01579B"/>
<path d="M4.61181 12.6572L3.81602 13.5098L3.56971 13.2446C3.38023 13.0361 3.05813 13.0172 2.84971 13.2256C2.64128 13.4151 2.62234 13.7372 2.83076 13.9456L3.45602 14.6088C3.55076 14.7225 3.68339 14.7793 3.83497 14.7793C3.98655 14.7793 4.11918 14.7225 4.21392 14.6088L5.38865 13.3393C5.57813 13.1309 5.57813 12.8088 5.36971 12.6193C5.14234 12.4298 4.80128 12.4488 4.61181 12.6572Z" fill="#01579B"/>
<path d="M11.2455 9.58789H6.79283C6.50862 9.58789 6.28125 9.81526 6.28125 10.0995C6.28125 10.3837 6.50862 10.611 6.79283 10.611H11.2644C11.5486 10.611 11.776 10.3837 11.776 10.0995C11.757 9.81526 11.5297 9.58789 11.2455 9.58789Z" fill="#01579B"/>
<path d="M6.79283 6.04492C6.50862 6.04492 6.28125 6.27229 6.28125 6.5565C6.28125 6.84071 6.50862 7.06808 6.79283 7.06808H11.2644C11.5486 7.06808 11.776 6.84071 11.776 6.5565C11.776 6.27229 11.5486 6.04492 11.2644 6.04492H6.79283Z" fill="#01579B"/>
<path d="M11.2455 13.1309H6.79283C6.50862 13.1309 6.28125 13.3582 6.28125 13.6424C6.28125 13.9266 6.50862 14.154 6.79283 14.154H11.2644C11.5486 14.154 11.776 13.9266 11.776 13.6424C11.776 13.3582 11.5297 13.1309 11.2455 13.1309Z" fill="#01579B"/>
</svg>
