<svg width="25" height="24" viewBox="0 0 25 24" fill="none" xmlns="http://www.w3.org/2000/svg">
<path d="M12 2L4 5.63636V11.0909C4 16.1364 7.41333 20.8545 12 22C16.5867 20.8545 20 16.1364 20 11.0909V5.63636L12 2ZM12 6.54545C12.7072 6.54545 13.3855 6.83279 13.8856 7.34425C14.3857 7.85572 14.6667 8.54941 14.6667 9.27273C14.6667 9.99605 14.3857 10.6897 13.8856 11.2012C13.3855 11.7127 12.7072 12 12 12C11.2928 12 10.6145 11.7127 10.1144 11.2012C9.61428 10.6897 9.33333 9.99605 9.33333 9.27273C9.33333 8.54941 9.61428 7.85572 10.1144 7.34425C10.6145 6.83279 11.2928 6.54545 12 6.54545ZM16.4444 16.0909C15.3689 17.7727 13.8756 19.1091 12 19.7273C10.1244 19.1091 8.63111 17.7727 7.55556 16.0909C7.25333 15.6364 7.11111 15.1818 7.11111 14.7273C7.11111 13.2273 9.07556 12.9091 12 12.9091C14.9244 12.9091 16.8889 13.2 16.8889 14.7273C16.8889 15.1818 16.7467 15.6364 16.4444 16.0909Z" fill="#BFC5D2"/>
</svg>
