<svg width="25" height="24" viewBox="0 0 25 24" fill="none" xmlns="http://www.w3.org/2000/svg">
<path fill-rule="evenodd" clip-rule="evenodd" d="M14.7202 4.67457C17.5441 5.4134 19.7833 7.28204 20.7044 9.65651C20.9855 10.384 21.5413 10.2456 21.5413 10.2456H22.032V13.9101H21.6804C21.6804 13.9101 21.0054 13.7201 20.7077 14.4906C19.7507 16.9689 17.3592 18.8968 14.3647 19.5682C13.5202 19.7572 13.6442 20.5061 13.6442 20.5061V20.999H10.3964V20.4539C10.3964 20.4539 10.4949 19.7527 9.6636 19.5653C6.64276 18.8841 4.23692 16.9234 3.30238 14.4102C3.06474 13.7708 2.54203 13.9104 2.54203 13.9104H2.03198V10.2459H2.58861C2.58861 10.2459 3.07203 10.3162 3.36466 9.58528C4.31998 7.20099 6.60797 5.33774 9.47617 4.6353C10.5011 4.38427 10.3964 3.54541 10.3964 3.54541V2.99902H13.6442V3.54541C13.6442 3.69355 13.6064 4.38334 14.7202 4.67457ZM12.6561 11.83H13.068V12.1785H12.6561V11.83ZM10.9741 11.83H11.386V12.1785H10.9741V11.83ZM11.7987 12.5236H12.2106V12.8721H11.7987V12.5236ZM11.7987 11.2083H12.2106V11.5568H11.7987V11.2083ZM17.9416 7.62771L13.4372 11.5153L13.6002 11.7553L18.1044 7.86765L17.9416 7.62771ZM17.2885 6.90406L12.784 10.7917L12.947 11.0316L17.4512 7.14401L17.2885 6.90406ZM10.8894 13.1294L6.38493 17.0171L6.54793 17.257L11.0521 13.3694L10.8894 13.1294ZM10.3448 12.3789L5.84035 16.2665L6.00335 16.5065L10.5075 12.6188L10.3448 12.3789ZM13.0699 13.0611L17.5744 16.9487L17.4114 17.1886L12.9072 13.301L13.0699 13.0611ZM13.6201 12.3264L18.1246 16.214L17.9616 16.4539L13.4574 12.5663L13.6201 12.3264ZM6.08584 7.66948L10.5903 11.5571L10.4273 11.7971L5.92311 7.90945L6.08584 7.66948ZM6.71095 6.94584L11.2154 10.8335L11.0524 11.0734L6.54821 7.1858L6.71095 6.94584ZM12.0857 10.6619L8.43192 7.23359C8.20635 7.02119 7.98583 5.57073 9.75703 5.57073C11.0457 5.57073 11.5894 6.00822 11.102 6.96863C10.9402 7.28741 11.0757 8.48114 12.1385 8.45994C13.0884 8.44093 13.1263 7.29026 12.988 6.9069C12.6252 5.90406 13.3482 5.48083 14.4803 5.63751C16.1696 5.87083 15.8579 7.17124 15.2019 7.74958C14.5462 8.32761 12.0857 10.6619 12.0857 10.6619ZM12.0857 13.4457L8.43192 16.874C8.20635 17.0864 7.98583 18.5369 9.75703 18.5369C11.0457 18.5369 11.5894 18.0994 11.102 17.1389C10.9402 16.8202 11.0757 15.6264 12.1385 15.6476C13.0884 15.6666 13.1263 16.8173 12.988 17.2007C12.6252 18.2035 13.3482 18.6267 14.4803 18.4701C16.1696 18.2368 15.8579 16.9363 15.2019 16.358C14.5462 15.78 12.0857 13.4457 12.0857 13.4457ZM14.4304 12.0332L18.0078 14.9487C18.2292 15.1288 19.7429 15.3048 19.7429 13.8914C19.7429 12.8632 19.0936 12.2595 18.2842 12.8183C17.8939 13.0861 17.0393 13.1 17.0831 11.9541C17.1246 10.8645 18.0614 11.0551 18.3487 11.3134C19.0283 11.9256 19.8366 11.0259 19.6733 10.1225C19.4297 8.77459 18.0727 9.0234 17.4695 9.54666C16.8662 10.0699 14.4304 12.0332 14.4304 12.0332ZM9.52471 12.0259L5.94724 14.9414C5.72588 15.1215 4.21224 15.2975 4.21224 13.8841C4.21224 12.8559 4.86147 12.2523 5.67089 12.811C6.06115 13.0788 6.91575 13.0927 6.87198 11.9468C6.83046 10.8572 5.89365 11.0478 5.60637 11.3061C4.92683 11.9183 4.11854 11.0186 4.28181 10.1152C4.52535 8.76731 5.88243 9.01613 6.48565 9.53939C7.08885 10.0626 9.52471 12.0259 9.52471 12.0259Z" fill="#BFC5D2"/>
</svg>
