<svg width="25" height="24" viewBox="0 0 25 24" fill="none" xmlns="http://www.w3.org/2000/svg">
<path d="M15.394 7.2V0H4.59404C3.87404 0 3.39404 0.48 3.39404 1.2V22.8C3.39404 23.52 3.87404 24 4.59404 24H21.394C22.114 24 22.594 23.52 22.594 22.8V7.2H15.394ZM9.39404 2.4C10.714 2.4 11.794 3.48 11.794 4.8C11.794 6.12 10.714 7.2 9.39404 7.2C8.07404 7.2 6.99404 6.12 6.99404 4.8C6.99404 3.48 8.07404 2.4 9.39404 2.4ZM5.79404 10.32C5.79404 7.8 12.994 7.8 12.994 10.32V12H5.79404V10.32ZM16.594 21.6H6.99404C6.27404 21.6 5.79404 21.12 5.79404 20.4C5.79404 19.68 6.27404 19.2 6.99404 19.2H16.594C17.314 19.2 17.794 19.68 17.794 20.4C17.794 21.12 17.194 21.6 16.594 21.6ZM18.994 16.8H6.99404C6.27404 16.8 5.79404 16.32 5.79404 15.6C5.79404 14.88 6.27404 14.4 6.99404 14.4H18.994C19.714 14.4 20.194 14.88 20.194 15.6C20.194 16.32 19.594 16.8 18.994 16.8Z" fill="#BFC5D2"/>
<path d="M17.7944 0V4.8H22.5944L17.7944 0Z" fill="#BFC5D2"/>
</svg>
