<svg width="25" height="24" viewBox="0 0 25 24" fill="none" xmlns="http://www.w3.org/2000/svg">
<path d="M9.28335 5.84211C10.2475 5.84211 11.1722 6.24135 11.8539 6.95202C12.5357 7.66268 12.9187 8.62655 12.9187 9.63158C12.9187 10.6366 12.5357 11.6005 11.8539 12.3111C11.1722 13.0218 10.2475 13.4211 9.28335 13.4211C8.3192 13.4211 7.39454 13.0218 6.71279 12.3111C6.03103 11.6005 5.64802 10.6366 5.64802 9.63158C5.64802 8.62655 6.03103 7.66268 6.71279 6.95202C7.39454 6.24135 8.3192 5.84211 9.28335 5.84211ZM9.28335 15.3158C11.7099 15.3158 16.554 16.5853 16.554 19.1053V21H2.0127V19.1053C2.0127 16.5853 6.85677 15.3158 9.28335 15.3158ZM16.3359 6.18316C18.1717 8.26737 18.1717 11.1568 16.3359 13.0705L14.8091 11.4695C15.5725 10.3516 15.5725 8.90211 14.8091 7.78421L16.3359 6.18316ZM19.3441 3C22.9158 6.83684 22.8886 12.5779 19.3441 16.2632L17.8627 14.7189C20.3802 11.7063 20.3802 7.40526 17.8627 4.54421L19.3441 3Z" fill="white"/>
</svg>
